<?xml version="1.0" encoding="UTF-8" standalone="no"?>
<svg
   xmlns:dc="http://purl.org/dc/elements/1.1/"
   xmlns:cc="http://creativecommons.org/ns#"
   xmlns:rdf="http://www.w3.org/1999/02/22-rdf-syntax-ns#"
   xmlns:svg="http://www.w3.org/2000/svg"
   xmlns="http://www.w3.org/2000/svg"
   version="1.1"
   id="svg2"
   xml:space="preserve"
   width="622.9325"
   height="632.02667"
   viewBox="0 0 622.93249 632.02665"><metadata
     id="metadata8"><rdf:RDF><cc:Work
         rdf:about=""><dc:format>image/svg+xml</dc:format><dc:type
           rdf:resource="http://purl.org/dc/dcmitype/StillImage" /><dc:title></dc:title></cc:Work></rdf:RDF></metadata><defs
     id="defs6">

</defs><path
     d="M 8.5456688,632.97354 H 621.98565 V 0.94688913 H 8.5456688 Z"
     style="fill:#ffffff;fill-opacity:1;fill-rule:nonzero;stroke:none;stroke-width:0.13333333"
     id="path14" /><path
     d="m 134.79153,534.14848 h 7.29947 l 0.79733,-0.0613 h 0.79734 l 0.79866,0.0613 0.85867,-0.0613 h 0.79733 0.79734 l 0.79733,-0.0615 h 0.79733 l 0.85867,-0.0615 0.79733,0.0615 0.79734,-0.0615 0.79866,0.0615 0.79734,-0.0615 0.85866,-0.0609 h 0.79734 0.79733 l 0.79733,-0.24587 0.79734,0.0615 0.85866,-0.1224 0.79734,0.0609 h 0.79866 l 0.79734,-0.24533 0.79733,0.0615 0.79733,-0.24533 0.85867,-0.18387 0.79733,0.0609 0.79733,-0.1224 0.79734,-0.36814 0.79733,-0.18386 h 0.86 l 0.79733,-0.42974 h 0.79734 l 0.79733,-0.67453 0.79733,0.24533 0.85867,-0.67493 0.79733,-0.4292 0.79734,-0.3068 0.79733,-0.36813 0.79733,-0.6136 0.86,-0.55214 0.79734,0.12294 0.79733,-0.73587 0.79733,-1.35 h 0.79734 l 0.79733,-1.22667 0.85867,-0.49053 0.79733,-1.59533 h 0.79733 l 0.79734,-1.41094 0.79866,-1.22653 0.85867,-0.6136 0.79733,-2.1468 0.79734,-0.42973 0.79733,-1.77867 0.79733,-1.22707 0.85867,-2.3312 0.79733,-1.28813 0.79734,-2.20827 0.79866,-0.92026 0.79734,-1.4724 0.85866,-3.43494 0.79734,-2.02453 0.79733,-2.39307 0.79733,-2.63733 0.79734,-1.53333 0.79733,-2.63734 0.85867,-2.884 0.79866,-2.69866 0.79734,-3.00534 0.79733,-4.29466 0.79733,-1.53334 0.85867,-1.71866 0.79733,-4.784 0.79734,-1.22667 0.79733,-5.03067 0.79733,-2.76 0.86,-3.00666 0.79734,-5.336 0.79733,-4.23334 0.79733,-2.69866 0.79734,-3.74267 0.85866,-4.04933 0.79734,-4.6 0.79733,-1.288 0.79733,-5.46 0.79734,-4.29467 0.79733,-3.06666 0.86,-4.17067 0.79733,-3.252 0.79734,-5.09067 0.79733,-3.37466 0.79733,-3.55734 0.85867,-3.12933 0.79733,-4.35467 0.79734,-4.41733 0.79733,-3.55733 0.79867,-0.0613 0.85866,-5.52133 0.79734,-3.18933 0.79733,-4.04934 0.79733,-2.82133 0.79734,-2.39333 0.85866,-5.64267 0.79734,-3.252 0.79733,-2.14667 h 0.79867 l 0.79733,-5.092 0.79733,0.42934 0.85867,-4.048 0.79733,-0.30667 0.79734,-2.884 0.79733,2.332 0.79733,-0.61333 0.85867,-2.148 0.79867,-1.288 0.79733,-4.048 0.79733,2.08533 0.79734,-0.92 0.85866,3.06667 0.79734,-2.944 0.79733,-1.59467 0.79733,3.18933 0.79734,1.90134 0.79733,-0.98134 0.86,3.25067 0.79733,-4.10933 0.79734,6.38 0.79733,0.0613 0.79733,1.53333 0.85867,-0.49066 0.79733,3.74133 0.79734,0.92133 0.79733,5.336 0.79733,-0.79733 0.86,3.68133 0.79734,2.392 0.79733,0.736 0.79733,4.35467 0.79734,4.23333 0.85866,4.66267 0.79734,-0.368 0.79733,3.80267 0.79733,2.024 0.79867,4.356 0.79733,5.39866 0.85867,-0.368 0.79733,3.00534 0.79734,5.276 0.79733,1.34933 0.79733,7.60667 0.85867,0.30666 0.79733,4.84534 0.79867,2.884 0.79733,1.84 0.79734,6.31866 0.85866,2.57734 0.79734,3.18933 0.79733,3.00533 0.79733,2.7 0.79734,2.76 0.85866,4.54 0.79867,3.74133 0.79733,2.14667 0.79734,3.12933 0.79733,3.74134 0.79733,1.104 0.85867,3.62 0.79733,2.63733 0.79734,3.18933 0.79733,3.252 0.79733,1.656 0.86,2.576 0.79734,1.78 0.79733,3.312 0.79733,2.63867 0.79734,0.552 0.85866,2.944 0.79734,2.576 0.79733,2.02533 0.79733,1.71734 0.79734,2.45333 0.86,1.90133 0.79733,0.49067 0.79733,2.2088 0.79734,1.902 0.79733,1.288 0.79733,1.7792 0.85867,1.5948 0.79733,1.4724 0.79733,1.10413 0.79867,1.47187 0.79733,1.28853 0.85867,1.0428 0.79733,1.288 0.79734,1.1656 0.79733,1.0432 0.79733,0.91987 0.85867,0.7364 0.79733,0.91987 0.79867,0.98173 0.79733,0.79733 0.79734,0.67507 0.85866,0.552 0.79734,0.736 0.79733,0.6136 0.79733,1.04267 0.79734,0.18386 0.79733,0.552 0.86,0.73654 0.79733,0.4292 0.79734,0.4296 0.79733,0.24533 0.79733,0.55213 0.85867,0.552 0.79733,0.3068 0.79734,0.36774 0.79733,0.1844 0.79733,0.36773 0.86,0.24573 0.79734,0.30627 0.79733,0.24587 0.79733,0.30626 0.79734,0.24587 0.85866,0.1224 0.79734,0.2452 0.79733,0.12293 0.79733,0.24534 0.79734,0.12293 0.79866,0.18387 0.85867,0.18386 0.79733,0.0615 0.79734,0.18387 0.79733,0.12293 0.79733,0.0613 0.85867,0.1224 0.79733,0.0615 0.79734,0.12293 0.79866,0.0609 0.79734,0.0615 0.85866,0.12294 0.79734,0.0609 0.79733,0.0615 0.79733,0.0615 h 0.79734 l 0.85866,0.0615 0.79734,0.0615 0.79866,0.0609 h 0.79734 l 0.79733,0.0615 0.79733,0.0615 h 0.85867 0.79733 l 0.79734,0.0615 h 0.79733 l 0.79733,0.0615 h 0.86 0.79734 l 0.79733,0.0609 h 0.79733 0.79734 0.85866 l 0.79734,0.0615 h 0.79733 0.79733 0.79734 0.79733 0.86 l 0.79733,0.0615 h 0.79734 0.79733 0.79733 0.85867 0.79733 0.79734 0.79733 0.79867 0.85866 0.79734 0.79733 0.79733 l 0.79734,0.0613 h 0.85866 0.79734 0.79733 0.79867 0.79733 0.79733 0.85867 0.79733 0.79734 0.79733 0.79733 0.85867 0.79867 0.79733 0.79733 0.79734 0.85866 0.79734 0.79733 0.79733 0.79734 0.86 0.79733 0.79733 0.79734 0.79733 0.79733 0.85867 0.79733 0.79734 0.79733 0.79733 0.86 0.79734 0.79733 0.79733 0.79734 0.85866 0.79734 0.79733 0.79733 0.79867 0.85867 0.79733 0.79733 0.79734 0.79733 0.79733 0.85867 0.79733 0.79867 0.79733 0.79734 0.85866 0.79734 0.79733 0.79733 0.79734 0.85866 0.79867 0.79733 0.79734 0.79733 0.85867 0.79733 0.79733 0.79734 0.79733 0.79733 0.86 0.79734 0.79733 0.79733 0.79733 0.85867 0.79733 0.79734 0.79733 0.79733 0.86 0.79734 0.79733 0.79733 0.79734 0.85866 0.79734 0.79733 0.79733 0.79867 0.79733 0.85867 0.79733 0.79734 0.79733 0.79733 0.85867 0.79733 0.79867 0.79733 0.79734 0.85866 0.79734 0.79733 0.79733 0.79734 0.85866 0.79867 0.79733 0.79734 0.79733 0.79733 0.85867 0.79733 0.79734 0.79733 0.79733 0.86 0.79734 0.79733 0.79733 0.79734 0.85866 0.79734 0.79733 0.79733 0.79734 0.79866 0.85867 0.79733 0.79734 0.79733 0.79733 0.85867 0.79733 0.79734 0.79866 0.79734 0.85866 0.79734 0.79733 0.79733 0.79734 0.85866 0.79734 0.79866 0.79734 0.79733 0.79733 0.85867 0.79733 0.79734 0.79733 0.79733 0.85867 0.79867 0.79733 0.79733 0.79734 0.85866 0.79734 0.79733 0.79733 0.79734 0.86 0.79733 0.79733 0.79734 0.79733 0.79733 0.85867 0.79733 0.79734 0.79733 0.79867 0.85866 0.79734 0.79733 0.79733 0.79734 0.85866 0.79734 0.79733 0.79867 0.79733 0.85867 0.79733 0.79733 0.79734 0.79733 0.79733 0.85867 0.79867"
     style="fill:none;stroke:#000000;stroke-width:0.92015994;stroke-linecap:butt;stroke-linejoin:miter;stroke-miterlimit:10;stroke-dasharray:none;stroke-opacity:1"
     id="path16" /><path
     d="M 134.79153,534.14848 H 201.963 l 0.79733,-0.0613 h 7.3 l 0.79733,-0.0615 h 0.79734 0.79733 0.86 0.79733 l 0.79734,-0.0615 h 0.79733 0.79733 0.85867 l 0.79733,-0.0609 h 0.79734 l 0.79733,-0.0615 h 0.79867 l 0.85866,-0.0615 h 0.79734 l 0.79733,-0.0615 0.79733,-0.0615 h 0.79734 l 0.85866,-0.0609 0.79734,-0.0615 0.79733,-0.0615 0.79867,-0.0615 0.79733,-0.1224 0.79733,-0.0615 0.85867,-0.0615 0.79733,-0.1224 0.79734,-0.0615 0.79733,-0.12294 0.79733,-0.1224 0.85867,-0.1228 0.79867,-0.1224 0.79733,-0.1844 0.79733,-0.1224 0.79734,-0.1844 0.85866,-0.1224 0.79734,-0.1844 0.79733,-0.24533 0.79733,-0.18387 0.79734,-0.18373 0.79733,-0.3068 0.86,-0.1844 0.79733,-0.36773 0.79734,-0.1844 0.79733,-0.3676 0.79733,-0.3068 0.85867,-0.42974 0.79733,-0.3068 0.79734,-0.42906 0.79733,-0.3068 0.79733,-0.55214 0.86,-0.36826 0.79734,-0.49054 0.79733,-0.6136 0.79733,-0.4292 0.79734,-0.49053 0.85866,-0.42973 0.79734,-0.8588 0.79733,-0.55214 0.79733,-0.73586 0.79867,-0.6136 0.79733,-0.55214 0.85867,-1.10413 0.79733,-0.79733 0.79734,-0.6136 0.79733,-1.10414 0.79733,-0.3068 0.85867,-1.34946 0.79733,-0.7364 0.79867,-1.10427 0.79733,-1.288 0.79734,-0.49067 0.85866,-1.22706 0.79734,-1.10414 0.79733,-1.22653 0.79733,-1.35 0.79734,-1.34947 0.85866,-0.85893 0.79867,-1.04267 0.79733,-1.65626 0.79734,-1.34947 0.79733,-1.0432 0.79733,-2.26867 0.85867,-1.10533 0.79733,-1.53333 0.79734,-1.288 0.79733,-1.16534 0.79733,-2.208 0.86,-1.596 0.79734,-2.208 0.79733,-0.92 0.79733,-1.35066 0.79734,-3.55734 0.85866,-0.92 0.79734,-1.288 0.79733,-1.84 0.79733,-2.208 0.79734,-1.044 0.86,-1.71733 0.79733,-4.232 0.79733,-1.044 0.79734,-1.34933 0.79733,-2.69867 0.79733,-1.34933 0.85867,-1.71867 0.79733,-1.656 0.79733,-2.69867 0.79867,-1.53333 0.79733,-1.71867 0.85867,-2.45333 0.79733,-1.41067 0.79734,-1.288 0.79733,-1.90266 0.79733,-2.26934 0.85867,-3.06666 0.79733,-1.59467 0.79867,-0.92133 0.79733,-2.208 0.79734,-2.51467 0.85866,-3.62 0.79734,-1.04266 0.79733,-2.26934 0.79733,2.88267 0.79734,-6.87067 0.79733,-1.59466 0.86,0.79733 0.79733,-2.08533 0.79734,-2.33067 0.79733,-4.84667 0.79733,0.736 0.85867,1.84 0.79733,-2.88266 0.79734,-0.67467 0.79733,-6.13467 0.79733,0.49067 0.86,-3.864 0.79734,0.0613 0.79733,-1.53466 0.79733,1.35066 0.79734,0.368 0.85866,-4.78533 0.79734,0.42933 0.79733,-3.25066 0.79733,1.22666 0.79734,-1.77866 0.79866,0.552 0.85867,-0.184 0.79733,-4.724 0.79734,2.208 0.79733,-0.30667 0.79733,-5.58133 0.85867,2.208 0.79733,0.49066 0.79734,0.12267 0.79866,-1.77867 0.79734,0.12267 0.85866,2.69867 0.79734,-1.41067 0.79733,0.79733 0.79733,0.49067 0.79734,-2.024 0.85866,2.82133 0.79734,-0.0613 0.79866,-1.104 0.79734,2.26933 0.79733,-2.45333 0.79733,3.43467 0.85867,-0.552 0.79733,-1.53334 0.79734,3.31334 0.79733,1.22666 0.79733,1.16534 0.86,1.96266 0.79734,1.22667 0.79733,-0.24533 0.79733,1.65733 0.79734,0.92 0.85866,-0.67467 0.79734,2.51467 0.79733,1.656 0.79733,0.30667 0.79734,3.804 0.79733,2.024 0.86,-1.104 0.79733,3.00533 0.79734,2.148 0.79733,-0.18533 0.79733,4.04933 0.85867,1.472 0.79733,2.516 0.79734,2.45333 0.79733,0.98134 0.79867,1.71733 0.85866,4.04933 0.79734,1.288 0.79733,0.0613 0.79733,4.41599 0.79734,1.964 0.85866,0.98134 0.79734,3.80266 0.79733,1.596 0.79867,3.80267 0.79733,1.84 0.79733,1.71867 0.85867,1.472 0.79733,3.06666 0.79734,0.98134 0.79733,2.944 0.79733,2.82266 0.85867,2.88267 0.79867,1.228 0.79733,2.82133 0.79733,3.06667 0.79734,-0.85867 0.85866,4.11067 0.79734,1.34933 0.79733,3.25067 0.79733,0.30667 0.79734,3.00666 0.86,2.024 0.79733,1.22667 0.79733,2.27067 0.79734,1.59466 0.79733,2.33067 0.79733,1.34933 0.85867,1.104 0.79733,1.78 0.79734,1.59427 0.79733,1.41107 0.79733,2.51506 0.86,0.79734 0.79734,1.65626 0.79733,1.04267 0.79733,1.35 0.79734,1.65627 0.85866,0.85893 0.79734,1.288 0.79733,0.9812 0.79733,1.28853 0.79867,1.288 0.85867,0.79747 0.79733,1.22707 0.79733,0.8588 0.79734,0.6136 0.79733,0.91973 0.79733,0.798 0.85867,0.61307 0.79733,0.79786 0.79867,0.9812 0.79733,0.49067 0.79734,0.55213 0.85866,0.552 0.79734,0.4912 0.79733,0.6744 0.79733,0.49067 0.79734,0.42973 0.85866,0.49054 0.79867,0.36826 0.79733,0.36774 0.79734,0.4912 0.79733,0.2452 0.85867,0.4292 0.79733,0.12293 0.79733,0.3068 0.79734,0.3068 0.79733,0.2452 0.79733,0.24533 0.86,0.18387 0.79734,0.24533 0.79733,0.12294 0.79733,0.18386 0.79733,0.1844 0.85867,0.1224 0.79733,0.1228 0.79734,0.1224 0.79733,0.12294 0.79733,0.1224 0.86,0.0615 0.79734,0.12294 0.79733,0.0609 0.79733,0.0615 0.79734,0.0615 0.85866,0.0615 0.79734,0.0615 0.79733,0.0609 0.79733,0.0615 0.79867,0.0615 h 0.79733 l 0.85867,0.0615 h 0.79733 l 0.79734,0.0615 h 0.79733 l 0.79733,0.0609 h 0.85867 0.79733 l 0.79867,0.0615 h 0.79733 0.79734 0.85866 0.79734 l 0.79733,0.0615 h 0.79733 0.79734 0.85866 0.79867 0.79733 0.79734 0.79733 0.79733 0.85867 l 0.79733,0.0613 h 0.79734 0.79733 0.79733 0.86 0.79734 0.79733 0.79733 0.79734 0.85866 0.79734 0.79733 0.79733 0.79734 0.79866 0.85867 0.79733 0.79734 0.79733 0.79733 0.85867 0.79733 0.79734 0.79866 0.79734 0.85866 0.79734 0.79733 0.79733 0.79734 0.85866 0.79734 0.79866 0.79734 0.79733 0.79733 0.85867 0.79733 0.79734 0.79733 0.79733 0.85867 0.79867 0.79733 0.79733 0.79734 0.85866 0.79734 0.79733 0.79733 0.79734 0.86 0.79733 0.79733 0.79734 0.79733 0.79733 0.85867 0.79733 0.79734 0.79733 0.79867 0.85866 0.79734 0.79733 0.79733 0.79734 0.85866 0.79734 0.79733 0.79867 0.79733 0.85867 0.79733 0.79733 0.79734 0.79733 0.79733 0.85867 0.79867"
     style="fill:none;stroke:#ff0000;stroke-width:0.92015994;stroke-linecap:butt;stroke-linejoin:miter;stroke-miterlimit:10;stroke-dasharray:none;stroke-opacity:1"
     id="path18" /><path
     d="M 134.79153,534.14848 H 289.379 l 0.79733,-0.0613 h 9.692 l 0.79733,-0.0615 h 0.79733 0.85867 0.79733 0.79867 0.79733 l 0.79734,-0.0615 h 0.85866 0.79734 l 0.79733,-0.0609 h 0.79733 0.79734 l 0.79733,-0.0615 h 0.86 0.79733 l 0.79734,-0.0615 0.79733,-0.0615 h 0.79733 0.85867 l 0.79733,-0.0615 0.79734,-0.0609 0.79733,-0.0615 0.79733,-0.0615 0.86,-0.0615 0.79734,-0.0615 0.79733,-0.0609 0.79733,-0.0615 0.79734,-0.0615 0.85866,-0.0615 0.79734,-0.1224 0.79733,-0.0615 0.79733,-0.12293 0.79734,-0.12227 0.79866,-0.0615 0.85867,-0.1224 0.79733,-0.1844 0.79734,-0.1224 0.79733,-0.1844 0.79733,-0.24533 0.85867,-0.1224 0.79733,-0.1844 0.79734,-0.18387 0.79866,-0.2452 0.79734,-0.24533 0.85866,-0.1844 0.79734,-0.3068 0.79733,-0.24533 0.79733,-0.30667 0.79734,-0.4292 0.85866,-0.24533 0.79734,-0.36827 0.79866,-0.49053 0.79734,-0.3068 0.79733,-0.6136 0.79733,-0.3068 0.85867,-0.61294 0.79733,-0.67506 0.79734,-0.4296 0.79733,-0.55214 0.79733,-0.61306 0.86,-0.61347 0.79734,-0.67507 0.79733,-0.91973 0.79733,-0.73653 0.79734,-0.8588 0.85866,-1.1656 0.79734,-0.79747 0.79733,-0.9812 0.79733,-1.22707 0.79734,-0.79746 0.79733,-1.10414 0.86,-1.65626 0.79733,-1.04267 0.79734,-1.28853 0.79733,-1.84014 0.79733,-0.98173 0.85867,-1.65627 0.79733,-1.47186 0.79734,-1.53387 0.79733,-2.08547 0.79867,-1.90253 0.85866,-1.22667 0.79734,-2.26933 0.79733,-2.944 0.79733,-1.16533 0.79734,-2.27067 0.85866,-2.944 0.79734,-1.47333 0.79733,-2.82134 0.79867,-1.53333 0.79733,-2.76 0.79733,-3.00667 0.85867,-3.37333 0.79733,-2.148 0.79734,-3.98667 0.79733,-2.26933 0.79733,-2.45333 0.85867,-2.27067 0.79867,-4.232 0.79733,-2.332 0.79733,-1.90133 0.79734,-7.72934 0.85866,-0.24533 0.79734,-4.60133 0.79733,-1.16534 0.79733,-6.80799 0.79734,-1.35067 0.86,-3.18933 0.79733,-5.15334 0.79733,-2.45333 0.79734,-4.29467 0.79733,-1.90133 0.79733,-4.724 0.85867,-5.64267 0.79733,-3.068 0.79734,-3.496 0.79733,-4.356 0.79733,1.22667 0.86,-6.624 0.79734,-2.02533 0.79733,-5.21334 0.79733,-2.94533 0.79734,-0.61333 0.85866,-5.52134 0.79734,-2.576 0.79733,-3.98666 0.79733,-1.28934 0.79867,-0.30666 0.85867,-4.048 0.79733,0.184 0.79733,-2.516 0.79734,-5.02934 0.79733,-1.53333 0.79733,-1.656 0.85867,-3.62 0.79733,-0.61333 0.79867,4.048 0.79733,-4.048 0.79734,-2.208 0.85866,-1.35067 0.79734,-2.26933 0.79733,3.00666 0.79733,-0.24533 0.79734,0.24533 0.85866,1.84 0.79867,-0.736 0.79733,-1.964 0.79734,6.196 0.79733,-2.88266 0.85867,5.88933 0.79733,-5.39867 0.79733,2.88267 0.79734,4.908 0.79733,2.69867 0.79733,0.736 0.86,2.14666 0.79734,3.436 0.79733,1.104 0.79733,1.90134 0.79733,3.31333 0.85867,2.392 0.79733,2.57733 0.79734,5.64267 0.79733,0.61333 0.79733,7.60667 0.86,2.08667 0.79734,3.37333 0.79733,2.76133 0.79733,6.072 0.79734,2.02534 0.85866,1.656 0.79734,5.33733 0.79733,4.66133 0.79733,4.29467 0.79867,3.68 0.79733,4.724 0.85867,3.61867 0.79733,1.964 0.79734,4.90666 0.79733,5.092 0.79733,3.06667 0.85867,3.37466 0.79733,4.72267 0.79867,1.104 0.79733,6.31867 0.79734,2.39333 0.85866,3.68 0.79734,2.63733 0.79733,4.60134 0.79733,0.49066 0.79734,4.47867 0.85866,0.92 0.79867,4.048 0.79733,5.21467 0.79734,1.104 0.79733,2.76 0.79733,2.148 0.85867,2.392 0.79733,1.77866 0.79734,3.436 0.79733,2.26947 0.79733,0.9812 0.86,2.39213 0.79734,2.45427 0.79733,0.2452 0.79733,3.43547 0.79734,1.34946 0.85866,1.77867 0.79734,0.0615 0.79733,1.65626 0.79733,1.34947 0.79734,1.1656 0.79866,0.98173 0.85867,2.024 0.79733,0.98174 0.79734,0.4292 0.79733,0.1844 0.79733,1.10413 0.85867,1.41093 0.79733,0.24534 0.79734,0.67453 0.79866,0.36813 0.79734,0.98187 0.85866,0.91973 0.79734,0.0615 0.79733,-0.18387 0.79733,0.85894 0.79734,0.61293 0.85866,0.36827 0.79734,0.49066 0.79866,0.24574 0.79734,0.61306 0.79733,-0.0609 0.79733,0.0609 0.85867,0.0615 0.79733,0.42973 0.79734,0.3676 h 0.79733 l 0.79733,-0.0615 0.85867,0.1844 0.79867,0.1224 0.79733,0.3068 0.79733,-0.24534 0.79734,0.24534 0.85866,0.12293 h 0.79734 l 0.79733,0.1224 0.79733,0.0615 h 0.79734 0.86 l 0.79733,0.0615 0.79733,0.12294 h 0.79734 l 0.79733,0.1224 0.79733,-0.0615 0.85867,0.0615 0.79733,-0.0615 0.79734,0.12293 0.79733,-0.0615 0.79867,0.0615 0.85866,0.0613 0.79734,-0.1228 h 0.79733 l 0.79733,0.1228 0.79734,-0.0613 0.85866,0.0613 0.79734,-0.0613 0.79733,0.0613 h 0.79867 l 0.79733,-0.0613 h 0.85867 l 0.79733,0.0613 h 0.79733 0.79734 l 0.79733,-0.0613 h 0.79733 0.85867 l 0.79867,0.0613"
     style="fill:none;stroke:#00ff00;stroke-width:0.92015994;stroke-linecap:butt;stroke-linejoin:miter;stroke-miterlimit:10;stroke-dasharray:none;stroke-opacity:1"
     id="path20" /><path
     d="m 134.79153,534.14848 h 246.78746 l 0.79734,-0.0613 h 8.09733 l 0.79733,-0.0615 h 0.85867 0.79733 0.79734 l 0.79733,-0.0615 h 0.79733 0.86 l 0.79734,-0.0609 h 0.79733 l 0.79733,-0.0615 h 0.79734 l 0.85866,-0.0615 0.79734,-0.0615 0.79733,-0.0615 0.79733,-0.0609 h 0.79867 l 0.85867,-0.12294 0.79733,-0.0615 0.79733,-0.0615 0.79734,-0.1224 0.79733,-0.0615 0.79733,-0.1224 0.85867,-0.1844 0.79733,-0.1224 0.79867,-0.1228 0.79733,-0.18386 0.79734,-0.1844 0.85866,-0.18387 0.79734,-0.24533 0.79733,-0.18387 0.79733,-0.3068 0.79734,-0.2452 0.85866,-0.3068 0.79867,-0.36827 0.79733,-0.4292 0.79734,-0.30666 0.79733,-0.4912 0.85867,-0.36774 0.79733,-0.7364 0.79733,-0.49066 0.79734,-0.49067 0.79733,-0.61347 0.79733,-0.736 0.86,-0.79733 0.79734,-0.73653 0.79733,-0.9812 0.79733,-0.98174 0.79733,-0.98133 0.85867,-1.10413 0.79733,-1.22707 0.79734,-0.9812 0.79733,-1.59533 0.79733,-0.85894 0.86,-1.65626 0.79734,-1.5948 0.79733,-1.77907 0.79733,-1.34947 0.79734,-2.14693 0.85866,-2.4536 0.79734,-1.71773 0.79733,-1.96307 0.79733,-2.20773 0.79867,-2.45467 0.79733,-2.14667 0.85867,-2.69866 0.79733,-3.55867 0.79734,-2.392 0.79733,-2.27067 0.79733,-3.496 0.85867,-3.37333 0.79733,-2.57733 0.79867,-5.39867 0.79733,-1.22667 0.79734,-4.6 0.85866,-3.49733 0.79734,-4.6 0.79733,-2.27067 0.79733,-7.79066 0.79734,-2.14667 0.85866,-7.91333 0.79867,-2.576 0.79733,0.552 0.79734,-7.97467 0.79733,-4.23333 0.79733,-5.704 0.85867,-4.78533 0.79733,-6.87067 0.79734,-0.42933 0.79733,-3.92667 0.79733,-9.63067 0.86,-2.576 0.79734,-1.65733 0.79733,-13.67867 0.79733,6.564 0.79734,-6.07333 0.85866,-1.596 0.79734,-16.56133 0.79733,-1.84134 0.79733,-3.43466 0.79734,-4.96934 0.79866,-6.196 0.85867,9.26267 0.79733,-2.63733 0.79734,-11.9 0.79733,-16.748 0.79733,1.28933 0.85867,13.12667 0.79733,-15.58134 0.79734,-3.00533 0.79866,-10.06 0.79734,10.91867 0.85866,14.29333 0.79734,-18.71067 0.79733,-31.10133 0.79733,16.68667 0.79734,14.35333 0.85866,-1.71733 0.79734,13.92533 0.79866,-2.024 0.79734,27.42133 0.79733,-21.04133 0.79733,-19.99867 0.85867,-12.63733 0.79733,26.13333 0.79734,29.62934 0.79733,-16.80934 0.79733,-32.08266 0.85867,18.096 0.79867,4.29466 0.79733,36.99067 0.79733,-67.11066 0.79734,42.20533 0.85866,13.864 0.79734,-30.36534 0.79733,25.70267 0.79733,20.06 0.79734,-10.49067 0.86,-26.99066 0.79733,22.94266 0.79733,29.936 0.79734,5.45867 0.79733,56.19066 0.79733,-36.25333 0.85867,30.05867 0.79733,-106.86133 0.79734,120.23466 0.79733,-48.21733 0.79867,29.016 0.85866,107.7816 0.79734,-157.34693 0.79733,-16.19467 0.79733,141.64266 0.79734,-108.88533 0.85866,140.78427 0.79734,-128.45493 0.79733,81.21999 0.79867,47.23494 0.79733,-114.8976 0.85867,-75.208 0.79733,190.1056 h 0.79733 l 0.79734,-85.02294 0.79733,-196.42399 0.79733,74.53333 0.85867,-21.348 0.79867,228.2616"
     style="fill:none;stroke:#0000ff;stroke-width:0.92015994;stroke-linecap:butt;stroke-linejoin:miter;stroke-miterlimit:10;stroke-dasharray:none;stroke-opacity:1"
     id="path22" /><path
     d="m 134.79153,110.87489 0.79734,52.756 0.85893,370.51759 0.79733,-283.9616 0.79787,283.9616 h 0.79747 l 0.79733,-190.53493 0.85893,190.53493 0.79734,-145.99893 0.79693,18.15733 0.79733,-95.94133 0.79734,27.85066 0.79866,110.17333 0.85867,-64.41066 0.79733,-46.99067 0.79734,-33.00266 0.79733,-122.44267 0.79733,88.028 0.85867,-160.04533 0.79733,188.08 0.79734,-59.32 0.79866,88.704 0.79734,-87.6 0.85866,-22.81867 0.79734,39.56667 0.79733,19.44533 0.79733,-140.90666 0.79734,108.02666 0.85866,-75.944 0.79734,108.272 0.79866,24.476 0.79734,-73.48933 0.79733,62.38667 0.79733,-48.09334 0.85867,-27.728 0.79733,52.14267 0.79733,8.89467 0.79734,-35.33467 0.79733,-0.91867 0.86,44.044 0.79733,-24.35333 0.79734,32.696 0.79733,-39.26 0.79733,57.54133 0.85867,-24.04666 0.79733,1.34933 0.79734,13.31067 0.79733,12.26933 0.79733,-0.736 0.86,6.012 0.79734,32.08266 0.79733,0.184 0.79733,-12.88266 0.79734,24.72266 0.79733,-3.37466 0.85867,13.92533 0.79733,-5.276 0.79733,21.65467 0.79734,1.16533 0.79866,5.092 0.85867,12.32933 0.79733,-1.22666 0.79734,13.06666 0.79733,3.43467 0.79733,7.54533 0.85867,2.08667 0.79733,7.60666 0.79734,3.98667 0.79866,8.52667 0.79734,6.38 0.85866,1.22666 0.79734,5.15334 0.79733,4.416 0.79733,3.86533 0.79734,5.58267 0.79733,3.80266 0.85867,3.436 0.79866,3.55734 0.79734,3.25066 0.79733,2.148 0.79733,4.10934 0.85867,3.49693 0.79733,1.7792 0.79734,3.31253 0.79733,1.59467 0.79733,2.33133 0.86,2.1468 0.79734,1.35 0.79733,1.5948 0.79733,1.84014 0.79734,1.4724 0.85866,1.288 0.79734,1.1656 0.79733,1.4724 0.79733,0.9204 0.79734,0.91973 0.79733,0.98173 0.86,0.79747 0.79733,0.79733 0.79734,0.6136 0.79733,0.67494 0.79733,0.61306 0.85867,0.4912 0.79733,0.49054 0.79734,0.4292 0.79733,0.36826 0.79867,0.4292 0.85866,0.24574 0.79734,0.30626 0.79733,0.24587 0.79733,0.24533 0.79734,0.24534 0.85866,0.1224 0.79734,0.18426 0.79733,0.18387 0.79867,0.12293 0.79733,0.1224 0.79733,0.12294 0.85867,0.0609 0.79733,0.12293 0.79734,0.0615 0.79733,0.1224 0.79733,0.0615 h 0.85867 l 0.79867,0.0615 0.79733,0.0615 h 0.79733 l 0.79734,0.0615 0.85866,0.0609 h 0.79734 0.79733 l 0.79733,0.0615 h 0.79734 0.79733 0.86 l 0.79733,0.0615 h 0.79734 0.79733 0.79733 0.85867 0.79733 0.79734 0.79733 0.79733 l 0.86,0.0613 h 0.79734 0.79733 0.79733 0.79734 0.85866 0.79734 0.79733 0.79733 0.79867 0.79733 0.85867 0.79733 0.79734 0.79733 0.79733 0.85867 0.79733 0.79867 0.79733 0.79734 0.85866 0.79734 0.79733 0.79733 0.79734 0.85866 0.79867 0.79733 0.79734 0.79733 0.79733 0.85867 0.79733 0.79734 0.79733 0.79733 0.86 0.79734 0.79733 0.79733 0.79734 0.85866 0.79734 0.79733 0.79733 0.79734 0.86 0.79733 0.79733 0.79734 0.79733 0.79733 0.85867 0.79733 0.79733 0.79867 0.79733 0.85867 0.79733 0.79734 0.79733 0.79733 0.85867 0.79733 0.79867 0.79733 0.79734 0.85866 0.79734 0.79733 0.79733 0.79734 0.79733 0.86 0.79733 0.79734 0.79733 0.79733 0.85867 0.79733 0.79734 0.79733 0.79733 0.86 0.79734 0.79733 0.79733 0.79734 0.85866 0.79734 0.79733 0.79733 0.79734 0.79866 0.85867 0.79733 0.79734 0.79733 0.79733 0.85867 0.79733 0.79734 0.79866 0.79734 0.85866 0.79734 0.79733 0.79733 0.79734 0.85866 0.79734 0.79866 0.79734 0.79733 0.79733 0.85867 0.79733 0.79734 0.79733 0.79733 0.86 0.79734 0.79733 0.79733 0.79734 0.85866 0.79734 0.79733 0.79733 0.79734 0.79733 0.86 0.79733 0.79734 0.79733 0.79733 0.85867 0.79733 0.79734 0.79733 0.79867 0.85866 0.79734 0.79733 0.79733 0.79734 0.85866 0.79734 0.79733 0.79867 0.79733 0.79733 0.85867 0.79733 0.79734 0.79733 0.79733 0.85867 0.79867 0.79733 0.79733 0.79734 0.85866 0.79734 0.79733 0.79733 0.79734 0.86 0.79733 0.79733 0.79734 0.79733 0.79733 0.85867 0.79733 0.79734 0.79733 0.79733 0.86 0.79734 0.79733 0.79733 0.79734 0.85866 0.79734 0.79733 0.79733 0.79867 0.85867 0.79733 0.79733 0.79734 0.79733 0.79733 0.85867 0.79733 0.79867 0.79733 0.79734 0.85866 0.79734 0.79733 0.79733 0.79734 0.85866 0.79867 0.79733 0.79734 0.79733 0.85867 0.79733 0.79733 0.79734 0.79733 0.79733 0.86 0.79734 0.79733 0.79733 0.79733 0.85867 0.79733 0.79734 0.79733 0.79733 0.86 0.79734 0.79733 0.79733 0.79734 0.85866 0.79734 0.79733 0.79733 0.79867 0.79733 0.85867 0.79733 0.79734 0.79733 0.79733 0.85867 0.79733 0.79867 0.79733 0.79734 0.85866 0.79734 0.79733 0.79733 0.79734 0.85866 0.79867 0.79733 0.79734 0.79733 0.79733 0.85867 0.79733 0.79734 0.79733 0.79733 0.86 0.79734 0.79733 0.79733 0.79734 0.85866 0.79734 0.79733 0.79733 0.79734 0.79866 0.85867 0.79733 0.79734 0.79733 0.79733 0.85867 0.79733 0.79734 0.79866 0.79734 0.85866 0.79734 0.79733 0.79733 0.79734 0.85866 0.79734 0.79866 0.79734 0.79733 0.79733 0.85867 0.79733 0.79734 0.79733 0.79733 0.85867 0.79867 0.79733 0.79733 0.79734 0.85866 0.79734 0.79733 0.79733 0.79734 0.86 0.79733 0.79733 0.79734 0.79733 0.79733 0.85867 0.79733 0.79734 0.79733 0.79867 0.85866 0.79734 0.79733 0.79733 0.79734 0.85866 0.79734 0.79733 0.79867 0.79733 0.85867 0.79733 0.79733 0.79734 0.79733 0.79733 0.85867 0.79867"
     style="fill:none;stroke:#008b00;stroke-width:0.92015994;stroke-linecap:butt;stroke-linejoin:miter;stroke-miterlimit:10;stroke-dasharray:none;stroke-opacity:1"
     id="path24" /><path
     d="M 79.643534,538.13554 H 553.64832"
     style="fill:none;stroke:#000000;stroke-width:1.84031987;stroke-linecap:butt;stroke-linejoin:miter;stroke-miterlimit:10;stroke-dasharray:none;stroke-opacity:1"
     id="path26" /><path
     d="M 79.643534,95.661553 H 553.64832"
     style="fill:none;stroke:#000000;stroke-width:1.84031987;stroke-linecap:butt;stroke-linejoin:miter;stroke-miterlimit:10;stroke-dasharray:none;stroke-opacity:1"
     id="path28" /><path
     d="m 163.50033,538.13554 v -6.1344"
     style="fill:none;stroke:#000000;stroke-width:1.84031987;stroke-linecap:butt;stroke-linejoin:miter;stroke-miterlimit:10;stroke-dasharray:none;stroke-opacity:1"
     id="path30" /><path
     d="m 163.50033,95.661553 v 6.134667"
     style="fill:none;stroke:#000000;stroke-width:1.84031987;stroke-linecap:butt;stroke-linejoin:miter;stroke-miterlimit:10;stroke-dasharray:none;stroke-opacity:1"
     id="path32" /><path
     d="m 264.65633,538.13554 v -6.1344"
     style="fill:none;stroke:#000000;stroke-width:1.84031987;stroke-linecap:butt;stroke-linejoin:miter;stroke-miterlimit:10;stroke-dasharray:none;stroke-opacity:1"
     id="path34" /><path
     d="m 264.65633,95.661553 v 6.134667"
     style="fill:none;stroke:#000000;stroke-width:1.84031987;stroke-linecap:butt;stroke-linejoin:miter;stroke-miterlimit:10;stroke-dasharray:none;stroke-opacity:1"
     id="path36" /><path
     d="m 365.81366,538.13554 v -6.1344"
     style="fill:none;stroke:#000000;stroke-width:1.84031987;stroke-linecap:butt;stroke-linejoin:miter;stroke-miterlimit:10;stroke-dasharray:none;stroke-opacity:1"
     id="path38" /><path
     d="m 365.81366,95.661553 v 6.134667"
     style="fill:none;stroke:#000000;stroke-width:1.84031987;stroke-linecap:butt;stroke-linejoin:miter;stroke-miterlimit:10;stroke-dasharray:none;stroke-opacity:1"
     id="path40" /><path
     d="m 466.96966,538.13554 v -6.1344"
     style="fill:none;stroke:#000000;stroke-width:1.84031987;stroke-linecap:butt;stroke-linejoin:miter;stroke-miterlimit:10;stroke-dasharray:none;stroke-opacity:1"
     id="path42" /><path
     d="m 466.96966,95.661553 v 6.134667"
     style="fill:none;stroke:#000000;stroke-width:1.84031987;stroke-linecap:butt;stroke-linejoin:miter;stroke-miterlimit:10;stroke-dasharray:none;stroke-opacity:1"
     id="path44" /><path
     d="m 112.953,538.13554 v -12.2688"
     style="fill:none;stroke:#000000;stroke-width:1.84031987;stroke-linecap:butt;stroke-linejoin:miter;stroke-miterlimit:10;stroke-dasharray:none;stroke-opacity:1"
     id="path46" /><path
     d="M 112.953,95.661553 V 107.93089"
     style="fill:none;stroke:#000000;stroke-width:1.84031987;stroke-linecap:butt;stroke-linejoin:miter;stroke-miterlimit:10;stroke-dasharray:none;stroke-opacity:1"
     id="path48" /><path
     d="m 214.10966,538.13554 v -12.2688"
     style="fill:none;stroke:#000000;stroke-width:1.84031987;stroke-linecap:butt;stroke-linejoin:miter;stroke-miterlimit:10;stroke-dasharray:none;stroke-opacity:1"
     id="path50" /><path
     d="M 214.10966,95.661553 V 107.93089"
     style="fill:none;stroke:#000000;stroke-width:1.84031987;stroke-linecap:butt;stroke-linejoin:miter;stroke-miterlimit:10;stroke-dasharray:none;stroke-opacity:1"
     id="path52" /><path
     d="m 315.26566,538.13554 v -12.2688"
     style="fill:none;stroke:#000000;stroke-width:1.84031987;stroke-linecap:butt;stroke-linejoin:miter;stroke-miterlimit:10;stroke-dasharray:none;stroke-opacity:1"
     id="path54" /><path
     d="M 315.26566,95.661553 V 107.93089"
     style="fill:none;stroke:#000000;stroke-width:1.84031987;stroke-linecap:butt;stroke-linejoin:miter;stroke-miterlimit:10;stroke-dasharray:none;stroke-opacity:1"
     id="path56" /><path
     d="m 416.36033,538.13554 v -12.2688"
     style="fill:none;stroke:#000000;stroke-width:1.84031987;stroke-linecap:butt;stroke-linejoin:miter;stroke-miterlimit:10;stroke-dasharray:none;stroke-opacity:1"
     id="path58" /><path
     d="M 416.36033,95.661553 V 107.93089"
     style="fill:none;stroke:#000000;stroke-width:1.84031987;stroke-linecap:butt;stroke-linejoin:miter;stroke-miterlimit:10;stroke-dasharray:none;stroke-opacity:1"
     id="path60" /><path
     d="m 517.51766,538.13554 v -12.2688"
     style="fill:none;stroke:#000000;stroke-width:1.84031987;stroke-linecap:butt;stroke-linejoin:miter;stroke-miterlimit:10;stroke-dasharray:none;stroke-opacity:1"
     id="path62" /><path
     d="M 517.51766,95.661553 V 107.93089"
     style="fill:none;stroke:#000000;stroke-width:1.84031987;stroke-linecap:butt;stroke-linejoin:miter;stroke-miterlimit:10;stroke-dasharray:none;stroke-opacity:1"
     id="path64" /><g
     id="g66"
     transform="matrix(1.3333333,0,0,-1.3333333,8.5456688,632.97354)"><text
   transform="matrix(1,0,0,-1,58.9824,54.9797)"
   style="font-variant:normal;font-weight:normal;font-size:16.74690056px;font-family:'Times New Roman';-inkscape-font-specification:Times-Roman;writing-mode:lr-tb;fill:#000000;fill-opacity:1;fill-rule:nonzero;stroke:none"
   id="text80"><tspan
     x="0 5.5767179 13.950168 22.323618 30.697067"
     y="0"
     id="tspan68">-4500</tspan><tspan
     x="75.867203 81.443916 89.817368 98.190819 106.56427"
     y="-0.230078"
     id="tspan70">-4000</tspan><tspan
     x="151.73441 157.31111 165.68457 174.05801 182.43147"
     y="0"
     id="tspan72">-3500</tspan><tspan
     x="227.5555 233.13222 241.50566 249.87912 258.25256"
     y="-0.230078"
     id="tspan74">-3000</tspan><tspan
     x="303.4227 308.99942 317.37286 325.74631 334.11978"
     y="0"
     id="tspan76">-2500</tspan><tspan
     x="167.0547"
     y="15.873"
     id="tspan78">E</tspan></text>

</g><path
     d="M 79.643534,538.13554 V 95.661553"
     style="fill:none;stroke:#000000;stroke-width:1.84031987;stroke-linecap:butt;stroke-linejoin:miter;stroke-miterlimit:10;stroke-dasharray:none;stroke-opacity:1"
     id="path82" /><path
     d="M 553.64832,538.13554 V 95.661553"
     style="fill:none;stroke:#000000;stroke-width:1.84031987;stroke-linecap:butt;stroke-linejoin:miter;stroke-miterlimit:10;stroke-dasharray:none;stroke-opacity:1"
     id="path84" /><path
     d="m 79.643534,494.64288 h 6.1344"
     style="fill:none;stroke:#000000;stroke-width:1.84031987;stroke-linecap:butt;stroke-linejoin:miter;stroke-miterlimit:10;stroke-dasharray:none;stroke-opacity:1"
     id="path86" /><path
     d="m 553.64832,494.64288 h -6.13466"
     style="fill:none;stroke:#000000;stroke-width:1.84031987;stroke-linecap:butt;stroke-linejoin:miter;stroke-miterlimit:10;stroke-dasharray:none;stroke-opacity:1"
     id="path88" /><path
     d="m 79.643534,415.69355 h 6.1344"
     style="fill:none;stroke:#000000;stroke-width:1.84031987;stroke-linecap:butt;stroke-linejoin:miter;stroke-miterlimit:10;stroke-dasharray:none;stroke-opacity:1"
     id="path90" /><path
     d="m 553.64832,415.69355 h -6.13466"
     style="fill:none;stroke:#000000;stroke-width:1.84031987;stroke-linecap:butt;stroke-linejoin:miter;stroke-miterlimit:10;stroke-dasharray:none;stroke-opacity:1"
     id="path92" /><path
     d="m 79.643534,336.74288 h 6.1344"
     style="fill:none;stroke:#000000;stroke-width:1.84031987;stroke-linecap:butt;stroke-linejoin:miter;stroke-miterlimit:10;stroke-dasharray:none;stroke-opacity:1"
     id="path94" /><path
     d="m 553.64832,336.74288 h -6.13466"
     style="fill:none;stroke:#000000;stroke-width:1.84031987;stroke-linecap:butt;stroke-linejoin:miter;stroke-miterlimit:10;stroke-dasharray:none;stroke-opacity:1"
     id="path96" /><path
     d="m 79.643534,257.79355 h 6.1344"
     style="fill:none;stroke:#000000;stroke-width:1.84031987;stroke-linecap:butt;stroke-linejoin:miter;stroke-miterlimit:10;stroke-dasharray:none;stroke-opacity:1"
     id="path98" /><path
     d="m 553.64832,257.79355 h -6.13466"
     style="fill:none;stroke:#000000;stroke-width:1.84031987;stroke-linecap:butt;stroke-linejoin:miter;stroke-miterlimit:10;stroke-dasharray:none;stroke-opacity:1"
     id="path100" /><path
     d="m 79.643534,178.84422 h 6.1344"
     style="fill:none;stroke:#000000;stroke-width:1.84031987;stroke-linecap:butt;stroke-linejoin:miter;stroke-miterlimit:10;stroke-dasharray:none;stroke-opacity:1"
     id="path102" /><path
     d="m 553.64832,178.84422 h -6.13466"
     style="fill:none;stroke:#000000;stroke-width:1.84031987;stroke-linecap:butt;stroke-linejoin:miter;stroke-miterlimit:10;stroke-dasharray:none;stroke-opacity:1"
     id="path104" /><path
     d="m 79.643534,99.894887 h 6.1344"
     style="fill:none;stroke:#000000;stroke-width:1.84031987;stroke-linecap:butt;stroke-linejoin:miter;stroke-miterlimit:10;stroke-dasharray:none;stroke-opacity:1"
     id="path106" /><path
     d="m 553.64832,99.894887 h -6.13466"
     style="fill:none;stroke:#000000;stroke-width:1.84031987;stroke-linecap:butt;stroke-linejoin:miter;stroke-miterlimit:10;stroke-dasharray:none;stroke-opacity:1"
     id="path108" /><path
     d="M 79.643534,534.14848 H 91.912333"
     style="fill:none;stroke:#000000;stroke-width:1.84031987;stroke-linecap:butt;stroke-linejoin:miter;stroke-miterlimit:10;stroke-dasharray:none;stroke-opacity:1"
     id="path110" /><path
     d="M 553.64832,534.14848 H 541.37899"
     style="fill:none;stroke:#000000;stroke-width:1.84031987;stroke-linecap:butt;stroke-linejoin:miter;stroke-miterlimit:10;stroke-dasharray:none;stroke-opacity:1"
     id="path112" /><path
     d="M 79.643534,455.19888 H 91.912333"
     style="fill:none;stroke:#000000;stroke-width:1.84031987;stroke-linecap:butt;stroke-linejoin:miter;stroke-miterlimit:10;stroke-dasharray:none;stroke-opacity:1"
     id="path114" /><path
     d="M 553.64832,455.19888 H 541.37899"
     style="fill:none;stroke:#000000;stroke-width:1.84031987;stroke-linecap:butt;stroke-linejoin:miter;stroke-miterlimit:10;stroke-dasharray:none;stroke-opacity:1"
     id="path116" /><path
     d="M 79.643534,376.24955 H 91.912333"
     style="fill:none;stroke:#000000;stroke-width:1.84031987;stroke-linecap:butt;stroke-linejoin:miter;stroke-miterlimit:10;stroke-dasharray:none;stroke-opacity:1"
     id="path118" /><path
     d="M 553.64832,376.24955 H 541.37899"
     style="fill:none;stroke:#000000;stroke-width:1.84031987;stroke-linecap:butt;stroke-linejoin:miter;stroke-miterlimit:10;stroke-dasharray:none;stroke-opacity:1"
     id="path120" /><path
     d="M 79.643534,297.29888 H 91.912333"
     style="fill:none;stroke:#000000;stroke-width:1.84031987;stroke-linecap:butt;stroke-linejoin:miter;stroke-miterlimit:10;stroke-dasharray:none;stroke-opacity:1"
     id="path122" /><path
     d="M 553.64832,297.29888 H 541.37899"
     style="fill:none;stroke:#000000;stroke-width:1.84031987;stroke-linecap:butt;stroke-linejoin:miter;stroke-miterlimit:10;stroke-dasharray:none;stroke-opacity:1"
     id="path124" /><path
     d="M 79.643534,218.34955 H 91.912333"
     style="fill:none;stroke:#000000;stroke-width:1.84031987;stroke-linecap:butt;stroke-linejoin:miter;stroke-miterlimit:10;stroke-dasharray:none;stroke-opacity:1"
     id="path126" /><path
     d="M 553.64832,218.34955 H 541.37899"
     style="fill:none;stroke:#000000;stroke-width:1.84031987;stroke-linecap:butt;stroke-linejoin:miter;stroke-miterlimit:10;stroke-dasharray:none;stroke-opacity:1"
     id="path128" /><path
     d="M 79.643534,139.40022 H 91.912333"
     style="fill:none;stroke:#000000;stroke-width:1.84031987;stroke-linecap:butt;stroke-linejoin:miter;stroke-miterlimit:10;stroke-dasharray:none;stroke-opacity:1"
     id="path130" /><path
     d="M 553.64832,139.40022 H 541.37899"
     style="fill:none;stroke:#000000;stroke-width:1.84031987;stroke-linecap:butt;stroke-linejoin:miter;stroke-miterlimit:10;stroke-dasharray:none;stroke-opacity:1"
     id="path132" /><text
     y="541.89679"
     x="66.4161"
     id="text148"
     style="font-variant:normal;font-weight:normal;font-size:22.14859581px;font-family:'Times New Roman';-inkscape-font-specification:Times-Roman;writing-mode:lr-tb;fill:#000000;fill-opacity:1;fill-rule:nonzero;stroke:none;stroke-width:1.32254899"
     transform="scale(1.0081542,0.99191175)"><tspan
       style="stroke-width:1.32254899"
       id="tspan136"
       y="541.89679"
       x="66.4161">0</tspan><tspan
       style="stroke-width:1.32254899"
       id="tspan138"
       y="462.30777"
       x="28.325628 39.399921 44.937069 56.011368 67.08567">0,005</tspan><tspan
       style="stroke-width:1.32254899"
       id="tspan140"
       y="383.81448"
       x="40.677505 51.751801 57.288952 68.363258">0,01</tspan><tspan
       style="stroke-width:1.32254899"
       id="tspan142"
       y="305.68546"
       x="28.325628 39.399921 44.937069 56.011368 67.08567">0,015</tspan><tspan
       style="stroke-width:1.32254899"
       id="tspan144"
       y="227.19215"
       x="38.791325 49.865623 55.402771 66.477074">0,02</tspan><tspan
       style="stroke-width:1.32254899"
       id="tspan146"
       y="149.0636"
       x="28.325628 39.399921 44.937069 56.011368 67.08567">0,025</tspan></text>
<text
     y="22.374674"
     x="-359.74301"
     id="text152"
     style="font-variant:normal;font-weight:normal;font-size:22.14859581px;font-family:'Times New Roman';-inkscape-font-specification:Times-Roman;writing-mode:lr-tb;fill:#000000;fill-opacity:1;fill-rule:nonzero;stroke:none;stroke-width:1.32254899"
     transform="matrix(0,-0.99191175,1.0081542,0,0,0)"><tspan
       style="stroke-width:1.32254899"
       id="tspan150"
       y="22.374674"
       x="-359.74301 -347.42838 -340.05289 -328.97861 -317.9043 -310.52881 -296.99603">Prob(E)</tspan></text>
<path
     d="M 79.643534,538.13554 V 95.661553 H 553.64832 V 538.13554 Z"
     style="fill:none;stroke:#000000;stroke-width:0.92015994;stroke-linecap:butt;stroke-linejoin:miter;stroke-miterlimit:10;stroke-dasharray:none;stroke-opacity:1"
     id="path154" /><path
     d="m 386.91499,206.50955 h 116.124 v -97.5984 h -116.124 z"
     style="fill:#ffffff;fill-opacity:1;fill-rule:nonzero;stroke:none;stroke-width:0.13333333"
     id="path156" /><path
     d="m 386.91499,108.91222 v 97.59733 h 116.124 v -97.59733 z"
     style="fill:none;stroke:#000000;stroke-width:0.92015994;stroke-linecap:butt;stroke-linejoin:miter;stroke-miterlimit:10;stroke-dasharray:none;stroke-opacity:1"
     id="path158" /><g
     id="g160"
     transform="matrix(1.3333333,0,0,-1.3333333,8.5456688,632.97354)"><text
   transform="matrix(1,0,0,-1,316.351,379.566)"
   style="font-variant:normal;font-weight:normal;font-size:12.88220024px;font-family:'Times New Roman';-inkscape-font-specification:Times-Roman;writing-mode:lr-tb;fill:#000000;fill-opacity:1;fill-rule:nonzero;stroke:none"
   id="text164"><tspan
     x="0 7.8710241 14.312124 17.532675 24.798235 28.018785 34.459885 37.680435"
     y="0"
     id="tspan162">T1 = 2.2</tspan></text>

</g><path
     d="m 393.54033,121.11889 h 24.53733"
     style="fill:none;stroke:#000000;stroke-width:0.92015994;stroke-linecap:butt;stroke-linejoin:miter;stroke-miterlimit:10;stroke-dasharray:none;stroke-opacity:1"
     id="path166" /><g
     id="g168"
     transform="matrix(1.3333333,0,0,-1.3333333,8.5456688,632.97354)"><text
   transform="matrix(1,0,0,-1,316.351,365.855)"
   style="font-variant:normal;font-weight:normal;font-size:12.88220024px;font-family:'Times New Roman';-inkscape-font-specification:Times-Roman;writing-mode:lr-tb;fill:#000000;fill-opacity:1;fill-rule:nonzero;stroke:none"
   id="text172"><tspan
     x="0 7.8710241 14.312124 17.532675 24.798235 28.018785 34.459885 37.680435"
     y="0"
     id="tspan170">T2 = 2.3</tspan></text>

</g><path
     d="m 393.54033,139.40022 h 24.53733"
     style="fill:none;stroke:#ff0000;stroke-width:0.92015994;stroke-linecap:butt;stroke-linejoin:miter;stroke-miterlimit:10;stroke-dasharray:none;stroke-opacity:1"
     id="path174" /><g
     id="g176"
     transform="matrix(1.3333333,0,0,-1.3333333,8.5456688,632.97354)"><text
   transform="matrix(1,0,0,-1,316.351,352.145)"
   style="font-variant:normal;font-weight:normal;font-size:12.88220024px;font-family:'Times New Roman';-inkscape-font-specification:Times-Roman;writing-mode:lr-tb;fill:#000000;fill-opacity:1;fill-rule:nonzero;stroke:none"
   id="text180"><tspan
     x="0 7.8710241 14.312124 17.532675 24.798235 28.018785 34.459885 37.680435"
     y="0"
     id="tspan178">T3 = 2.4</tspan></text>

</g><path
     d="m 393.54033,157.68022 h 24.53733"
     style="fill:none;stroke:#00ff00;stroke-width:0.92015994;stroke-linecap:butt;stroke-linejoin:miter;stroke-miterlimit:10;stroke-dasharray:none;stroke-opacity:1"
     id="path182" /><g
     id="g184"
     transform="matrix(1.3333333,0,0,-1.3333333,8.5456688,632.97354)"><text
   transform="matrix(1,0,0,-1,316.351,338.435)"
   style="font-variant:normal;font-weight:normal;font-size:12.88220024px;font-family:'Times New Roman';-inkscape-font-specification:Times-Roman;writing-mode:lr-tb;fill:#000000;fill-opacity:1;fill-rule:nonzero;stroke:none"
   id="text188"><tspan
     x="0 7.8710241 14.312124 17.532675 24.798235 28.018785 34.459885 37.680435 44.121536"
     y="0"
     id="tspan186">T5 = 2.55</tspan></text>

</g><path
     d="m 393.54033,175.96022 h 24.53733"
     style="fill:none;stroke:#0000ff;stroke-width:0.92015994;stroke-linecap:butt;stroke-linejoin:miter;stroke-miterlimit:10;stroke-dasharray:none;stroke-opacity:1"
     id="path190" /><g
     id="g192"
     transform="matrix(1.3333333,0,0,-1.3333333,8.5456688,632.97354)"><text
   transform="matrix(1,0,0,-1,316.351,324.725)"
   style="font-variant:normal;font-weight:normal;font-size:12.88220024px;font-family:'Times New Roman';-inkscape-font-specification:Times-Roman;writing-mode:lr-tb;fill:#000000;fill-opacity:1;fill-rule:nonzero;stroke:none"
   id="text196"><tspan
     x="0 7.8710241 14.312124 17.532675 24.798235 28.018785 34.459885 37.680435 44.121536"
     y="0"
     id="tspan194">T6 = 2.05</tspan></text>

</g><path
     d="m 393.54033,194.30288 h 24.53733"
     style="fill:none;stroke:#008b00;stroke-width:0.92015994;stroke-linecap:butt;stroke-linejoin:miter;stroke-miterlimit:10;stroke-dasharray:none;stroke-opacity:1"
     id="path198" /><g
     id="g200"
     transform="matrix(1.3333333,0,0,-1.3333333,8.5456688,632.97354)"><text
   transform="matrix(1,0,0,-1,181.318,416.695)"
   style="font-variant:normal;font-weight:normal;font-size:12.88220024px;font-family:'Times New Roman';-inkscape-font-specification:Times-Roman;writing-mode:lr-tb;fill:#000000;fill-opacity:1;fill-rule:nonzero;stroke:none"
   id="text204"><tspan
     x="0 4.2897725 9.3009481 12.8822 19.323299 25.7644 28.984949 33.274723 36.495274 44.366299 47.586845 54.852409 58.072956 64.514061"
     y="0"
     id="tspan202">Ising - L = 50</tspan></text>

</g></svg>