<?xml version="1.0" encoding="utf-8" standalone="no"?>
<!DOCTYPE svg PUBLIC "-//W3C//DTD SVG 1.1//EN"
  "http://www.w3.org/Graphics/SVG/1.1/DTD/svg11.dtd">
<svg height="360pt" version="1.1" viewBox="0 0 432 360" width="432pt" xmlns="http://www.w3.org/2000/svg" xmlns:xlink="http://www.w3.org/1999/xlink">
 <metadata>
  <rdf:RDF xmlns:cc="http://creativecommons.org/ns#" xmlns:dc="http://purl.org/dc/elements/1.1/" xmlns:rdf="http://www.w3.org/1999/02/22-rdf-syntax-ns#">
   <cc:Work>
    <dc:type rdf:resource="http://purl.org/dc/dcmitype/StillImage"/>
    <dc:date>2021-09-04T09:52:06.082271</dc:date>
    <dc:format>image/svg+xml</dc:format>
    <dc:creator>
     <cc:Agent>
      <dc:title>Matplotlib v3.4.2, https://matplotlib.org/</dc:title>
     </cc:Agent>
    </dc:creator>
   </cc:Work>
  </rdf:RDF>
 </metadata>
 <defs>
  <style type="text/css">*{stroke-linecap:butt;stroke-linejoin:round;}</style>
 </defs>
 <g id="figure_1">
  <g id="patch_1">
   <path d="M 0 360 
L 432 360 
L 432 0 
L 0 0 
z
" style="fill:#ffffff;"/>
  </g>
  <g id="axes_1">
   <g id="patch_2">
    <path d="M 59.03649 295.65851 
L 428.99976 295.65851 
L 428.99976 18.15774 
L 59.03649 18.15774 
z
" style="fill:#ffffff;"/>
   </g>
   <g id="matplotlib.axis_1">
    <g id="xtick_1">
     <g id="line2d_1">
      <defs>
       <path d="M 0 0 
L 0 8 
" id="m3180628e6c" style="stroke:#000000;stroke-width:3;"/>
      </defs>
      <g>
       <use style="stroke:#000000;stroke-width:3;" x="113.422147" xlink:href="#m3180628e6c" y="295.65851"/>
      </g>
     </g>
     <g id="text_1">
      <!-- −13500 -->
      <g transform="translate(81.268397 319.31601)scale(0.16 -0.16)">
       <defs>
        <path d="M 678 2272 
L 4684 2272 
L 4684 1741 
L 678 1741 
L 678 2272 
z
" id="DejaVuSans-2212" transform="scale(0.015625)"/>
        <path d="M 794 531 
L 1825 531 
L 1825 4091 
L 703 3866 
L 703 4441 
L 1819 4666 
L 2450 4666 
L 2450 531 
L 3481 531 
L 3481 0 
L 794 0 
L 794 531 
z
" id="DejaVuSans-31" transform="scale(0.015625)"/>
        <path d="M 2597 2516 
Q 3050 2419 3304 2112 
Q 3559 1806 3559 1356 
Q 3559 666 3084 287 
Q 2609 -91 1734 -91 
Q 1441 -91 1130 -33 
Q 819 25 488 141 
L 488 750 
Q 750 597 1062 519 
Q 1375 441 1716 441 
Q 2309 441 2620 675 
Q 2931 909 2931 1356 
Q 2931 1769 2642 2001 
Q 2353 2234 1838 2234 
L 1294 2234 
L 1294 2753 
L 1863 2753 
Q 2328 2753 2575 2939 
Q 2822 3125 2822 3475 
Q 2822 3834 2567 4026 
Q 2313 4219 1838 4219 
Q 1578 4219 1281 4162 
Q 984 4106 628 3988 
L 628 4550 
Q 988 4650 1302 4700 
Q 1616 4750 1894 4750 
Q 2613 4750 3031 4423 
Q 3450 4097 3450 3541 
Q 3450 3153 3228 2886 
Q 3006 2619 2597 2516 
z
" id="DejaVuSans-33" transform="scale(0.015625)"/>
        <path d="M 691 4666 
L 3169 4666 
L 3169 4134 
L 1269 4134 
L 1269 2991 
Q 1406 3038 1543 3061 
Q 1681 3084 1819 3084 
Q 2600 3084 3056 2656 
Q 3513 2228 3513 1497 
Q 3513 744 3044 326 
Q 2575 -91 1722 -91 
Q 1428 -91 1123 -41 
Q 819 9 494 109 
L 494 744 
Q 775 591 1075 516 
Q 1375 441 1709 441 
Q 2250 441 2565 725 
Q 2881 1009 2881 1497 
Q 2881 1984 2565 2268 
Q 2250 2553 1709 2553 
Q 1456 2553 1204 2497 
Q 953 2441 691 2322 
L 691 4666 
z
" id="DejaVuSans-35" transform="scale(0.015625)"/>
        <path d="M 2034 4250 
Q 1547 4250 1301 3770 
Q 1056 3291 1056 2328 
Q 1056 1369 1301 889 
Q 1547 409 2034 409 
Q 2525 409 2770 889 
Q 3016 1369 3016 2328 
Q 3016 3291 2770 3770 
Q 2525 4250 2034 4250 
z
M 2034 4750 
Q 2819 4750 3233 4129 
Q 3647 3509 3647 2328 
Q 3647 1150 3233 529 
Q 2819 -91 2034 -91 
Q 1250 -91 836 529 
Q 422 1150 422 2328 
Q 422 3509 836 4129 
Q 1250 4750 2034 4750 
z
" id="DejaVuSans-30" transform="scale(0.015625)"/>
       </defs>
       <use xlink:href="#DejaVuSans-2212"/>
       <use x="83.789062" xlink:href="#DejaVuSans-31"/>
       <use x="147.412109" xlink:href="#DejaVuSans-33"/>
       <use x="211.035156" xlink:href="#DejaVuSans-35"/>
       <use x="274.658203" xlink:href="#DejaVuSans-30"/>
       <use x="338.28125" xlink:href="#DejaVuSans-30"/>
      </g>
     </g>
    </g>
    <g id="xtick_2">
     <g id="line2d_2">
      <g>
       <use style="stroke:#000000;stroke-width:3;" x="209.425071" xlink:href="#m3180628e6c" y="295.65851"/>
      </g>
     </g>
     <g id="text_2">
      <!-- −12000 -->
      <g transform="translate(177.271321 319.31601)scale(0.16 -0.16)">
       <defs>
        <path d="M 1228 531 
L 3431 531 
L 3431 0 
L 469 0 
L 469 531 
Q 828 903 1448 1529 
Q 2069 2156 2228 2338 
Q 2531 2678 2651 2914 
Q 2772 3150 2772 3378 
Q 2772 3750 2511 3984 
Q 2250 4219 1831 4219 
Q 1534 4219 1204 4116 
Q 875 4013 500 3803 
L 500 4441 
Q 881 4594 1212 4672 
Q 1544 4750 1819 4750 
Q 2544 4750 2975 4387 
Q 3406 4025 3406 3419 
Q 3406 3131 3298 2873 
Q 3191 2616 2906 2266 
Q 2828 2175 2409 1742 
Q 1991 1309 1228 531 
z
" id="DejaVuSans-32" transform="scale(0.015625)"/>
       </defs>
       <use xlink:href="#DejaVuSans-2212"/>
       <use x="83.789062" xlink:href="#DejaVuSans-31"/>
       <use x="147.412109" xlink:href="#DejaVuSans-32"/>
       <use x="211.035156" xlink:href="#DejaVuSans-30"/>
       <use x="274.658203" xlink:href="#DejaVuSans-30"/>
       <use x="338.28125" xlink:href="#DejaVuSans-30"/>
      </g>
     </g>
    </g>
    <g id="xtick_3">
     <g id="line2d_3">
      <g>
       <use style="stroke:#000000;stroke-width:3;" x="305.427996" xlink:href="#m3180628e6c" y="295.65851"/>
      </g>
     </g>
     <g id="text_3">
      <!-- −10500 -->
      <g transform="translate(273.274246 319.31601)scale(0.16 -0.16)">
       <use xlink:href="#DejaVuSans-2212"/>
       <use x="83.789062" xlink:href="#DejaVuSans-31"/>
       <use x="147.412109" xlink:href="#DejaVuSans-30"/>
       <use x="211.035156" xlink:href="#DejaVuSans-35"/>
       <use x="274.658203" xlink:href="#DejaVuSans-30"/>
       <use x="338.28125" xlink:href="#DejaVuSans-30"/>
      </g>
     </g>
    </g>
    <g id="xtick_4">
     <g id="line2d_4">
      <g>
       <use style="stroke:#000000;stroke-width:3;" x="401.43092" xlink:href="#m3180628e6c" y="295.65851"/>
      </g>
     </g>
     <g id="text_4">
      <!-- −9000 -->
      <g transform="translate(374.36717 319.31601)scale(0.16 -0.16)">
       <defs>
        <path d="M 703 97 
L 703 672 
Q 941 559 1184 500 
Q 1428 441 1663 441 
Q 2288 441 2617 861 
Q 2947 1281 2994 2138 
Q 2813 1869 2534 1725 
Q 2256 1581 1919 1581 
Q 1219 1581 811 2004 
Q 403 2428 403 3163 
Q 403 3881 828 4315 
Q 1253 4750 1959 4750 
Q 2769 4750 3195 4129 
Q 3622 3509 3622 2328 
Q 3622 1225 3098 567 
Q 2575 -91 1691 -91 
Q 1453 -91 1209 -44 
Q 966 3 703 97 
z
M 1959 2075 
Q 2384 2075 2632 2365 
Q 2881 2656 2881 3163 
Q 2881 3666 2632 3958 
Q 2384 4250 1959 4250 
Q 1534 4250 1286 3958 
Q 1038 3666 1038 3163 
Q 1038 2656 1286 2365 
Q 1534 2075 1959 2075 
z
" id="DejaVuSans-39" transform="scale(0.015625)"/>
       </defs>
       <use xlink:href="#DejaVuSans-2212"/>
       <use x="83.789062" xlink:href="#DejaVuSans-39"/>
       <use x="147.412109" xlink:href="#DejaVuSans-30"/>
       <use x="211.035156" xlink:href="#DejaVuSans-30"/>
       <use x="274.658203" xlink:href="#DejaVuSans-30"/>
      </g>
     </g>
    </g>
    <g id="text_5">
     <!-- Energia -->
     <g transform="translate(206.018125 352.840385)scale(0.2 -0.2)">
      <defs>
       <path d="M 628 4666 
L 3578 4666 
L 3578 4134 
L 1259 4134 
L 1259 2753 
L 3481 2753 
L 3481 2222 
L 1259 2222 
L 1259 531 
L 3634 531 
L 3634 0 
L 628 0 
L 628 4666 
z
" id="DejaVuSans-45" transform="scale(0.015625)"/>
       <path d="M 3513 2113 
L 3513 0 
L 2938 0 
L 2938 2094 
Q 2938 2591 2744 2837 
Q 2550 3084 2163 3084 
Q 1697 3084 1428 2787 
Q 1159 2491 1159 1978 
L 1159 0 
L 581 0 
L 581 3500 
L 1159 3500 
L 1159 2956 
Q 1366 3272 1645 3428 
Q 1925 3584 2291 3584 
Q 2894 3584 3203 3211 
Q 3513 2838 3513 2113 
z
" id="DejaVuSans-6e" transform="scale(0.015625)"/>
       <path d="M 3597 1894 
L 3597 1613 
L 953 1613 
Q 991 1019 1311 708 
Q 1631 397 2203 397 
Q 2534 397 2845 478 
Q 3156 559 3463 722 
L 3463 178 
Q 3153 47 2828 -22 
Q 2503 -91 2169 -91 
Q 1331 -91 842 396 
Q 353 884 353 1716 
Q 353 2575 817 3079 
Q 1281 3584 2069 3584 
Q 2775 3584 3186 3129 
Q 3597 2675 3597 1894 
z
M 3022 2063 
Q 3016 2534 2758 2815 
Q 2500 3097 2075 3097 
Q 1594 3097 1305 2825 
Q 1016 2553 972 2059 
L 3022 2063 
z
" id="DejaVuSans-65" transform="scale(0.015625)"/>
       <path d="M 2631 2963 
Q 2534 3019 2420 3045 
Q 2306 3072 2169 3072 
Q 1681 3072 1420 2755 
Q 1159 2438 1159 1844 
L 1159 0 
L 581 0 
L 581 3500 
L 1159 3500 
L 1159 2956 
Q 1341 3275 1631 3429 
Q 1922 3584 2338 3584 
Q 2397 3584 2469 3576 
Q 2541 3569 2628 3553 
L 2631 2963 
z
" id="DejaVuSans-72" transform="scale(0.015625)"/>
       <path d="M 2906 1791 
Q 2906 2416 2648 2759 
Q 2391 3103 1925 3103 
Q 1463 3103 1205 2759 
Q 947 2416 947 1791 
Q 947 1169 1205 825 
Q 1463 481 1925 481 
Q 2391 481 2648 825 
Q 2906 1169 2906 1791 
z
M 3481 434 
Q 3481 -459 3084 -895 
Q 2688 -1331 1869 -1331 
Q 1566 -1331 1297 -1286 
Q 1028 -1241 775 -1147 
L 775 -588 
Q 1028 -725 1275 -790 
Q 1522 -856 1778 -856 
Q 2344 -856 2625 -561 
Q 2906 -266 2906 331 
L 2906 616 
Q 2728 306 2450 153 
Q 2172 0 1784 0 
Q 1141 0 747 490 
Q 353 981 353 1791 
Q 353 2603 747 3093 
Q 1141 3584 1784 3584 
Q 2172 3584 2450 3431 
Q 2728 3278 2906 2969 
L 2906 3500 
L 3481 3500 
L 3481 434 
z
" id="DejaVuSans-67" transform="scale(0.015625)"/>
       <path d="M 603 3500 
L 1178 3500 
L 1178 0 
L 603 0 
L 603 3500 
z
M 603 4863 
L 1178 4863 
L 1178 4134 
L 603 4134 
L 603 4863 
z
" id="DejaVuSans-69" transform="scale(0.015625)"/>
       <path d="M 2194 1759 
Q 1497 1759 1228 1600 
Q 959 1441 959 1056 
Q 959 750 1161 570 
Q 1363 391 1709 391 
Q 2188 391 2477 730 
Q 2766 1069 2766 1631 
L 2766 1759 
L 2194 1759 
z
M 3341 1997 
L 3341 0 
L 2766 0 
L 2766 531 
Q 2569 213 2275 61 
Q 1981 -91 1556 -91 
Q 1019 -91 701 211 
Q 384 513 384 1019 
Q 384 1609 779 1909 
Q 1175 2209 1959 2209 
L 2766 2209 
L 2766 2266 
Q 2766 2663 2505 2880 
Q 2244 3097 1772 3097 
Q 1472 3097 1187 3025 
Q 903 2953 641 2809 
L 641 3341 
Q 956 3463 1253 3523 
Q 1550 3584 1831 3584 
Q 2591 3584 2966 3190 
Q 3341 2797 3341 1997 
z
" id="DejaVuSans-61" transform="scale(0.015625)"/>
      </defs>
      <use xlink:href="#DejaVuSans-45"/>
      <use x="63.183594" xlink:href="#DejaVuSans-6e"/>
      <use x="126.5625" xlink:href="#DejaVuSans-65"/>
      <use x="188.085938" xlink:href="#DejaVuSans-72"/>
      <use x="227.449219" xlink:href="#DejaVuSans-67"/>
      <use x="290.925781" xlink:href="#DejaVuSans-69"/>
      <use x="318.708984" xlink:href="#DejaVuSans-61"/>
     </g>
    </g>
   </g>
   <g id="matplotlib.axis_2">
    <g id="ytick_1">
     <g id="line2d_5">
      <defs>
       <path d="M 0 0 
L -8 0 
" id="mf442f89513" style="stroke:#000000;stroke-width:3;"/>
      </defs>
      <g>
       <use style="stroke:#000000;stroke-width:3;" x="59.03649" xlink:href="#mf442f89513" y="283.044839"/>
      </g>
     </g>
     <g id="text_6">
      <!-- 0 -->
      <g transform="translate(37.35649 289.123589)scale(0.16 -0.16)">
       <use xlink:href="#DejaVuSans-30"/>
      </g>
     </g>
    </g>
    <g id="ytick_2">
     <g id="line2d_6">
      <g>
       <use style="stroke:#000000;stroke-width:3;" x="59.03649" xlink:href="#mf442f89513" y="233.949536"/>
      </g>
     </g>
     <g id="text_7">
      <!-- 1 -->
      <g transform="translate(37.35649 240.028286)scale(0.16 -0.16)">
       <use xlink:href="#DejaVuSans-31"/>
      </g>
     </g>
    </g>
    <g id="ytick_3">
     <g id="line2d_7">
      <g>
       <use style="stroke:#000000;stroke-width:3;" x="59.03649" xlink:href="#mf442f89513" y="184.854233"/>
      </g>
     </g>
     <g id="text_8">
      <!-- 2 -->
      <g transform="translate(37.35649 190.932983)scale(0.16 -0.16)">
       <use xlink:href="#DejaVuSans-32"/>
      </g>
     </g>
    </g>
    <g id="ytick_4">
     <g id="line2d_8">
      <g>
       <use style="stroke:#000000;stroke-width:3;" x="59.03649" xlink:href="#mf442f89513" y="135.758931"/>
      </g>
     </g>
     <g id="text_9">
      <!-- 3 -->
      <g transform="translate(37.35649 141.837681)scale(0.16 -0.16)">
       <use xlink:href="#DejaVuSans-33"/>
      </g>
     </g>
    </g>
    <g id="ytick_5">
     <g id="line2d_9">
      <g>
       <use style="stroke:#000000;stroke-width:3;" x="59.03649" xlink:href="#mf442f89513" y="86.663628"/>
      </g>
     </g>
     <g id="text_10">
      <!-- 4 -->
      <g transform="translate(37.35649 92.742378)scale(0.16 -0.16)">
       <defs>
        <path d="M 2419 4116 
L 825 1625 
L 2419 1625 
L 2419 4116 
z
M 2253 4666 
L 3047 4666 
L 3047 1625 
L 3713 1625 
L 3713 1100 
L 3047 1100 
L 3047 0 
L 2419 0 
L 2419 1100 
L 313 1100 
L 313 1709 
L 2253 4666 
z
" id="DejaVuSans-34" transform="scale(0.015625)"/>
       </defs>
       <use xlink:href="#DejaVuSans-34"/>
      </g>
     </g>
    </g>
    <g id="ytick_6">
     <g id="line2d_10">
      <g>
       <use style="stroke:#000000;stroke-width:3;" x="59.03649" xlink:href="#mf442f89513" y="37.568326"/>
      </g>
     </g>
     <g id="text_11">
      <!-- 5 -->
      <g transform="translate(37.35649 43.647076)scale(0.16 -0.16)">
       <use xlink:href="#DejaVuSans-35"/>
      </g>
     </g>
    </g>
    <g id="text_12">
     <!-- Histograma -->
     <g transform="translate(18.197115 214.91125)rotate(-90)scale(0.2 -0.2)">
      <defs>
       <path d="M 628 4666 
L 1259 4666 
L 1259 2753 
L 3553 2753 
L 3553 4666 
L 4184 4666 
L 4184 0 
L 3553 0 
L 3553 2222 
L 1259 2222 
L 1259 0 
L 628 0 
L 628 4666 
z
" id="DejaVuSans-48" transform="scale(0.015625)"/>
       <path d="M 2834 3397 
L 2834 2853 
Q 2591 2978 2328 3040 
Q 2066 3103 1784 3103 
Q 1356 3103 1142 2972 
Q 928 2841 928 2578 
Q 928 2378 1081 2264 
Q 1234 2150 1697 2047 
L 1894 2003 
Q 2506 1872 2764 1633 
Q 3022 1394 3022 966 
Q 3022 478 2636 193 
Q 2250 -91 1575 -91 
Q 1294 -91 989 -36 
Q 684 19 347 128 
L 347 722 
Q 666 556 975 473 
Q 1284 391 1588 391 
Q 1994 391 2212 530 
Q 2431 669 2431 922 
Q 2431 1156 2273 1281 
Q 2116 1406 1581 1522 
L 1381 1569 
Q 847 1681 609 1914 
Q 372 2147 372 2553 
Q 372 3047 722 3315 
Q 1072 3584 1716 3584 
Q 2034 3584 2315 3537 
Q 2597 3491 2834 3397 
z
" id="DejaVuSans-73" transform="scale(0.015625)"/>
       <path d="M 1172 4494 
L 1172 3500 
L 2356 3500 
L 2356 3053 
L 1172 3053 
L 1172 1153 
Q 1172 725 1289 603 
Q 1406 481 1766 481 
L 2356 481 
L 2356 0 
L 1766 0 
Q 1100 0 847 248 
Q 594 497 594 1153 
L 594 3053 
L 172 3053 
L 172 3500 
L 594 3500 
L 594 4494 
L 1172 4494 
z
" id="DejaVuSans-74" transform="scale(0.015625)"/>
       <path d="M 1959 3097 
Q 1497 3097 1228 2736 
Q 959 2375 959 1747 
Q 959 1119 1226 758 
Q 1494 397 1959 397 
Q 2419 397 2687 759 
Q 2956 1122 2956 1747 
Q 2956 2369 2687 2733 
Q 2419 3097 1959 3097 
z
M 1959 3584 
Q 2709 3584 3137 3096 
Q 3566 2609 3566 1747 
Q 3566 888 3137 398 
Q 2709 -91 1959 -91 
Q 1206 -91 779 398 
Q 353 888 353 1747 
Q 353 2609 779 3096 
Q 1206 3584 1959 3584 
z
" id="DejaVuSans-6f" transform="scale(0.015625)"/>
       <path d="M 3328 2828 
Q 3544 3216 3844 3400 
Q 4144 3584 4550 3584 
Q 5097 3584 5394 3201 
Q 5691 2819 5691 2113 
L 5691 0 
L 5113 0 
L 5113 2094 
Q 5113 2597 4934 2840 
Q 4756 3084 4391 3084 
Q 3944 3084 3684 2787 
Q 3425 2491 3425 1978 
L 3425 0 
L 2847 0 
L 2847 2094 
Q 2847 2600 2669 2842 
Q 2491 3084 2119 3084 
Q 1678 3084 1418 2786 
Q 1159 2488 1159 1978 
L 1159 0 
L 581 0 
L 581 3500 
L 1159 3500 
L 1159 2956 
Q 1356 3278 1631 3431 
Q 1906 3584 2284 3584 
Q 2666 3584 2933 3390 
Q 3200 3197 3328 2828 
z
" id="DejaVuSans-6d" transform="scale(0.015625)"/>
      </defs>
      <use xlink:href="#DejaVuSans-48"/>
      <use x="75.195312" xlink:href="#DejaVuSans-69"/>
      <use x="102.978516" xlink:href="#DejaVuSans-73"/>
      <use x="155.078125" xlink:href="#DejaVuSans-74"/>
      <use x="194.287109" xlink:href="#DejaVuSans-6f"/>
      <use x="255.46875" xlink:href="#DejaVuSans-67"/>
      <use x="318.945312" xlink:href="#DejaVuSans-72"/>
      <use x="360.058594" xlink:href="#DejaVuSans-61"/>
      <use x="421.337891" xlink:href="#DejaVuSans-6d"/>
      <use x="518.75" xlink:href="#DejaVuSans-61"/>
     </g>
    </g>
    <g id="text_13">
     <!-- 1e−4 -->
     <g transform="translate(59.03649 15.15774)scale(0.16 -0.16)">
      <use xlink:href="#DejaVuSans-31"/>
      <use x="63.623047" xlink:href="#DejaVuSans-65"/>
      <use x="125.146484" xlink:href="#DejaVuSans-2212"/>
      <use x="208.935547" xlink:href="#DejaVuSans-34"/>
     </g>
    </g>
   </g>
   <g id="line2d_11">
    <path clip-path="url(#pcbd0cb29b6)" d="M 105.613909 283.044839 
L 105.613909 221.67571 
" style="fill:none;stroke:#1f77b4;stroke-linecap:square;stroke-width:2;"/>
   </g>
   <g id="line2d_12">
    <path clip-path="url(#pcbd0cb29b6)" d="M 397.654805 283.044839 
L 397.654805 221.67571 
" style="fill:none;stroke:#1f77b4;stroke-linecap:square;stroke-width:2;"/>
   </g>
   <g id="line2d_13">
    <path clip-path="url(#pcbd0cb29b6)" d="M 138.254903 283.044839 
L 138.254903 160.306582 
" style="fill:none;stroke:#ff7f0e;stroke-linecap:square;stroke-width:2;"/>
   </g>
   <g id="line2d_14">
    <path clip-path="url(#pcbd0cb29b6)" d="M 367.893899 283.044839 
L 367.893899 160.306582 
" style="fill:none;stroke:#ff7f0e;stroke-linecap:square;stroke-width:2;"/>
   </g>
   <g id="line2d_15">
    <path clip-path="url(#pcbd0cb29b6)" d="M 75.853002 283.044838 
L 110.414055 282.934358 
L 114.894192 282.681203 
L 115.534211 282.619732 
L 115.982225 282.579708 
L 116.430238 282.510262 
L 117.006256 282.443175 
L 118.734309 282.161305 
L 119.694338 281.929999 
L 120.078349 281.812585 
L 120.526363 281.710266 
L 120.782371 281.62312 
L 121.550394 281.397719 
L 121.806402 281.302155 
L 121.998408 281.233836 
L 122.446422 281.017805 
L 125.262507 279.599984 
L 125.518515 279.310053 
L 125.710521 279.217486 
L 125.774523 279.277098 
L 126.094533 278.872421 
L 126.350541 278.748447 
L 126.414543 278.583917 
L 126.478544 278.647901 
L 126.798554 278.382788 
L 126.862556 278.401606 
L 127.054562 278.079078 
L 127.374572 277.948235 
L 127.63058 277.672886 
L 127.758583 277.655692 
L 128.014591 277.300454 
L 128.97462 276.327678 
L 129.038622 276.314947 
L 129.230628 275.898969 
L 129.29463 275.857826 
L 129.358632 275.956367 
L 129.550638 275.580504 
L 129.61464 275.692655 
L 129.806646 275.161892 
L 129.870648 275.222448 
L 130.318661 274.468714 
L 130.382663 274.524731 
L 130.638671 274.101321 
L 130.702673 274.112152 
L 130.830677 273.699212 
L 130.894679 273.764877 
L 130.958681 273.885396 
L 131.214689 273.340676 
L 131.278691 273.366381 
L 131.5987 272.636392 
L 132.110716 271.947357 
L 132.174718 272.106735 
L 132.23872 271.53537 
L 132.302722 271.603487 
L 132.494728 270.933968 
L 132.622732 270.987545 
L 132.750736 270.856748 
L 132.878739 270.411505 
L 132.942741 270.896322 
L 133.006743 270.560059 
L 133.070745 270.029906 
L 133.134747 270.376947 
L 133.454757 269.192722 
L 133.518759 269.042983 
L 133.582761 269.352032 
L 133.646763 269.016686 
L 133.710765 269.294814 
L 133.774767 268.713325 
L 133.838769 268.730589 
L 133.902771 268.804281 
L 134.094776 268.204254 
L 134.414786 267.533616 
L 134.478788 267.184361 
L 134.54279 267.570222 
L 134.734796 266.650571 
L 134.8628 266.704266 
L 135.054806 266.284683 
L 135.246812 265.780686 
L 135.310814 265.707769 
L 135.374815 265.172668 
L 135.438817 265.489428 
L 135.630823 264.589331 
L 135.694825 264.902683 
L 135.758827 264.772244 
L 135.950833 263.548598 
L 136.014835 264.196169 
L 136.078837 263.473906 
L 136.142839 263.752075 
L 136.462849 262.387916 
L 136.526851 262.776145 
L 136.782858 261.68773 
L 136.84686 262.051192 
L 136.910862 261.302044 
L 136.974864 261.419334 
L 137.038866 261.192764 
L 137.102868 261.516771 
L 137.16687 260.524325 
L 137.230872 260.694359 
L 137.294874 260.552422 
L 137.358876 260.830501 
L 137.550882 259.414894 
L 137.614884 259.42697 
L 137.678886 259.264905 
L 137.742888 259.508679 
L 137.998895 258.161399 
L 138.126899 258.375363 
L 138.574913 256.730224 
L 138.638915 257.176899 
L 138.958925 255.013981 
L 139.022927 255.336297 
L 139.086929 255.145262 
L 139.214932 254.527058 
L 139.278934 254.606382 
L 139.47094 253.554002 
L 139.534942 254.180769 
L 139.726948 252.413725 
L 139.79095 252.955651 
L 139.982956 252.342853 
L 140.302966 250.69786 
L 140.366968 251.026864 
L 140.558973 250.001428 
L 140.622975 250.186131 
L 140.814981 248.455978 
L 140.878983 248.673291 
L 140.942985 247.580176 
L 141.006987 247.76039 
L 141.134991 247.864058 
L 141.198993 246.83119 
L 141.262995 247.216705 
L 141.326997 247.012001 
L 141.390999 246.256004 
L 141.455001 247.142715 
L 141.647007 245.668912 
L 141.77501 245.923925 
L 141.903014 244.205241 
L 141.967016 244.369148 
L 142.09502 244.473628 
L 142.159022 244.476121 
L 142.223024 243.425667 
L 142.287026 244.452869 
L 142.351028 243.898149 
L 142.543034 241.555974 
L 142.607036 241.709619 
L 142.671038 242.249788 
L 142.927046 240.328496 
L 142.991047 240.947722 
L 143.055049 239.859954 
L 143.119051 240.257612 
L 143.183053 240.887226 
L 143.375059 238.719307 
L 143.439061 238.755396 
L 143.631067 237.29807 
L 143.695069 237.3304 
L 143.759071 237.89422 
L 143.887075 235.63888 
L 143.951077 236.792404 
L 144.015079 236.047335 
L 144.143083 235.273824 
L 144.207085 235.809924 
L 144.335088 234.57013 
L 144.39909 235.403547 
L 144.463092 235.083441 
L 144.655098 231.615368 
L 144.7191 233.699551 
L 144.783102 232.02931 
L 144.847104 232.241827 
L 144.911106 233.086834 
L 145.103112 230.489103 
L 145.167114 231.200063 
L 145.231116 229.772682 
L 145.295118 230.073283 
L 145.35912 229.613274 
L 145.423122 230.670549 
L 145.615127 227.828158 
L 145.679129 228.40577 
L 145.807133 227.212774 
L 145.871135 227.28222 
L 146.063141 224.931284 
L 146.191145 226.075385 
L 146.255147 225.881831 
L 146.319149 224.30532 
L 146.383151 224.649605 
L 146.447153 225.475537 
L 146.639159 222.761052 
L 146.703161 222.663668 
L 146.767162 221.716326 
L 146.831164 222.531561 
L 146.895166 222.418529 
L 147.02317 218.700783 
L 147.087172 221.209439 
L 147.151174 220.079014 
L 147.215176 220.50416 
L 147.279178 219.742024 
L 147.34318 217.461137 
L 147.407182 218.720115 
L 147.471184 218.626988 
L 147.535186 218.114105 
L 147.599188 218.431388 
L 147.727192 218.024811 
L 147.791194 218.970979 
L 147.9832 216.209004 
L 148.047201 216.148101 
L 148.111203 214.4008 
L 148.175205 216.327989 
L 148.239207 214.812896 
L 148.303209 215.921522 
L 148.559217 211.909827 
L 148.623219 213.957225 
L 148.687221 212.640138 
L 148.815225 210.357878 
L 148.879227 210.771625 
L 149.071233 211.993437 
L 149.519246 206.503849 
L 149.775254 208.228336 
L 149.903258 205.672285 
L 149.96726 205.969291 
L 150.159266 202.313335 
L 150.223268 202.283089 
L 150.28727 203.327438 
L 150.543278 201.197306 
L 150.607279 201.088523 
L 150.799285 199.274458 
L 150.863287 199.514929 
L 150.927289 196.339667 
L 150.991291 199.309974 
L 151.055293 198.910059 
L 151.119295 199.526017 
L 151.247299 197.824339 
L 151.311301 198.731229 
L 151.503307 195.262854 
L 151.567309 193.925354 
L 151.631311 194.310739 
L 151.695313 195.080804 
L 151.759315 192.904081 
L 151.823317 192.909511 
L 151.887318 195.19346 
L 151.95132 195.184923 
L 152.015322 192.186218 
L 152.079324 193.608235 
L 152.143326 192.734582 
L 152.207328 188.617426 
L 152.27133 190.739978 
L 152.335332 192.721759 
L 152.399334 189.57738 
L 152.463336 190.299668 
L 152.527338 190.849727 
L 152.59134 190.359066 
L 152.655342 191.346216 
L 152.783346 187.933082 
L 152.847348 188.517529 
L 152.91135 188.387506 
L 153.039354 186.256491 
L 153.103356 185.398609 
L 153.167357 186.954772 
L 153.231359 186.792375 
L 153.295361 183.882254 
L 153.359363 185.415271 
L 153.551369 183.051503 
L 153.615371 184.779308 
L 153.743375 180.917137 
L 153.807377 182.701559 
L 153.871379 182.365651 
L 153.999383 181.176974 
L 154.063385 182.568809 
L 154.191389 178.570811 
L 154.319393 181.904345 
L 154.5754 174.969845 
L 154.703404 179.032801 
L 154.89541 174.129553 
L 154.959412 177.532528 
L 155.023414 175.344892 
L 155.151418 174.566647 
L 155.343424 171.571893 
L 155.471428 174.03659 
L 155.663433 169.741841 
L 155.727435 170.85576 
L 155.855439 167.325086 
L 155.919441 169.722517 
L 155.983443 166.64516 
L 156.047445 166.713203 
L 156.111447 166.318443 
L 156.175449 164.51322 
L 156.303453 168.103765 
L 156.367455 163.20468 
L 156.431457 165.751206 
L 156.495459 166.622245 
L 156.623463 161.490397 
L 156.687465 162.925603 
L 156.751467 162.708347 
L 156.879471 165.017504 
L 156.943472 161.353591 
L 157.007474 162.254194 
L 157.071476 165.804099 
L 157.135478 159.831486 
L 157.19948 161.626362 
L 157.263482 162.747184 
L 157.327484 158.890144 
L 157.391486 159.201925 
L 157.455488 160.898554 
L 157.51949 158.145234 
L 157.583492 161.178444 
L 157.647494 159.44628 
L 157.711496 159.885062 
L 157.903502 154.137663 
L 157.967504 160.27304 
L 158.031506 155.313855 
L 158.095508 156.259767 
L 158.15951 154.268479 
L 158.223511 158.291562 
L 158.287513 155.543822 
L 158.415517 151.844734 
L 158.479519 153.230867 
L 158.543521 149.669652 
L 158.607523 152.818879 
L 158.671525 150.886652 
L 158.735527 153.258922 
L 158.799529 149.271916 
L 158.863531 150.733454 
L 158.927533 150.209811 
L 159.055537 153.354259 
L 159.119539 145.985907 
L 159.183541 148.319068 
L 159.311545 146.060512 
L 159.375547 148.765135 
L 159.439549 147.398959 
L 159.50355 144.759094 
L 159.567552 147.68502 
L 159.631554 146.636606 
L 159.82356 141.803199 
L 160.015566 145.341948 
L 160.079568 145.004714 
L 160.271574 141.782322 
L 160.335576 144.61684 
L 160.399578 137.692804 
L 160.46358 142.182653 
L 160.527582 142.719246 
L 160.719588 137.011446 
L 160.783589 141.050933 
L 160.847591 139.857786 
L 160.911593 138.488303 
L 160.975595 139.881639 
L 161.039597 139.851182 
L 161.103599 137.395493 
L 161.167601 138.840612 
L 161.231603 137.901186 
L 161.295605 133.001546 
L 161.359607 135.833855 
L 161.423609 138.244602 
L 161.487611 132.761456 
L 161.551613 134.656622 
L 161.615615 132.602365 
L 161.679617 136.900967 
L 161.743619 134.461264 
L 161.871623 128.464623 
L 161.935625 137.397564 
L 161.999627 133.38864 
L 162.063628 132.264296 
L 162.12763 133.984767 
L 162.319636 125.834031 
L 162.383638 126.444902 
L 162.44764 130.898921 
L 162.639646 122.010419 
L 162.76765 131.090666 
L 162.831652 126.534539 
L 162.895654 130.742209 
L 162.959656 128.949468 
L 163.151662 122.933722 
L 163.215664 123.738757 
L 163.279666 120.666493 
L 163.343667 120.787947 
L 163.535673 123.890443 
L 163.599675 120.450884 
L 163.663677 121.299964 
L 163.727679 119.949885 
L 163.919685 124.066304 
L 164.047689 114.170917 
L 164.111691 118.527279 
L 164.175693 115.604344 
L 164.367699 122.617585 
L 164.495703 108.278277 
L 164.559704 113.083347 
L 164.623706 118.340353 
L 164.687708 115.600724 
L 164.75171 119.627441 
L 164.815712 115.388703 
L 164.879714 116.496992 
L 164.943716 117.235214 
L 165.007718 119.877298 
L 165.199724 111.809375 
L 165.263726 112.04204 
L 165.327728 113.362207 
L 165.39173 113.183804 
L 165.455732 109.802893 
L 165.519734 113.564811 
L 165.583736 107.733526 
L 165.647738 111.325643 
L 165.71174 113.20477 
L 165.775742 107.918964 
L 165.903745 115.899084 
L 166.031749 105.7179 
L 166.095751 110.124075 
L 166.159753 106.792941 
L 166.223755 111.664199 
L 166.287757 108.111194 
L 166.351759 108.487081 
L 166.607767 103.910554 
L 166.671769 97.621693 
L 166.799773 108.979507 
L 166.991779 100.51374 
L 167.055781 108.709208 
L 167.119782 106.621959 
L 167.183784 108.060085 
L 167.247786 100.374463 
L 167.311788 104.184554 
L 167.503794 98.567531 
L 167.567796 107.088448 
L 167.631798 102.610745 
L 167.6958 101.182342 
L 167.759802 102.686514 
L 167.823804 98.64881 
L 167.887806 98.931511 
L 167.951808 97.752584 
L 168.01581 99.825711 
L 168.079812 99.70006 
L 168.143814 99.733676 
L 168.271818 96.702518 
L 168.33582 99.148143 
L 168.399821 96.299052 
L 168.463823 100.960749 
L 168.527825 98.78429 
L 168.591827 96.514748 
L 168.655829 103.458857 
L 168.719831 93.553134 
L 168.783833 103.145152 
L 168.847835 94.47447 
L 168.911837 96.255363 
L 168.975839 94.56323 
L 169.039841 97.437433 
L 169.103843 96.572151 
L 169.167845 97.240761 
L 169.295849 94.211099 
L 169.423853 98.907861 
L 169.487855 91.408134 
L 169.551857 96.639974 
L 169.615859 92.877262 
L 169.67986 95.807935 
L 169.743862 93.99715 
L 169.807864 96.056126 
L 169.871866 95.451704 
L 169.99987 88.138897 
L 170.127874 95.441263 
L 170.191876 96.031723 
L 170.383882 83.728839 
L 170.447884 92.840011 
L 170.511886 88.379411 
L 170.575888 91.591484 
L 170.63989 90.717332 
L 170.767894 87.913935 
L 170.831896 91.962735 
L 170.895898 87.285891 
L 170.959899 88.19359 
L 171.023901 90.450878 
L 171.087903 88.602766 
L 171.151905 91.954916 
L 171.343911 81.584362 
L 171.535917 92.264748 
L 171.599919 83.675353 
L 171.663921 86.561411 
L 171.727923 81.740027 
L 171.791925 83.634939 
L 171.919929 88.252151 
L 172.047933 83.419237 
L 172.111935 86.548634 
L 172.175937 80.00925 
L 172.30394 88.458422 
L 172.431944 79.725892 
L 172.495946 84.732092 
L 172.559948 81.989357 
L 172.62395 83.264173 
L 172.687952 82.022046 
L 172.751954 76.765037 
L 172.815956 76.925238 
L 173.007962 84.483246 
L 173.135966 88.675746 
L 173.26397 82.299088 
L 173.327972 84.133438 
L 173.391974 79.892678 
L 173.519977 86.348225 
L 173.583979 74.550699 
L 173.647981 84.496059 
L 173.711983 81.910449 
L 173.775985 83.971667 
L 173.967991 74.729033 
L 174.031993 77.350296 
L 174.095995 81.571879 
L 174.159997 80.360057 
L 174.288001 82.21293 
L 174.352003 74.599314 
L 174.416005 77.680632 
L 174.480007 84.229646 
L 174.608011 72.64041 
L 174.800016 84.356952 
L 174.864018 68.871908 
L 174.92802 74.372921 
L 174.992022 80.08392 
L 175.056024 72.908906 
L 175.120026 80.839098 
L 175.184028 78.116669 
L 175.440036 71.981249 
L 175.504038 86.106464 
L 175.56804 72.277293 
L 175.632042 76.316607 
L 175.696044 74.834082 
L 175.760046 80.572271 
L 175.824048 75.356411 
L 175.88805 76.250752 
L 175.952052 82.894678 
L 176.080055 73.811485 
L 176.208059 77.34276 
L 176.272061 75.181358 
L 176.336063 76.848315 
L 176.400065 81.584885 
L 176.464067 73.110457 
L 176.528069 75.226415 
L 176.592071 72.793274 
L 176.656073 73.813672 
L 176.720075 79.933663 
L 176.784077 79.058302 
L 176.976083 73.087049 
L 177.104087 77.553721 
L 177.232091 73.435585 
L 177.424096 80.507125 
L 177.488098 73.712515 
L 177.5521 75.275727 
L 177.616102 75.296626 
L 177.744106 70.720533 
L 177.808108 66.618704 
L 178.000114 77.135472 
L 178.064116 65.672636 
L 178.128118 70.067905 
L 178.19212 77.886108 
L 178.256122 67.599649 
L 178.320124 77.805748 
L 178.384126 76.930205 
L 178.448128 76.725662 
L 178.51213 75.374625 
L 178.576131 77.066458 
L 178.704135 68.837843 
L 178.768137 82.491918 
L 178.832139 69.09033 
L 178.896141 71.352659 
L 178.960143 81.971738 
L 179.024145 78.898149 
L 179.152149 70.480335 
L 179.216151 78.582022 
L 179.280153 78.410893 
L 179.472159 68.525601 
L 179.600163 70.060438 
L 179.664165 79.625702 
L 179.728167 67.05737 
L 179.792169 72.166149 
L 179.85617 72.570577 
L 179.920172 70.677139 
L 179.984174 79.600971 
L 180.048176 76.853599 
L 180.17618 67.680854 
L 180.240182 68.825663 
L 180.304184 72.395003 
L 180.368186 66.959046 
L 180.432188 69.002908 
L 180.49619 74.972875 
L 180.560192 72.022843 
L 180.624194 72.62166 
L 180.688196 71.440108 
L 180.752198 76.076279 
L 180.8162 73.555754 
L 180.880202 75.451853 
L 180.944204 70.437156 
L 181.008206 77.773924 
L 181.072208 73.953798 
L 181.136209 70.342787 
L 181.200211 71.280001 
L 181.264213 72.911643 
L 181.328215 70.805786 
L 181.392217 73.831137 
L 181.456219 67.105596 
L 181.520221 77.856341 
L 181.584223 72.270306 
L 181.712227 68.946902 
L 181.776229 72.032204 
L 181.840231 68.099587 
L 181.968235 76.057848 
L 182.032237 73.845773 
L 182.096239 75.971202 
L 182.160241 65.272348 
L 182.224243 68.821383 
L 182.288245 66.735192 
L 182.416248 74.231051 
L 182.48025 75.603303 
L 182.608254 67.961806 
L 182.736258 79.971811 
L 182.928264 62.820513 
L 183.056268 74.575452 
L 183.12027 71.391844 
L 183.248274 79.734756 
L 183.312276 68.735393 
L 183.376278 78.592885 
L 183.44028 75.222632 
L 183.696287 62.180193 
L 183.760289 65.250483 
L 183.952295 71.074577 
L 184.080299 66.562837 
L 184.144301 67.128498 
L 184.272305 80.797143 
L 184.336307 76.129019 
L 184.400309 72.220573 
L 184.464311 78.649226 
L 184.592315 65.724457 
L 184.656317 69.3866 
L 184.784321 76.332302 
L 184.848323 67.423747 
L 184.912324 79.105852 
L 184.976326 72.472135 
L 185.040328 68.833348 
L 185.168332 74.744786 
L 185.296336 69.937918 
L 185.360338 70.673465 
L 185.42434 71.324477 
L 185.552344 79.177933 
L 185.616346 75.129503 
L 185.680348 79.546218 
L 185.808352 74.518361 
L 185.872354 80.350489 
L 185.936356 77.647136 
L 186.000358 70.962474 
L 186.06436 72.299637 
L 186.128362 85.242586 
L 186.256365 68.811235 
L 186.384369 75.929178 
L 186.448371 74.962758 
L 186.576375 81.985301 
L 186.640377 77.43857 
L 186.704379 81.214549 
L 186.768381 70.756561 
L 186.832383 75.586364 
L 186.896385 81.491362 
L 186.960387 71.826583 
L 187.024389 85.333092 
L 187.088391 80.731794 
L 187.216395 68.185022 
L 187.280397 79.978727 
L 187.344399 69.990457 
L 187.408401 78.539852 
L 187.472402 72.601008 
L 187.536404 78.56131 
L 187.600406 71.716851 
L 187.664408 75.93916 
L 187.792412 80.896815 
L 187.856414 79.539186 
L 187.984418 72.737646 
L 188.176424 85.788468 
L 188.240426 72.904674 
L 188.304428 79.75967 
L 188.36843 75.871204 
L 188.432432 85.594542 
L 188.496434 85.044069 
L 188.560436 68.87641 
L 188.624438 76.724791 
L 188.68844 76.461366 
L 188.752441 82.63062 
L 188.944447 72.741593 
L 189.072451 85.838717 
L 189.200455 72.614029 
L 189.264457 74.847127 
L 189.328459 76.362773 
L 189.392461 86.343846 
L 189.456463 77.954757 
L 189.520465 85.889846 
L 189.584467 82.300618 
L 189.776473 67.321732 
L 189.968479 99.232025 
L 190.03248 76.630356 
L 190.096482 88.908219 
L 190.160484 86.555555 
L 190.224486 75.277689 
L 190.288488 78.702167 
L 190.35249 94.767011 
L 190.416492 87.547204 
L 190.608498 75.178035 
L 190.6725 76.80316 
L 190.736502 83.136826 
L 190.864506 73.937132 
L 190.928508 86.580609 
L 190.99251 79.547294 
L 191.056512 78.561557 
L 191.120514 80.451641 
L 191.184516 74.030768 
L 191.248518 86.484352 
L 191.312519 79.160974 
L 191.376521 81.298245 
L 191.440523 80.984732 
L 191.504525 80.223027 
L 191.632529 92.655912 
L 191.696531 92.595596 
L 191.760533 86.431211 
L 191.824535 86.700529 
L 191.888537 86.291304 
L 191.952539 98.737885 
L 192.016541 83.876253 
L 192.080543 87.347448 
L 192.208547 84.242615 
L 192.272549 94.063135 
L 192.336551 76.856185 
L 192.400553 87.051313 
L 192.464555 93.357339 
L 192.528556 90.534594 
L 192.720562 80.722935 
L 192.784564 82.764782 
L 192.848566 76.620359 
L 193.104574 90.288595 
L 193.168576 78.9003 
L 193.232578 84.2966 
L 193.29658 94.584939 
L 193.360582 77.905172 
L 193.424584 82.859628 
L 193.488586 87.715933 
L 193.552588 81.939284 
L 193.61659 92.09362 
L 193.680592 84.863309 
L 193.808595 90.832928 
L 193.872597 73.76835 
L 193.936599 79.65395 
L 194.000601 81.31608 
L 194.064603 89.918338 
L 194.128605 87.58889 
L 194.192607 90.013362 
L 194.256609 80.70468 
L 194.320611 91.340371 
L 194.384613 88.018408 
L 194.448615 87.51504 
L 194.512617 88.244004 
L 194.640621 80.926818 
L 194.704623 85.371714 
L 194.896629 96.44817 
L 194.960631 87.841073 
L 195.024633 88.843402 
L 195.088634 88.596415 
L 195.28064 97.446814 
L 195.344642 95.702718 
L 195.408644 83.694431 
L 195.472646 91.05638 
L 195.536648 90.946735 
L 195.664652 86.008364 
L 195.728654 98.805817 
L 195.792656 92.31033 
L 195.856658 92.850164 
L 195.92066 84.778616 
L 195.984662 93.038002 
L 196.048664 92.940756 
L 196.176668 83.033368 
L 196.368673 107.0576 
L 196.432675 99.031919 
L 196.496677 102.352692 
L 196.560679 106.079883 
L 196.624681 87.775434 
L 196.688683 95.173078 
L 196.752685 96.803812 
L 196.816687 96.066571 
L 196.880689 85.148809 
L 196.944691 87.56845 
L 197.200699 104.818532 
L 197.264701 95.541477 
L 197.328703 100.290053 
L 197.520709 83.685115 
L 197.584711 94.789527 
L 197.648712 87.426967 
L 197.712714 92.490228 
L 197.840718 81.622463 
L 198.096726 98.516784 
L 198.160728 91.886878 
L 198.22473 93.745594 
L 198.352734 102.307683 
L 198.480738 92.686727 
L 198.608742 100.759595 
L 198.736746 100.123199 
L 198.86475 88.031821 
L 198.992753 104.317193 
L 199.120757 92.587155 
L 199.184759 100.149866 
L 199.248761 98.000526 
L 199.376765 91.983348 
L 199.504769 99.714626 
L 199.568771 96.270227 
L 199.696775 107.919066 
L 199.824779 100.015348 
L 199.888781 100.280274 
L 200.080787 96.180623 
L 200.144789 98.324094 
L 200.20879 109.017897 
L 200.272792 95.529624 
L 200.464798 110.039624 
L 200.592802 94.256332 
L 200.656804 100.242197 
L 200.720806 99.353128 
L 200.784808 96.845571 
L 200.912812 110.976569 
L 201.16882 98.41884 
L 201.232822 106.591128 
L 201.296824 95.881087 
L 201.360826 111.236546 
L 201.424828 98.111054 
L 201.488829 99.307787 
L 201.552831 112.648445 
L 201.616833 107.419914 
L 201.744837 94.50561 
L 201.808839 108.833613 
L 201.872841 101.604972 
L 202.000845 112.845841 
L 202.128849 101.964305 
L 202.192851 110.965771 
L 202.256853 104.591831 
L 202.320855 101.712212 
L 202.448859 116.463759 
L 202.576863 101.641905 
L 202.640865 116.600392 
L 202.704866 99.22177 
L 202.768868 106.811379 
L 202.83287 99.574779 
L 202.896872 104.401659 
L 202.960874 118.400059 
L 203.024876 114.258736 
L 203.088878 116.176187 
L 203.15288 107.343191 
L 203.216882 115.815616 
L 203.280884 109.614983 
L 203.344886 114.673084 
L 203.408888 103.43358 
L 203.47289 107.39975 
L 203.600894 112.534674 
L 203.664896 112.589959 
L 203.728898 112.330124 
L 203.7929 109.379082 
L 203.856902 121.006538 
L 203.920904 105.993295 
L 203.984905 112.722645 
L 204.112909 117.790856 
L 204.176911 107.158144 
L 204.368917 118.561028 
L 204.496921 106.480638 
L 204.560923 110.730907 
L 204.688927 104.23651 
L 204.752929 106.076306 
L 204.816931 116.678527 
L 204.880933 114.646501 
L 204.944935 109.681949 
L 205.008937 116.430133 
L 205.072939 114.391137 
L 205.136941 111.693561 
L 205.200943 112.097026 
L 205.264944 113.976908 
L 205.328946 122.097533 
L 205.45695 112.414426 
L 205.520952 118.922822 
L 205.584954 114.889602 
L 205.648956 113.654874 
L 205.712958 121.850696 
L 205.77696 118.303699 
L 205.840962 113.087504 
L 205.904964 114.339367 
L 205.968966 118.425261 
L 206.032968 111.855546 
L 206.09697 114.114937 
L 206.160972 123.736804 
L 206.224974 119.994615 
L 206.288976 121.104093 
L 206.480982 112.839455 
L 206.608985 123.839685 
L 206.672987 122.432448 
L 206.736989 111.371711 
L 206.800991 129.441591 
L 206.864993 118.700666 
L 206.992997 127.605843 
L 207.056999 126.537255 
L 207.121001 115.564382 
L 207.185003 121.82883 
L 207.313007 111.611246 
L 207.441011 130.908013 
L 207.505013 117.960584 
L 207.569015 120.319967 
L 207.697019 127.480147 
L 207.761021 121.556244 
L 207.825022 127.229386 
L 207.889024 115.563006 
L 207.953026 128.370278 
L 208.017028 121.895955 
L 208.08103 116.450371 
L 208.145032 123.205577 
L 208.209034 105.34248 
L 208.273036 118.051229 
L 208.337038 127.115595 
L 208.40104 120.240258 
L 208.465042 130.914245 
L 208.529044 118.22206 
L 208.593046 121.173085 
L 208.72105 133.635201 
L 208.849054 123.677525 
L 208.977058 131.779073 
L 209.105061 124.795118 
L 209.169063 138.668935 
L 209.233065 130.984218 
L 209.297067 124.173574 
L 209.361069 124.503434 
L 209.425071 124.8348 
L 209.489073 121.400149 
L 209.617077 137.529523 
L 209.681079 136.801387 
L 209.745081 135.711292 
L 209.809083 122.159878 
L 209.873085 128.100506 
L 209.937087 127.720947 
L 210.065091 131.13512 
L 210.193095 127.836818 
L 210.321099 138.205487 
L 210.449102 122.477411 
L 210.513104 133.444735 
L 210.577106 128.489753 
L 210.641108 132.150683 
L 210.70511 130.307407 
L 210.769112 119.810725 
L 210.833114 143.376378 
L 210.897116 121.801643 
L 210.961118 135.639684 
L 211.089122 110.830491 
L 211.281128 140.673519 
L 211.409132 128.771587 
L 211.537136 136.425079 
L 211.665139 124.271619 
L 211.857145 142.484319 
L 211.921147 131.778393 
L 212.049151 140.088843 
L 212.113153 126.69936 
L 212.177155 130.85989 
L 212.241157 137.491556 
L 212.305159 128.600451 
L 212.369161 129.364818 
L 212.433163 126.712397 
L 212.497165 136.796307 
L 212.561167 135.289967 
L 212.625169 126.345978 
L 212.689171 128.260211 
L 212.753173 133.619001 
L 212.817175 128.277805 
L 212.881176 139.013237 
L 212.945178 133.858662 
L 213.00918 135.027898 
L 213.073182 141.005524 
L 213.137184 129.679026 
L 213.201186 132.390332 
L 213.265188 137.037254 
L 213.32919 133.199082 
L 213.393192 138.825408 
L 213.457194 133.433091 
L 213.6492 144.374889 
L 213.777204 128.09504 
L 213.905208 137.106469 
L 213.96921 129.908773 
L 214.033212 141.663435 
L 214.097214 139.741377 
L 214.161215 131.739744 
L 214.353221 139.487528 
L 214.417223 143.657754 
L 214.609229 130.15276 
L 214.673231 132.553436 
L 214.737233 145.650586 
L 214.801235 138.759705 
L 214.865237 138.004854 
L 214.993241 148.42269 
L 215.057243 143.696046 
L 215.121245 144.938128 
L 215.185247 131.020911 
L 215.313251 143.085123 
L 215.377253 131.723766 
L 215.441254 136.368398 
L 215.505256 138.014687 
L 215.569258 144.082894 
L 215.63326 134.685462 
L 215.697262 149.216467 
L 215.761264 148.468105 
L 215.95327 137.525292 
L 216.017272 144.451408 
L 216.145276 135.640534 
L 216.209278 142.791164 
L 216.27328 138.782135 
L 216.465286 141.994286 
L 216.529288 139.193594 
L 216.657292 147.071114 
L 216.785295 142.074762 
L 216.849297 154.850246 
L 216.913299 141.781847 
L 216.977301 152.529054 
L 217.169307 138.105198 
L 217.297311 159.706916 
L 217.361313 153.583384 
L 217.425315 143.92843 
L 217.489317 148.34581 
L 217.553319 157.751161 
L 217.617321 146.203337 
L 217.681323 147.727735 
L 217.745325 145.926515 
L 217.809327 148.704245 
L 217.937331 144.051498 
L 218.001332 145.792461 
L 218.065334 157.365809 
L 218.129336 156.40316 
L 218.193338 138.257242 
L 218.25734 145.873875 
L 218.321342 155.395596 
L 218.449346 141.259181 
L 218.513348 141.751253 
L 218.641352 159.407432 
L 218.769356 138.448558 
L 218.833358 152.485117 
L 218.89736 139.01413 
L 218.961362 151.807301 
L 219.025364 148.072465 
L 219.089366 154.952094 
L 219.21737 147.89449 
L 219.281371 160.547102 
L 219.409375 141.956032 
L 219.601381 156.750824 
L 219.665383 139.704535 
L 219.729385 151.149977 
L 219.793387 144.800199 
L 219.857389 156.702606 
L 219.921391 140.023522 
L 219.985393 146.993372 
L 220.049395 151.606481 
L 220.113397 150.405404 
L 220.177399 147.043722 
L 220.305403 159.335049 
L 220.369405 145.799047 
L 220.56141 170.382934 
L 220.753416 142.646646 
L 220.88142 155.474998 
L 220.945422 140.953699 
L 221.009424 151.311313 
L 221.073426 160.594737 
L 221.20143 151.831019 
L 221.393436 167.951556 
L 221.52144 155.864644 
L 221.585442 165.001465 
L 221.649444 162.472283 
L 221.713446 151.555406 
L 221.777447 154.97255 
L 221.841449 150.66077 
L 221.905451 161.60474 
L 221.969453 156.184932 
L 222.033455 155.409366 
L 222.097457 151.30606 
L 222.225461 160.852532 
L 222.353465 154.632268 
L 222.417467 161.872185 
L 222.481469 157.532261 
L 222.545471 153.408348 
L 222.673475 165.926631 
L 222.737477 168.063869 
L 222.801479 150.055092 
L 222.865481 155.096151 
L 223.121488 171.976514 
L 223.18549 162.6575 
L 223.249492 170.889671 
L 223.377496 155.137256 
L 223.441498 155.256849 
L 223.5055 167.352901 
L 223.633504 152.450165 
L 223.697506 165.933974 
L 223.761508 147.474719 
L 223.82551 153.489829 
L 223.889512 147.707127 
L 223.953514 151.687593 
L 224.017516 157.039559 
L 224.081518 156.482144 
L 224.14552 152.051301 
L 224.209522 162.889546 
L 224.273524 159.826464 
L 224.337525 158.814061 
L 224.401527 166.942286 
L 224.465529 149.008491 
L 224.529531 159.43165 
L 224.593533 158.646058 
L 224.657535 153.732548 
L 224.721537 161.20234 
L 224.785539 157.891189 
L 224.849541 150.438362 
L 225.041547 180.073306 
L 225.105549 161.088632 
L 225.169551 174.144812 
L 225.233553 172.674899 
L 225.297555 154.103196 
L 225.361557 169.035301 
L 225.425559 161.310123 
L 225.617564 172.164398 
L 225.681566 165.579781 
L 225.745568 171.763076 
L 225.873572 159.495296 
L 226.001576 167.930767 
L 226.065578 165.51228 
L 226.12958 161.690204 
L 226.193582 163.467873 
L 226.385588 174.436226 
L 226.513592 155.287898 
L 226.577594 166.688698 
L 226.641596 164.255638 
L 226.705598 158.765163 
L 226.897603 172.620101 
L 226.961605 164.29342 
L 227.025607 170.102259 
L 227.089609 174.268053 
L 227.217613 163.950914 
L 227.281615 164.102157 
L 227.345617 169.223242 
L 227.473621 162.189161 
L 227.537623 171.589169 
L 227.601625 168.425458 
L 227.729629 178.24507 
L 227.793631 167.945909 
L 227.857633 171.435085 
L 228.049639 181.456415 
L 228.113641 168.738505 
L 228.177642 168.898488 
L 228.241644 166.430351 
L 228.305646 178.306775 
L 228.369648 170.577807 
L 228.43365 153.739256 
L 228.497652 164.434089 
L 228.561654 174.664171 
L 228.689658 157.230151 
L 228.75366 179.009692 
L 228.817662 168.361085 
L 228.881664 172.133747 
L 228.945666 166.522511 
L 229.009668 179.213132 
L 229.07367 166.849716 
L 229.137672 172.562291 
L 229.201674 181.903484 
L 229.265676 170.725783 
L 229.329678 175.486162 
L 229.585685 166.239061 
L 229.649687 176.105658 
L 229.713689 169.97042 
L 229.777691 172.56851 
L 229.841693 185.860468 
L 229.905695 178.504791 
L 229.969697 169.437043 
L 230.033699 173.989862 
L 230.097701 174.895 
L 230.289707 164.928541 
L 230.353709 171.447731 
L 230.417711 168.934471 
L 230.481713 163.728823 
L 230.609717 177.044843 
L 230.673718 175.999508 
L 230.73772 177.159072 
L 230.801722 181.018117 
L 230.865724 179.728578 
L 230.929726 175.736564 
L 230.993728 182.550987 
L 231.05773 172.901604 
L 231.185734 187.537567 
L 231.313738 172.882283 
L 231.37774 178.981287 
L 231.441742 177.438766 
L 231.569746 180.27777 
L 231.633748 184.171951 
L 231.825754 176.816691 
L 231.889756 180.966639 
L 231.953757 177.436532 
L 232.017759 183.824573 
L 232.081761 181.037045 
L 232.209765 176.943869 
L 232.401771 189.456137 
L 232.465773 174.709208 
L 232.529775 183.867868 
L 232.593777 184.061247 
L 232.657779 174.525755 
L 232.721781 178.708275 
L 232.849785 185.588676 
L 232.913787 181.784169 
L 232.977789 183.729444 
L 233.041791 189.431616 
L 233.169795 175.797605 
L 233.233796 180.251872 
L 233.297798 177.185679 
L 233.3618 187.167708 
L 233.425802 182.344498 
L 233.489804 174.501181 
L 233.553806 182.738826 
L 233.617808 176.899941 
L 233.68181 182.631501 
L 233.745812 176.031355 
L 233.809814 176.226523 
L 233.873816 177.682432 
L 233.937818 171.069822 
L 234.00182 173.029648 
L 234.193826 187.768091 
L 234.257828 181.144516 
L 234.32183 176.791159 
L 234.449834 185.798787 
L 234.513835 177.894486 
L 234.577837 178.094437 
L 234.641839 185.650133 
L 234.705841 182.80951 
L 234.769843 184.02843 
L 234.833845 174.072084 
L 234.897847 174.271684 
L 235.025851 188.918313 
L 235.153855 181.185791 
L 235.217857 186.740703 
L 235.281859 177.517196 
L 235.345861 186.646468 
L 235.409863 183.792959 
L 235.473865 185.531734 
L 235.537867 182.675307 
L 235.601869 190.803516 
L 235.665871 179.255543 
L 235.729873 183.809647 
L 235.793874 190.927117 
L 235.921878 184.436747 
L 235.98588 186.440283 
L 236.049882 172.807583 
L 236.241888 199.096095 
L 236.30589 178.76673 
L 236.369892 186.941467 
L 236.433894 183.555362 
L 236.497896 188.653825 
L 236.561898 178.061012 
L 236.6259 183.419433 
L 236.753904 186.679182 
L 236.817906 189.987092 
L 236.881908 189.687643 
L 237.073913 178.97582 
L 237.329921 198.195327 
L 237.457925 184.140824 
L 237.649931 195.420605 
L 237.713933 193.567967 
L 237.777935 198.2005 
L 237.841937 189.598931 
L 237.905939 202.024453 
L 237.969941 183.545621 
L 238.033943 191.820979 
L 238.097945 191.003214 
L 238.289951 201.042513 
L 238.353952 190.591909 
L 238.417954 191.33605 
L 238.545958 200.649038 
L 238.60996 199.572667 
L 238.673962 193.015548 
L 238.737964 197.417819 
L 238.865968 188.206074 
L 238.993972 190.223691 
L 239.185978 199.801572 
L 239.24998 189.294824 
L 239.441986 212.521132 
L 239.633991 192.757017 
L 239.697993 191.148137 
L 239.761995 193.478119 
L 239.825997 185.82527 
L 239.889999 187.892499 
L 240.082005 203.314077 
L 240.146007 192.492908 
L 240.210009 203.78357 
L 240.274011 188.476995 
L 240.338013 193.186746 
L 240.402015 196.845564 
L 240.466017 194.442039 
L 240.530019 197.576601 
L 240.594021 195.963616 
L 240.658023 193.821724 
L 240.722025 199.336387 
L 240.786027 195.87372 
L 240.850028 194.787049 
L 240.91403 202.68717 
L 240.978032 197.636023 
L 241.170038 203.3736 
L 241.426046 192.402566 
L 241.490048 204.038577 
L 241.55405 185.448639 
L 241.618052 208.232487 
L 241.682054 194.143688 
L 241.746056 189.337215 
L 241.810058 191.166479 
L 241.87406 192.997057 
L 242.002064 203.838532 
L 242.066066 199.294216 
L 242.130067 208.576993 
L 242.194069 207.224076 
L 242.322073 200.256997 
L 242.450077 200.740142 
L 242.514079 204.712271 
L 242.578081 195.62761 
L 242.642083 198.267897 
L 242.706085 198.243159 
L 242.770087 197.685058 
L 242.834089 206.465703 
L 242.898091 198.970465 
L 242.962093 202.6842 
L 243.026095 198.922661 
L 243.090097 200.234609 
L 243.154099 201.547439 
L 243.282103 198.026603 
L 243.346105 205.758587 
L 243.474108 188.056683 
L 243.53811 189.904544 
L 243.602112 206.477962 
L 243.666114 202.172937 
L 243.730116 198.66934 
L 243.85812 205.861016 
L 243.922122 205.572877 
L 244.050126 199.632413 
L 244.114128 203.366999 
L 244.17813 195.56485 
L 244.242132 211.110674 
L 244.306134 203.038343 
L 244.370136 205.972467 
L 244.434138 200.31262 
L 244.49814 203.516472 
L 244.626144 212.34853 
L 244.818149 194.274993 
L 245.010155 209.018161 
L 245.074157 205.770133 
L 245.138159 206.829728 
L 245.330165 198.423963 
L 245.394167 205.952681 
L 245.458169 199.195405 
L 245.522171 201.064787 
L 245.586173 210.757284 
L 245.650175 203.99704 
L 245.842181 219.334473 
L 245.970184 200.403017 
L 246.098188 208.74487 
L 246.290194 197.07544 
L 246.354196 204.900032 
L 246.418198 200.557573 
L 246.4822 203.246628 
L 246.546202 214.053484 
L 246.674206 196.163986 
L 246.80221 215.896943 
L 246.866212 202.615048 
L 246.930214 203.412978 
L 246.994216 202.044086 
L 247.058218 209.61632 
L 247.12222 204.725283 
L 247.186222 209.861484 
L 247.250223 201.986966 
L 247.314225 204.413303 
L 247.378227 203.58633 
L 247.442229 200.860563 
L 247.506231 207.900119 
L 247.570233 199.205265 
L 247.634235 207.332624 
L 247.762239 197.807168 
L 247.826241 213.540661 
L 247.890243 202.124907 
L 247.954245 207.815611 
L 248.018247 201.828223 
L 248.210253 214.292014 
L 248.338257 201.495849 
L 248.466261 210.17353 
L 248.530262 201.189045 
L 248.594264 212.057013 
L 248.658266 209.871079 
L 248.78627 204.137319 
L 248.850272 217.189143 
L 248.914274 215.819687 
L 249.10628 205.175374 
L 249.362288 218.21277 
L 249.42629 213.028854 
L 249.490292 217.380199 
L 249.618296 207.281681 
L 249.682298 209.99885 
L 249.810301 206.98415 
L 249.938305 214.603043 
L 250.002307 204.505923 
L 250.066309 213.770856 
L 250.130311 211.58187 
L 250.258315 214.841715 
L 250.322317 208.832804 
L 250.386319 214.283164 
L 250.450321 209.637761 
L 250.514323 210.449901 
L 250.706329 215.890718 
L 250.834333 220.521131 
L 250.898335 218.604767 
L 250.962337 220.238149 
L 251.154342 210.664292 
L 251.346348 217.478832 
L 251.41035 205.179992 
L 251.474352 213.098513 
L 251.602356 204.891852 
L 251.666358 205.980245 
L 251.73036 210.348432 
L 251.794362 208.431106 
L 251.922366 217.443175 
L 251.986368 207.32563 
L 252.05037 209.235378 
L 252.114372 214.152637 
L 252.178374 213.875982 
L 252.242376 210.31853 
L 252.370379 218.515167 
L 252.434381 217.69221 
L 252.626387 210.301095 
L 252.690389 218.229586 
L 252.754391 207.561325 
L 252.818393 212.755478 
L 252.882395 208.10379 
L 253.010399 216.852474 
L 253.266407 205.35772 
L 253.394411 223.683291 
L 253.522415 209.72994 
L 253.586416 221.218888 
L 253.650418 214.1055 
L 253.71442 216.019942 
L 253.842424 213.830599 
L 253.906426 219.575455 
L 253.970428 206.717318 
L 254.03443 209.179505 
L 254.098432 208.90606 
L 254.226436 216.566716 
L 254.290438 205.077189 
L 254.418442 216.841937 
L 254.546446 203.43919 
L 254.67445 228.881867 
L 254.738452 219.855849 
L 254.802454 212.197977 
L 254.866455 213.020095 
L 254.930457 219.859903 
L 254.994459 217.12625 
L 255.058461 208.922565 
L 255.122463 213.847748 
L 255.186465 208.37983 
L 255.314469 224.246491 
L 255.378471 209.481069 
L 255.442473 214.679492 
L 255.506475 223.705957 
L 255.570477 217.692607 
L 255.634479 204.844121 
L 255.698481 211.409474 
L 255.890487 214.973279 
L 255.954489 220.170587 
L 256.018491 209.239687 
L 256.082493 217.170363 
L 256.146494 217.993897 
L 256.210496 222.64376 
L 256.274498 209.802484 
L 256.3385 212.266292 
L 256.402502 216.642739 
L 256.466504 215.280662 
L 256.530506 210.093715 
L 256.594508 216.655472 
L 256.65851 213.108478 
L 256.722512 213.932802 
L 256.850516 219.951541 
L 256.97852 212.314418 
L 257.042522 217.508184 
L 257.106524 213.963716 
L 257.170526 215.607419 
L 257.234528 223.803053 
L 257.29853 216.983484 
L 257.362532 224.904882 
L 257.490535 209.359224 
L 257.618539 227.381389 
L 257.810545 208.302501 
L 257.938549 215.680981 
L 258.002551 213.233521 
L 258.130555 211.0669 
L 258.194557 220.343466 
L 258.258559 210.537181 
L 258.322561 212.180474 
L 258.386563 212.733421 
L 258.514567 223.920412 
L 258.578569 212.757618 
L 258.64257 220.93788 
L 258.706572 216.042717 
L 258.770574 221.225177 
L 258.834576 214.69758 
L 258.898578 216.067424 
L 258.96258 216.348109 
L 259.026582 225.339129 
L 259.090584 222.624987 
L 259.154586 216.374017 
L 259.218588 226.450188 
L 259.28259 217.480044 
L 259.346592 218.032998 
L 259.410594 215.866122 
L 259.474596 215.875484 
L 259.538598 221.866807 
L 259.6026 218.069444 
L 259.666602 219.166117 
L 259.730604 223.252209 
L 259.794606 216.739164 
L 259.986611 230.078628 
L 260.050613 211.076214 
L 260.114615 223.30661 
L 260.306621 212.207398 
L 260.370623 220.088451 
L 260.434625 217.385586 
L 260.498627 218.481562 
L 260.690633 213.633826 
L 260.818637 222.060185 
L 260.882639 214.754019 
L 261.074645 226.437206 
L 261.202648 212.378882 
L 261.26665 220.783707 
L 261.330652 219.442108 
L 261.394654 220.807109 
L 261.458656 218.92513 
L 261.522658 220.830914 
L 261.58666 214.352337 
L 261.650662 216.52888 
L 261.714664 218.975018 
L 261.778666 214.933502 
L 262.034674 230.112321 
L 262.162678 218.796348 
L 262.22668 222.048597 
L 262.290682 219.632985 
L 262.354684 220.455869 
L 262.418686 223.975726 
L 262.546689 212.94766 
L 262.610691 214.310822 
L 262.674693 212.170189 
L 262.738695 217.305109 
L 262.802697 214.356904 
L 262.866699 207.909206 
L 262.994703 221.402656 
L 263.058705 214.958128 
L 263.122707 223.314718 
L 263.186709 220.907841 
L 263.250711 225.494325 
L 263.314713 222.550551 
L 263.378715 224.44667 
L 263.442717 215.323884 
L 263.506719 229.848471 
L 263.570721 221.266225 
L 263.634723 233.634145 
L 263.698725 220.759877 
L 263.762726 228.290725 
L 263.954732 211.167641 
L 264.082736 221.927081 
L 264.146738 214.171249 
L 264.21074 216.064721 
L 264.274742 213.939567 
L 264.338744 224.133485 
L 264.402746 221.739833 
L 264.53075 223.110661 
L 264.594752 223.126949 
L 264.658754 213.516306 
L 264.722756 219.684343 
L 264.786758 227.719977 
L 264.85076 217.581956 
L 264.914762 218.401655 
L 264.978764 218.419872 
L 265.042765 224.845462 
L 265.106767 221.659336 
L 265.170769 221.410125 
L 265.234771 225.162266 
L 265.362775 210.267204 
L 265.426777 220.948825 
L 265.490779 209.510759 
L 265.618783 219.939035 
L 265.682785 221.022738 
L 265.746787 230.621383 
L 265.810789 218.400004 
L 265.874791 220.281366 
L 265.938793 215.515055 
L 266.002795 215.535896 
L 266.130799 222.483963 
L 266.194801 211.616041 
L 266.258803 215.354877 
L 266.322804 215.376337 
L 266.386806 219.642416 
L 266.51481 211.994904 
L 266.642814 221.313908 
L 266.706816 211.534543 
L 266.770818 222.148691 
L 266.83482 217.933963 
L 266.962824 212.422779 
L 267.090828 222.778929 
L 267.15483 210.644565 
L 267.218832 218.857708 
L 267.410838 212.590998 
L 267.47484 220.528885 
L 267.538841 213.9585 
L 267.602843 214.509926 
L 267.666845 216.378603 
L 267.794849 209.053085 
L 268.050857 225.461685 
L 268.178861 210.264538 
L 268.242863 220.009284 
L 268.306865 212.943691 
L 268.434869 222.703 
L 268.498871 222.463343 
L 268.562873 210.164669 
L 268.626875 212.026632 
L 268.754879 222.816944 
L 268.81888 222.578254 
L 268.882882 216.060035 
L 268.946884 217.91683 
L 269.010886 220.818135 
L 269.074888 218.490203 
L 269.13889 224.785541 
L 269.202892 207.572573 
L 269.266894 213.606456 
L 269.330896 213.894946 
L 269.4589 207.953259 
L 269.522902 216.58422 
L 269.586904 211.140022 
L 269.650906 207.783715 
L 269.842912 220.620853 
L 270.034918 213.424563 
L 270.098919 219.685664 
L 270.162921 209.070254 
L 270.226923 215.328195 
L 270.290925 211.207343 
L 270.354927 218.755517 
L 270.418929 209.972792 
L 270.482931 217.515326 
L 270.546933 212.365485 
L 270.610935 210.843229 
L 270.674937 214.237253 
L 270.738939 200.563325 
L 270.802941 210.161954 
L 270.866943 202.960444 
L 270.930945 209.709459 
L 270.994947 200.966117 
L 271.058949 217.514157 
L 271.122951 214.19087 
L 271.186953 213.963855 
L 271.250955 216.05602 
L 271.378958 209.166163 
L 271.44296 209.714269 
L 271.634966 213.155079 
L 271.698968 203.427746 
L 271.76297 206.545073 
L 271.826972 209.659663 
L 271.890974 200.973789 
L 272.018978 213.862232 
L 272.08298 213.638699 
L 272.146982 213.927494 
L 272.210984 217.030707 
L 272.274986 202.484566 
L 272.338988 205.846185 
L 272.466992 212.560211 
L 272.594996 207.780916 
L 272.658997 212.662688 
L 272.915005 202.875029 
L 272.979007 217.414475 
L 273.043009 209.056693 
L 273.107011 221.037618 
L 273.171013 208.876626 
L 273.235015 212.721985 
L 273.299017 214.787399 
L 273.363019 205.184494 
L 273.427021 205.984486 
L 273.491023 214.131226 
L 273.555025 209.861555 
L 273.619027 211.417691 
L 273.683029 207.407052 
L 273.747031 212.502888 
L 273.811033 205.969051 
L 274.003038 222.237613 
L 274.131042 203.650135 
L 274.259046 216.071435 
L 274.323048 206.544555 
L 274.38705 218.406448 
L 274.451052 206.877773 
L 274.515054 211.692314 
L 274.579056 212.233019 
L 274.70706 203.028939 
L 274.835064 217.147598 
L 274.963068 205.957159 
L 275.02707 214.254543 
L 275.091072 205.792362 
L 275.155074 207.084622 
L 275.219075 213.120472 
L 275.283077 205.172677 
L 275.411081 216.479091 
L 275.475083 215.769157 
L 275.603087 202.405565 
L 275.667089 212.898798 
L 275.731091 207.469637 
L 275.859095 195.140561 
L 275.987099 202.43501 
L 276.051101 194.549452 
L 276.179105 205.794533 
L 276.243107 195.94172 
L 276.307109 199.207906 
L 276.371111 205.436356 
L 276.435113 203.012109 
L 276.499114 206.762607 
L 276.69112 196.549206 
L 276.819124 210.190356 
L 276.947128 206.590997 
L 277.01113 213.51658 
L 277.075132 206.438498 
L 277.203136 216.58681 
L 277.267138 214.667027 
L 277.395142 199.330394 
L 277.459144 201.339352 
L 277.523146 213.858419 
L 277.587148 210.481084 
L 277.715151 197.151136 
L 277.779153 213.787868 
L 277.843155 198.477955 
L 277.907157 200.967049 
L 278.035161 203.990351 
L 278.227167 212.639384 
L 278.419173 199.93348 
L 278.611179 214.122203 
L 278.803185 194.708044 
L 278.931189 209.76928 
L 278.99519 206.92744 
L 279.059192 205.53386 
L 279.187196 218.378512 
L 279.251198 208.091914 
L 279.3152 218.225437 
L 279.443204 203.688548 
L 279.507206 205.179968 
L 279.571208 197.810963 
L 279.63521 199.304732 
L 279.699212 202.470309 
L 279.827216 189.21028 
L 280.019222 208.228335 
L 280.083224 203.756461 
L 280.275229 217.228641 
L 280.467235 202.193396 
L 280.531237 203.672345 
L 280.659241 209.46365 
L 280.723243 196.512815 
L 280.787245 200.118701 
L 280.851247 195.692654 
L 280.979251 209.256222 
L 281.043253 208.367376 
L 281.107255 207.950809 
L 281.235259 200.538325 
L 281.299261 205.766286 
L 281.363263 205.118853 
L 281.491267 197.030654 
L 281.61927 206.987022 
L 281.747274 197.986863 
L 281.811276 204.821959 
L 281.875278 194.61421 
L 281.93928 202.607763 
L 282.067284 186.665848 
L 282.323292 199.72351 
L 282.387294 194.916989 
L 282.451296 206.33968 
L 282.515298 205.703941 
L 282.5793 199.516225 
L 282.643302 206.516805 
L 282.707304 194.331805 
L 282.771306 203.865269 
L 282.835307 199.082917 
L 282.963311 206.583749 
L 283.155317 194.816231 
L 283.219319 202.462062 
L 283.283321 200.920061 
L 283.347323 192.274995 
L 283.411325 204.944097 
L 283.475327 202.260158 
L 283.603331 190.508174 
L 283.667333 199.714593 
L 283.731335 197.956751 
L 283.795337 200.760646 
L 283.859339 199.688481 
L 283.987343 191.410765 
L 284.051345 194.438983 
L 284.179348 197.078939 
L 284.24335 202.36216 
L 284.307352 193.596999 
L 284.435356 205.952811 
L 284.56336 198.632566 
L 284.627362 200.28146 
L 284.691364 199.223926 
L 284.755366 193.440517 
L 284.819368 198.914418 
L 284.88337 196.737565 
L 284.947372 195.912023 
L 285.011374 196.883144 
L 285.075376 193.144879 
L 285.139378 193.669176 
L 285.20338 201.802317 
L 285.267382 195.16306 
L 285.331384 195.908452 
L 285.395385 198.438688 
L 285.459387 209.217429 
L 285.523389 201.481167 
L 285.651393 194.725529 
L 285.779397 208.203587 
L 285.843399 194.067954 
L 285.907401 197.249322 
L 285.971403 193.780373 
L 286.163409 200.201163 
L 286.227411 196.080593 
L 286.291413 207.404376 
L 286.355415 203.946171 
L 286.419417 202.695675 
L 286.483419 207.825848 
L 286.547421 201.520493 
L 286.611422 203.569367 
L 286.675424 210.659813 
L 286.739426 206.341866 
L 286.803428 201.812952 
L 286.931432 207.205175 
L 287.059436 202.107006 
L 287.18744 188.31777 
L 287.251442 200.370507 
L 287.315444 193.273334 
L 287.379446 194.22454 
L 287.443448 189.533179 
L 287.50745 198.940404 
L 287.571452 192.954486 
L 287.635454 193.254432 
L 287.699456 194.418729 
L 287.763458 200.980114 
L 287.891461 188.200137 
L 288.019465 201.932742 
L 288.211471 193.151534 
L 288.275473 192.379442 
L 288.531481 201.052203 
L 288.595483 193.664709 
L 288.659485 200.570215 
L 288.723487 194.68824 
L 288.787489 199.027564 
L 288.979495 186.546639 
L 289.107499 200.704929 
L 289.1715 196.556172 
L 289.235502 197.063443 
L 289.299504 199.047326 
L 289.363506 194.280647 
L 289.427508 197.948965 
L 289.555512 189.918838 
L 289.683516 195.978212 
L 289.747518 190.196495 
L 289.81152 190.917401 
L 289.875522 190.80047 
L 289.939524 194.863284 
L 290.003526 187.019415 
L 290.067528 191.912608 
L 290.13153 195.962901 
L 290.195532 183.563871 
L 290.259534 190.52572 
L 290.323536 186.881197 
L 290.387538 192.581231 
L 290.451539 189.357174 
L 290.515541 190.074172 
L 290.579543 200.718772 
L 290.771549 182.413663 
L 290.835551 189.10961 
L 290.899553 182.827561 
L 290.963555 191.154426 
L 291.027557 189.607132 
L 291.155561 185.088617 
L 291.219563 190.309004 
L 291.283565 180.181249 
L 291.347567 192.955036 
L 291.539573 178.170645 
L 291.603575 179.705741 
L 291.731578 189.059919 
L 291.79558 178.81862 
L 291.859582 182.981145 
L 291.923584 179.64848 
L 292.051588 191.984863 
L 292.243594 182.820528 
L 292.371598 179.423203 
L 292.4356 180.538978 
L 292.499602 184.057231 
L 292.563604 181.763481 
L 292.627606 183.473927 
L 292.691608 176.792635 
L 292.75561 179.503 
L 292.819612 181.410628 
L 292.883614 164.801567 
L 293.011617 181.151701 
L 293.075619 180.074474 
L 293.139621 174.640027 
L 293.267625 180.616356 
L 293.331627 169.077557 
L 293.395629 180.648565 
L 293.459631 173.274901 
L 293.523633 170.052093 
L 293.587635 182.76392 
L 293.651637 166.968399 
L 293.715639 171.808384 
L 293.779641 179.969133 
L 293.843643 176.954616 
L 293.907645 181.181406 
L 293.971647 163.916816 
L 294.035649 171.66086 
L 294.099651 179.777256 
L 294.163653 174.251957 
L 294.227655 172.044499 
L 294.291656 181.492853 
L 294.483662 166.946082 
L 294.611666 174.552099 
L 294.675668 177.956779 
L 294.803672 168.007174 
L 294.867674 171.79307 
L 294.931676 158.489733 
L 294.995678 165.72925 
L 295.123682 158.930806 
L 295.187684 174.550032 
L 295.251686 170.100173 
L 295.315688 168.710244 
L 295.37969 162.185142 
L 295.443692 164.610901 
L 295.635697 173.181946 
L 295.699699 175.963024 
L 295.763701 160.219527 
L 295.827703 160.556874 
L 295.891705 172.581158 
L 295.955707 159.159495 
L 296.019709 164.387526 
L 296.083711 169.978919 
L 296.211715 161.074768 
L 296.275717 173.013452 
L 296.339719 171.840389 
L 296.403721 164.883934 
L 296.467723 167.826282 
L 296.659729 162.867229 
L 296.723731 165.799375 
L 296.851734 157.024015 
L 296.915736 167.901241 
L 296.979738 163.246185 
L 297.04374 162.474791 
L 297.107742 159.312179 
L 297.171744 162.962097 
L 297.299748 155.377984 
L 297.36375 155.723003 
L 297.427752 151.859485 
L 297.555756 160.588366 
L 297.619758 155.823614 
L 297.811764 162.304005 
L 297.875766 164.635389 
L 298.00377 152.461285 
L 298.195775 170.264154 
L 298.259777 150.79902 
L 298.323779 155.823193 
L 298.387781 164.244466 
L 298.579787 153.092554 
L 298.771793 160.72802 
L 298.835795 149.688037 
L 298.899797 155.014602 
L 298.963799 149.510012 
L 299.027801 150.396266 
L 299.219807 162.216629 
L 299.283809 151.633329 
L 299.34781 159.726319 
L 299.411812 159.541069 
L 299.475814 158.479636 
L 299.539816 155.319131 
L 299.603818 158.991541 
L 299.66782 156.888388 
L 299.731822 156.710938 
L 299.795824 146.07913 
L 299.859826 150.616535 
L 299.923828 149.407371 
L 299.98783 149.937534 
L 300.051832 144.574481 
L 300.179836 158.090311 
L 300.243838 148.425189 
L 300.30784 158.435331 
L 300.371842 152.411939 
L 300.435844 144.858973 
L 300.499846 152.259759 
L 300.691851 133.664012 
L 300.755853 147.015407 
L 300.819855 144.990652 
L 300.883857 145.865573 
L 300.947859 142.489719 
L 301.011861 148.458513 
L 301.075863 141.191795 
L 301.139865 142.238944 
L 301.203867 141.424804 
L 301.267869 143.651267 
L 301.459875 131.812597 
L 301.587879 147.660963 
L 301.651881 138.486068 
L 301.715883 143.205253 
L 301.779885 144.741709 
L 301.843887 154.104119 
L 302.035892 124.974636 
L 302.099894 140.607923 
L 302.163896 132.546629 
L 302.227898 130.619802 
L 302.2919 137.768793 
L 302.355902 130.078406 
L 302.483906 143.826194 
L 302.61191 130.159849 
L 302.675912 131.693802 
L 302.739914 135.672009 
L 302.803916 135.239188 
L 302.867918 135.621976 
L 302.93192 134.542072 
L 303.123926 141.677927 
L 303.251929 126.783043 
L 303.315931 141.51029 
L 303.379933 130.952239 
L 303.443935 139.690592 
L 303.635941 130.914682 
L 303.699943 138.645806 
L 303.763945 135.042849 
L 303.891949 137.401772 
L 304.019953 124.707163 
L 304.083955 129.21975 
L 304.147957 121.40696 
L 304.339963 140.382855 
L 304.403965 121.623203 
L 304.467966 124.224157 
L 304.59597 137.055047 
L 304.787976 122.977943 
L 304.91598 131.847711 
L 304.979982 118.785113 
L 305.043984 124.295728 
L 305.107986 125.010153 
L 305.171988 136.19075 
L 305.23599 127.664275 
L 305.299992 131.441383 
L 305.363994 130.151676 
L 305.427996 138.503043 
L 305.620002 112.256077 
L 305.748005 123.427867 
L 305.812007 115.809154 
L 305.876009 131.052666 
L 305.940011 126.467851 
L 306.004013 111.648166 
L 306.068015 127.729949 
L 306.132017 120.020169 
L 306.196019 119.836851 
L 306.260021 127.891933 
L 306.324023 126.053454 
L 306.516029 105.850569 
L 306.580031 121.145291 
L 306.644033 114.147504 
L 306.708035 121.385665 
L 306.772037 113.821386 
L 306.836039 117.201729 
L 306.900041 117.183843 
L 307.028044 112.159629 
L 307.092046 96.61756 
L 307.156048 106.880342 
L 307.22005 116.525379 
L 307.284052 105.723643 
L 307.348054 109.225927 
L 307.412056 104.142894 
L 307.54006 115.757271 
L 307.604062 114.885203 
L 307.668064 106.222483 
L 307.732066 116.611325 
L 307.796068 113.443609 
L 307.86007 102.10225 
L 307.924072 103.559772 
L 308.116078 115.752821 
L 308.244081 103.397932 
L 308.372085 96.231637 
L 308.436087 101.364082 
L 308.564091 93.403556 
L 308.628093 93.876219 
L 308.692095 99.683564 
L 308.756097 96.922374 
L 308.820099 88.156095 
L 308.884101 91.57223 
L 308.948103 98.044586 
L 309.012105 87.656184 
L 309.076107 89.252809 
L 309.204111 101.568826 
L 309.268113 88.212516 
L 309.332115 94.629359 
L 309.396117 94.828638 
L 309.460119 93.654013 
L 309.52412 81.097851 
L 309.588122 97.483571 
L 309.652124 91.666336 
L 309.716126 92.148092 
L 309.780128 96.034483 
L 309.908132 84.769012 
L 309.972134 90.006068 
L 310.036136 89.410925 
L 310.100138 85.174952 
L 310.16414 90.521277 
L 310.228142 85.897849 
L 310.292144 89.615087 
L 310.356146 86.352676 
L 310.420148 89.25559 
L 310.48415 98.423305 
L 310.676156 77.674069 
L 310.740158 78.055234 
L 310.996165 83.656716 
L 311.124169 75.886394 
L 311.188171 88.961676 
L 311.252173 83.452809 
L 311.316175 87.216746 
L 311.380177 80.17407 
L 311.444179 82.894346 
L 311.572183 73.308531 
L 311.700187 74.364061 
L 311.764189 77.462387 
L 311.828191 73.620855 
L 311.892193 84.140187 
L 311.956195 78.641633 
L 312.020197 72.400108 
L 312.084198 74.84322 
L 312.1482 77.278401 
L 312.212202 71.587306 
L 312.340206 79.861116 
L 312.404208 79.499186 
L 312.532212 75.266526 
L 312.596214 82.944157 
L 312.724218 70.738935 
L 312.852222 83.514474 
L 312.916224 69.133699 
L 312.980226 75.007731 
L 313.044228 75.295392 
L 313.172232 72.546296 
L 313.236234 76.898302 
L 313.364237 70.250483 
L 313.428239 71.530996 
L 313.492241 71.222666 
L 313.620245 60.411995 
L 313.748249 79.453204 
L 313.812251 73.586567 
L 313.876253 70.275316 
L 313.940255 74.193299 
L 314.068259 59.713147 
L 314.196263 72.668173 
L 314.260265 58.340022 
L 314.452271 79.59202 
L 314.516273 70.685386 
L 314.580274 74.303841 
L 314.644276 74.029658 
L 314.708278 70.590802 
L 314.77228 72.084791 
L 314.836282 72.873298 
L 314.900284 79.95573 
L 315.09229 71.377061 
L 315.156292 80.028911 
L 315.220294 74.917111 
L 315.284296 73.397396 
L 315.348298 79.123535 
L 315.476302 71.861148 
L 315.540304 70.024961 
L 315.604306 73.32453 
L 315.668308 85.137423 
L 315.796312 65.831432 
L 315.860313 68.441238 
L 315.924315 77.127895 
L 315.988317 72.957965 
L 316.052319 77.673411 
L 316.180323 62.577175 
L 316.308327 79.327259 
L 316.372329 67.112103 
L 316.436331 73.008572 
L 316.628337 56.54772 
L 316.692339 68.024035 
L 316.756341 60.057073 
L 316.820343 63.279169 
L 316.884345 75.653115 
L 316.948347 58.039083 
L 317.012349 64.617295 
L 317.140352 68.933398 
L 317.268356 63.637313 
L 317.332358 74.544538 
L 317.39636 63.111719 
L 317.460362 64.885461 
L 317.524364 65.372802 
L 317.71637 74.994284 
L 317.908376 57.764566 
L 317.972378 64.260858 
L 318.03638 59.307083 
L 318.100382 67.552009 
L 318.164384 56.983933 
L 318.228386 75.192643 
L 318.292388 57.39005 
L 318.35639 60.703048 
L 318.420391 56.560287 
L 318.484393 56.976443 
L 318.612397 63.35293 
L 318.676399 45.115835 
L 318.740401 58.642874 
L 318.804403 53.554602 
L 318.868405 58.358283 
L 319.060411 51.841232 
L 319.124413 51.272139 
L 319.188415 47.892915 
L 319.252417 59.075204 
L 319.316419 50.194359 
L 319.380421 54.335231 
L 319.444423 49.296141 
L 319.508425 56.504277 
L 319.572427 45.045078 
L 319.636429 51.640408 
L 319.828434 56.033646 
L 319.892436 49.815529 
L 319.956438 54.964905 
L 320.02044 52.487971 
L 320.084442 45.454228 
L 320.148444 47.38238 
L 320.212446 44.270686 
L 320.276448 49.576539 
L 320.34045 42.14475 
L 320.404452 46.95448 
L 320.468454 63.150264 
L 320.532456 59.858231 
L 320.596458 51.051666 
L 320.66046 58.657703 
L 320.724462 56.73622 
L 320.916468 32.194942 
L 321.172475 53.502306 
L 321.236477 40.758939 
L 321.300479 45.443816 
L 321.364481 51.312039 
L 321.428483 35.996508 
L 321.492485 37.716895 
L 321.556487 55.42706 
L 321.620489 49.301054 
L 321.748493 55.761441 
L 321.812495 34.670589 
L 321.876497 50.818897 
L 321.940499 44.159085 
L 322.004501 34.735205 
L 322.196507 57.323162 
L 322.260508 39.834404 
L 322.32451 42.058461 
L 322.452514 44.794575 
L 322.64452 35.790045 
L 322.836526 50.626496 
L 323.092534 34.260527 
L 323.220538 45.791205 
L 323.348542 38.985303 
L 323.540547 48.033362 
L 323.668551 49.354856 
L 323.732553 52.330825 
L 323.796555 39.247831 
L 323.860557 39.307695 
L 324.052563 53.799031 
L 324.244569 38.482586 
L 324.436575 54.763105 
L 324.500577 45.182423 
L 324.564579 46.882687 
L 324.628581 46.548321 
L 324.692583 40.797571 
L 324.756584 49.121167 
L 324.820586 47.745799 
L 324.94859 41.104395 
L 325.012592 51.902457 
L 325.076594 46.645571 
L 325.140596 45.944869 
L 325.204598 43.43026 
L 325.396604 58.989116 
L 325.460606 46.535071 
L 325.524608 52.655819 
L 325.716614 43.114976 
L 325.780616 45.406104 
L 325.90862 54.949313 
L 326.100625 38.139814 
L 326.164627 49.458505 
L 326.228629 37.173931 
L 326.292631 41.719549 
L 326.420635 44.062912 
L 326.484637 43.545292 
L 326.612641 55.99773 
L 326.804647 39.719694 
L 326.868649 49.24719 
L 327.060655 40.105576 
L 327.124657 46.190068 
L 327.188659 41.583417 
L 327.252661 43.947528 
L 327.316662 44.498874 
L 327.380664 36.424628 
L 327.444666 37.932869 
L 327.508668 43.723265 
L 327.57267 40.149147 
L 327.764676 34.515717 
L 327.828678 33.981141 
L 327.956682 48.261898 
L 328.020684 38.13987 
L 328.084686 39.493336 
L 328.148688 36.124373 
L 328.340694 48.230022 
L 328.468698 30.771411 
L 328.660703 43.067143 
L 328.724705 35.553514 
L 328.788707 40.543724 
L 328.852709 38.191155 
L 329.044715 46.20454 
L 329.172719 37.997806 
L 329.300723 46.790004 
L 329.364725 57.209478 
L 329.428727 35.899765 
L 329.492729 37.638075 
L 329.620733 48.403744 
L 329.87674 32.074072 
L 329.940742 47.570203 
L 330.004744 41.829627 
L 330.132748 49.774601 
L 330.260752 47.288746 
L 330.388756 54.069711 
L 330.452758 51.129366 
L 330.580762 41.858983 
L 330.772768 57.359067 
L 330.83677 49.183829 
L 330.900772 55.520099 
L 330.964774 50.134545 
L 331.028776 51.96868 
L 331.092778 57.945373 
L 331.156779 49.856323 
L 331.220781 53.955861 
L 331.348785 57.989271 
L 331.412787 50.787973 
L 331.476789 52.604544 
L 331.668795 47.665173 
L 331.860801 39.211482 
L 331.988805 55.353144 
L 332.116809 42.296213 
L 332.244813 49.900173 
L 332.308815 49.374427 
L 332.372817 45.02521 
L 332.436818 49.187268 
L 332.50082 45.379082 
L 332.564822 50.691406 
L 332.628824 48.412319 
L 332.692826 50.030476 
L 332.82083 42.35045 
L 333.012836 56.329231 
L 333.076838 49.551466 
L 333.14084 52.345894 
L 333.332846 42.645647 
L 333.524852 49.558287 
L 333.588854 48.881152 
L 333.652855 47.212597 
L 333.716857 57.8877 
L 333.780859 50.143466 
L 333.844861 53.762014 
L 333.908863 52.635143 
L 333.972865 51.675383 
L 334.036867 45.879994 
L 334.100869 50.301958 
L 334.164871 49.526244 
L 334.228873 45.137703 
L 334.292875 51.664205 
L 334.356877 49.58713 
L 334.420879 49.598747 
L 334.484881 57.462617 
L 334.548883 44.420822 
L 334.612885 46.211666 
L 334.676887 46.152452 
L 334.740889 46.544425 
L 334.804891 41.995409 
L 334.868893 42.358844 
L 335.060898 56.080353 
L 335.1249 44.608096 
L 335.188902 57.072462 
L 335.252904 47.711794 
L 335.316906 48.365064 
L 335.380908 53.75604 
L 335.44491 45.283733 
L 335.508912 51.32108 
L 335.636916 54.457618 
L 335.76492 50.401612 
L 335.828922 54.187914 
L 335.892924 47.909733 
L 335.956926 54.18769 
L 336.08493 41.422866 
L 336.276935 51.581157 
L 336.404939 54.279939 
L 336.468941 52.96784 
L 336.532943 50.10181 
L 336.596945 51.457694 
L 336.660947 50.584481 
L 336.724949 55.260811 
L 336.788951 52.049617 
L 336.916955 46.37003 
L 336.980957 53.237222 
L 337.044959 49.664884 
L 337.108961 49.28649 
L 337.236965 56.807411 
L 337.300967 54.450226 
L 337.364969 49.726012 
L 337.428971 52.311203 
L 337.492972 56.57542 
L 337.556974 55.707513 
L 337.684978 51.744895 
L 337.74898 53.088024 
L 337.812982 57.499981 
L 337.876984 56.875304 
L 337.940986 58.403914 
L 338.004988 55.284895 
L 338.06899 62.217393 
L 338.196994 53.122798 
L 338.260996 55.99478 
L 338.324998 52.485221 
L 338.453002 60.909596 
L 338.517004 53.733809 
L 338.581006 56.572372 
L 338.70901 63.535533 
L 338.837013 53.232728 
L 339.029019 60.338199 
L 339.093021 58.644678 
L 339.221025 62.822294 
L 339.285027 58.571785 
L 339.349029 59.805786 
L 339.541035 71.064172 
L 339.669039 61.899996 
L 339.925047 65.479045 
L 339.989049 60.328993 
L 340.05305 65.970805 
L 340.117052 65.338358 
L 340.181054 63.603577 
L 340.245056 64.96154 
L 340.309058 63.537166 
L 340.37306 68.864694 
L 340.437062 67.657876 
L 340.629068 66.637055 
L 340.757072 68.381862 
L 340.885076 74.302629 
L 341.077082 67.676488 
L 341.141084 76.331381 
L 341.205086 75.211176 
L 341.269088 76.480352 
L 341.333089 81.04178 
L 341.397091 75.485584 
L 341.461093 82.632587 
L 341.525095 79.231249 
L 341.589097 77.206394 
L 341.653099 78.237031 
L 341.781103 76.470804 
L 341.845105 73.287594 
L 341.909107 79.46864 
L 341.973109 78.704788 
L 342.037111 78.143245 
L 342.101113 78.763032 
L 342.165115 78.279181 
L 342.357121 86.686651 
L 342.421123 80.464164 
L 342.485125 82.44627 
L 342.549126 82.388641 
L 342.613128 80.409335 
L 342.67713 81.102139 
L 342.869136 89.158256 
L 342.99714 85.119482 
L 343.061142 85.033078 
L 343.125144 87.995555 
L 343.189146 85.819062 
L 343.253148 86.214559 
L 343.31715 89.002605 
L 343.381152 88.490963 
L 343.445154 86.601613 
L 343.573158 91.682672 
L 343.63716 88.650012 
L 343.701162 88.062745 
L 343.829165 94.095531 
L 343.893167 91.545973 
L 344.085173 94.899666 
L 344.213177 90.115619 
L 344.277179 91.309 
L 344.341181 95.727861 
L 344.405183 93.868397 
L 344.597189 101.192949 
L 344.725193 93.959794 
L 344.789195 100.658238 
L 344.853197 100.414648 
L 344.981201 98.18489 
L 345.109204 103.085794 
L 345.173206 96.771061 
L 345.237208 101.702015 
L 345.30121 101.699132 
L 345.365212 99.076483 
L 345.557218 106.417857 
L 345.62122 105.972527 
L 345.749224 109.993935 
L 345.813226 110.139504 
L 345.877228 104.987301 
L 345.94123 108.238747 
L 346.005232 110.838529 
L 346.069234 109.198737 
L 346.133236 107.913413 
L 346.26124 110.07519 
L 346.453245 107.615352 
L 346.517247 112.574473 
L 346.581249 111.211368 
L 346.645251 109.590438 
L 346.773255 116.402461 
L 346.901259 115.958324 
L 346.965261 113.054284 
L 347.093265 118.656181 
L 347.157267 114.66766 
L 347.221269 120.847362 
L 347.285271 116.940221 
L 347.349273 118.699845 
L 347.413275 117.540491 
L 347.477277 115.857586 
L 347.541279 121.414875 
L 347.605281 116.874476 
L 347.797286 124.216279 
L 347.861288 127.925974 
L 347.92529 120.629176 
L 347.989292 130.372134 
L 348.053294 124.115227 
L 348.2453 131.127026 
L 348.309302 127.478842 
L 348.373304 131.995352 
L 348.437306 126.302112 
L 348.501308 127.436364 
L 348.821318 133.344516 
L 348.88532 131.572531 
L 348.949321 133.774514 
L 349.013323 132.564592 
L 349.077325 131.409733 
L 349.333333 138.511563 
L 349.397335 134.644059 
L 349.461337 135.26373 
L 349.909351 141.794183 
L 349.973353 141.430979 
L 350.22936 147.636387 
L 350.293362 143.880073 
L 350.485368 149.125224 
L 350.677374 145.19802 
L 350.805378 150.04959 
L 350.933382 149.358439 
L 351.125388 154.778002 
L 351.253392 152.113593 
L 351.317394 156.355358 
L 351.381396 153.961789 
L 351.445398 153.001397 
L 351.637403 156.990638 
L 351.701405 153.751677 
L 351.765407 155.880695 
L 351.829409 155.532143 
L 351.893411 160.890002 
L 351.957413 158.003321 
L 352.021415 158.759851 
L 352.085417 155.983677 
L 352.341425 162.985686 
L 352.533431 164.480203 
L 352.597433 162.082889 
L 352.789438 166.542412 
L 352.85344 164.468708 
L 352.917442 166.701339 
L 352.981444 165.475687 
L 353.045446 166.460051 
L 353.109448 166.011765 
L 353.17345 166.527372 
L 353.365456 169.729835 
L 353.429458 169.270298 
L 353.621464 174.102052 
L 353.685466 169.977618 
L 353.749468 171.782581 
L 353.81347 171.50655 
L 353.877472 171.892414 
L 354.069477 177.581584 
L 354.197481 176.566812 
L 354.389487 179.93514 
L 354.453489 177.179163 
L 354.581493 180.969756 
L 354.645495 181.014674 
L 354.709497 182.817617 
L 354.773499 181.945566 
L 354.837501 181.571097 
L 354.965505 184.463942 
L 355.029507 182.178716 
L 355.093509 185.080443 
L 355.157511 182.217187 
L 355.349516 185.246002 
L 355.541522 186.77696 
L 355.605524 186.004717 
L 355.669526 189.21235 
L 355.733528 188.660507 
L 355.79753 187.880383 
L 355.861532 189.461191 
L 355.925534 189.378326 
L 355.989536 189.683484 
L 356.053538 188.813765 
L 356.245544 192.092389 
L 356.309546 190.716023 
L 356.43755 195.311857 
L 356.565553 194.965329 
L 356.629555 194.654765 
L 356.885563 198.606889 
L 356.949565 198.770086 
L 357.013567 199.681672 
L 357.077569 198.291216 
L 357.205573 201.372658 
L 357.269575 200.688984 
L 357.333577 201.890721 
L 357.397579 200.891171 
L 357.653587 204.558009 
L 357.717589 208.023104 
L 357.781591 207.078361 
L 357.909594 205.919281 
L 358.165602 211.128503 
L 358.229604 209.888022 
L 358.357608 208.941341 
L 358.42161 210.254835 
L 358.485612 209.737809 
L 358.549614 210.112597 
L 358.677618 212.925532 
L 358.74162 212.739027 
L 358.805622 212.090255 
L 358.869624 212.520457 
L 359.06163 216.151838 
L 359.125631 212.358088 
L 359.189633 214.054314 
L 359.445641 216.53605 
L 359.573645 216.480368 
L 359.637647 216.745309 
L 359.829653 218.504996 
L 359.893655 219.553491 
L 359.957657 218.939335 
L 360.085661 219.490506 
L 360.149663 221.737016 
L 360.213665 220.698634 
L 360.341669 222.808076 
L 360.40567 222.648399 
L 360.469672 222.584281 
L 360.533674 222.058421 
L 360.72568 225.068438 
L 360.789682 223.975296 
L 360.853684 224.015691 
L 360.917686 224.225479 
L 361.109692 226.193989 
L 361.173694 226.004311 
L 361.237696 226.130691 
L 361.301698 226.586508 
L 361.3657 227.902991 
L 361.429702 227.584155 
L 361.493704 227.398273 
L 361.557706 227.763486 
L 361.621707 230.303674 
L 361.685709 229.535304 
L 361.749711 228.66215 
L 361.813713 229.179538 
L 362.069721 230.982265 
L 362.133723 230.503216 
L 362.261727 232.56663 
L 362.325729 232.221816 
L 362.389731 233.986414 
L 362.453733 233.285843 
L 362.517735 233.406349 
L 362.581737 235.482303 
L 362.645739 234.978274 
L 362.837745 236.792331 
L 362.901746 236.32919 
L 363.157754 238.983031 
L 363.221756 238.90316 
L 363.285758 238.636576 
L 363.413762 239.593574 
L 363.477764 238.609952 
L 363.66977 240.693068 
L 363.733772 239.610196 
L 363.797774 240.866018 
L 363.861776 239.576567 
L 364.117784 243.062795 
L 364.245787 241.686507 
L 364.437793 243.560316 
L 364.501795 243.207569 
L 364.693801 244.880472 
L 364.821805 245.949173 
L 364.885807 244.854848 
L 365.013811 246.474395 
L 365.077813 245.487172 
L 365.205817 247.319653 
L 365.269819 247.223881 
L 365.525826 248.347339 
L 365.589828 248.061633 
L 365.781834 249.915717 
L 365.845836 249.884704 
L 366.037842 250.99247 
L 366.101844 250.910626 
L 366.165846 250.034521 
L 366.229848 251.682655 
L 366.29385 251.178776 
L 366.357852 251.414515 
L 366.485856 252.202319 
L 366.549858 252.299991 
L 366.61386 251.615755 
L 366.805865 253.485213 
L 366.869867 253.147543 
L 366.933869 254.259292 
L 366.997871 253.899011 
L 367.125875 253.916979 
L 367.253879 255.307127 
L 367.317881 254.783238 
L 367.381883 255.060253 
L 367.765895 257.171004 
L 367.829897 256.807974 
L 368.021902 258.12153 
L 368.149906 258.842431 
L 368.213908 258.791633 
L 368.341912 258.958676 
L 368.533918 260.733528 
L 368.59792 260.057487 
L 368.661922 260.97912 
L 368.725924 260.905654 
L 368.789926 260.946196 
L 368.853928 261.209358 
L 368.91793 260.904489 
L 369.109936 262.089684 
L 369.173938 262.07098 
L 369.685953 263.526686 
L 369.941961 264.494728 
L 370.005963 264.516193 
L 370.069965 264.41333 
L 370.261971 264.844095 
L 370.325973 264.721112 
L 370.517978 266.213534 
L 370.58198 265.878621 
L 370.645982 266.066284 
L 370.709984 266.651316 
L 370.773986 266.540237 
L 371.478008 268.674311 
L 371.54201 268.335114 
L 371.798017 269.471378 
L 371.862019 269.323994 
L 371.926021 269.684561 
L 371.990023 269.563986 
L 372.246031 270.094465 
L 372.310033 270.052351 
L 372.374035 270.695913 
L 372.438037 270.419232 
L 372.758047 271.578745 
L 372.886051 271.787339 
L 373.142058 272.365289 
L 373.270062 272.337756 
L 373.52607 273.19133 
L 373.590072 273.066008 
L 373.782078 273.523528 
L 373.84608 273.385156 
L 373.910082 273.791129 
L 373.974084 273.590213 
L 374.358095 274.420497 
L 374.486099 274.499516 
L 374.678105 274.793616 
L 374.806109 274.755117 
L 374.934113 275.226568 
L 374.998115 275.192469 
L 375.126119 275.487052 
L 375.318125 275.345062 
L 375.382127 275.953056 
L 375.446129 275.852513 
L 375.638134 276.108191 
L 375.702136 276.023207 
L 375.958144 276.569756 
L 376.214152 276.971073 
L 376.278154 276.786764 
L 376.342156 276.931983 
L 376.406158 276.837389 
L 376.662166 277.308698 
L 376.726168 277.286323 
L 377.046177 277.741581 
L 377.174181 277.676991 
L 377.302185 278.144619 
L 377.366187 278.065202 
L 377.558193 278.416232 
L 377.686197 278.476618 
L 377.878203 278.809543 
L 378.006207 278.832091 
L 378.070209 279.030322 
L 378.134211 279.002517 
L 378.262214 278.992132 
L 378.390218 279.257483 
L 378.518222 279.264545 
L 379.030238 279.717408 
L 379.09424 279.707833 
L 379.286246 279.981857 
L 379.478251 279.975158 
L 380.310277 280.54165 
L 380.75829 280.667732 
L 380.950296 280.864732 
L 381.846324 281.176633 
L 382.038329 281.360802 
L 382.102331 281.267201 
L 382.230335 281.397729 
L 382.486343 281.461342 
L 382.998359 281.729348 
L 383.126363 281.695511 
L 383.318368 281.794421 
L 383.574376 281.823487 
L 383.830384 281.945531 
L 384.086392 282.005836 
L 384.214396 282.002871 
L 384.726411 282.15237 
L 384.918417 282.158921 
L 385.110423 282.22091 
L 385.302429 282.292277 
L 385.494435 282.251181 
L 386.134454 282.428125 
L 386.390462 282.455533 
L 387.286489 282.561251 
L 387.798505 282.594038 
L 389.462556 282.76338 
L 390.742595 282.868761 
L 392.470647 282.956834 
L 394.326704 282.985393 
L 396.566772 283.014288 
L 398.294825 283.02155 
L 400.214883 283.036049 
L 412.183248 283.044828 
L 412.183248 283.044828 
" style="fill:none;stroke:#000000;stroke-linecap:square;stroke-width:2;"/>
   </g>
   <g id="patch_3">
    <path d="M 59.03649 295.65851 
L 59.03649 18.15774 
" style="fill:none;stroke:#000000;stroke-linecap:square;stroke-linejoin:miter;stroke-width:3;"/>
   </g>
   <g id="patch_4">
    <path d="M 428.99976 295.65851 
L 428.99976 18.15774 
" style="fill:none;stroke:#000000;stroke-linecap:square;stroke-linejoin:miter;stroke-width:3;"/>
   </g>
   <g id="patch_5">
    <path d="M 59.03649 295.65851 
L 428.99976 295.65851 
" style="fill:none;stroke:#000000;stroke-linecap:square;stroke-linejoin:miter;stroke-width:3;"/>
   </g>
   <g id="patch_6">
    <path d="M 59.03649 18.15774 
L 428.99976 18.15774 
" style="fill:none;stroke:#000000;stroke-linecap:square;stroke-linejoin:miter;stroke-width:3;"/>
   </g>
   <g id="text_14">
    <g id="patch_7">
     <path d="M 383.159964 227.009382 
L 407.834964 227.009382 
Q 410.984964 227.009382 410.984964 223.859382 
L 410.984964 213.697351 
Q 410.984964 210.547351 407.834964 210.547351 
L 383.159964 210.547351 
Q 380.009964 210.547351 380.009964 213.697351 
L 380.009964 223.859382 
Q 380.009964 227.009382 383.159964 227.009382 
z
" style="fill:#ffffff;stroke:#000000;stroke-linejoin:miter;"/>
    </g>
    <!-- $10^{-4}$ -->
    <g transform="translate(383.159964 221.67571)scale(0.105 -0.105)">
     <use transform="translate(0 0.684375)" xlink:href="#DejaVuSans-31"/>
     <use transform="translate(63.623047 0.684375)" xlink:href="#DejaVuSans-30"/>
     <use transform="translate(128.203125 38.965625)scale(0.7)" xlink:href="#DejaVuSans-2212"/>
     <use transform="translate(186.855469 38.965625)scale(0.7)" xlink:href="#DejaVuSans-34"/>
    </g>
   </g>
   <g id="text_15">
    <g id="patch_8">
     <path d="M 83.818045 227.009382 
L 108.493045 227.009382 
Q 111.643045 227.009382 111.643045 223.859382 
L 111.643045 213.697351 
Q 111.643045 210.547351 108.493045 210.547351 
L 83.818045 210.547351 
Q 80.668045 210.547351 80.668045 213.697351 
L 80.668045 223.859382 
Q 80.668045 227.009382 83.818045 227.009382 
z
" style="fill:#ffffff;stroke:#000000;stroke-linejoin:miter;"/>
    </g>
    <!-- $10^{-4}$ -->
    <g transform="translate(83.818045 221.67571)scale(0.105 -0.105)">
     <use transform="translate(0 0.684375)" xlink:href="#DejaVuSans-31"/>
     <use transform="translate(63.623047 0.684375)" xlink:href="#DejaVuSans-30"/>
     <use transform="translate(128.203125 38.965625)scale(0.7)" xlink:href="#DejaVuSans-2212"/>
     <use transform="translate(186.855469 38.965625)scale(0.7)" xlink:href="#DejaVuSans-34"/>
    </g>
   </g>
   <g id="text_16">
    <g id="patch_9">
     <path d="M 352.655034 165.640254 
L 377.330034 165.640254 
Q 380.480034 165.640254 380.480034 162.490254 
L 380.480034 152.328223 
Q 380.480034 149.178223 377.330034 149.178223 
L 352.655034 149.178223 
Q 349.505034 149.178223 349.505034 152.328223 
L 349.505034 162.490254 
Q 349.505034 165.640254 352.655034 165.640254 
z
" style="fill:#ffffff;stroke:#000000;stroke-linejoin:miter;"/>
    </g>
    <!-- $10^{-1}$ -->
    <g transform="translate(352.655034 160.306582)scale(0.105 -0.105)">
     <use transform="translate(0 0.684375)" xlink:href="#DejaVuSans-31"/>
     <use transform="translate(63.623047 0.684375)" xlink:href="#DejaVuSans-30"/>
     <use transform="translate(128.203125 38.965625)scale(0.7)" xlink:href="#DejaVuSans-2212"/>
     <use transform="translate(186.855469 38.965625)scale(0.7)" xlink:href="#DejaVuSans-31"/>
    </g>
   </g>
   <g id="text_17">
    <g id="patch_10">
     <path d="M 117.275064 165.640254 
L 141.950064 165.640254 
Q 145.100064 165.640254 145.100064 162.490254 
L 145.100064 152.328223 
Q 145.100064 149.178223 141.950064 149.178223 
L 117.275064 149.178223 
Q 114.125064 149.178223 114.125064 152.328223 
L 114.125064 162.490254 
Q 114.125064 165.640254 117.275064 165.640254 
z
" style="fill:#ffffff;stroke:#000000;stroke-linejoin:miter;"/>
    </g>
    <!-- $10^{-1}$ -->
    <g transform="translate(117.275064 160.306582)scale(0.105 -0.105)">
     <use transform="translate(0 0.684375)" xlink:href="#DejaVuSans-31"/>
     <use transform="translate(63.623047 0.684375)" xlink:href="#DejaVuSans-30"/>
     <use transform="translate(128.203125 38.965625)scale(0.7)" xlink:href="#DejaVuSans-2212"/>
     <use transform="translate(186.855469 38.965625)scale(0.7)" xlink:href="#DejaVuSans-31"/>
    </g>
   </g>
   <g id="text_18">
    <!-- a) -->
    <g transform="translate(62.736123 45.907817)scale(0.24 -0.24)">
     <defs>
      <path d="M 513 4856 
L 1013 4856 
Q 1481 4119 1714 3412 
Q 1947 2706 1947 2009 
Q 1947 1309 1714 600 
Q 1481 -109 1013 -844 
L 513 -844 
Q 928 -128 1133 580 
Q 1338 1288 1338 2009 
Q 1338 2731 1133 3434 
Q 928 4138 513 4856 
z
" id="DejaVuSans-29" transform="scale(0.015625)"/>
     </defs>
     <use xlink:href="#DejaVuSans-61"/>
     <use x="61.279297" xlink:href="#DejaVuSans-29"/>
    </g>
   </g>
  </g>
 </g>
 <defs>
  <clipPath id="pcbd0cb29b6">
   <rect height="277.50077" width="369.96327" x="59.03649" y="18.15774"/>
  </clipPath>
 </defs>
</svg>
