<?xml version="1.0" encoding="utf-8" standalone="no"?>
<!DOCTYPE svg PUBLIC "-//W3C//DTD SVG 1.1//EN"
  "http://www.w3.org/Graphics/SVG/1.1/DTD/svg11.dtd">
<svg height="360pt" version="1.1" viewBox="0 0 432 360" width="432pt" xmlns="http://www.w3.org/2000/svg" xmlns:xlink="http://www.w3.org/1999/xlink">
 <metadata>
  <rdf:RDF xmlns:cc="http://creativecommons.org/ns#" xmlns:dc="http://purl.org/dc/elements/1.1/" xmlns:rdf="http://www.w3.org/1999/02/22-rdf-syntax-ns#">
   <cc:Work>
    <dc:type rdf:resource="http://purl.org/dc/dcmitype/StillImage"/>
    <dc:date>2021-09-04T09:52:02.666057</dc:date>
    <dc:format>image/svg+xml</dc:format>
    <dc:creator>
     <cc:Agent>
      <dc:title>Matplotlib v3.4.2, https://matplotlib.org/</dc:title>
     </cc:Agent>
    </dc:creator>
   </cc:Work>
  </rdf:RDF>
 </metadata>
 <defs>
  <style type="text/css">*{stroke-linecap:butt;stroke-linejoin:round;}</style>
 </defs>
 <g id="figure_1">
  <g id="patch_1">
   <path d="M 0 360 
L 432 360 
L 432 0 
L 0 0 
z
" style="fill:#ffffff;"/>
  </g>
  <g id="axes_1">
   <g id="patch_2">
    <path d="M 84.48149 295.65851 
L 428.99976 295.65851 
L 428.99976 3.00024 
L 84.48149 3.00024 
z
" style="fill:#ffffff;"/>
   </g>
   <g id="matplotlib.axis_1">
    <g id="xtick_1">
     <g id="line2d_1">
      <defs>
       <path d="M 0 0 
L 0 8 
" id="mbd1dcee1d0" style="stroke:#000000;stroke-width:3;"/>
      </defs>
      <g>
       <use style="stroke:#000000;stroke-width:3;" x="134.941237" xlink:href="#mbd1dcee1d0" y="295.65851"/>
      </g>
     </g>
     <g id="text_1">
      <!-- 100 -->
      <g transform="translate(119.671237 319.31601)scale(0.16 -0.16)">
       <defs>
        <path d="M 794 531 
L 1825 531 
L 1825 4091 
L 703 3866 
L 703 4441 
L 1819 4666 
L 2450 4666 
L 2450 531 
L 3481 531 
L 3481 0 
L 794 0 
L 794 531 
z
" id="DejaVuSans-31" transform="scale(0.015625)"/>
        <path d="M 2034 4250 
Q 1547 4250 1301 3770 
Q 1056 3291 1056 2328 
Q 1056 1369 1301 889 
Q 1547 409 2034 409 
Q 2525 409 2770 889 
Q 3016 1369 3016 2328 
Q 3016 3291 2770 3770 
Q 2525 4250 2034 4250 
z
M 2034 4750 
Q 2819 4750 3233 4129 
Q 3647 3509 3647 2328 
Q 3647 1150 3233 529 
Q 2819 -91 2034 -91 
Q 1250 -91 836 529 
Q 422 1150 422 2328 
Q 422 3509 836 4129 
Q 1250 4750 2034 4750 
z
" id="DejaVuSans-30" transform="scale(0.015625)"/>
       </defs>
       <use xlink:href="#DejaVuSans-31"/>
       <use x="63.623047" xlink:href="#DejaVuSans-30"/>
       <use x="127.246094" xlink:href="#DejaVuSans-30"/>
      </g>
     </g>
    </g>
    <g id="xtick_2">
     <g id="line2d_2">
      <g>
       <use style="stroke:#000000;stroke-width:3;" x="204.540887" xlink:href="#mbd1dcee1d0" y="295.65851"/>
      </g>
     </g>
     <g id="text_2">
      <!-- 120 -->
      <g transform="translate(189.270887 319.31601)scale(0.16 -0.16)">
       <defs>
        <path d="M 1228 531 
L 3431 531 
L 3431 0 
L 469 0 
L 469 531 
Q 828 903 1448 1529 
Q 2069 2156 2228 2338 
Q 2531 2678 2651 2914 
Q 2772 3150 2772 3378 
Q 2772 3750 2511 3984 
Q 2250 4219 1831 4219 
Q 1534 4219 1204 4116 
Q 875 4013 500 3803 
L 500 4441 
Q 881 4594 1212 4672 
Q 1544 4750 1819 4750 
Q 2544 4750 2975 4387 
Q 3406 4025 3406 3419 
Q 3406 3131 3298 2873 
Q 3191 2616 2906 2266 
Q 2828 2175 2409 1742 
Q 1991 1309 1228 531 
z
" id="DejaVuSans-32" transform="scale(0.015625)"/>
       </defs>
       <use xlink:href="#DejaVuSans-31"/>
       <use x="63.623047" xlink:href="#DejaVuSans-32"/>
       <use x="127.246094" xlink:href="#DejaVuSans-30"/>
      </g>
     </g>
    </g>
    <g id="xtick_3">
     <g id="line2d_3">
      <g>
       <use style="stroke:#000000;stroke-width:3;" x="274.140538" xlink:href="#mbd1dcee1d0" y="295.65851"/>
      </g>
     </g>
     <g id="text_3">
      <!-- 140 -->
      <g transform="translate(258.870538 319.31601)scale(0.16 -0.16)">
       <defs>
        <path d="M 2419 4116 
L 825 1625 
L 2419 1625 
L 2419 4116 
z
M 2253 4666 
L 3047 4666 
L 3047 1625 
L 3713 1625 
L 3713 1100 
L 3047 1100 
L 3047 0 
L 2419 0 
L 2419 1100 
L 313 1100 
L 313 1709 
L 2253 4666 
z
" id="DejaVuSans-34" transform="scale(0.015625)"/>
       </defs>
       <use xlink:href="#DejaVuSans-31"/>
       <use x="63.623047" xlink:href="#DejaVuSans-34"/>
       <use x="127.246094" xlink:href="#DejaVuSans-30"/>
      </g>
     </g>
    </g>
    <g id="xtick_4">
     <g id="line2d_4">
      <g>
       <use style="stroke:#000000;stroke-width:3;" x="343.740188" xlink:href="#mbd1dcee1d0" y="295.65851"/>
      </g>
     </g>
     <g id="text_4">
      <!-- 160 -->
      <g transform="translate(328.470188 319.31601)scale(0.16 -0.16)">
       <defs>
        <path d="M 2113 2584 
Q 1688 2584 1439 2293 
Q 1191 2003 1191 1497 
Q 1191 994 1439 701 
Q 1688 409 2113 409 
Q 2538 409 2786 701 
Q 3034 994 3034 1497 
Q 3034 2003 2786 2293 
Q 2538 2584 2113 2584 
z
M 3366 4563 
L 3366 3988 
Q 3128 4100 2886 4159 
Q 2644 4219 2406 4219 
Q 1781 4219 1451 3797 
Q 1122 3375 1075 2522 
Q 1259 2794 1537 2939 
Q 1816 3084 2150 3084 
Q 2853 3084 3261 2657 
Q 3669 2231 3669 1497 
Q 3669 778 3244 343 
Q 2819 -91 2113 -91 
Q 1303 -91 875 529 
Q 447 1150 447 2328 
Q 447 3434 972 4092 
Q 1497 4750 2381 4750 
Q 2619 4750 2861 4703 
Q 3103 4656 3366 4563 
z
" id="DejaVuSans-36" transform="scale(0.015625)"/>
       </defs>
       <use xlink:href="#DejaVuSans-31"/>
       <use x="63.623047" xlink:href="#DejaVuSans-36"/>
       <use x="127.246094" xlink:href="#DejaVuSans-30"/>
      </g>
     </g>
    </g>
    <g id="xtick_5">
     <g id="line2d_5">
      <g>
       <use style="stroke:#000000;stroke-width:3;" x="413.339839" xlink:href="#mbd1dcee1d0" y="295.65851"/>
      </g>
     </g>
     <g id="text_5">
      <!-- 180 -->
      <g transform="translate(398.069839 319.31601)scale(0.16 -0.16)">
       <defs>
        <path d="M 2034 2216 
Q 1584 2216 1326 1975 
Q 1069 1734 1069 1313 
Q 1069 891 1326 650 
Q 1584 409 2034 409 
Q 2484 409 2743 651 
Q 3003 894 3003 1313 
Q 3003 1734 2745 1975 
Q 2488 2216 2034 2216 
z
M 1403 2484 
Q 997 2584 770 2862 
Q 544 3141 544 3541 
Q 544 4100 942 4425 
Q 1341 4750 2034 4750 
Q 2731 4750 3128 4425 
Q 3525 4100 3525 3541 
Q 3525 3141 3298 2862 
Q 3072 2584 2669 2484 
Q 3125 2378 3379 2068 
Q 3634 1759 3634 1313 
Q 3634 634 3220 271 
Q 2806 -91 2034 -91 
Q 1263 -91 848 271 
Q 434 634 434 1313 
Q 434 1759 690 2068 
Q 947 2378 1403 2484 
z
M 1172 3481 
Q 1172 3119 1398 2916 
Q 1625 2713 2034 2713 
Q 2441 2713 2670 2916 
Q 2900 3119 2900 3481 
Q 2900 3844 2670 4047 
Q 2441 4250 2034 4250 
Q 1625 4250 1398 4047 
Q 1172 3844 1172 3481 
z
" id="DejaVuSans-38" transform="scale(0.015625)"/>
       </defs>
       <use xlink:href="#DejaVuSans-31"/>
       <use x="63.623047" xlink:href="#DejaVuSans-38"/>
       <use x="127.246094" xlink:href="#DejaVuSans-30"/>
      </g>
     </g>
    </g>
    <g id="text_6">
     <!-- L -->
     <g transform="translate(251.16875 352.840385)scale(0.2 -0.2)">
      <defs>
       <path d="M 628 4666 
L 1259 4666 
L 1259 531 
L 3531 531 
L 3531 0 
L 628 0 
L 628 4666 
z
" id="DejaVuSans-4c" transform="scale(0.015625)"/>
      </defs>
      <use xlink:href="#DejaVuSans-4c"/>
     </g>
    </g>
   </g>
   <g id="matplotlib.axis_2">
    <g id="ytick_1">
     <g id="line2d_6">
      <defs>
       <path d="M 0 0 
L -8 0 
" id="mfd2b389530" style="stroke:#000000;stroke-width:3;"/>
      </defs>
      <g>
       <use style="stroke:#000000;stroke-width:3;" x="84.48149" xlink:href="#mfd2b389530" y="259.611809"/>
      </g>
     </g>
     <g id="text_7">
      <!-- 2.5 -->
      <g transform="translate(47.53649 265.690559)scale(0.16 -0.16)">
       <defs>
        <path d="M 684 794 
L 1344 794 
L 1344 0 
L 684 0 
L 684 794 
z
" id="DejaVuSans-2e" transform="scale(0.015625)"/>
        <path d="M 691 4666 
L 3169 4666 
L 3169 4134 
L 1269 4134 
L 1269 2991 
Q 1406 3038 1543 3061 
Q 1681 3084 1819 3084 
Q 2600 3084 3056 2656 
Q 3513 2228 3513 1497 
Q 3513 744 3044 326 
Q 2575 -91 1722 -91 
Q 1428 -91 1123 -41 
Q 819 9 494 109 
L 494 744 
Q 775 591 1075 516 
Q 1375 441 1709 441 
Q 2250 441 2565 725 
Q 2881 1009 2881 1497 
Q 2881 1984 2565 2268 
Q 2250 2553 1709 2553 
Q 1456 2553 1204 2497 
Q 953 2441 691 2322 
L 691 4666 
z
" id="DejaVuSans-35" transform="scale(0.015625)"/>
       </defs>
       <use xlink:href="#DejaVuSans-32"/>
       <use x="63.623047" xlink:href="#DejaVuSans-2e"/>
       <use x="95.410156" xlink:href="#DejaVuSans-35"/>
      </g>
     </g>
    </g>
    <g id="ytick_2">
     <g id="line2d_7">
      <g>
       <use style="stroke:#000000;stroke-width:3;" x="84.48149" xlink:href="#mfd2b389530" y="220.184778"/>
      </g>
     </g>
     <g id="text_8">
      <!-- 5.0 -->
      <g transform="translate(47.53649 226.263528)scale(0.16 -0.16)">
       <use xlink:href="#DejaVuSans-35"/>
       <use x="63.623047" xlink:href="#DejaVuSans-2e"/>
       <use x="95.410156" xlink:href="#DejaVuSans-30"/>
      </g>
     </g>
    </g>
    <g id="ytick_3">
     <g id="line2d_8">
      <g>
       <use style="stroke:#000000;stroke-width:3;" x="84.48149" xlink:href="#mfd2b389530" y="180.757746"/>
      </g>
     </g>
     <g id="text_9">
      <!-- 7.5 -->
      <g transform="translate(47.53649 186.836496)scale(0.16 -0.16)">
       <defs>
        <path d="M 525 4666 
L 3525 4666 
L 3525 4397 
L 1831 0 
L 1172 0 
L 2766 4134 
L 525 4134 
L 525 4666 
z
" id="DejaVuSans-37" transform="scale(0.015625)"/>
       </defs>
       <use xlink:href="#DejaVuSans-37"/>
       <use x="63.623047" xlink:href="#DejaVuSans-2e"/>
       <use x="95.410156" xlink:href="#DejaVuSans-35"/>
      </g>
     </g>
    </g>
    <g id="ytick_4">
     <g id="line2d_9">
      <g>
       <use style="stroke:#000000;stroke-width:3;" x="84.48149" xlink:href="#mfd2b389530" y="141.330715"/>
      </g>
     </g>
     <g id="text_10">
      <!-- 10.0 -->
      <g transform="translate(37.35649 147.409465)scale(0.16 -0.16)">
       <use xlink:href="#DejaVuSans-31"/>
       <use x="63.623047" xlink:href="#DejaVuSans-30"/>
       <use x="127.246094" xlink:href="#DejaVuSans-2e"/>
       <use x="159.033203" xlink:href="#DejaVuSans-30"/>
      </g>
     </g>
    </g>
    <g id="ytick_5">
     <g id="line2d_10">
      <g>
       <use style="stroke:#000000;stroke-width:3;" x="84.48149" xlink:href="#mfd2b389530" y="101.903684"/>
      </g>
     </g>
     <g id="text_11">
      <!-- 12.5 -->
      <g transform="translate(37.35649 107.982434)scale(0.16 -0.16)">
       <use xlink:href="#DejaVuSans-31"/>
       <use x="63.623047" xlink:href="#DejaVuSans-32"/>
       <use x="127.246094" xlink:href="#DejaVuSans-2e"/>
       <use x="159.033203" xlink:href="#DejaVuSans-35"/>
      </g>
     </g>
    </g>
    <g id="ytick_6">
     <g id="line2d_11">
      <g>
       <use style="stroke:#000000;stroke-width:3;" x="84.48149" xlink:href="#mfd2b389530" y="62.476652"/>
      </g>
     </g>
     <g id="text_12">
      <!-- 15.0 -->
      <g transform="translate(37.35649 68.555402)scale(0.16 -0.16)">
       <use xlink:href="#DejaVuSans-31"/>
       <use x="63.623047" xlink:href="#DejaVuSans-35"/>
       <use x="127.246094" xlink:href="#DejaVuSans-2e"/>
       <use x="159.033203" xlink:href="#DejaVuSans-30"/>
      </g>
     </g>
    </g>
    <g id="ytick_7">
     <g id="line2d_12">
      <g>
       <use style="stroke:#000000;stroke-width:3;" x="84.48149" xlink:href="#mfd2b389530" y="23.049621"/>
      </g>
     </g>
     <g id="text_13">
      <!-- 17.5 -->
      <g transform="translate(37.35649 29.128371)scale(0.16 -0.16)">
       <use xlink:href="#DejaVuSans-31"/>
       <use x="63.623047" xlink:href="#DejaVuSans-37"/>
       <use x="127.246094" xlink:href="#DejaVuSans-2e"/>
       <use x="159.033203" xlink:href="#DejaVuSans-35"/>
      </g>
     </g>
    </g>
    <g id="text_14">
     <!-- Minutos -->
     <g transform="translate(18.197115 188.659062)rotate(-90)scale(0.2 -0.2)">
      <defs>
       <path d="M 628 4666 
L 1569 4666 
L 2759 1491 
L 3956 4666 
L 4897 4666 
L 4897 0 
L 4281 0 
L 4281 4097 
L 3078 897 
L 2444 897 
L 1241 4097 
L 1241 0 
L 628 0 
L 628 4666 
z
" id="DejaVuSans-4d" transform="scale(0.015625)"/>
       <path d="M 603 3500 
L 1178 3500 
L 1178 0 
L 603 0 
L 603 3500 
z
M 603 4863 
L 1178 4863 
L 1178 4134 
L 603 4134 
L 603 4863 
z
" id="DejaVuSans-69" transform="scale(0.015625)"/>
       <path d="M 3513 2113 
L 3513 0 
L 2938 0 
L 2938 2094 
Q 2938 2591 2744 2837 
Q 2550 3084 2163 3084 
Q 1697 3084 1428 2787 
Q 1159 2491 1159 1978 
L 1159 0 
L 581 0 
L 581 3500 
L 1159 3500 
L 1159 2956 
Q 1366 3272 1645 3428 
Q 1925 3584 2291 3584 
Q 2894 3584 3203 3211 
Q 3513 2838 3513 2113 
z
" id="DejaVuSans-6e" transform="scale(0.015625)"/>
       <path d="M 544 1381 
L 544 3500 
L 1119 3500 
L 1119 1403 
Q 1119 906 1312 657 
Q 1506 409 1894 409 
Q 2359 409 2629 706 
Q 2900 1003 2900 1516 
L 2900 3500 
L 3475 3500 
L 3475 0 
L 2900 0 
L 2900 538 
Q 2691 219 2414 64 
Q 2138 -91 1772 -91 
Q 1169 -91 856 284 
Q 544 659 544 1381 
z
M 1991 3584 
L 1991 3584 
z
" id="DejaVuSans-75" transform="scale(0.015625)"/>
       <path d="M 1172 4494 
L 1172 3500 
L 2356 3500 
L 2356 3053 
L 1172 3053 
L 1172 1153 
Q 1172 725 1289 603 
Q 1406 481 1766 481 
L 2356 481 
L 2356 0 
L 1766 0 
Q 1100 0 847 248 
Q 594 497 594 1153 
L 594 3053 
L 172 3053 
L 172 3500 
L 594 3500 
L 594 4494 
L 1172 4494 
z
" id="DejaVuSans-74" transform="scale(0.015625)"/>
       <path d="M 1959 3097 
Q 1497 3097 1228 2736 
Q 959 2375 959 1747 
Q 959 1119 1226 758 
Q 1494 397 1959 397 
Q 2419 397 2687 759 
Q 2956 1122 2956 1747 
Q 2956 2369 2687 2733 
Q 2419 3097 1959 3097 
z
M 1959 3584 
Q 2709 3584 3137 3096 
Q 3566 2609 3566 1747 
Q 3566 888 3137 398 
Q 2709 -91 1959 -91 
Q 1206 -91 779 398 
Q 353 888 353 1747 
Q 353 2609 779 3096 
Q 1206 3584 1959 3584 
z
" id="DejaVuSans-6f" transform="scale(0.015625)"/>
       <path d="M 2834 3397 
L 2834 2853 
Q 2591 2978 2328 3040 
Q 2066 3103 1784 3103 
Q 1356 3103 1142 2972 
Q 928 2841 928 2578 
Q 928 2378 1081 2264 
Q 1234 2150 1697 2047 
L 1894 2003 
Q 2506 1872 2764 1633 
Q 3022 1394 3022 966 
Q 3022 478 2636 193 
Q 2250 -91 1575 -91 
Q 1294 -91 989 -36 
Q 684 19 347 128 
L 347 722 
Q 666 556 975 473 
Q 1284 391 1588 391 
Q 1994 391 2212 530 
Q 2431 669 2431 922 
Q 2431 1156 2273 1281 
Q 2116 1406 1581 1522 
L 1381 1569 
Q 847 1681 609 1914 
Q 372 2147 372 2553 
Q 372 3047 722 3315 
Q 1072 3584 1716 3584 
Q 2034 3584 2315 3537 
Q 2597 3491 2834 3397 
z
" id="DejaVuSans-73" transform="scale(0.015625)"/>
      </defs>
      <use xlink:href="#DejaVuSans-4d"/>
      <use x="86.279297" xlink:href="#DejaVuSans-69"/>
      <use x="114.0625" xlink:href="#DejaVuSans-6e"/>
      <use x="177.441406" xlink:href="#DejaVuSans-75"/>
      <use x="240.820312" xlink:href="#DejaVuSans-74"/>
      <use x="280.029297" xlink:href="#DejaVuSans-6f"/>
      <use x="341.210938" xlink:href="#DejaVuSans-73"/>
     </g>
    </g>
   </g>
   <g id="LineCollection_1">
    <path clip-path="url(#p1846b2bb48)" d="M 100.141411 276.954085 
L 100.141411 270.281054 
" style="fill:none;stroke:#1f77b4;stroke-width:2;"/>
    <path clip-path="url(#p1846b2bb48)" d="M 204.540887 236.09603 
L 204.540887 232.14266 
" style="fill:none;stroke:#1f77b4;stroke-width:2;"/>
    <path clip-path="url(#p1846b2bb48)" d="M 308.940363 178.876909 
L 308.940363 166.091695 
" style="fill:none;stroke:#1f77b4;stroke-width:2;"/>
    <path clip-path="url(#p1846b2bb48)" d="M 413.339839 57.545804 
L 413.339839 45.546591 
" style="fill:none;stroke:#1f77b4;stroke-width:2;"/>
   </g>
   <g id="LineCollection_2">
    <path clip-path="url(#p1846b2bb48)" d="M 100.141411 282.355861 
L 100.141411 277.439967 
" style="fill:none;stroke:#ff7f0e;stroke-width:2;"/>
    <path clip-path="url(#p1846b2bb48)" d="M 204.540887 250.471541 
L 204.540887 239.071049 
" style="fill:none;stroke:#ff7f0e;stroke-width:2;"/>
    <path clip-path="url(#p1846b2bb48)" d="M 308.940363 181.00337 
L 308.940363 162.670994 
" style="fill:none;stroke:#ff7f0e;stroke-width:2;"/>
    <path clip-path="url(#p1846b2bb48)" d="M 413.339839 74.585432 
L 413.339839 16.302889 
" style="fill:none;stroke:#ff7f0e;stroke-width:2;"/>
   </g>
   <g id="line2d_13">
    <defs>
     <path d="M 3 0 
L -3 -0 
" id="mb3b4cc8123" style="stroke:#1f77b4;"/>
    </defs>
    <g clip-path="url(#p1846b2bb48)">
     <use style="fill:#1f77b4;stroke:#1f77b4;" x="100.141411" xlink:href="#mb3b4cc8123" y="276.954085"/>
     <use style="fill:#1f77b4;stroke:#1f77b4;" x="204.540887" xlink:href="#mb3b4cc8123" y="236.09603"/>
     <use style="fill:#1f77b4;stroke:#1f77b4;" x="308.940363" xlink:href="#mb3b4cc8123" y="178.876909"/>
     <use style="fill:#1f77b4;stroke:#1f77b4;" x="413.339839" xlink:href="#mb3b4cc8123" y="57.545804"/>
    </g>
   </g>
   <g id="line2d_14">
    <g clip-path="url(#p1846b2bb48)">
     <use style="fill:#1f77b4;stroke:#1f77b4;" x="100.141411" xlink:href="#mb3b4cc8123" y="270.281054"/>
     <use style="fill:#1f77b4;stroke:#1f77b4;" x="204.540887" xlink:href="#mb3b4cc8123" y="232.14266"/>
     <use style="fill:#1f77b4;stroke:#1f77b4;" x="308.940363" xlink:href="#mb3b4cc8123" y="166.091695"/>
     <use style="fill:#1f77b4;stroke:#1f77b4;" x="413.339839" xlink:href="#mb3b4cc8123" y="45.546591"/>
    </g>
   </g>
   <g id="line2d_15">
    <defs>
     <path d="M 3 0 
L -3 -0 
" id="m4730690dfd" style="stroke:#ff7f0e;"/>
    </defs>
    <g clip-path="url(#p1846b2bb48)">
     <use style="fill:#ff7f0e;stroke:#ff7f0e;" x="100.141411" xlink:href="#m4730690dfd" y="282.355861"/>
     <use style="fill:#ff7f0e;stroke:#ff7f0e;" x="204.540887" xlink:href="#m4730690dfd" y="250.471541"/>
     <use style="fill:#ff7f0e;stroke:#ff7f0e;" x="308.940363" xlink:href="#m4730690dfd" y="181.00337"/>
     <use style="fill:#ff7f0e;stroke:#ff7f0e;" x="413.339839" xlink:href="#m4730690dfd" y="74.585432"/>
    </g>
   </g>
   <g id="line2d_16">
    <g clip-path="url(#p1846b2bb48)">
     <use style="fill:#ff7f0e;stroke:#ff7f0e;" x="100.141411" xlink:href="#m4730690dfd" y="277.439967"/>
     <use style="fill:#ff7f0e;stroke:#ff7f0e;" x="204.540887" xlink:href="#m4730690dfd" y="239.071049"/>
     <use style="fill:#ff7f0e;stroke:#ff7f0e;" x="308.940363" xlink:href="#m4730690dfd" y="162.670994"/>
     <use style="fill:#ff7f0e;stroke:#ff7f0e;" x="413.339839" xlink:href="#m4730690dfd" y="16.302889"/>
    </g>
   </g>
   <g id="line2d_17">
    <defs>
     <path d="M 0 4.5 
C 1.193414 4.5 2.338109 4.025852 3.181981 3.181981 
C 4.025852 2.338109 4.5 1.193414 4.5 0 
C 4.5 -1.193414 4.025852 -2.338109 3.181981 -3.181981 
C 2.338109 -4.025852 1.193414 -4.5 0 -4.5 
C -1.193414 -4.5 -2.338109 -4.025852 -3.181981 -3.181981 
C -4.025852 -2.338109 -4.5 -1.193414 -4.5 0 
C -4.5 1.193414 -4.025852 2.338109 -3.181981 3.181981 
C -2.338109 4.025852 -1.193414 4.5 0 4.5 
z
" id="m819757268a" style="stroke:#1f77b4;"/>
    </defs>
    <g clip-path="url(#p1846b2bb48)">
     <use style="fill:#1f77b4;stroke:#1f77b4;" x="100.141411" xlink:href="#m819757268a" y="273.61757"/>
     <use style="fill:#1f77b4;stroke:#1f77b4;" x="204.540887" xlink:href="#m819757268a" y="234.119345"/>
     <use style="fill:#1f77b4;stroke:#1f77b4;" x="308.940363" xlink:href="#m819757268a" y="172.484302"/>
     <use style="fill:#1f77b4;stroke:#1f77b4;" x="413.339839" xlink:href="#m819757268a" y="51.546198"/>
    </g>
   </g>
   <g id="line2d_18">
    <defs>
     <path d="M -4.5 4.5 
L 4.5 4.5 
L 4.5 -4.5 
L -4.5 -4.5 
z
" id="mfc9a597565" style="stroke:#ff7f0e;stroke-linejoin:miter;"/>
    </defs>
    <g clip-path="url(#p1846b2bb48)">
     <use style="fill:#ff7f0e;stroke:#ff7f0e;stroke-linejoin:miter;" x="100.141411" xlink:href="#mfc9a597565" y="279.897914"/>
     <use style="fill:#ff7f0e;stroke:#ff7f0e;stroke-linejoin:miter;" x="204.540887" xlink:href="#mfc9a597565" y="244.771295"/>
     <use style="fill:#ff7f0e;stroke:#ff7f0e;stroke-linejoin:miter;" x="308.940363" xlink:href="#mfc9a597565" y="171.837182"/>
     <use style="fill:#ff7f0e;stroke:#ff7f0e;stroke-linejoin:miter;" x="413.339839" xlink:href="#mfc9a597565" y="45.44416"/>
    </g>
   </g>
   <g id="patch_3">
    <path d="M 84.48149 295.65851 
L 84.48149 3.00024 
" style="fill:none;stroke:#000000;stroke-linecap:square;stroke-linejoin:miter;stroke-width:3;"/>
   </g>
   <g id="patch_4">
    <path d="M 428.99976 295.65851 
L 428.99976 3.00024 
" style="fill:none;stroke:#000000;stroke-linecap:square;stroke-linejoin:miter;stroke-width:3;"/>
   </g>
   <g id="patch_5">
    <path d="M 84.48149 295.65851 
L 428.99976 295.65851 
" style="fill:none;stroke:#000000;stroke-linecap:square;stroke-linejoin:miter;stroke-width:3;"/>
   </g>
   <g id="patch_6">
    <path d="M 84.48149 3.00024 
L 428.99976 3.00024 
" style="fill:none;stroke:#000000;stroke-linecap:square;stroke-linejoin:miter;stroke-width:3;"/>
   </g>
   <g id="text_15">
    <!-- a) -->
    <g transform="translate(87.926673 32.266067)scale(0.24 -0.24)">
     <defs>
      <path d="M 2194 1759 
Q 1497 1759 1228 1600 
Q 959 1441 959 1056 
Q 959 750 1161 570 
Q 1363 391 1709 391 
Q 2188 391 2477 730 
Q 2766 1069 2766 1631 
L 2766 1759 
L 2194 1759 
z
M 3341 1997 
L 3341 0 
L 2766 0 
L 2766 531 
Q 2569 213 2275 61 
Q 1981 -91 1556 -91 
Q 1019 -91 701 211 
Q 384 513 384 1019 
Q 384 1609 779 1909 
Q 1175 2209 1959 2209 
L 2766 2209 
L 2766 2266 
Q 2766 2663 2505 2880 
Q 2244 3097 1772 3097 
Q 1472 3097 1187 3025 
Q 903 2953 641 2809 
L 641 3341 
Q 956 3463 1253 3523 
Q 1550 3584 1831 3584 
Q 2591 3584 2966 3190 
Q 3341 2797 3341 1997 
z
" id="DejaVuSans-61" transform="scale(0.015625)"/>
      <path d="M 513 4856 
L 1013 4856 
Q 1481 4119 1714 3412 
Q 1947 2706 1947 2009 
Q 1947 1309 1714 600 
Q 1481 -109 1013 -844 
L 513 -844 
Q 928 -128 1133 580 
Q 1338 1288 1338 2009 
Q 1338 2731 1133 3434 
Q 928 4138 513 4856 
z
" id="DejaVuSans-29" transform="scale(0.015625)"/>
     </defs>
     <use xlink:href="#DejaVuSans-61"/>
     <use x="61.279297" xlink:href="#DejaVuSans-29"/>
    </g>
   </g>
   <g id="legend_1">
    <g id="patch_7">
     <path d="M 201.650625 55.29899 
L 311.830625 55.29899 
Q 314.630625 55.29899 314.630625 52.49899 
L 314.630625 12.80024 
Q 314.630625 10.00024 311.830625 10.00024 
L 201.650625 10.00024 
Q 198.850625 10.00024 198.850625 12.80024 
L 198.850625 52.49899 
Q 198.850625 55.29899 201.650625 55.29899 
z
" style="fill:#ffffff;opacity:0.8;stroke:#cccccc;stroke-linejoin:miter;"/>
    </g>
    <g id="LineCollection_3">
     <path d="M 218.450625 28.338052 
L 218.450625 14.338052 
" style="fill:none;stroke:#1f77b4;stroke-width:2;"/>
    </g>
    <g id="line2d_19">
     <g>
      <use style="fill:#1f77b4;stroke:#1f77b4;" x="218.450625" xlink:href="#mb3b4cc8123" y="28.338052"/>
     </g>
    </g>
    <g id="line2d_20">
     <g>
      <use style="fill:#1f77b4;stroke:#1f77b4;" x="218.450625" xlink:href="#mb3b4cc8123" y="14.338052"/>
     </g>
    </g>
    <g id="line2d_21"/>
    <g id="line2d_22">
     <g>
      <use style="fill:#1f77b4;stroke:#1f77b4;" x="218.450625" xlink:href="#m819757268a" y="21.338052"/>
     </g>
    </g>
    <g id="text_16">
     <!-- EPD $10^{-4}$ -->
     <g transform="translate(243.650625 26.238052)scale(0.14 -0.14)">
      <defs>
       <path d="M 628 4666 
L 3578 4666 
L 3578 4134 
L 1259 4134 
L 1259 2753 
L 3481 2753 
L 3481 2222 
L 1259 2222 
L 1259 531 
L 3634 531 
L 3634 0 
L 628 0 
L 628 4666 
z
" id="DejaVuSans-45" transform="scale(0.015625)"/>
       <path d="M 1259 4147 
L 1259 2394 
L 2053 2394 
Q 2494 2394 2734 2622 
Q 2975 2850 2975 3272 
Q 2975 3691 2734 3919 
Q 2494 4147 2053 4147 
L 1259 4147 
z
M 628 4666 
L 2053 4666 
Q 2838 4666 3239 4311 
Q 3641 3956 3641 3272 
Q 3641 2581 3239 2228 
Q 2838 1875 2053 1875 
L 1259 1875 
L 1259 0 
L 628 0 
L 628 4666 
z
" id="DejaVuSans-50" transform="scale(0.015625)"/>
       <path d="M 1259 4147 
L 1259 519 
L 2022 519 
Q 2988 519 3436 956 
Q 3884 1394 3884 2338 
Q 3884 3275 3436 3711 
Q 2988 4147 2022 4147 
L 1259 4147 
z
M 628 4666 
L 1925 4666 
Q 3281 4666 3915 4102 
Q 4550 3538 4550 2338 
Q 4550 1131 3912 565 
Q 3275 0 1925 0 
L 628 0 
L 628 4666 
z
" id="DejaVuSans-44" transform="scale(0.015625)"/>
       <path id="DejaVuSans-20" transform="scale(0.015625)"/>
       <path d="M 678 2272 
L 4684 2272 
L 4684 1741 
L 678 1741 
L 678 2272 
z
" id="DejaVuSans-2212" transform="scale(0.015625)"/>
      </defs>
      <use transform="translate(0 0.684375)" xlink:href="#DejaVuSans-45"/>
      <use transform="translate(63.183594 0.684375)" xlink:href="#DejaVuSans-50"/>
      <use transform="translate(123.486328 0.684375)" xlink:href="#DejaVuSans-44"/>
      <use transform="translate(200.488281 0.684375)" xlink:href="#DejaVuSans-20"/>
      <use transform="translate(232.275391 0.684375)" xlink:href="#DejaVuSans-31"/>
      <use transform="translate(295.898438 0.684375)" xlink:href="#DejaVuSans-30"/>
      <use transform="translate(360.478516 38.965625)scale(0.7)" xlink:href="#DejaVuSans-2212"/>
      <use transform="translate(419.130859 38.965625)scale(0.7)" xlink:href="#DejaVuSans-34"/>
     </g>
    </g>
    <g id="LineCollection_4">
     <path d="M 218.450625 48.887427 
L 218.450625 34.887427 
" style="fill:none;stroke:#ff7f0e;stroke-width:2;"/>
    </g>
    <g id="line2d_23">
     <g>
      <use style="fill:#ff7f0e;stroke:#ff7f0e;" x="218.450625" xlink:href="#m4730690dfd" y="48.887427"/>
     </g>
    </g>
    <g id="line2d_24">
     <g>
      <use style="fill:#ff7f0e;stroke:#ff7f0e;" x="218.450625" xlink:href="#m4730690dfd" y="34.887427"/>
     </g>
    </g>
    <g id="line2d_25"/>
    <g id="line2d_26">
     <g>
      <use style="fill:#ff7f0e;stroke:#ff7f0e;stroke-linejoin:miter;" x="218.450625" xlink:href="#mfc9a597565" y="41.887427"/>
     </g>
    </g>
    <g id="text_17">
     <!-- EPD $10^{-1}$ -->
     <g transform="translate(243.650625 46.787427)scale(0.14 -0.14)">
      <use transform="translate(0 0.684375)" xlink:href="#DejaVuSans-45"/>
      <use transform="translate(63.183594 0.684375)" xlink:href="#DejaVuSans-50"/>
      <use transform="translate(123.486328 0.684375)" xlink:href="#DejaVuSans-44"/>
      <use transform="translate(200.488281 0.684375)" xlink:href="#DejaVuSans-20"/>
      <use transform="translate(232.275391 0.684375)" xlink:href="#DejaVuSans-31"/>
      <use transform="translate(295.898438 0.684375)" xlink:href="#DejaVuSans-30"/>
      <use transform="translate(360.478516 38.965625)scale(0.7)" xlink:href="#DejaVuSans-2212"/>
      <use transform="translate(419.130859 38.965625)scale(0.7)" xlink:href="#DejaVuSans-31"/>
     </g>
    </g>
   </g>
  </g>
 </g>
 <defs>
  <clipPath id="p1846b2bb48">
   <rect height="292.65827" width="344.51827" x="84.48149" y="3.00024"/>
  </clipPath>
 </defs>
</svg>
