<?xml version="1.0" encoding="utf-8" standalone="no"?>
<!DOCTYPE svg PUBLIC "-//W3C//DTD SVG 1.1//EN"
  "http://www.w3.org/Graphics/SVG/1.1/DTD/svg11.dtd">
<svg height="360pt" version="1.1" viewBox="0 0 432 360" width="432pt" xmlns="http://www.w3.org/2000/svg" xmlns:xlink="http://www.w3.org/1999/xlink">
 <metadata>
  <rdf:RDF xmlns:cc="http://creativecommons.org/ns#" xmlns:dc="http://purl.org/dc/elements/1.1/" xmlns:rdf="http://www.w3.org/1999/02/22-rdf-syntax-ns#">
   <cc:Work>
    <dc:type rdf:resource="http://purl.org/dc/dcmitype/StillImage"/>
    <dc:date>2021-09-04T09:52:03.644277</dc:date>
    <dc:format>image/svg+xml</dc:format>
    <dc:creator>
     <cc:Agent>
      <dc:title>Matplotlib v3.4.2, https://matplotlib.org/</dc:title>
     </cc:Agent>
    </dc:creator>
   </cc:Work>
  </rdf:RDF>
 </metadata>
 <defs>
  <style type="text/css">*{stroke-linecap:butt;stroke-linejoin:round;}</style>
 </defs>
 <g id="figure_1">
  <g id="patch_1">
   <path d="M 0 360 
L 432 360 
L 432 0 
L 0 0 
z
" style="fill:#ffffff;"/>
  </g>
  <g id="axes_1">
   <g id="patch_2">
    <path d="M 104.84149 295.65851 
L 428.99976 295.65851 
L 428.99976 3.00024 
L 104.84149 3.00024 
z
" style="fill:#ffffff;"/>
   </g>
   <g id="matplotlib.axis_1">
    <g id="xtick_1">
     <g id="line2d_1">
      <defs>
       <path d="M 0 0 
L 0 8 
" id="m5c5b6ae5d9" style="stroke:#000000;stroke-width:3;"/>
      </defs>
      <g>
       <use style="stroke:#000000;stroke-width:3;" x="124.563447" xlink:href="#m5c5b6ae5d9" y="295.65851"/>
      </g>
     </g>
     <g id="text_1">
      <!-- 0.00003 -->
      <g transform="translate(91.480947 319.31601)scale(0.16 -0.16)">
       <defs>
        <path d="M 2034 4250 
Q 1547 4250 1301 3770 
Q 1056 3291 1056 2328 
Q 1056 1369 1301 889 
Q 1547 409 2034 409 
Q 2525 409 2770 889 
Q 3016 1369 3016 2328 
Q 3016 3291 2770 3770 
Q 2525 4250 2034 4250 
z
M 2034 4750 
Q 2819 4750 3233 4129 
Q 3647 3509 3647 2328 
Q 3647 1150 3233 529 
Q 2819 -91 2034 -91 
Q 1250 -91 836 529 
Q 422 1150 422 2328 
Q 422 3509 836 4129 
Q 1250 4750 2034 4750 
z
" id="DejaVuSans-30" transform="scale(0.015625)"/>
        <path d="M 684 794 
L 1344 794 
L 1344 0 
L 684 0 
L 684 794 
z
" id="DejaVuSans-2e" transform="scale(0.015625)"/>
        <path d="M 2597 2516 
Q 3050 2419 3304 2112 
Q 3559 1806 3559 1356 
Q 3559 666 3084 287 
Q 2609 -91 1734 -91 
Q 1441 -91 1130 -33 
Q 819 25 488 141 
L 488 750 
Q 750 597 1062 519 
Q 1375 441 1716 441 
Q 2309 441 2620 675 
Q 2931 909 2931 1356 
Q 2931 1769 2642 2001 
Q 2353 2234 1838 2234 
L 1294 2234 
L 1294 2753 
L 1863 2753 
Q 2328 2753 2575 2939 
Q 2822 3125 2822 3475 
Q 2822 3834 2567 4026 
Q 2313 4219 1838 4219 
Q 1578 4219 1281 4162 
Q 984 4106 628 3988 
L 628 4550 
Q 988 4650 1302 4700 
Q 1616 4750 1894 4750 
Q 2613 4750 3031 4423 
Q 3450 4097 3450 3541 
Q 3450 3153 3228 2886 
Q 3006 2619 2597 2516 
z
" id="DejaVuSans-33" transform="scale(0.015625)"/>
       </defs>
       <use xlink:href="#DejaVuSans-30"/>
       <use x="63.623047" xlink:href="#DejaVuSans-2e"/>
       <use x="95.410156" xlink:href="#DejaVuSans-30"/>
       <use x="159.033203" xlink:href="#DejaVuSans-30"/>
       <use x="222.65625" xlink:href="#DejaVuSans-30"/>
       <use x="286.279297" xlink:href="#DejaVuSans-30"/>
       <use x="349.902344" xlink:href="#DejaVuSans-33"/>
      </g>
     </g>
    </g>
    <g id="xtick_2">
     <g id="line2d_2">
      <g>
       <use style="stroke:#000000;stroke-width:3;" x="212.234785" xlink:href="#m5c5b6ae5d9" y="295.65851"/>
      </g>
     </g>
     <g id="text_2">
      <!-- 0.00006 -->
      <g transform="translate(179.152285 319.31601)scale(0.16 -0.16)">
       <defs>
        <path d="M 2113 2584 
Q 1688 2584 1439 2293 
Q 1191 2003 1191 1497 
Q 1191 994 1439 701 
Q 1688 409 2113 409 
Q 2538 409 2786 701 
Q 3034 994 3034 1497 
Q 3034 2003 2786 2293 
Q 2538 2584 2113 2584 
z
M 3366 4563 
L 3366 3988 
Q 3128 4100 2886 4159 
Q 2644 4219 2406 4219 
Q 1781 4219 1451 3797 
Q 1122 3375 1075 2522 
Q 1259 2794 1537 2939 
Q 1816 3084 2150 3084 
Q 2853 3084 3261 2657 
Q 3669 2231 3669 1497 
Q 3669 778 3244 343 
Q 2819 -91 2113 -91 
Q 1303 -91 875 529 
Q 447 1150 447 2328 
Q 447 3434 972 4092 
Q 1497 4750 2381 4750 
Q 2619 4750 2861 4703 
Q 3103 4656 3366 4563 
z
" id="DejaVuSans-36" transform="scale(0.015625)"/>
       </defs>
       <use xlink:href="#DejaVuSans-30"/>
       <use x="63.623047" xlink:href="#DejaVuSans-2e"/>
       <use x="95.410156" xlink:href="#DejaVuSans-30"/>
       <use x="159.033203" xlink:href="#DejaVuSans-30"/>
       <use x="222.65625" xlink:href="#DejaVuSans-30"/>
       <use x="286.279297" xlink:href="#DejaVuSans-30"/>
       <use x="349.902344" xlink:href="#DejaVuSans-36"/>
      </g>
     </g>
    </g>
    <g id="xtick_3">
     <g id="line2d_3">
      <g>
       <use style="stroke:#000000;stroke-width:3;" x="299.906123" xlink:href="#m5c5b6ae5d9" y="295.65851"/>
      </g>
     </g>
     <g id="text_3">
      <!-- 0.00009 -->
      <g transform="translate(266.823623 319.31601)scale(0.16 -0.16)">
       <defs>
        <path d="M 703 97 
L 703 672 
Q 941 559 1184 500 
Q 1428 441 1663 441 
Q 2288 441 2617 861 
Q 2947 1281 2994 2138 
Q 2813 1869 2534 1725 
Q 2256 1581 1919 1581 
Q 1219 1581 811 2004 
Q 403 2428 403 3163 
Q 403 3881 828 4315 
Q 1253 4750 1959 4750 
Q 2769 4750 3195 4129 
Q 3622 3509 3622 2328 
Q 3622 1225 3098 567 
Q 2575 -91 1691 -91 
Q 1453 -91 1209 -44 
Q 966 3 703 97 
z
M 1959 2075 
Q 2384 2075 2632 2365 
Q 2881 2656 2881 3163 
Q 2881 3666 2632 3958 
Q 2384 4250 1959 4250 
Q 1534 4250 1286 3958 
Q 1038 3666 1038 3163 
Q 1038 2656 1286 2365 
Q 1534 2075 1959 2075 
z
" id="DejaVuSans-39" transform="scale(0.015625)"/>
       </defs>
       <use xlink:href="#DejaVuSans-30"/>
       <use x="63.623047" xlink:href="#DejaVuSans-2e"/>
       <use x="95.410156" xlink:href="#DejaVuSans-30"/>
       <use x="159.033203" xlink:href="#DejaVuSans-30"/>
       <use x="222.65625" xlink:href="#DejaVuSans-30"/>
       <use x="286.279297" xlink:href="#DejaVuSans-30"/>
       <use x="349.902344" xlink:href="#DejaVuSans-39"/>
      </g>
     </g>
    </g>
    <g id="xtick_4">
     <g id="line2d_4">
      <g>
       <use style="stroke:#000000;stroke-width:3;" x="387.577462" xlink:href="#m5c5b6ae5d9" y="295.65851"/>
      </g>
     </g>
     <g id="text_4">
      <!-- 0.00012 -->
      <g transform="translate(354.494962 319.31601)scale(0.16 -0.16)">
       <defs>
        <path d="M 794 531 
L 1825 531 
L 1825 4091 
L 703 3866 
L 703 4441 
L 1819 4666 
L 2450 4666 
L 2450 531 
L 3481 531 
L 3481 0 
L 794 0 
L 794 531 
z
" id="DejaVuSans-31" transform="scale(0.015625)"/>
        <path d="M 1228 531 
L 3431 531 
L 3431 0 
L 469 0 
L 469 531 
Q 828 903 1448 1529 
Q 2069 2156 2228 2338 
Q 2531 2678 2651 2914 
Q 2772 3150 2772 3378 
Q 2772 3750 2511 3984 
Q 2250 4219 1831 4219 
Q 1534 4219 1204 4116 
Q 875 4013 500 3803 
L 500 4441 
Q 881 4594 1212 4672 
Q 1544 4750 1819 4750 
Q 2544 4750 2975 4387 
Q 3406 4025 3406 3419 
Q 3406 3131 3298 2873 
Q 3191 2616 2906 2266 
Q 2828 2175 2409 1742 
Q 1991 1309 1228 531 
z
" id="DejaVuSans-32" transform="scale(0.015625)"/>
       </defs>
       <use xlink:href="#DejaVuSans-30"/>
       <use x="63.623047" xlink:href="#DejaVuSans-2e"/>
       <use x="95.410156" xlink:href="#DejaVuSans-30"/>
       <use x="159.033203" xlink:href="#DejaVuSans-30"/>
       <use x="222.65625" xlink:href="#DejaVuSans-30"/>
       <use x="286.279297" xlink:href="#DejaVuSans-31"/>
       <use x="349.902344" xlink:href="#DejaVuSans-32"/>
      </g>
     </g>
    </g>
    <g id="text_5">
     <!-- $L^{-2}$ -->
     <g transform="translate(250.020625 352.840385)scale(0.2 -0.2)">
      <defs>
       <path d="M 1075 4666 
L 1709 4666 
L 909 525 
L 3181 525 
L 3078 0 
L 172 0 
L 1075 4666 
z
" id="DejaVuSans-Oblique-4c" transform="scale(0.015625)"/>
       <path d="M 678 2272 
L 4684 2272 
L 4684 1741 
L 678 1741 
L 678 2272 
z
" id="DejaVuSans-2212" transform="scale(0.015625)"/>
      </defs>
      <use transform="translate(0 0.765625)" xlink:href="#DejaVuSans-Oblique-4c"/>
      <use transform="translate(62.729661 39.046875)scale(0.7)" xlink:href="#DejaVuSans-2212"/>
      <use transform="translate(121.382005 39.046875)scale(0.7)" xlink:href="#DejaVuSans-32"/>
     </g>
    </g>
   </g>
   <g id="matplotlib.axis_2">
    <g id="ytick_1">
     <g id="line2d_5">
      <defs>
       <path d="M 0 0 
L -8 0 
" id="m305af65546" style="stroke:#000000;stroke-width:3;"/>
      </defs>
      <g>
       <use style="stroke:#000000;stroke-width:3;" x="104.84149" xlink:href="#m305af65546" y="284.0831"/>
      </g>
     </g>
     <g id="text_6">
      <!-- 0.8077 -->
      <g transform="translate(37.35649 290.16185)scale(0.16 -0.16)">
       <defs>
        <path d="M 2034 2216 
Q 1584 2216 1326 1975 
Q 1069 1734 1069 1313 
Q 1069 891 1326 650 
Q 1584 409 2034 409 
Q 2484 409 2743 651 
Q 3003 894 3003 1313 
Q 3003 1734 2745 1975 
Q 2488 2216 2034 2216 
z
M 1403 2484 
Q 997 2584 770 2862 
Q 544 3141 544 3541 
Q 544 4100 942 4425 
Q 1341 4750 2034 4750 
Q 2731 4750 3128 4425 
Q 3525 4100 3525 3541 
Q 3525 3141 3298 2862 
Q 3072 2584 2669 2484 
Q 3125 2378 3379 2068 
Q 3634 1759 3634 1313 
Q 3634 634 3220 271 
Q 2806 -91 2034 -91 
Q 1263 -91 848 271 
Q 434 634 434 1313 
Q 434 1759 690 2068 
Q 947 2378 1403 2484 
z
M 1172 3481 
Q 1172 3119 1398 2916 
Q 1625 2713 2034 2713 
Q 2441 2713 2670 2916 
Q 2900 3119 2900 3481 
Q 2900 3844 2670 4047 
Q 2441 4250 2034 4250 
Q 1625 4250 1398 4047 
Q 1172 3844 1172 3481 
z
" id="DejaVuSans-38" transform="scale(0.015625)"/>
        <path d="M 525 4666 
L 3525 4666 
L 3525 4397 
L 1831 0 
L 1172 0 
L 2766 4134 
L 525 4134 
L 525 4666 
z
" id="DejaVuSans-37" transform="scale(0.015625)"/>
       </defs>
       <use xlink:href="#DejaVuSans-30"/>
       <use x="63.623047" xlink:href="#DejaVuSans-2e"/>
       <use x="95.410156" xlink:href="#DejaVuSans-38"/>
       <use x="159.033203" xlink:href="#DejaVuSans-30"/>
       <use x="222.65625" xlink:href="#DejaVuSans-37"/>
       <use x="286.279297" xlink:href="#DejaVuSans-37"/>
      </g>
     </g>
    </g>
    <g id="ytick_2">
     <g id="line2d_6">
      <g>
       <use style="stroke:#000000;stroke-width:3;" x="104.84149" xlink:href="#m305af65546" y="234.873363"/>
      </g>
     </g>
     <g id="text_7">
      <!-- 0.8078 -->
      <g transform="translate(37.35649 240.952113)scale(0.16 -0.16)">
       <use xlink:href="#DejaVuSans-30"/>
       <use x="63.623047" xlink:href="#DejaVuSans-2e"/>
       <use x="95.410156" xlink:href="#DejaVuSans-38"/>
       <use x="159.033203" xlink:href="#DejaVuSans-30"/>
       <use x="222.65625" xlink:href="#DejaVuSans-37"/>
       <use x="286.279297" xlink:href="#DejaVuSans-38"/>
      </g>
     </g>
    </g>
    <g id="ytick_3">
     <g id="line2d_7">
      <g>
       <use style="stroke:#000000;stroke-width:3;" x="104.84149" xlink:href="#m305af65546" y="185.663626"/>
      </g>
     </g>
     <g id="text_8">
      <!-- 0.8079 -->
      <g transform="translate(37.35649 191.742376)scale(0.16 -0.16)">
       <use xlink:href="#DejaVuSans-30"/>
       <use x="63.623047" xlink:href="#DejaVuSans-2e"/>
       <use x="95.410156" xlink:href="#DejaVuSans-38"/>
       <use x="159.033203" xlink:href="#DejaVuSans-30"/>
       <use x="222.65625" xlink:href="#DejaVuSans-37"/>
       <use x="286.279297" xlink:href="#DejaVuSans-39"/>
      </g>
     </g>
    </g>
    <g id="ytick_4">
     <g id="line2d_8">
      <g>
       <use style="stroke:#000000;stroke-width:3;" x="104.84149" xlink:href="#m305af65546" y="136.453888"/>
      </g>
     </g>
     <g id="text_9">
      <!-- 0.8080 -->
      <g transform="translate(37.35649 142.532638)scale(0.16 -0.16)">
       <use xlink:href="#DejaVuSans-30"/>
       <use x="63.623047" xlink:href="#DejaVuSans-2e"/>
       <use x="95.410156" xlink:href="#DejaVuSans-38"/>
       <use x="159.033203" xlink:href="#DejaVuSans-30"/>
       <use x="222.65625" xlink:href="#DejaVuSans-38"/>
       <use x="286.279297" xlink:href="#DejaVuSans-30"/>
      </g>
     </g>
    </g>
    <g id="ytick_5">
     <g id="line2d_9">
      <g>
       <use style="stroke:#000000;stroke-width:3;" x="104.84149" xlink:href="#m305af65546" y="87.244151"/>
      </g>
     </g>
     <g id="text_10">
      <!-- 0.8081 -->
      <g transform="translate(37.35649 93.322901)scale(0.16 -0.16)">
       <use xlink:href="#DejaVuSans-30"/>
       <use x="63.623047" xlink:href="#DejaVuSans-2e"/>
       <use x="95.410156" xlink:href="#DejaVuSans-38"/>
       <use x="159.033203" xlink:href="#DejaVuSans-30"/>
       <use x="222.65625" xlink:href="#DejaVuSans-38"/>
       <use x="286.279297" xlink:href="#DejaVuSans-31"/>
      </g>
     </g>
    </g>
    <g id="ytick_6">
     <g id="line2d_10">
      <g>
       <use style="stroke:#000000;stroke-width:3;" x="104.84149" xlink:href="#m305af65546" y="38.034414"/>
      </g>
     </g>
     <g id="text_11">
      <!-- 0.8082 -->
      <g transform="translate(37.35649 44.113164)scale(0.16 -0.16)">
       <use xlink:href="#DejaVuSans-30"/>
       <use x="63.623047" xlink:href="#DejaVuSans-2e"/>
       <use x="95.410156" xlink:href="#DejaVuSans-38"/>
       <use x="159.033203" xlink:href="#DejaVuSans-30"/>
       <use x="222.65625" xlink:href="#DejaVuSans-38"/>
       <use x="286.279297" xlink:href="#DejaVuSans-32"/>
      </g>
     </g>
    </g>
    <g id="text_12">
     <!-- $T_c$ -->
     <g transform="translate(18.197115 159.629375)rotate(-90)scale(0.2 -0.2)">
      <defs>
       <path d="M 378 4666 
L 4325 4666 
L 4225 4134 
L 2559 4134 
L 1759 0 
L 1125 0 
L 1925 4134 
L 275 4134 
L 378 4666 
z
" id="DejaVuSans-Oblique-54" transform="scale(0.015625)"/>
       <path d="M 3431 3366 
L 3316 2797 
Q 3109 2947 2876 3022 
Q 2644 3097 2394 3097 
Q 2119 3097 1870 3000 
Q 1622 2903 1453 2725 
Q 1184 2453 1037 2087 
Q 891 1722 891 1331 
Q 891 859 1127 628 
Q 1363 397 1844 397 
Q 2081 397 2348 469 
Q 2616 541 2906 684 
L 2797 116 
Q 2547 13 2283 -39 
Q 2019 -91 1741 -91 
Q 1044 -91 669 257 
Q 294 606 294 1253 
Q 294 1797 489 2255 
Q 684 2713 1069 3078 
Q 1331 3328 1684 3456 
Q 2038 3584 2456 3584 
Q 2700 3584 2940 3529 
Q 3181 3475 3431 3366 
z
" id="DejaVuSans-Oblique-63" transform="scale(0.015625)"/>
      </defs>
      <use transform="translate(0 0.09375)" xlink:href="#DejaVuSans-Oblique-54"/>
      <use transform="translate(61.083984 -16.3125)scale(0.7)" xlink:href="#DejaVuSans-Oblique-63"/>
     </g>
    </g>
   </g>
   <g id="LineCollection_1">
    <path clip-path="url(#pab054879cd)" d="M 397.679509 101.508427 
L 397.679509 16.736986 
" style="fill:none;stroke:#1f77b4;stroke-width:2;"/>
    <path clip-path="url(#pab054879cd)" d="M 239.835021 228.438112 
L 239.835021 121.409664 
" style="fill:none;stroke:#1f77b4;stroke-width:2;"/>
    <path clip-path="url(#pab054879cd)" d="M 166.775572 282.355861 
L 166.775572 190.152151 
" style="fill:none;stroke:#1f77b4;stroke-width:2;"/>
    <path clip-path="url(#pab054879cd)" d="M 127.088958 261.937023 
L 127.088958 211.908822 
" style="fill:none;stroke:#1f77b4;stroke-width:2;"/>
   </g>
   <g id="LineCollection_2">
    <path clip-path="url(#pab054879cd)" d="M 397.679509 101.335831 
L 397.679509 16.478624 
" style="fill:none;stroke:#ff7f0e;stroke-width:2;"/>
    <path clip-path="url(#pab054879cd)" d="M 239.835021 228.377332 
L 239.835021 121.244951 
" style="fill:none;stroke:#ff7f0e;stroke-width:2;"/>
    <path clip-path="url(#pab054879cd)" d="M 166.775572 282.324741 
L 166.775572 190.108482 
" style="fill:none;stroke:#ff7f0e;stroke-width:2;"/>
    <path clip-path="url(#pab054879cd)" d="M 127.088958 261.944133 
L 127.088958 211.885001 
" style="fill:none;stroke:#ff7f0e;stroke-width:2;"/>
   </g>
   <g id="LineCollection_3">
    <path clip-path="url(#pab054879cd)" d="M 397.679509 101.097625 
L 397.679509 16.302889 
" style="fill:none;stroke:#2ca02c;stroke-width:2;"/>
    <path clip-path="url(#pab054879cd)" d="M 239.835021 228.290261 
L 239.835021 121.260287 
" style="fill:none;stroke:#2ca02c;stroke-width:2;"/>
    <path clip-path="url(#pab054879cd)" d="M 166.775572 282.29479 
L 166.775572 190.083122 
" style="fill:none;stroke:#2ca02c;stroke-width:2;"/>
    <path clip-path="url(#pab054879cd)" d="M 127.088958 261.905025 
L 127.088958 211.875187 
" style="fill:none;stroke:#2ca02c;stroke-width:2;"/>
   </g>
   <g id="line2d_11">
    <defs>
     <path d="M 3 0 
L -3 -0 
" id="ma52e1d4bbc" style="stroke:#1f77b4;"/>
    </defs>
    <g clip-path="url(#pab054879cd)">
     <use style="fill:#1f77b4;stroke:#1f77b4;" x="397.679509" xlink:href="#ma52e1d4bbc" y="101.508427"/>
     <use style="fill:#1f77b4;stroke:#1f77b4;" x="239.835021" xlink:href="#ma52e1d4bbc" y="228.438112"/>
     <use style="fill:#1f77b4;stroke:#1f77b4;" x="166.775572" xlink:href="#ma52e1d4bbc" y="282.355861"/>
     <use style="fill:#1f77b4;stroke:#1f77b4;" x="127.088958" xlink:href="#ma52e1d4bbc" y="261.937023"/>
    </g>
   </g>
   <g id="line2d_12">
    <g clip-path="url(#pab054879cd)">
     <use style="fill:#1f77b4;stroke:#1f77b4;" x="397.679509" xlink:href="#ma52e1d4bbc" y="16.736986"/>
     <use style="fill:#1f77b4;stroke:#1f77b4;" x="239.835021" xlink:href="#ma52e1d4bbc" y="121.409664"/>
     <use style="fill:#1f77b4;stroke:#1f77b4;" x="166.775572" xlink:href="#ma52e1d4bbc" y="190.152151"/>
     <use style="fill:#1f77b4;stroke:#1f77b4;" x="127.088958" xlink:href="#ma52e1d4bbc" y="211.908822"/>
    </g>
   </g>
   <g id="line2d_13">
    <path clip-path="url(#pab054879cd)" d="M 414.265293 49.467491 
L 397.679509 61.298656 
L 239.835021 173.894116 
L 166.775572 226.00973 
L 127.088958 254.319446 
L 119.575957 259.678707 
" style="fill:none;stroke:#1f77b4;stroke-linecap:square;stroke-width:2;"/>
   </g>
   <g id="line2d_14">
    <defs>
     <path d="M 3 0 
L -3 -0 
" id="m103c34d08f" style="stroke:#ff7f0e;"/>
    </defs>
    <g clip-path="url(#pab054879cd)">
     <use style="fill:#ff7f0e;stroke:#ff7f0e;" x="397.679509" xlink:href="#m103c34d08f" y="101.335831"/>
     <use style="fill:#ff7f0e;stroke:#ff7f0e;" x="239.835021" xlink:href="#m103c34d08f" y="228.377332"/>
     <use style="fill:#ff7f0e;stroke:#ff7f0e;" x="166.775572" xlink:href="#m103c34d08f" y="282.324741"/>
     <use style="fill:#ff7f0e;stroke:#ff7f0e;" x="127.088958" xlink:href="#m103c34d08f" y="261.944133"/>
    </g>
   </g>
   <g id="line2d_15">
    <g clip-path="url(#pab054879cd)">
     <use style="fill:#ff7f0e;stroke:#ff7f0e;" x="397.679509" xlink:href="#m103c34d08f" y="16.478624"/>
     <use style="fill:#ff7f0e;stroke:#ff7f0e;" x="239.835021" xlink:href="#m103c34d08f" y="121.244951"/>
     <use style="fill:#ff7f0e;stroke:#ff7f0e;" x="166.775572" xlink:href="#m103c34d08f" y="190.108482"/>
     <use style="fill:#ff7f0e;stroke:#ff7f0e;" x="127.088958" xlink:href="#m103c34d08f" y="211.885001"/>
    </g>
   </g>
   <g id="line2d_16">
    <path clip-path="url(#pab054879cd)" d="M 414.265293 49.233472 
L 397.679509 61.07723 
L 239.835021 173.79255 
L 166.775572 225.96364 
L 127.088958 254.303492 
L 119.575957 259.668458 
" style="fill:none;stroke:#ff7f0e;stroke-linecap:square;stroke-width:2;"/>
   </g>
   <g id="line2d_17">
    <defs>
     <path d="M 3 0 
L -3 -0 
" id="m78477ff95d" style="stroke:#2ca02c;"/>
    </defs>
    <g clip-path="url(#pab054879cd)">
     <use style="fill:#2ca02c;stroke:#2ca02c;" x="397.679509" xlink:href="#m78477ff95d" y="101.097625"/>
     <use style="fill:#2ca02c;stroke:#2ca02c;" x="239.835021" xlink:href="#m78477ff95d" y="228.290261"/>
     <use style="fill:#2ca02c;stroke:#2ca02c;" x="166.775572" xlink:href="#m78477ff95d" y="282.29479"/>
     <use style="fill:#2ca02c;stroke:#2ca02c;" x="127.088958" xlink:href="#m78477ff95d" y="261.905025"/>
    </g>
   </g>
   <g id="line2d_18">
    <g clip-path="url(#pab054879cd)">
     <use style="fill:#2ca02c;stroke:#2ca02c;" x="397.679509" xlink:href="#m78477ff95d" y="16.302889"/>
     <use style="fill:#2ca02c;stroke:#2ca02c;" x="239.835021" xlink:href="#m78477ff95d" y="121.260287"/>
     <use style="fill:#2ca02c;stroke:#2ca02c;" x="166.775572" xlink:href="#m78477ff95d" y="190.083122"/>
     <use style="fill:#2ca02c;stroke:#2ca02c;" x="127.088958" xlink:href="#m78477ff95d" y="211.875187"/>
    </g>
   </g>
   <g id="line2d_19">
    <path clip-path="url(#pab054879cd)" d="M 414.265293 49.032345 
L 397.679509 60.888419 
L 239.835021 173.720942 
L 166.775572 225.946281 
L 127.088958 254.315601 
L 119.575957 259.686146 
" style="fill:none;stroke:#2ca02c;stroke-linecap:square;stroke-width:2;"/>
   </g>
   <g id="line2d_20">
    <defs>
     <path d="M 0 4.5 
C 1.193414 4.5 2.338109 4.025852 3.181981 3.181981 
C 4.025852 2.338109 4.5 1.193414 4.5 0 
C 4.5 -1.193414 4.025852 -2.338109 3.181981 -3.181981 
C 2.338109 -4.025852 1.193414 -4.5 0 -4.5 
C -1.193414 -4.5 -2.338109 -4.025852 -3.181981 -3.181981 
C -4.025852 -2.338109 -4.5 -1.193414 -4.5 0 
C -4.5 1.193414 -4.025852 2.338109 -3.181981 3.181981 
C -2.338109 4.025852 -1.193414 4.5 0 4.5 
z
" id="m6c628cdcb0" style="stroke:#1f77b4;"/>
    </defs>
    <g clip-path="url(#pab054879cd)">
     <use style="fill:#1f77b4;stroke:#1f77b4;" x="397.679509" xlink:href="#m6c628cdcb0" y="59.122706"/>
     <use style="fill:#1f77b4;stroke:#1f77b4;" x="239.835021" xlink:href="#m6c628cdcb0" y="174.923888"/>
     <use style="fill:#1f77b4;stroke:#1f77b4;" x="166.775572" xlink:href="#m6c628cdcb0" y="236.254006"/>
     <use style="fill:#1f77b4;stroke:#1f77b4;" x="127.088958" xlink:href="#m6c628cdcb0" y="236.922922"/>
    </g>
   </g>
   <g id="line2d_21">
    <defs>
     <path d="M -4.5 4.5 
L 4.5 4.5 
L 4.5 -4.5 
L -4.5 -4.5 
z
" id="meec9c22dc7" style="stroke:#ff7f0e;stroke-linejoin:miter;"/>
    </defs>
    <g clip-path="url(#pab054879cd)">
     <use style="fill:#ff7f0e;stroke:#ff7f0e;stroke-linejoin:miter;" x="397.679509" xlink:href="#meec9c22dc7" y="58.907228"/>
     <use style="fill:#ff7f0e;stroke:#ff7f0e;stroke-linejoin:miter;" x="239.835021" xlink:href="#meec9c22dc7" y="174.811141"/>
     <use style="fill:#ff7f0e;stroke:#ff7f0e;stroke-linejoin:miter;" x="166.775572" xlink:href="#meec9c22dc7" y="236.216612"/>
     <use style="fill:#ff7f0e;stroke:#ff7f0e;stroke-linejoin:miter;" x="127.088958" xlink:href="#meec9c22dc7" y="236.914567"/>
    </g>
   </g>
   <g id="line2d_22">
    <defs>
     <path d="M -0 6.363961 
L 6.363961 0 
L 0 -6.363961 
L -6.363961 -0 
z
" id="me3d067a471" style="stroke:#2ca02c;stroke-linejoin:miter;"/>
    </defs>
    <g clip-path="url(#pab054879cd)">
     <use style="fill:#2ca02c;stroke:#2ca02c;stroke-linejoin:miter;" x="397.679509" xlink:href="#me3d067a471" y="58.700257"/>
     <use style="fill:#2ca02c;stroke:#2ca02c;stroke-linejoin:miter;" x="239.835021" xlink:href="#me3d067a471" y="174.775274"/>
     <use style="fill:#2ca02c;stroke:#2ca02c;stroke-linejoin:miter;" x="166.775572" xlink:href="#me3d067a471" y="236.188956"/>
     <use style="fill:#2ca02c;stroke:#2ca02c;stroke-linejoin:miter;" x="127.088958" xlink:href="#me3d067a471" y="236.890106"/>
    </g>
   </g>
   <g id="patch_3">
    <path d="M 104.84149 295.65851 
L 104.84149 3.00024 
" style="fill:none;stroke:#000000;stroke-linecap:square;stroke-linejoin:miter;stroke-width:3;"/>
   </g>
   <g id="patch_4">
    <path d="M 428.99976 295.65851 
L 428.99976 3.00024 
" style="fill:none;stroke:#000000;stroke-linecap:square;stroke-linejoin:miter;stroke-width:3;"/>
   </g>
   <g id="patch_5">
    <path d="M 104.84149 295.65851 
L 428.99976 295.65851 
" style="fill:none;stroke:#000000;stroke-linecap:square;stroke-linejoin:miter;stroke-width:3;"/>
   </g>
   <g id="patch_6">
    <path d="M 104.84149 3.00024 
L 428.99976 3.00024 
" style="fill:none;stroke:#000000;stroke-linecap:square;stroke-linejoin:miter;stroke-width:3;"/>
   </g>
   <g id="legend_1">
    <g id="patch_7">
     <path d="M 114.64149 75.848365 
L 224.82149 75.848365 
Q 227.62149 75.848365 227.62149 73.048365 
L 227.62149 12.80024 
Q 227.62149 10.00024 224.82149 10.00024 
L 114.64149 10.00024 
Q 111.84149 10.00024 111.84149 12.80024 
L 111.84149 73.048365 
Q 111.84149 75.848365 114.64149 75.848365 
z
" style="fill:#ffffff;opacity:0.8;stroke:#cccccc;stroke-linejoin:miter;"/>
    </g>
    <g id="LineCollection_4">
     <path d="M 131.44149 28.338052 
L 131.44149 14.338052 
" style="fill:none;stroke:#1f77b4;stroke-width:2;"/>
    </g>
    <g id="line2d_23">
     <g>
      <use style="fill:#1f77b4;stroke:#1f77b4;" x="131.44149" xlink:href="#ma52e1d4bbc" y="28.338052"/>
     </g>
    </g>
    <g id="line2d_24">
     <g>
      <use style="fill:#1f77b4;stroke:#1f77b4;" x="131.44149" xlink:href="#ma52e1d4bbc" y="14.338052"/>
     </g>
    </g>
    <g id="line2d_25"/>
    <g id="line2d_26">
     <g>
      <use style="fill:#1f77b4;stroke:#1f77b4;" x="131.44149" xlink:href="#m6c628cdcb0" y="21.338052"/>
     </g>
    </g>
    <g id="text_13">
     <!-- EPD $10^{-4}$ -->
     <g transform="translate(156.64149 26.238052)scale(0.14 -0.14)">
      <defs>
       <path d="M 628 4666 
L 3578 4666 
L 3578 4134 
L 1259 4134 
L 1259 2753 
L 3481 2753 
L 3481 2222 
L 1259 2222 
L 1259 531 
L 3634 531 
L 3634 0 
L 628 0 
L 628 4666 
z
" id="DejaVuSans-45" transform="scale(0.015625)"/>
       <path d="M 1259 4147 
L 1259 2394 
L 2053 2394 
Q 2494 2394 2734 2622 
Q 2975 2850 2975 3272 
Q 2975 3691 2734 3919 
Q 2494 4147 2053 4147 
L 1259 4147 
z
M 628 4666 
L 2053 4666 
Q 2838 4666 3239 4311 
Q 3641 3956 3641 3272 
Q 3641 2581 3239 2228 
Q 2838 1875 2053 1875 
L 1259 1875 
L 1259 0 
L 628 0 
L 628 4666 
z
" id="DejaVuSans-50" transform="scale(0.015625)"/>
       <path d="M 1259 4147 
L 1259 519 
L 2022 519 
Q 2988 519 3436 956 
Q 3884 1394 3884 2338 
Q 3884 3275 3436 3711 
Q 2988 4147 2022 4147 
L 1259 4147 
z
M 628 4666 
L 1925 4666 
Q 3281 4666 3915 4102 
Q 4550 3538 4550 2338 
Q 4550 1131 3912 565 
Q 3275 0 1925 0 
L 628 0 
L 628 4666 
z
" id="DejaVuSans-44" transform="scale(0.015625)"/>
       <path id="DejaVuSans-20" transform="scale(0.015625)"/>
       <path d="M 2419 4116 
L 825 1625 
L 2419 1625 
L 2419 4116 
z
M 2253 4666 
L 3047 4666 
L 3047 1625 
L 3713 1625 
L 3713 1100 
L 3047 1100 
L 3047 0 
L 2419 0 
L 2419 1100 
L 313 1100 
L 313 1709 
L 2253 4666 
z
" id="DejaVuSans-34" transform="scale(0.015625)"/>
      </defs>
      <use transform="translate(0 0.684375)" xlink:href="#DejaVuSans-45"/>
      <use transform="translate(63.183594 0.684375)" xlink:href="#DejaVuSans-50"/>
      <use transform="translate(123.486328 0.684375)" xlink:href="#DejaVuSans-44"/>
      <use transform="translate(200.488281 0.684375)" xlink:href="#DejaVuSans-20"/>
      <use transform="translate(232.275391 0.684375)" xlink:href="#DejaVuSans-31"/>
      <use transform="translate(295.898438 0.684375)" xlink:href="#DejaVuSans-30"/>
      <use transform="translate(360.478516 38.965625)scale(0.7)" xlink:href="#DejaVuSans-2212"/>
      <use transform="translate(419.130859 38.965625)scale(0.7)" xlink:href="#DejaVuSans-34"/>
     </g>
    </g>
    <g id="LineCollection_5">
     <path d="M 131.44149 48.887427 
L 131.44149 34.887427 
" style="fill:none;stroke:#ff7f0e;stroke-width:2;"/>
    </g>
    <g id="line2d_27">
     <g>
      <use style="fill:#ff7f0e;stroke:#ff7f0e;" x="131.44149" xlink:href="#m103c34d08f" y="48.887427"/>
     </g>
    </g>
    <g id="line2d_28">
     <g>
      <use style="fill:#ff7f0e;stroke:#ff7f0e;" x="131.44149" xlink:href="#m103c34d08f" y="34.887427"/>
     </g>
    </g>
    <g id="line2d_29"/>
    <g id="line2d_30">
     <g>
      <use style="fill:#ff7f0e;stroke:#ff7f0e;stroke-linejoin:miter;" x="131.44149" xlink:href="#meec9c22dc7" y="41.887427"/>
     </g>
    </g>
    <g id="text_14">
     <!-- EPD $10^{-1}$ -->
     <g transform="translate(156.64149 46.787427)scale(0.14 -0.14)">
      <use transform="translate(0 0.684375)" xlink:href="#DejaVuSans-45"/>
      <use transform="translate(63.183594 0.684375)" xlink:href="#DejaVuSans-50"/>
      <use transform="translate(123.486328 0.684375)" xlink:href="#DejaVuSans-44"/>
      <use transform="translate(200.488281 0.684375)" xlink:href="#DejaVuSans-20"/>
      <use transform="translate(232.275391 0.684375)" xlink:href="#DejaVuSans-31"/>
      <use transform="translate(295.898438 0.684375)" xlink:href="#DejaVuSans-30"/>
      <use transform="translate(360.478516 38.965625)scale(0.7)" xlink:href="#DejaVuSans-2212"/>
      <use transform="translate(419.130859 38.965625)scale(0.7)" xlink:href="#DejaVuSans-31"/>
     </g>
    </g>
    <g id="LineCollection_6">
     <path d="M 131.44149 69.436802 
L 131.44149 55.436802 
" style="fill:none;stroke:#2ca02c;stroke-width:2;"/>
    </g>
    <g id="line2d_31">
     <g>
      <use style="fill:#2ca02c;stroke:#2ca02c;" x="131.44149" xlink:href="#m78477ff95d" y="69.436802"/>
     </g>
    </g>
    <g id="line2d_32">
     <g>
      <use style="fill:#2ca02c;stroke:#2ca02c;" x="131.44149" xlink:href="#m78477ff95d" y="55.436802"/>
     </g>
    </g>
    <g id="line2d_33"/>
    <g id="line2d_34">
     <g>
      <use style="fill:#2ca02c;stroke:#2ca02c;stroke-linejoin:miter;" x="131.44149" xlink:href="#me3d067a471" y="62.436802"/>
     </g>
    </g>
    <g id="text_15">
     <!-- MGF -->
     <g transform="translate(156.64149 67.336802)scale(0.14 -0.14)">
      <defs>
       <path d="M 628 4666 
L 1569 4666 
L 2759 1491 
L 3956 4666 
L 4897 4666 
L 4897 0 
L 4281 0 
L 4281 4097 
L 3078 897 
L 2444 897 
L 1241 4097 
L 1241 0 
L 628 0 
L 628 4666 
z
" id="DejaVuSans-4d" transform="scale(0.015625)"/>
       <path d="M 3809 666 
L 3809 1919 
L 2778 1919 
L 2778 2438 
L 4434 2438 
L 4434 434 
Q 4069 175 3628 42 
Q 3188 -91 2688 -91 
Q 1594 -91 976 548 
Q 359 1188 359 2328 
Q 359 3472 976 4111 
Q 1594 4750 2688 4750 
Q 3144 4750 3555 4637 
Q 3966 4525 4313 4306 
L 4313 3634 
Q 3963 3931 3569 4081 
Q 3175 4231 2741 4231 
Q 1884 4231 1454 3753 
Q 1025 3275 1025 2328 
Q 1025 1384 1454 906 
Q 1884 428 2741 428 
Q 3075 428 3337 486 
Q 3600 544 3809 666 
z
" id="DejaVuSans-47" transform="scale(0.015625)"/>
       <path d="M 628 4666 
L 3309 4666 
L 3309 4134 
L 1259 4134 
L 1259 2759 
L 3109 2759 
L 3109 2228 
L 1259 2228 
L 1259 0 
L 628 0 
L 628 4666 
z
" id="DejaVuSans-46" transform="scale(0.015625)"/>
      </defs>
      <use xlink:href="#DejaVuSans-4d"/>
      <use x="86.279297" xlink:href="#DejaVuSans-47"/>
      <use x="163.769531" xlink:href="#DejaVuSans-46"/>
     </g>
    </g>
   </g>
  </g>
 </g>
 <defs>
  <clipPath id="pab054879cd">
   <rect height="292.65827" width="324.15827" x="104.84149" y="3.00024"/>
  </clipPath>
 </defs>
</svg>
