<?xml version="1.0" encoding="utf-8" standalone="no"?>
<!DOCTYPE svg PUBLIC "-//W3C//DTD SVG 1.1//EN"
  "http://www.w3.org/Graphics/SVG/1.1/DTD/svg11.dtd">
<svg height="360pt" version="1.1" viewBox="0 0 432 360" width="432pt" xmlns="http://www.w3.org/2000/svg" xmlns:xlink="http://www.w3.org/1999/xlink">
 <metadata>
  <rdf:RDF xmlns:cc="http://creativecommons.org/ns#" xmlns:dc="http://purl.org/dc/elements/1.1/" xmlns:rdf="http://www.w3.org/1999/02/22-rdf-syntax-ns#">
   <cc:Work>
    <dc:type rdf:resource="http://purl.org/dc/dcmitype/StillImage"/>
    <dc:date>2021-09-04T09:51:24.558023</dc:date>
    <dc:format>image/svg+xml</dc:format>
    <dc:creator>
     <cc:Agent>
      <dc:title>Matplotlib v3.4.2, https://matplotlib.org/</dc:title>
     </cc:Agent>
    </dc:creator>
   </cc:Work>
  </rdf:RDF>
 </metadata>
 <defs>
  <style type="text/css">*{stroke-linecap:butt;stroke-linejoin:round;}</style>
 </defs>
 <g id="figure_1">
  <g id="patch_1">
   <path d="M 0 360 
L 432 360 
L 432 0 
L 0 0 
z
" style="fill:#ffffff;"/>
  </g>
  <g id="axes_1">
   <g id="patch_2">
    <path d="M 84.48149 295.65851 
L 422.10128 295.65851 
L 422.10128 3.00024 
L 84.48149 3.00024 
z
" style="fill:#ffffff;"/>
   </g>
   <g id="matplotlib.axis_1">
    <g id="xtick_1">
     <g id="line2d_1">
      <defs>
       <path d="M 0 0 
L 0 8 
" id="m27bd503902" style="stroke:#000000;stroke-width:3;"/>
      </defs>
      <g>
       <use style="stroke:#000000;stroke-width:3;" x="99.82799" xlink:href="#m27bd503902" y="295.65851"/>
      </g>
     </g>
     <g id="text_1">
      <!-- 2.260 -->
      <g transform="translate(76.92549 319.31601)scale(0.16 -0.16)">
       <defs>
        <path d="M 1228 531 
L 3431 531 
L 3431 0 
L 469 0 
L 469 531 
Q 828 903 1448 1529 
Q 2069 2156 2228 2338 
Q 2531 2678 2651 2914 
Q 2772 3150 2772 3378 
Q 2772 3750 2511 3984 
Q 2250 4219 1831 4219 
Q 1534 4219 1204 4116 
Q 875 4013 500 3803 
L 500 4441 
Q 881 4594 1212 4672 
Q 1544 4750 1819 4750 
Q 2544 4750 2975 4387 
Q 3406 4025 3406 3419 
Q 3406 3131 3298 2873 
Q 3191 2616 2906 2266 
Q 2828 2175 2409 1742 
Q 1991 1309 1228 531 
z
" id="DejaVuSans-32" transform="scale(0.015625)"/>
        <path d="M 684 794 
L 1344 794 
L 1344 0 
L 684 0 
L 684 794 
z
" id="DejaVuSans-2e" transform="scale(0.015625)"/>
        <path d="M 2113 2584 
Q 1688 2584 1439 2293 
Q 1191 2003 1191 1497 
Q 1191 994 1439 701 
Q 1688 409 2113 409 
Q 2538 409 2786 701 
Q 3034 994 3034 1497 
Q 3034 2003 2786 2293 
Q 2538 2584 2113 2584 
z
M 3366 4563 
L 3366 3988 
Q 3128 4100 2886 4159 
Q 2644 4219 2406 4219 
Q 1781 4219 1451 3797 
Q 1122 3375 1075 2522 
Q 1259 2794 1537 2939 
Q 1816 3084 2150 3084 
Q 2853 3084 3261 2657 
Q 3669 2231 3669 1497 
Q 3669 778 3244 343 
Q 2819 -91 2113 -91 
Q 1303 -91 875 529 
Q 447 1150 447 2328 
Q 447 3434 972 4092 
Q 1497 4750 2381 4750 
Q 2619 4750 2861 4703 
Q 3103 4656 3366 4563 
z
" id="DejaVuSans-36" transform="scale(0.015625)"/>
        <path d="M 2034 4250 
Q 1547 4250 1301 3770 
Q 1056 3291 1056 2328 
Q 1056 1369 1301 889 
Q 1547 409 2034 409 
Q 2525 409 2770 889 
Q 3016 1369 3016 2328 
Q 3016 3291 2770 3770 
Q 2525 4250 2034 4250 
z
M 2034 4750 
Q 2819 4750 3233 4129 
Q 3647 3509 3647 2328 
Q 3647 1150 3233 529 
Q 2819 -91 2034 -91 
Q 1250 -91 836 529 
Q 422 1150 422 2328 
Q 422 3509 836 4129 
Q 1250 4750 2034 4750 
z
" id="DejaVuSans-30" transform="scale(0.015625)"/>
       </defs>
       <use xlink:href="#DejaVuSans-32"/>
       <use x="63.623047" xlink:href="#DejaVuSans-2e"/>
       <use x="95.410156" xlink:href="#DejaVuSans-32"/>
       <use x="159.033203" xlink:href="#DejaVuSans-36"/>
       <use x="222.65625" xlink:href="#DejaVuSans-30"/>
      </g>
     </g>
    </g>
    <g id="xtick_2">
     <g id="line2d_2">
      <g>
       <use style="stroke:#000000;stroke-width:3;" x="176.559834" xlink:href="#m27bd503902" y="295.65851"/>
      </g>
     </g>
     <g id="text_2">
      <!-- 2.265 -->
      <g transform="translate(153.657334 319.31601)scale(0.16 -0.16)">
       <defs>
        <path d="M 691 4666 
L 3169 4666 
L 3169 4134 
L 1269 4134 
L 1269 2991 
Q 1406 3038 1543 3061 
Q 1681 3084 1819 3084 
Q 2600 3084 3056 2656 
Q 3513 2228 3513 1497 
Q 3513 744 3044 326 
Q 2575 -91 1722 -91 
Q 1428 -91 1123 -41 
Q 819 9 494 109 
L 494 744 
Q 775 591 1075 516 
Q 1375 441 1709 441 
Q 2250 441 2565 725 
Q 2881 1009 2881 1497 
Q 2881 1984 2565 2268 
Q 2250 2553 1709 2553 
Q 1456 2553 1204 2497 
Q 953 2441 691 2322 
L 691 4666 
z
" id="DejaVuSans-35" transform="scale(0.015625)"/>
       </defs>
       <use xlink:href="#DejaVuSans-32"/>
       <use x="63.623047" xlink:href="#DejaVuSans-2e"/>
       <use x="95.410156" xlink:href="#DejaVuSans-32"/>
       <use x="159.033203" xlink:href="#DejaVuSans-36"/>
       <use x="222.65625" xlink:href="#DejaVuSans-35"/>
      </g>
     </g>
    </g>
    <g id="xtick_3">
     <g id="line2d_3">
      <g>
       <use style="stroke:#000000;stroke-width:3;" x="253.291678" xlink:href="#m27bd503902" y="295.65851"/>
      </g>
     </g>
     <g id="text_3">
      <!-- 2.270 -->
      <g transform="translate(230.389178 319.31601)scale(0.16 -0.16)">
       <defs>
        <path d="M 525 4666 
L 3525 4666 
L 3525 4397 
L 1831 0 
L 1172 0 
L 2766 4134 
L 525 4134 
L 525 4666 
z
" id="DejaVuSans-37" transform="scale(0.015625)"/>
       </defs>
       <use xlink:href="#DejaVuSans-32"/>
       <use x="63.623047" xlink:href="#DejaVuSans-2e"/>
       <use x="95.410156" xlink:href="#DejaVuSans-32"/>
       <use x="159.033203" xlink:href="#DejaVuSans-37"/>
       <use x="222.65625" xlink:href="#DejaVuSans-30"/>
      </g>
     </g>
    </g>
    <g id="xtick_4">
     <g id="line2d_4">
      <g>
       <use style="stroke:#000000;stroke-width:3;" x="330.023521" xlink:href="#m27bd503902" y="295.65851"/>
      </g>
     </g>
     <g id="text_4">
      <!-- 2.275 -->
      <g transform="translate(307.121021 319.31601)scale(0.16 -0.16)">
       <use xlink:href="#DejaVuSans-32"/>
       <use x="63.623047" xlink:href="#DejaVuSans-2e"/>
       <use x="95.410156" xlink:href="#DejaVuSans-32"/>
       <use x="159.033203" xlink:href="#DejaVuSans-37"/>
       <use x="222.65625" xlink:href="#DejaVuSans-35"/>
      </g>
     </g>
    </g>
    <g id="xtick_5">
     <g id="line2d_5">
      <g>
       <use style="stroke:#000000;stroke-width:3;" x="406.755365" xlink:href="#m27bd503902" y="295.65851"/>
      </g>
     </g>
     <g id="text_5">
      <!-- 2.280 -->
      <g transform="translate(383.852865 319.31601)scale(0.16 -0.16)">
       <defs>
        <path d="M 2034 2216 
Q 1584 2216 1326 1975 
Q 1069 1734 1069 1313 
Q 1069 891 1326 650 
Q 1584 409 2034 409 
Q 2484 409 2743 651 
Q 3003 894 3003 1313 
Q 3003 1734 2745 1975 
Q 2488 2216 2034 2216 
z
M 1403 2484 
Q 997 2584 770 2862 
Q 544 3141 544 3541 
Q 544 4100 942 4425 
Q 1341 4750 2034 4750 
Q 2731 4750 3128 4425 
Q 3525 4100 3525 3541 
Q 3525 3141 3298 2862 
Q 3072 2584 2669 2484 
Q 3125 2378 3379 2068 
Q 3634 1759 3634 1313 
Q 3634 634 3220 271 
Q 2806 -91 2034 -91 
Q 1263 -91 848 271 
Q 434 634 434 1313 
Q 434 1759 690 2068 
Q 947 2378 1403 2484 
z
M 1172 3481 
Q 1172 3119 1398 2916 
Q 1625 2713 2034 2713 
Q 2441 2713 2670 2916 
Q 2900 3119 2900 3481 
Q 2900 3844 2670 4047 
Q 2441 4250 2034 4250 
Q 1625 4250 1398 4047 
Q 1172 3844 1172 3481 
z
" id="DejaVuSans-38" transform="scale(0.015625)"/>
       </defs>
       <use xlink:href="#DejaVuSans-32"/>
       <use x="63.623047" xlink:href="#DejaVuSans-2e"/>
       <use x="95.410156" xlink:href="#DejaVuSans-32"/>
       <use x="159.033203" xlink:href="#DejaVuSans-38"/>
       <use x="222.65625" xlink:href="#DejaVuSans-30"/>
      </g>
     </g>
    </g>
    <g id="text_6">
     <!-- Temperatura -->
     <g transform="translate(189.752323 352.840385)scale(0.2 -0.2)">
      <defs>
       <path d="M -19 4666 
L 3928 4666 
L 3928 4134 
L 2272 4134 
L 2272 0 
L 1638 0 
L 1638 4134 
L -19 4134 
L -19 4666 
z
" id="DejaVuSans-54" transform="scale(0.015625)"/>
       <path d="M 3597 1894 
L 3597 1613 
L 953 1613 
Q 991 1019 1311 708 
Q 1631 397 2203 397 
Q 2534 397 2845 478 
Q 3156 559 3463 722 
L 3463 178 
Q 3153 47 2828 -22 
Q 2503 -91 2169 -91 
Q 1331 -91 842 396 
Q 353 884 353 1716 
Q 353 2575 817 3079 
Q 1281 3584 2069 3584 
Q 2775 3584 3186 3129 
Q 3597 2675 3597 1894 
z
M 3022 2063 
Q 3016 2534 2758 2815 
Q 2500 3097 2075 3097 
Q 1594 3097 1305 2825 
Q 1016 2553 972 2059 
L 3022 2063 
z
" id="DejaVuSans-65" transform="scale(0.015625)"/>
       <path d="M 3328 2828 
Q 3544 3216 3844 3400 
Q 4144 3584 4550 3584 
Q 5097 3584 5394 3201 
Q 5691 2819 5691 2113 
L 5691 0 
L 5113 0 
L 5113 2094 
Q 5113 2597 4934 2840 
Q 4756 3084 4391 3084 
Q 3944 3084 3684 2787 
Q 3425 2491 3425 1978 
L 3425 0 
L 2847 0 
L 2847 2094 
Q 2847 2600 2669 2842 
Q 2491 3084 2119 3084 
Q 1678 3084 1418 2786 
Q 1159 2488 1159 1978 
L 1159 0 
L 581 0 
L 581 3500 
L 1159 3500 
L 1159 2956 
Q 1356 3278 1631 3431 
Q 1906 3584 2284 3584 
Q 2666 3584 2933 3390 
Q 3200 3197 3328 2828 
z
" id="DejaVuSans-6d" transform="scale(0.015625)"/>
       <path d="M 1159 525 
L 1159 -1331 
L 581 -1331 
L 581 3500 
L 1159 3500 
L 1159 2969 
Q 1341 3281 1617 3432 
Q 1894 3584 2278 3584 
Q 2916 3584 3314 3078 
Q 3713 2572 3713 1747 
Q 3713 922 3314 415 
Q 2916 -91 2278 -91 
Q 1894 -91 1617 61 
Q 1341 213 1159 525 
z
M 3116 1747 
Q 3116 2381 2855 2742 
Q 2594 3103 2138 3103 
Q 1681 3103 1420 2742 
Q 1159 2381 1159 1747 
Q 1159 1113 1420 752 
Q 1681 391 2138 391 
Q 2594 391 2855 752 
Q 3116 1113 3116 1747 
z
" id="DejaVuSans-70" transform="scale(0.015625)"/>
       <path d="M 2631 2963 
Q 2534 3019 2420 3045 
Q 2306 3072 2169 3072 
Q 1681 3072 1420 2755 
Q 1159 2438 1159 1844 
L 1159 0 
L 581 0 
L 581 3500 
L 1159 3500 
L 1159 2956 
Q 1341 3275 1631 3429 
Q 1922 3584 2338 3584 
Q 2397 3584 2469 3576 
Q 2541 3569 2628 3553 
L 2631 2963 
z
" id="DejaVuSans-72" transform="scale(0.015625)"/>
       <path d="M 2194 1759 
Q 1497 1759 1228 1600 
Q 959 1441 959 1056 
Q 959 750 1161 570 
Q 1363 391 1709 391 
Q 2188 391 2477 730 
Q 2766 1069 2766 1631 
L 2766 1759 
L 2194 1759 
z
M 3341 1997 
L 3341 0 
L 2766 0 
L 2766 531 
Q 2569 213 2275 61 
Q 1981 -91 1556 -91 
Q 1019 -91 701 211 
Q 384 513 384 1019 
Q 384 1609 779 1909 
Q 1175 2209 1959 2209 
L 2766 2209 
L 2766 2266 
Q 2766 2663 2505 2880 
Q 2244 3097 1772 3097 
Q 1472 3097 1187 3025 
Q 903 2953 641 2809 
L 641 3341 
Q 956 3463 1253 3523 
Q 1550 3584 1831 3584 
Q 2591 3584 2966 3190 
Q 3341 2797 3341 1997 
z
" id="DejaVuSans-61" transform="scale(0.015625)"/>
       <path d="M 1172 4494 
L 1172 3500 
L 2356 3500 
L 2356 3053 
L 1172 3053 
L 1172 1153 
Q 1172 725 1289 603 
Q 1406 481 1766 481 
L 2356 481 
L 2356 0 
L 1766 0 
Q 1100 0 847 248 
Q 594 497 594 1153 
L 594 3053 
L 172 3053 
L 172 3500 
L 594 3500 
L 594 4494 
L 1172 4494 
z
" id="DejaVuSans-74" transform="scale(0.015625)"/>
       <path d="M 544 1381 
L 544 3500 
L 1119 3500 
L 1119 1403 
Q 1119 906 1312 657 
Q 1506 409 1894 409 
Q 2359 409 2629 706 
Q 2900 1003 2900 1516 
L 2900 3500 
L 3475 3500 
L 3475 0 
L 2900 0 
L 2900 538 
Q 2691 219 2414 64 
Q 2138 -91 1772 -91 
Q 1169 -91 856 284 
Q 544 659 544 1381 
z
M 1991 3584 
L 1991 3584 
z
" id="DejaVuSans-75" transform="scale(0.015625)"/>
      </defs>
      <use xlink:href="#DejaVuSans-54"/>
      <use x="44.083984" xlink:href="#DejaVuSans-65"/>
      <use x="105.607422" xlink:href="#DejaVuSans-6d"/>
      <use x="203.019531" xlink:href="#DejaVuSans-70"/>
      <use x="266.496094" xlink:href="#DejaVuSans-65"/>
      <use x="328.019531" xlink:href="#DejaVuSans-72"/>
      <use x="369.132812" xlink:href="#DejaVuSans-61"/>
      <use x="430.412109" xlink:href="#DejaVuSans-74"/>
      <use x="469.621094" xlink:href="#DejaVuSans-75"/>
      <use x="533" xlink:href="#DejaVuSans-72"/>
      <use x="574.113281" xlink:href="#DejaVuSans-61"/>
     </g>
    </g>
   </g>
   <g id="matplotlib.axis_2">
    <g id="ytick_1">
     <g id="line2d_6">
      <defs>
       <path d="M 0 0 
L -8 0 
" id="m2e87f83983" style="stroke:#000000;stroke-width:3;"/>
      </defs>
      <g>
       <use style="stroke:#000000;stroke-width:3;" x="84.48149" xlink:href="#m2e87f83983" y="292.127983"/>
      </g>
     </g>
     <g id="text_7">
      <!-- 35.0 -->
      <g transform="translate(37.35649 298.206733)scale(0.16 -0.16)">
       <defs>
        <path d="M 2597 2516 
Q 3050 2419 3304 2112 
Q 3559 1806 3559 1356 
Q 3559 666 3084 287 
Q 2609 -91 1734 -91 
Q 1441 -91 1130 -33 
Q 819 25 488 141 
L 488 750 
Q 750 597 1062 519 
Q 1375 441 1716 441 
Q 2309 441 2620 675 
Q 2931 909 2931 1356 
Q 2931 1769 2642 2001 
Q 2353 2234 1838 2234 
L 1294 2234 
L 1294 2753 
L 1863 2753 
Q 2328 2753 2575 2939 
Q 2822 3125 2822 3475 
Q 2822 3834 2567 4026 
Q 2313 4219 1838 4219 
Q 1578 4219 1281 4162 
Q 984 4106 628 3988 
L 628 4550 
Q 988 4650 1302 4700 
Q 1616 4750 1894 4750 
Q 2613 4750 3031 4423 
Q 3450 4097 3450 3541 
Q 3450 3153 3228 2886 
Q 3006 2619 2597 2516 
z
" id="DejaVuSans-33" transform="scale(0.015625)"/>
       </defs>
       <use xlink:href="#DejaVuSans-33"/>
       <use x="63.623047" xlink:href="#DejaVuSans-35"/>
       <use x="127.246094" xlink:href="#DejaVuSans-2e"/>
       <use x="159.033203" xlink:href="#DejaVuSans-30"/>
      </g>
     </g>
    </g>
    <g id="ytick_2">
     <g id="line2d_7">
      <g>
       <use style="stroke:#000000;stroke-width:3;" x="84.48149" xlink:href="#m2e87f83983" y="257.453177"/>
      </g>
     </g>
     <g id="text_8">
      <!-- 37.5 -->
      <g transform="translate(37.35649 263.531927)scale(0.16 -0.16)">
       <use xlink:href="#DejaVuSans-33"/>
       <use x="63.623047" xlink:href="#DejaVuSans-37"/>
       <use x="127.246094" xlink:href="#DejaVuSans-2e"/>
       <use x="159.033203" xlink:href="#DejaVuSans-35"/>
      </g>
     </g>
    </g>
    <g id="ytick_3">
     <g id="line2d_8">
      <g>
       <use style="stroke:#000000;stroke-width:3;" x="84.48149" xlink:href="#m2e87f83983" y="222.77837"/>
      </g>
     </g>
     <g id="text_9">
      <!-- 40.0 -->
      <g transform="translate(37.35649 228.85712)scale(0.16 -0.16)">
       <defs>
        <path d="M 2419 4116 
L 825 1625 
L 2419 1625 
L 2419 4116 
z
M 2253 4666 
L 3047 4666 
L 3047 1625 
L 3713 1625 
L 3713 1100 
L 3047 1100 
L 3047 0 
L 2419 0 
L 2419 1100 
L 313 1100 
L 313 1709 
L 2253 4666 
z
" id="DejaVuSans-34" transform="scale(0.015625)"/>
       </defs>
       <use xlink:href="#DejaVuSans-34"/>
       <use x="63.623047" xlink:href="#DejaVuSans-30"/>
       <use x="127.246094" xlink:href="#DejaVuSans-2e"/>
       <use x="159.033203" xlink:href="#DejaVuSans-30"/>
      </g>
     </g>
    </g>
    <g id="ytick_4">
     <g id="line2d_9">
      <g>
       <use style="stroke:#000000;stroke-width:3;" x="84.48149" xlink:href="#m2e87f83983" y="188.103564"/>
      </g>
     </g>
     <g id="text_10">
      <!-- 42.5 -->
      <g transform="translate(37.35649 194.182314)scale(0.16 -0.16)">
       <use xlink:href="#DejaVuSans-34"/>
       <use x="63.623047" xlink:href="#DejaVuSans-32"/>
       <use x="127.246094" xlink:href="#DejaVuSans-2e"/>
       <use x="159.033203" xlink:href="#DejaVuSans-35"/>
      </g>
     </g>
    </g>
    <g id="ytick_5">
     <g id="line2d_10">
      <g>
       <use style="stroke:#000000;stroke-width:3;" x="84.48149" xlink:href="#m2e87f83983" y="153.428757"/>
      </g>
     </g>
     <g id="text_11">
      <!-- 45.0 -->
      <g transform="translate(37.35649 159.507507)scale(0.16 -0.16)">
       <use xlink:href="#DejaVuSans-34"/>
       <use x="63.623047" xlink:href="#DejaVuSans-35"/>
       <use x="127.246094" xlink:href="#DejaVuSans-2e"/>
       <use x="159.033203" xlink:href="#DejaVuSans-30"/>
      </g>
     </g>
    </g>
    <g id="ytick_6">
     <g id="line2d_11">
      <g>
       <use style="stroke:#000000;stroke-width:3;" x="84.48149" xlink:href="#m2e87f83983" y="118.753951"/>
      </g>
     </g>
     <g id="text_12">
      <!-- 47.5 -->
      <g transform="translate(37.35649 124.832701)scale(0.16 -0.16)">
       <use xlink:href="#DejaVuSans-34"/>
       <use x="63.623047" xlink:href="#DejaVuSans-37"/>
       <use x="127.246094" xlink:href="#DejaVuSans-2e"/>
       <use x="159.033203" xlink:href="#DejaVuSans-35"/>
      </g>
     </g>
    </g>
    <g id="ytick_7">
     <g id="line2d_12">
      <g>
       <use style="stroke:#000000;stroke-width:3;" x="84.48149" xlink:href="#m2e87f83983" y="84.079144"/>
      </g>
     </g>
     <g id="text_13">
      <!-- 50.0 -->
      <g transform="translate(37.35649 90.157894)scale(0.16 -0.16)">
       <use xlink:href="#DejaVuSans-35"/>
       <use x="63.623047" xlink:href="#DejaVuSans-30"/>
       <use x="127.246094" xlink:href="#DejaVuSans-2e"/>
       <use x="159.033203" xlink:href="#DejaVuSans-30"/>
      </g>
     </g>
    </g>
    <g id="ytick_8">
     <g id="line2d_13">
      <g>
       <use style="stroke:#000000;stroke-width:3;" x="84.48149" xlink:href="#m2e87f83983" y="49.404338"/>
      </g>
     </g>
     <g id="text_14">
      <!-- 52.5 -->
      <g transform="translate(37.35649 55.483088)scale(0.16 -0.16)">
       <use xlink:href="#DejaVuSans-35"/>
       <use x="63.623047" xlink:href="#DejaVuSans-32"/>
       <use x="127.246094" xlink:href="#DejaVuSans-2e"/>
       <use x="159.033203" xlink:href="#DejaVuSans-35"/>
      </g>
     </g>
    </g>
    <g id="ytick_9">
     <g id="line2d_14">
      <g>
       <use style="stroke:#000000;stroke-width:3;" x="84.48149" xlink:href="#m2e87f83983" y="14.729531"/>
      </g>
     </g>
     <g id="text_15">
      <!-- 55.0 -->
      <g transform="translate(37.35649 20.808281)scale(0.16 -0.16)">
       <use xlink:href="#DejaVuSans-35"/>
       <use x="63.623047" xlink:href="#DejaVuSans-35"/>
       <use x="127.246094" xlink:href="#DejaVuSans-2e"/>
       <use x="159.033203" xlink:href="#DejaVuSans-30"/>
      </g>
     </g>
    </g>
    <g id="text_16">
     <!-- Grau -->
     <g transform="translate(18.197115 173.654375)rotate(-90)scale(0.2 -0.2)">
      <defs>
       <path d="M 3809 666 
L 3809 1919 
L 2778 1919 
L 2778 2438 
L 4434 2438 
L 4434 434 
Q 4069 175 3628 42 
Q 3188 -91 2688 -91 
Q 1594 -91 976 548 
Q 359 1188 359 2328 
Q 359 3472 976 4111 
Q 1594 4750 2688 4750 
Q 3144 4750 3555 4637 
Q 3966 4525 4313 4306 
L 4313 3634 
Q 3963 3931 3569 4081 
Q 3175 4231 2741 4231 
Q 1884 4231 1454 3753 
Q 1025 3275 1025 2328 
Q 1025 1384 1454 906 
Q 1884 428 2741 428 
Q 3075 428 3337 486 
Q 3600 544 3809 666 
z
" id="DejaVuSans-47" transform="scale(0.015625)"/>
      </defs>
      <use xlink:href="#DejaVuSans-47"/>
      <use x="77.490234" xlink:href="#DejaVuSans-72"/>
      <use x="118.603516" xlink:href="#DejaVuSans-61"/>
      <use x="179.882812" xlink:href="#DejaVuSans-75"/>
     </g>
    </g>
   </g>
   <g id="LineCollection_1">
    <path clip-path="url(#pc5c650e82f)" d="M 99.827844 189.490556 
L 99.827844 189.490556 
" style="fill:none;stroke:#1f77b4;stroke-width:2;"/>
    <path clip-path="url(#pc5c650e82f)" d="M 161.212529 208.908447 
L 161.212529 208.908447 
" style="fill:none;stroke:#1f77b4;stroke-width:2;"/>
    <path clip-path="url(#pc5c650e82f)" d="M 253.291385 239.422277 
L 253.291385 239.422277 
" style="fill:none;stroke:#1f77b4;stroke-width:2;"/>
    <path clip-path="url(#pc5c650e82f)" d="M 345.370241 267.162122 
L 345.370241 267.162122 
" style="fill:none;stroke:#1f77b4;stroke-width:2;"/>
    <path clip-path="url(#pc5c650e82f)" d="M 406.754926 261.614153 
L 406.754926 261.614153 
" style="fill:none;stroke:#1f77b4;stroke-width:2;"/>
   </g>
   <g id="LineCollection_2">
    <path clip-path="url(#pc5c650e82f)" d="M 99.827844 197.087425 
L 99.827844 181.893686 
" style="fill:none;stroke:#1f77b4;stroke-width:2;"/>
    <path clip-path="url(#pc5c650e82f)" d="M 161.212529 222.77837 
L 161.212529 195.038525 
" style="fill:none;stroke:#1f77b4;stroke-width:2;"/>
    <path clip-path="url(#pc5c650e82f)" d="M 253.291385 254.616016 
L 253.291385 224.228538 
" style="fill:none;stroke:#1f77b4;stroke-width:2;"/>
    <path clip-path="url(#pc5c650e82f)" d="M 345.370241 282.355861 
L 345.370241 251.968383 
" style="fill:none;stroke:#1f77b4;stroke-width:2;"/>
    <path clip-path="url(#pc5c650e82f)" d="M 406.754926 273.218563 
L 406.754926 250.009744 
" style="fill:none;stroke:#1f77b4;stroke-width:2;"/>
   </g>
   <g id="LineCollection_3">
    <path clip-path="url(#pc5c650e82f)" d="M 99.827844 134.010865 
L 99.827844 134.010865 
" style="fill:none;stroke:#ff7f0e;stroke-width:2;"/>
    <path clip-path="url(#pc5c650e82f)" d="M 161.212529 164.524695 
L 161.212529 164.524695 
" style="fill:none;stroke:#ff7f0e;stroke-width:2;"/>
    <path clip-path="url(#pc5c650e82f)" d="M 253.291385 200.586494 
L 253.291385 200.586494 
" style="fill:none;stroke:#ff7f0e;stroke-width:2;"/>
    <path clip-path="url(#pc5c650e82f)" d="M 345.370241 231.100324 
L 345.370241 231.100324 
" style="fill:none;stroke:#ff7f0e;stroke-width:2;"/>
    <path clip-path="url(#pc5c650e82f)" d="M 406.754926 217.230401 
L 406.754926 217.230401 
" style="fill:none;stroke:#ff7f0e;stroke-width:2;"/>
   </g>
   <g id="LineCollection_4">
    <path clip-path="url(#pc5c650e82f)" d="M 99.827844 170.179199 
L 99.827844 97.842532 
" style="fill:none;stroke:#ff7f0e;stroke-width:2;"/>
    <path clip-path="url(#pc5c650e82f)" d="M 161.212529 203.012168 
L 161.212529 126.037222 
" style="fill:none;stroke:#ff7f0e;stroke-width:2;"/>
    <path clip-path="url(#pc5c650e82f)" d="M 253.291385 235.399723 
L 253.291385 165.773264 
" style="fill:none;stroke:#ff7f0e;stroke-width:2;"/>
    <path clip-path="url(#pc5c650e82f)" d="M 345.370241 267.268657 
L 345.370241 194.931991 
" style="fill:none;stroke:#ff7f0e;stroke-width:2;"/>
    <path clip-path="url(#pc5c650e82f)" d="M 406.754926 247.617879 
L 406.754926 186.842923 
" style="fill:none;stroke:#ff7f0e;stroke-width:2;"/>
   </g>
   <g id="LineCollection_5">
    <path clip-path="url(#pc5c650e82f)" d="M 99.827844 89.627113 
L 99.827844 89.627113 
" style="fill:none;stroke:#2ca02c;stroke-width:2;"/>
    <path clip-path="url(#pc5c650e82f)" d="M 161.212529 134.010865 
L 161.212529 134.010865 
" style="fill:none;stroke:#2ca02c;stroke-width:2;"/>
    <path clip-path="url(#pc5c650e82f)" d="M 253.291385 192.26454 
L 253.291385 192.26454 
" style="fill:none;stroke:#2ca02c;stroke-width:2;"/>
    <path clip-path="url(#pc5c650e82f)" d="M 345.370241 206.134463 
L 345.370241 206.134463 
" style="fill:none;stroke:#2ca02c;stroke-width:2;"/>
    <path clip-path="url(#pc5c650e82f)" d="M 406.754926 186.716571 
L 406.754926 186.716571 
" style="fill:none;stroke:#2ca02c;stroke-width:2;"/>
   </g>
   <g id="LineCollection_6">
    <path clip-path="url(#pc5c650e82f)" d="M 99.827844 142.985771 
L 99.827844 36.268455 
" style="fill:none;stroke:#2ca02c;stroke-width:2;"/>
    <path clip-path="url(#pc5c650e82f)" d="M 161.212529 188.263365 
L 161.212529 79.758366 
" style="fill:none;stroke:#2ca02c;stroke-width:2;"/>
    <path clip-path="url(#pc5c650e82f)" d="M 253.291385 243.601994 
L 253.291385 140.927087 
" style="fill:none;stroke:#2ca02c;stroke-width:2;"/>
    <path clip-path="url(#pc5c650e82f)" d="M 345.370241 254.58002 
L 345.370241 157.688906 
" style="fill:none;stroke:#2ca02c;stroke-width:2;"/>
    <path clip-path="url(#pc5c650e82f)" d="M 406.754926 242.713968 
L 406.754926 130.719174 
" style="fill:none;stroke:#2ca02c;stroke-width:2;"/>
   </g>
   <g id="LineCollection_7">
    <path clip-path="url(#pc5c650e82f)" d="M 99.827844 72.983206 
L 99.827844 72.983206 
" style="fill:none;stroke:#d62728;stroke-width:2;"/>
    <path clip-path="url(#pc5c650e82f)" d="M 161.212529 131.236881 
L 161.212529 131.236881 
" style="fill:none;stroke:#d62728;stroke-width:2;"/>
    <path clip-path="url(#pc5c650e82f)" d="M 253.291385 186.716571 
L 253.291385 186.716571 
" style="fill:none;stroke:#d62728;stroke-width:2;"/>
    <path clip-path="url(#pc5c650e82f)" d="M 345.370241 203.360478 
L 345.370241 203.360478 
" style="fill:none;stroke:#d62728;stroke-width:2;"/>
    <path clip-path="url(#pc5c650e82f)" d="M 406.754926 167.29868 
L 406.754926 167.29868 
" style="fill:none;stroke:#d62728;stroke-width:2;"/>
   </g>
   <g id="LineCollection_8">
    <path clip-path="url(#pc5c650e82f)" d="M 99.827844 129.663523 
L 99.827844 16.302889 
" style="fill:none;stroke:#d62728;stroke-width:2;"/>
    <path clip-path="url(#pc5c650e82f)" d="M 161.212529 182.761357 
L 161.212529 79.712405 
" style="fill:none;stroke:#d62728;stroke-width:2;"/>
    <path clip-path="url(#pc5c650e82f)" d="M 253.291385 238.241047 
L 253.291385 135.192096 
" style="fill:none;stroke:#d62728;stroke-width:2;"/>
    <path clip-path="url(#pc5c650e82f)" d="M 345.370241 230.397935 
L 345.370241 176.323022 
" style="fill:none;stroke:#d62728;stroke-width:2;"/>
    <path clip-path="url(#pc5c650e82f)" d="M 406.754926 198.312769 
L 406.754926 136.28459 
" style="fill:none;stroke:#d62728;stroke-width:2;"/>
   </g>
   <g id="line2d_15">
    <defs>
     <path d="M 0 3 
L 0 -3 
" id="m9daf73f9b2" style="stroke:#1f77b4;"/>
    </defs>
    <g clip-path="url(#pc5c650e82f)">
     <use style="fill:#1f77b4;stroke:#1f77b4;" x="99.827844" xlink:href="#m9daf73f9b2" y="189.490556"/>
     <use style="fill:#1f77b4;stroke:#1f77b4;" x="161.212529" xlink:href="#m9daf73f9b2" y="208.908447"/>
     <use style="fill:#1f77b4;stroke:#1f77b4;" x="253.291385" xlink:href="#m9daf73f9b2" y="239.422277"/>
     <use style="fill:#1f77b4;stroke:#1f77b4;" x="345.370241" xlink:href="#m9daf73f9b2" y="267.162122"/>
     <use style="fill:#1f77b4;stroke:#1f77b4;" x="406.754926" xlink:href="#m9daf73f9b2" y="261.614153"/>
    </g>
   </g>
   <g id="line2d_16">
    <g clip-path="url(#pc5c650e82f)">
     <use style="fill:#1f77b4;stroke:#1f77b4;" x="99.827844" xlink:href="#m9daf73f9b2" y="189.490556"/>
     <use style="fill:#1f77b4;stroke:#1f77b4;" x="161.212529" xlink:href="#m9daf73f9b2" y="208.908447"/>
     <use style="fill:#1f77b4;stroke:#1f77b4;" x="253.291385" xlink:href="#m9daf73f9b2" y="239.422277"/>
     <use style="fill:#1f77b4;stroke:#1f77b4;" x="345.370241" xlink:href="#m9daf73f9b2" y="267.162122"/>
     <use style="fill:#1f77b4;stroke:#1f77b4;" x="406.754926" xlink:href="#m9daf73f9b2" y="261.614153"/>
    </g>
   </g>
   <g id="line2d_17">
    <defs>
     <path d="M 3 0 
L -3 -0 
" id="m6930378d9a" style="stroke:#1f77b4;"/>
    </defs>
    <g clip-path="url(#pc5c650e82f)">
     <use style="fill:#1f77b4;stroke:#1f77b4;" x="99.827844" xlink:href="#m6930378d9a" y="197.087425"/>
     <use style="fill:#1f77b4;stroke:#1f77b4;" x="161.212529" xlink:href="#m6930378d9a" y="222.77837"/>
     <use style="fill:#1f77b4;stroke:#1f77b4;" x="253.291385" xlink:href="#m6930378d9a" y="254.616016"/>
     <use style="fill:#1f77b4;stroke:#1f77b4;" x="345.370241" xlink:href="#m6930378d9a" y="282.355861"/>
     <use style="fill:#1f77b4;stroke:#1f77b4;" x="406.754926" xlink:href="#m6930378d9a" y="273.218563"/>
    </g>
   </g>
   <g id="line2d_18">
    <g clip-path="url(#pc5c650e82f)">
     <use style="fill:#1f77b4;stroke:#1f77b4;" x="99.827844" xlink:href="#m6930378d9a" y="181.893686"/>
     <use style="fill:#1f77b4;stroke:#1f77b4;" x="161.212529" xlink:href="#m6930378d9a" y="195.038525"/>
     <use style="fill:#1f77b4;stroke:#1f77b4;" x="253.291385" xlink:href="#m6930378d9a" y="224.228538"/>
     <use style="fill:#1f77b4;stroke:#1f77b4;" x="345.370241" xlink:href="#m6930378d9a" y="251.968383"/>
     <use style="fill:#1f77b4;stroke:#1f77b4;" x="406.754926" xlink:href="#m6930378d9a" y="250.009744"/>
    </g>
   </g>
   <g id="line2d_19">
    <defs>
     <path d="M 0 3 
L 0 -3 
" id="md13c0aee81" style="stroke:#ff7f0e;"/>
    </defs>
    <g clip-path="url(#pc5c650e82f)">
     <use style="fill:#ff7f0e;stroke:#ff7f0e;" x="99.827844" xlink:href="#md13c0aee81" y="134.010865"/>
     <use style="fill:#ff7f0e;stroke:#ff7f0e;" x="161.212529" xlink:href="#md13c0aee81" y="164.524695"/>
     <use style="fill:#ff7f0e;stroke:#ff7f0e;" x="253.291385" xlink:href="#md13c0aee81" y="200.586494"/>
     <use style="fill:#ff7f0e;stroke:#ff7f0e;" x="345.370241" xlink:href="#md13c0aee81" y="231.100324"/>
     <use style="fill:#ff7f0e;stroke:#ff7f0e;" x="406.754926" xlink:href="#md13c0aee81" y="217.230401"/>
    </g>
   </g>
   <g id="line2d_20">
    <g clip-path="url(#pc5c650e82f)">
     <use style="fill:#ff7f0e;stroke:#ff7f0e;" x="99.827844" xlink:href="#md13c0aee81" y="134.010865"/>
     <use style="fill:#ff7f0e;stroke:#ff7f0e;" x="161.212529" xlink:href="#md13c0aee81" y="164.524695"/>
     <use style="fill:#ff7f0e;stroke:#ff7f0e;" x="253.291385" xlink:href="#md13c0aee81" y="200.586494"/>
     <use style="fill:#ff7f0e;stroke:#ff7f0e;" x="345.370241" xlink:href="#md13c0aee81" y="231.100324"/>
     <use style="fill:#ff7f0e;stroke:#ff7f0e;" x="406.754926" xlink:href="#md13c0aee81" y="217.230401"/>
    </g>
   </g>
   <g id="line2d_21">
    <defs>
     <path d="M 3 0 
L -3 -0 
" id="mb9c2e04858" style="stroke:#ff7f0e;"/>
    </defs>
    <g clip-path="url(#pc5c650e82f)">
     <use style="fill:#ff7f0e;stroke:#ff7f0e;" x="99.827844" xlink:href="#mb9c2e04858" y="170.179199"/>
     <use style="fill:#ff7f0e;stroke:#ff7f0e;" x="161.212529" xlink:href="#mb9c2e04858" y="203.012168"/>
     <use style="fill:#ff7f0e;stroke:#ff7f0e;" x="253.291385" xlink:href="#mb9c2e04858" y="235.399723"/>
     <use style="fill:#ff7f0e;stroke:#ff7f0e;" x="345.370241" xlink:href="#mb9c2e04858" y="267.268657"/>
     <use style="fill:#ff7f0e;stroke:#ff7f0e;" x="406.754926" xlink:href="#mb9c2e04858" y="247.617879"/>
    </g>
   </g>
   <g id="line2d_22">
    <g clip-path="url(#pc5c650e82f)">
     <use style="fill:#ff7f0e;stroke:#ff7f0e;" x="99.827844" xlink:href="#mb9c2e04858" y="97.842532"/>
     <use style="fill:#ff7f0e;stroke:#ff7f0e;" x="161.212529" xlink:href="#mb9c2e04858" y="126.037222"/>
     <use style="fill:#ff7f0e;stroke:#ff7f0e;" x="253.291385" xlink:href="#mb9c2e04858" y="165.773264"/>
     <use style="fill:#ff7f0e;stroke:#ff7f0e;" x="345.370241" xlink:href="#mb9c2e04858" y="194.931991"/>
     <use style="fill:#ff7f0e;stroke:#ff7f0e;" x="406.754926" xlink:href="#mb9c2e04858" y="186.842923"/>
    </g>
   </g>
   <g id="line2d_23">
    <defs>
     <path d="M 0 3 
L 0 -3 
" id="mb515bb6676" style="stroke:#2ca02c;"/>
    </defs>
    <g clip-path="url(#pc5c650e82f)">
     <use style="fill:#2ca02c;stroke:#2ca02c;" x="99.827844" xlink:href="#mb515bb6676" y="89.627113"/>
     <use style="fill:#2ca02c;stroke:#2ca02c;" x="161.212529" xlink:href="#mb515bb6676" y="134.010865"/>
     <use style="fill:#2ca02c;stroke:#2ca02c;" x="253.291385" xlink:href="#mb515bb6676" y="192.26454"/>
     <use style="fill:#2ca02c;stroke:#2ca02c;" x="345.370241" xlink:href="#mb515bb6676" y="206.134463"/>
     <use style="fill:#2ca02c;stroke:#2ca02c;" x="406.754926" xlink:href="#mb515bb6676" y="186.716571"/>
    </g>
   </g>
   <g id="line2d_24">
    <g clip-path="url(#pc5c650e82f)">
     <use style="fill:#2ca02c;stroke:#2ca02c;" x="99.827844" xlink:href="#mb515bb6676" y="89.627113"/>
     <use style="fill:#2ca02c;stroke:#2ca02c;" x="161.212529" xlink:href="#mb515bb6676" y="134.010865"/>
     <use style="fill:#2ca02c;stroke:#2ca02c;" x="253.291385" xlink:href="#mb515bb6676" y="192.26454"/>
     <use style="fill:#2ca02c;stroke:#2ca02c;" x="345.370241" xlink:href="#mb515bb6676" y="206.134463"/>
     <use style="fill:#2ca02c;stroke:#2ca02c;" x="406.754926" xlink:href="#mb515bb6676" y="186.716571"/>
    </g>
   </g>
   <g id="line2d_25">
    <defs>
     <path d="M 3 0 
L -3 -0 
" id="m66c30f968c" style="stroke:#2ca02c;"/>
    </defs>
    <g clip-path="url(#pc5c650e82f)">
     <use style="fill:#2ca02c;stroke:#2ca02c;" x="99.827844" xlink:href="#m66c30f968c" y="142.985771"/>
     <use style="fill:#2ca02c;stroke:#2ca02c;" x="161.212529" xlink:href="#m66c30f968c" y="188.263365"/>
     <use style="fill:#2ca02c;stroke:#2ca02c;" x="253.291385" xlink:href="#m66c30f968c" y="243.601994"/>
     <use style="fill:#2ca02c;stroke:#2ca02c;" x="345.370241" xlink:href="#m66c30f968c" y="254.58002"/>
     <use style="fill:#2ca02c;stroke:#2ca02c;" x="406.754926" xlink:href="#m66c30f968c" y="242.713968"/>
    </g>
   </g>
   <g id="line2d_26">
    <g clip-path="url(#pc5c650e82f)">
     <use style="fill:#2ca02c;stroke:#2ca02c;" x="99.827844" xlink:href="#m66c30f968c" y="36.268455"/>
     <use style="fill:#2ca02c;stroke:#2ca02c;" x="161.212529" xlink:href="#m66c30f968c" y="79.758366"/>
     <use style="fill:#2ca02c;stroke:#2ca02c;" x="253.291385" xlink:href="#m66c30f968c" y="140.927087"/>
     <use style="fill:#2ca02c;stroke:#2ca02c;" x="345.370241" xlink:href="#m66c30f968c" y="157.688906"/>
     <use style="fill:#2ca02c;stroke:#2ca02c;" x="406.754926" xlink:href="#m66c30f968c" y="130.719174"/>
    </g>
   </g>
   <g id="line2d_27">
    <defs>
     <path d="M 0 3 
L 0 -3 
" id="mf6c7071b4c" style="stroke:#d62728;"/>
    </defs>
    <g clip-path="url(#pc5c650e82f)">
     <use style="fill:#d62728;stroke:#d62728;" x="99.827844" xlink:href="#mf6c7071b4c" y="72.983206"/>
     <use style="fill:#d62728;stroke:#d62728;" x="161.212529" xlink:href="#mf6c7071b4c" y="131.236881"/>
     <use style="fill:#d62728;stroke:#d62728;" x="253.291385" xlink:href="#mf6c7071b4c" y="186.716571"/>
     <use style="fill:#d62728;stroke:#d62728;" x="345.370241" xlink:href="#mf6c7071b4c" y="203.360478"/>
     <use style="fill:#d62728;stroke:#d62728;" x="406.754926" xlink:href="#mf6c7071b4c" y="167.29868"/>
    </g>
   </g>
   <g id="line2d_28">
    <g clip-path="url(#pc5c650e82f)">
     <use style="fill:#d62728;stroke:#d62728;" x="99.827844" xlink:href="#mf6c7071b4c" y="72.983206"/>
     <use style="fill:#d62728;stroke:#d62728;" x="161.212529" xlink:href="#mf6c7071b4c" y="131.236881"/>
     <use style="fill:#d62728;stroke:#d62728;" x="253.291385" xlink:href="#mf6c7071b4c" y="186.716571"/>
     <use style="fill:#d62728;stroke:#d62728;" x="345.370241" xlink:href="#mf6c7071b4c" y="203.360478"/>
     <use style="fill:#d62728;stroke:#d62728;" x="406.754926" xlink:href="#mf6c7071b4c" y="167.29868"/>
    </g>
   </g>
   <g id="line2d_29">
    <defs>
     <path d="M 3 0 
L -3 -0 
" id="m611d17e759" style="stroke:#d62728;"/>
    </defs>
    <g clip-path="url(#pc5c650e82f)">
     <use style="fill:#d62728;stroke:#d62728;" x="99.827844" xlink:href="#m611d17e759" y="129.663523"/>
     <use style="fill:#d62728;stroke:#d62728;" x="161.212529" xlink:href="#m611d17e759" y="182.761357"/>
     <use style="fill:#d62728;stroke:#d62728;" x="253.291385" xlink:href="#m611d17e759" y="238.241047"/>
     <use style="fill:#d62728;stroke:#d62728;" x="345.370241" xlink:href="#m611d17e759" y="230.397935"/>
     <use style="fill:#d62728;stroke:#d62728;" x="406.754926" xlink:href="#m611d17e759" y="198.312769"/>
    </g>
   </g>
   <g id="line2d_30">
    <g clip-path="url(#pc5c650e82f)">
     <use style="fill:#d62728;stroke:#d62728;" x="99.827844" xlink:href="#m611d17e759" y="16.302889"/>
     <use style="fill:#d62728;stroke:#d62728;" x="161.212529" xlink:href="#m611d17e759" y="79.712405"/>
     <use style="fill:#d62728;stroke:#d62728;" x="253.291385" xlink:href="#m611d17e759" y="135.192096"/>
     <use style="fill:#d62728;stroke:#d62728;" x="345.370241" xlink:href="#m611d17e759" y="176.323022"/>
     <use style="fill:#d62728;stroke:#d62728;" x="406.754926" xlink:href="#m611d17e759" y="136.28459"/>
    </g>
   </g>
   <g id="line2d_31">
    <path clip-path="url(#pc5c650e82f)" d="M 99.827844 189.490556 
L 161.212529 208.908447 
L 253.291385 239.422277 
L 345.370241 267.162122 
L 406.754926 261.614153 
" style="fill:none;stroke:#1f77b4;stroke-linecap:square;stroke-width:2;"/>
    <defs>
     <path d="M 0 4.5 
C 1.193414 4.5 2.338109 4.025852 3.181981 3.181981 
C 4.025852 2.338109 4.5 1.193414 4.5 0 
C 4.5 -1.193414 4.025852 -2.338109 3.181981 -3.181981 
C 2.338109 -4.025852 1.193414 -4.5 0 -4.5 
C -1.193414 -4.5 -2.338109 -4.025852 -3.181981 -3.181981 
C -4.025852 -2.338109 -4.5 -1.193414 -4.5 0 
C -4.5 1.193414 -4.025852 2.338109 -3.181981 3.181981 
C -2.338109 4.025852 -1.193414 4.5 0 4.5 
z
" id="m9076e1aa77" style="stroke:#1f77b4;"/>
    </defs>
    <g clip-path="url(#pc5c650e82f)">
     <use style="fill:#1f77b4;stroke:#1f77b4;" x="99.827844" xlink:href="#m9076e1aa77" y="189.490556"/>
     <use style="fill:#1f77b4;stroke:#1f77b4;" x="161.212529" xlink:href="#m9076e1aa77" y="208.908447"/>
     <use style="fill:#1f77b4;stroke:#1f77b4;" x="253.291385" xlink:href="#m9076e1aa77" y="239.422277"/>
     <use style="fill:#1f77b4;stroke:#1f77b4;" x="345.370241" xlink:href="#m9076e1aa77" y="267.162122"/>
     <use style="fill:#1f77b4;stroke:#1f77b4;" x="406.754926" xlink:href="#m9076e1aa77" y="261.614153"/>
    </g>
   </g>
   <g id="line2d_32">
    <path clip-path="url(#pc5c650e82f)" d="M 99.827844 134.010865 
L 161.212529 164.524695 
L 253.291385 200.586494 
L 345.370241 231.100324 
L 406.754926 217.230401 
" style="fill:none;stroke:#ff7f0e;stroke-linecap:square;stroke-width:2;"/>
    <defs>
     <path d="M -4.5 4.5 
L 4.5 4.5 
L 4.5 -4.5 
L -4.5 -4.5 
z
" id="m33c778f819" style="stroke:#ff7f0e;stroke-linejoin:miter;"/>
    </defs>
    <g clip-path="url(#pc5c650e82f)">
     <use style="fill:#ff7f0e;stroke:#ff7f0e;stroke-linejoin:miter;" x="99.827844" xlink:href="#m33c778f819" y="134.010865"/>
     <use style="fill:#ff7f0e;stroke:#ff7f0e;stroke-linejoin:miter;" x="161.212529" xlink:href="#m33c778f819" y="164.524695"/>
     <use style="fill:#ff7f0e;stroke:#ff7f0e;stroke-linejoin:miter;" x="253.291385" xlink:href="#m33c778f819" y="200.586494"/>
     <use style="fill:#ff7f0e;stroke:#ff7f0e;stroke-linejoin:miter;" x="345.370241" xlink:href="#m33c778f819" y="231.100324"/>
     <use style="fill:#ff7f0e;stroke:#ff7f0e;stroke-linejoin:miter;" x="406.754926" xlink:href="#m33c778f819" y="217.230401"/>
    </g>
   </g>
   <g id="line2d_33">
    <path clip-path="url(#pc5c650e82f)" d="M 99.827844 89.627113 
L 161.212529 134.010865 
L 253.291385 192.26454 
L 345.370241 206.134463 
L 406.754926 186.716571 
" style="fill:none;stroke:#2ca02c;stroke-linecap:square;stroke-width:2;"/>
    <defs>
     <path d="M -0 6.363961 
L 6.363961 0 
L 0 -6.363961 
L -6.363961 -0 
z
" id="m9e790e0478" style="stroke:#2ca02c;stroke-linejoin:miter;"/>
    </defs>
    <g clip-path="url(#pc5c650e82f)">
     <use style="fill:#2ca02c;stroke:#2ca02c;stroke-linejoin:miter;" x="99.827844" xlink:href="#m9e790e0478" y="89.627113"/>
     <use style="fill:#2ca02c;stroke:#2ca02c;stroke-linejoin:miter;" x="161.212529" xlink:href="#m9e790e0478" y="134.010865"/>
     <use style="fill:#2ca02c;stroke:#2ca02c;stroke-linejoin:miter;" x="253.291385" xlink:href="#m9e790e0478" y="192.26454"/>
     <use style="fill:#2ca02c;stroke:#2ca02c;stroke-linejoin:miter;" x="345.370241" xlink:href="#m9e790e0478" y="206.134463"/>
     <use style="fill:#2ca02c;stroke:#2ca02c;stroke-linejoin:miter;" x="406.754926" xlink:href="#m9e790e0478" y="186.716571"/>
    </g>
   </g>
   <g id="line2d_34">
    <path clip-path="url(#pc5c650e82f)" d="M 99.827844 72.983206 
L 161.212529 131.236881 
L 253.291385 186.716571 
L 345.370241 203.360478 
L 406.754926 167.29868 
" style="fill:none;stroke:#d62728;stroke-linecap:square;stroke-width:2;"/>
    <defs>
     <path d="M -2.25 -3.897114 
L -4.5 -0 
L -2.25 3.897114 
L 2.25 3.897114 
L 4.5 0 
L 2.25 -3.897114 
z
" id="maccabffc46" style="stroke:#d62728;stroke-linejoin:miter;"/>
    </defs>
    <g clip-path="url(#pc5c650e82f)">
     <use style="fill:#d62728;stroke:#d62728;stroke-linejoin:miter;" x="99.827844" xlink:href="#maccabffc46" y="72.983206"/>
     <use style="fill:#d62728;stroke:#d62728;stroke-linejoin:miter;" x="161.212529" xlink:href="#maccabffc46" y="131.236881"/>
     <use style="fill:#d62728;stroke:#d62728;stroke-linejoin:miter;" x="253.291385" xlink:href="#maccabffc46" y="186.716571"/>
     <use style="fill:#d62728;stroke:#d62728;stroke-linejoin:miter;" x="345.370241" xlink:href="#maccabffc46" y="203.360478"/>
     <use style="fill:#d62728;stroke:#d62728;stroke-linejoin:miter;" x="406.754926" xlink:href="#maccabffc46" y="167.29868"/>
    </g>
   </g>
   <g id="patch_3">
    <path d="M 84.48149 295.65851 
L 84.48149 3.00024 
" style="fill:none;stroke:#000000;stroke-linecap:square;stroke-linejoin:miter;stroke-width:3;"/>
   </g>
   <g id="patch_4">
    <path d="M 422.10128 295.65851 
L 422.10128 3.00024 
" style="fill:none;stroke:#000000;stroke-linecap:square;stroke-linejoin:miter;stroke-width:3;"/>
   </g>
   <g id="patch_5">
    <path d="M 84.48149 295.65851 
L 422.10128 295.65851 
" style="fill:none;stroke:#000000;stroke-linecap:square;stroke-linejoin:miter;stroke-width:3;"/>
   </g>
   <g id="patch_6">
    <path d="M 84.48149 3.00024 
L 422.10128 3.00024 
" style="fill:none;stroke:#000000;stroke-linecap:square;stroke-linejoin:miter;stroke-width:3;"/>
   </g>
   <g id="legend_1">
    <g id="patch_7">
     <path d="M 321.246593 96.39774 
L 412.30128 96.39774 
Q 415.10128 96.39774 415.10128 93.59774 
L 415.10128 12.80024 
Q 415.10128 10.00024 412.30128 10.00024 
L 321.246593 10.00024 
Q 318.446593 10.00024 318.446593 12.80024 
L 318.446593 93.59774 
Q 318.446593 96.39774 321.246593 96.39774 
z
" style="fill:#ffffff;opacity:0.8;stroke:#cccccc;stroke-linejoin:miter;"/>
    </g>
    <g id="LineCollection_9">
     <path d="M 331.046593 21.338052 
L 345.046593 21.338052 
" style="fill:none;stroke:#1f77b4;stroke-width:2;"/>
    </g>
    <g id="LineCollection_10">
     <path d="M 338.046593 28.338052 
L 338.046593 14.338052 
" style="fill:none;stroke:#1f77b4;stroke-width:2;"/>
    </g>
    <g id="line2d_35">
     <g>
      <use style="fill:#1f77b4;stroke:#1f77b4;" x="331.046593" xlink:href="#m9daf73f9b2" y="21.338052"/>
     </g>
    </g>
    <g id="line2d_36">
     <g>
      <use style="fill:#1f77b4;stroke:#1f77b4;" x="345.046593" xlink:href="#m9daf73f9b2" y="21.338052"/>
     </g>
    </g>
    <g id="line2d_37">
     <g>
      <use style="fill:#1f77b4;stroke:#1f77b4;" x="338.046593" xlink:href="#m6930378d9a" y="28.338052"/>
     </g>
    </g>
    <g id="line2d_38">
     <g>
      <use style="fill:#1f77b4;stroke:#1f77b4;" x="338.046593" xlink:href="#m6930378d9a" y="14.338052"/>
     </g>
    </g>
    <g id="line2d_39">
     <path d="M 324.046593 21.338052 
L 352.046593 21.338052 
" style="fill:none;stroke:#1f77b4;stroke-linecap:square;stroke-width:2;"/>
    </g>
    <g id="line2d_40">
     <g>
      <use style="fill:#1f77b4;stroke:#1f77b4;" x="338.046593" xlink:href="#m9076e1aa77" y="21.338052"/>
     </g>
    </g>
    <g id="text_17">
     <!-- L=90 -->
     <g transform="translate(363.246593 26.238052)scale(0.14 -0.14)">
      <defs>
       <path d="M 628 4666 
L 1259 4666 
L 1259 531 
L 3531 531 
L 3531 0 
L 628 0 
L 628 4666 
z
" id="DejaVuSans-4c" transform="scale(0.015625)"/>
       <path d="M 678 2906 
L 4684 2906 
L 4684 2381 
L 678 2381 
L 678 2906 
z
M 678 1631 
L 4684 1631 
L 4684 1100 
L 678 1100 
L 678 1631 
z
" id="DejaVuSans-3d" transform="scale(0.015625)"/>
       <path d="M 703 97 
L 703 672 
Q 941 559 1184 500 
Q 1428 441 1663 441 
Q 2288 441 2617 861 
Q 2947 1281 2994 2138 
Q 2813 1869 2534 1725 
Q 2256 1581 1919 1581 
Q 1219 1581 811 2004 
Q 403 2428 403 3163 
Q 403 3881 828 4315 
Q 1253 4750 1959 4750 
Q 2769 4750 3195 4129 
Q 3622 3509 3622 2328 
Q 3622 1225 3098 567 
Q 2575 -91 1691 -91 
Q 1453 -91 1209 -44 
Q 966 3 703 97 
z
M 1959 2075 
Q 2384 2075 2632 2365 
Q 2881 2656 2881 3163 
Q 2881 3666 2632 3958 
Q 2384 4250 1959 4250 
Q 1534 4250 1286 3958 
Q 1038 3666 1038 3163 
Q 1038 2656 1286 2365 
Q 1534 2075 1959 2075 
z
" id="DejaVuSans-39" transform="scale(0.015625)"/>
      </defs>
      <use xlink:href="#DejaVuSans-4c"/>
      <use x="55.712891" xlink:href="#DejaVuSans-3d"/>
      <use x="139.501953" xlink:href="#DejaVuSans-39"/>
      <use x="203.125" xlink:href="#DejaVuSans-30"/>
     </g>
    </g>
    <g id="LineCollection_11">
     <path d="M 331.046593 41.887427 
L 345.046593 41.887427 
" style="fill:none;stroke:#ff7f0e;stroke-width:2;"/>
    </g>
    <g id="LineCollection_12">
     <path d="M 338.046593 48.887427 
L 338.046593 34.887427 
" style="fill:none;stroke:#ff7f0e;stroke-width:2;"/>
    </g>
    <g id="line2d_41">
     <g>
      <use style="fill:#ff7f0e;stroke:#ff7f0e;" x="331.046593" xlink:href="#md13c0aee81" y="41.887427"/>
     </g>
    </g>
    <g id="line2d_42">
     <g>
      <use style="fill:#ff7f0e;stroke:#ff7f0e;" x="345.046593" xlink:href="#md13c0aee81" y="41.887427"/>
     </g>
    </g>
    <g id="line2d_43">
     <g>
      <use style="fill:#ff7f0e;stroke:#ff7f0e;" x="338.046593" xlink:href="#mb9c2e04858" y="48.887427"/>
     </g>
    </g>
    <g id="line2d_44">
     <g>
      <use style="fill:#ff7f0e;stroke:#ff7f0e;" x="338.046593" xlink:href="#mb9c2e04858" y="34.887427"/>
     </g>
    </g>
    <g id="line2d_45">
     <path d="M 324.046593 41.887427 
L 352.046593 41.887427 
" style="fill:none;stroke:#ff7f0e;stroke-linecap:square;stroke-width:2;"/>
    </g>
    <g id="line2d_46">
     <g>
      <use style="fill:#ff7f0e;stroke:#ff7f0e;stroke-linejoin:miter;" x="338.046593" xlink:href="#m33c778f819" y="41.887427"/>
     </g>
    </g>
    <g id="text_18">
     <!-- L=120 -->
     <g transform="translate(363.246593 46.787427)scale(0.14 -0.14)">
      <defs>
       <path d="M 794 531 
L 1825 531 
L 1825 4091 
L 703 3866 
L 703 4441 
L 1819 4666 
L 2450 4666 
L 2450 531 
L 3481 531 
L 3481 0 
L 794 0 
L 794 531 
z
" id="DejaVuSans-31" transform="scale(0.015625)"/>
      </defs>
      <use xlink:href="#DejaVuSans-4c"/>
      <use x="55.712891" xlink:href="#DejaVuSans-3d"/>
      <use x="139.501953" xlink:href="#DejaVuSans-31"/>
      <use x="203.125" xlink:href="#DejaVuSans-32"/>
      <use x="266.748047" xlink:href="#DejaVuSans-30"/>
     </g>
    </g>
    <g id="LineCollection_13">
     <path d="M 331.046593 62.436802 
L 345.046593 62.436802 
" style="fill:none;stroke:#2ca02c;stroke-width:2;"/>
    </g>
    <g id="LineCollection_14">
     <path d="M 338.046593 69.436802 
L 338.046593 55.436802 
" style="fill:none;stroke:#2ca02c;stroke-width:2;"/>
    </g>
    <g id="line2d_47">
     <g>
      <use style="fill:#2ca02c;stroke:#2ca02c;" x="331.046593" xlink:href="#mb515bb6676" y="62.436802"/>
     </g>
    </g>
    <g id="line2d_48">
     <g>
      <use style="fill:#2ca02c;stroke:#2ca02c;" x="345.046593" xlink:href="#mb515bb6676" y="62.436802"/>
     </g>
    </g>
    <g id="line2d_49">
     <g>
      <use style="fill:#2ca02c;stroke:#2ca02c;" x="338.046593" xlink:href="#m66c30f968c" y="69.436802"/>
     </g>
    </g>
    <g id="line2d_50">
     <g>
      <use style="fill:#2ca02c;stroke:#2ca02c;" x="338.046593" xlink:href="#m66c30f968c" y="55.436802"/>
     </g>
    </g>
    <g id="line2d_51">
     <path d="M 324.046593 62.436802 
L 352.046593 62.436802 
" style="fill:none;stroke:#2ca02c;stroke-linecap:square;stroke-width:2;"/>
    </g>
    <g id="line2d_52">
     <g>
      <use style="fill:#2ca02c;stroke:#2ca02c;stroke-linejoin:miter;" x="338.046593" xlink:href="#m9e790e0478" y="62.436802"/>
     </g>
    </g>
    <g id="text_19">
     <!-- L=150 -->
     <g transform="translate(363.246593 67.336802)scale(0.14 -0.14)">
      <use xlink:href="#DejaVuSans-4c"/>
      <use x="55.712891" xlink:href="#DejaVuSans-3d"/>
      <use x="139.501953" xlink:href="#DejaVuSans-31"/>
      <use x="203.125" xlink:href="#DejaVuSans-35"/>
      <use x="266.748047" xlink:href="#DejaVuSans-30"/>
     </g>
    </g>
    <g id="LineCollection_15">
     <path d="M 331.046593 82.986177 
L 345.046593 82.986177 
" style="fill:none;stroke:#d62728;stroke-width:2;"/>
    </g>
    <g id="LineCollection_16">
     <path d="M 338.046593 89.986177 
L 338.046593 75.986177 
" style="fill:none;stroke:#d62728;stroke-width:2;"/>
    </g>
    <g id="line2d_53">
     <g>
      <use style="fill:#d62728;stroke:#d62728;" x="331.046593" xlink:href="#mf6c7071b4c" y="82.986177"/>
     </g>
    </g>
    <g id="line2d_54">
     <g>
      <use style="fill:#d62728;stroke:#d62728;" x="345.046593" xlink:href="#mf6c7071b4c" y="82.986177"/>
     </g>
    </g>
    <g id="line2d_55">
     <g>
      <use style="fill:#d62728;stroke:#d62728;" x="338.046593" xlink:href="#m611d17e759" y="89.986177"/>
     </g>
    </g>
    <g id="line2d_56">
     <g>
      <use style="fill:#d62728;stroke:#d62728;" x="338.046593" xlink:href="#m611d17e759" y="75.986177"/>
     </g>
    </g>
    <g id="line2d_57">
     <path d="M 324.046593 82.986177 
L 352.046593 82.986177 
" style="fill:none;stroke:#d62728;stroke-linecap:square;stroke-width:2;"/>
    </g>
    <g id="line2d_58">
     <g>
      <use style="fill:#d62728;stroke:#d62728;stroke-linejoin:miter;" x="338.046593" xlink:href="#maccabffc46" y="82.986177"/>
     </g>
    </g>
    <g id="text_20">
     <!-- L=180 -->
     <g transform="translate(363.246593 87.886177)scale(0.14 -0.14)">
      <use xlink:href="#DejaVuSans-4c"/>
      <use x="55.712891" xlink:href="#DejaVuSans-3d"/>
      <use x="139.501953" xlink:href="#DejaVuSans-31"/>
      <use x="203.125" xlink:href="#DejaVuSans-38"/>
      <use x="266.748047" xlink:href="#DejaVuSans-30"/>
     </g>
    </g>
   </g>
  </g>
 </g>
 <defs>
  <clipPath id="pc5c650e82f">
   <rect height="292.65827" width="337.61979" x="84.48149" y="3.00024"/>
  </clipPath>
 </defs>
</svg>
