<?xml version="1.0" encoding="utf-8" standalone="no"?>
<!DOCTYPE svg PUBLIC "-//W3C//DTD SVG 1.1//EN"
  "http://www.w3.org/Graphics/SVG/1.1/DTD/svg11.dtd">
<svg height="360pt" version="1.1" viewBox="0 0 432 360" width="432pt" xmlns="http://www.w3.org/2000/svg" xmlns:xlink="http://www.w3.org/1999/xlink">
 <metadata>
  <rdf:RDF xmlns:cc="http://creativecommons.org/ns#" xmlns:dc="http://purl.org/dc/elements/1.1/" xmlns:rdf="http://www.w3.org/1999/02/22-rdf-syntax-ns#">
   <cc:Work>
    <dc:type rdf:resource="http://purl.org/dc/dcmitype/StillImage"/>
    <dc:date>2021-09-04T09:51:23.626127</dc:date>
    <dc:format>image/svg+xml</dc:format>
    <dc:creator>
     <cc:Agent>
      <dc:title>Matplotlib v3.4.2, https://matplotlib.org/</dc:title>
     </cc:Agent>
    </dc:creator>
   </cc:Work>
  </rdf:RDF>
 </metadata>
 <defs>
  <style type="text/css">*{stroke-linecap:butt;stroke-linejoin:round;}</style>
 </defs>
 <g id="figure_1">
  <g id="patch_1">
   <path d="M 0 360 
L 432 360 
L 432 0 
L 0 0 
z
" style="fill:#ffffff;"/>
  </g>
  <g id="axes_1">
   <g id="patch_2">
    <path d="M 87.70899 295.65851 
L 428.99976 295.65851 
L 428.99976 8.808684 
L 87.70899 8.808684 
z
" style="fill:#ffffff;"/>
   </g>
   <g id="matplotlib.axis_1">
    <g id="xtick_1">
     <g id="line2d_1">
      <defs>
       <path d="M 0 0 
L 0 8 
" id="m0204530b96" style="stroke:#000000;stroke-width:3;"/>
      </defs>
      <g>
       <use style="stroke:#000000;stroke-width:3;" x="96.331303" xlink:href="#m0204530b96" y="295.65851"/>
      </g>
     </g>
     <g id="text_1">
      <!-- 4.4 -->
      <g transform="translate(83.608803 319.31601)scale(0.16 -0.16)">
       <defs>
        <path d="M 2419 4116 
L 825 1625 
L 2419 1625 
L 2419 4116 
z
M 2253 4666 
L 3047 4666 
L 3047 1625 
L 3713 1625 
L 3713 1100 
L 3047 1100 
L 3047 0 
L 2419 0 
L 2419 1100 
L 313 1100 
L 313 1709 
L 2253 4666 
z
" id="DejaVuSans-34" transform="scale(0.015625)"/>
        <path d="M 684 794 
L 1344 794 
L 1344 0 
L 684 0 
L 684 794 
z
" id="DejaVuSans-2e" transform="scale(0.015625)"/>
       </defs>
       <use xlink:href="#DejaVuSans-34"/>
       <use x="63.623047" xlink:href="#DejaVuSans-2e"/>
       <use x="95.410156" xlink:href="#DejaVuSans-34"/>
      </g>
     </g>
    </g>
    <g id="xtick_2">
     <g id="line2d_2">
      <g>
       <use style="stroke:#000000;stroke-width:3;" x="172.422226" xlink:href="#m0204530b96" y="295.65851"/>
      </g>
     </g>
     <g id="text_2">
      <!-- 4.6 -->
      <g transform="translate(159.699726 319.31601)scale(0.16 -0.16)">
       <defs>
        <path d="M 2113 2584 
Q 1688 2584 1439 2293 
Q 1191 2003 1191 1497 
Q 1191 994 1439 701 
Q 1688 409 2113 409 
Q 2538 409 2786 701 
Q 3034 994 3034 1497 
Q 3034 2003 2786 2293 
Q 2538 2584 2113 2584 
z
M 3366 4563 
L 3366 3988 
Q 3128 4100 2886 4159 
Q 2644 4219 2406 4219 
Q 1781 4219 1451 3797 
Q 1122 3375 1075 2522 
Q 1259 2794 1537 2939 
Q 1816 3084 2150 3084 
Q 2853 3084 3261 2657 
Q 3669 2231 3669 1497 
Q 3669 778 3244 343 
Q 2819 -91 2113 -91 
Q 1303 -91 875 529 
Q 447 1150 447 2328 
Q 447 3434 972 4092 
Q 1497 4750 2381 4750 
Q 2619 4750 2861 4703 
Q 3103 4656 3366 4563 
z
" id="DejaVuSans-36" transform="scale(0.015625)"/>
       </defs>
       <use xlink:href="#DejaVuSans-34"/>
       <use x="63.623047" xlink:href="#DejaVuSans-2e"/>
       <use x="95.410156" xlink:href="#DejaVuSans-36"/>
      </g>
     </g>
    </g>
    <g id="xtick_3">
     <g id="line2d_3">
      <g>
       <use style="stroke:#000000;stroke-width:3;" x="248.513149" xlink:href="#m0204530b96" y="295.65851"/>
      </g>
     </g>
     <g id="text_3">
      <!-- 4.8 -->
      <g transform="translate(235.790649 319.31601)scale(0.16 -0.16)">
       <defs>
        <path d="M 2034 2216 
Q 1584 2216 1326 1975 
Q 1069 1734 1069 1313 
Q 1069 891 1326 650 
Q 1584 409 2034 409 
Q 2484 409 2743 651 
Q 3003 894 3003 1313 
Q 3003 1734 2745 1975 
Q 2488 2216 2034 2216 
z
M 1403 2484 
Q 997 2584 770 2862 
Q 544 3141 544 3541 
Q 544 4100 942 4425 
Q 1341 4750 2034 4750 
Q 2731 4750 3128 4425 
Q 3525 4100 3525 3541 
Q 3525 3141 3298 2862 
Q 3072 2584 2669 2484 
Q 3125 2378 3379 2068 
Q 3634 1759 3634 1313 
Q 3634 634 3220 271 
Q 2806 -91 2034 -91 
Q 1263 -91 848 271 
Q 434 634 434 1313 
Q 434 1759 690 2068 
Q 947 2378 1403 2484 
z
M 1172 3481 
Q 1172 3119 1398 2916 
Q 1625 2713 2034 2713 
Q 2441 2713 2670 2916 
Q 2900 3119 2900 3481 
Q 2900 3844 2670 4047 
Q 2441 4250 2034 4250 
Q 1625 4250 1398 4047 
Q 1172 3844 1172 3481 
z
" id="DejaVuSans-38" transform="scale(0.015625)"/>
       </defs>
       <use xlink:href="#DejaVuSans-34"/>
       <use x="63.623047" xlink:href="#DejaVuSans-2e"/>
       <use x="95.410156" xlink:href="#DejaVuSans-38"/>
      </g>
     </g>
    </g>
    <g id="xtick_4">
     <g id="line2d_4">
      <g>
       <use style="stroke:#000000;stroke-width:3;" x="324.604072" xlink:href="#m0204530b96" y="295.65851"/>
      </g>
     </g>
     <g id="text_4">
      <!-- 5.0 -->
      <g transform="translate(311.881572 319.31601)scale(0.16 -0.16)">
       <defs>
        <path d="M 691 4666 
L 3169 4666 
L 3169 4134 
L 1269 4134 
L 1269 2991 
Q 1406 3038 1543 3061 
Q 1681 3084 1819 3084 
Q 2600 3084 3056 2656 
Q 3513 2228 3513 1497 
Q 3513 744 3044 326 
Q 2575 -91 1722 -91 
Q 1428 -91 1123 -41 
Q 819 9 494 109 
L 494 744 
Q 775 591 1075 516 
Q 1375 441 1709 441 
Q 2250 441 2565 725 
Q 2881 1009 2881 1497 
Q 2881 1984 2565 2268 
Q 2250 2553 1709 2553 
Q 1456 2553 1204 2497 
Q 953 2441 691 2322 
L 691 4666 
z
" id="DejaVuSans-35" transform="scale(0.015625)"/>
        <path d="M 2034 4250 
Q 1547 4250 1301 3770 
Q 1056 3291 1056 2328 
Q 1056 1369 1301 889 
Q 1547 409 2034 409 
Q 2525 409 2770 889 
Q 3016 1369 3016 2328 
Q 3016 3291 2770 3770 
Q 2525 4250 2034 4250 
z
M 2034 4750 
Q 2819 4750 3233 4129 
Q 3647 3509 3647 2328 
Q 3647 1150 3233 529 
Q 2819 -91 2034 -91 
Q 1250 -91 836 529 
Q 422 1150 422 2328 
Q 422 3509 836 4129 
Q 1250 4750 2034 4750 
z
" id="DejaVuSans-30" transform="scale(0.015625)"/>
       </defs>
       <use xlink:href="#DejaVuSans-35"/>
       <use x="63.623047" xlink:href="#DejaVuSans-2e"/>
       <use x="95.410156" xlink:href="#DejaVuSans-30"/>
      </g>
     </g>
    </g>
    <g id="xtick_5">
     <g id="line2d_5">
      <g>
       <use style="stroke:#000000;stroke-width:3;" x="400.694994" xlink:href="#m0204530b96" y="295.65851"/>
      </g>
     </g>
     <g id="text_5">
      <!-- 5.2 -->
      <g transform="translate(387.972494 319.31601)scale(0.16 -0.16)">
       <defs>
        <path d="M 1228 531 
L 3431 531 
L 3431 0 
L 469 0 
L 469 531 
Q 828 903 1448 1529 
Q 2069 2156 2228 2338 
Q 2531 2678 2651 2914 
Q 2772 3150 2772 3378 
Q 2772 3750 2511 3984 
Q 2250 4219 1831 4219 
Q 1534 4219 1204 4116 
Q 875 4013 500 3803 
L 500 4441 
Q 881 4594 1212 4672 
Q 1544 4750 1819 4750 
Q 2544 4750 2975 4387 
Q 3406 4025 3406 3419 
Q 3406 3131 3298 2873 
Q 3191 2616 2906 2266 
Q 2828 2175 2409 1742 
Q 1991 1309 1228 531 
z
" id="DejaVuSans-32" transform="scale(0.015625)"/>
       </defs>
       <use xlink:href="#DejaVuSans-35"/>
       <use x="63.623047" xlink:href="#DejaVuSans-2e"/>
       <use x="95.410156" xlink:href="#DejaVuSans-32"/>
      </g>
     </g>
    </g>
    <g id="text_6">
     <!-- ln(L) -->
     <g transform="translate(235.86375 352.840385)scale(0.2 -0.2)">
      <defs>
       <path d="M 603 4863 
L 1178 4863 
L 1178 0 
L 603 0 
L 603 4863 
z
" id="DejaVuSans-6c" transform="scale(0.015625)"/>
       <path d="M 3513 2113 
L 3513 0 
L 2938 0 
L 2938 2094 
Q 2938 2591 2744 2837 
Q 2550 3084 2163 3084 
Q 1697 3084 1428 2787 
Q 1159 2491 1159 1978 
L 1159 0 
L 581 0 
L 581 3500 
L 1159 3500 
L 1159 2956 
Q 1366 3272 1645 3428 
Q 1925 3584 2291 3584 
Q 2894 3584 3203 3211 
Q 3513 2838 3513 2113 
z
" id="DejaVuSans-6e" transform="scale(0.015625)"/>
       <path d="M 1984 4856 
Q 1566 4138 1362 3434 
Q 1159 2731 1159 2009 
Q 1159 1288 1364 580 
Q 1569 -128 1984 -844 
L 1484 -844 
Q 1016 -109 783 600 
Q 550 1309 550 2009 
Q 550 2706 781 3412 
Q 1013 4119 1484 4856 
L 1984 4856 
z
" id="DejaVuSans-28" transform="scale(0.015625)"/>
       <path d="M 628 4666 
L 1259 4666 
L 1259 531 
L 3531 531 
L 3531 0 
L 628 0 
L 628 4666 
z
" id="DejaVuSans-4c" transform="scale(0.015625)"/>
       <path d="M 513 4856 
L 1013 4856 
Q 1481 4119 1714 3412 
Q 1947 2706 1947 2009 
Q 1947 1309 1714 600 
Q 1481 -109 1013 -844 
L 513 -844 
Q 928 -128 1133 580 
Q 1338 1288 1338 2009 
Q 1338 2731 1133 3434 
Q 928 4138 513 4856 
z
" id="DejaVuSans-29" transform="scale(0.015625)"/>
      </defs>
      <use xlink:href="#DejaVuSans-6c"/>
      <use x="27.783203" xlink:href="#DejaVuSans-6e"/>
      <use x="91.162109" xlink:href="#DejaVuSans-28"/>
      <use x="130.175781" xlink:href="#DejaVuSans-4c"/>
      <use x="185.888672" xlink:href="#DejaVuSans-29"/>
     </g>
    </g>
   </g>
   <g id="matplotlib.axis_2">
    <g id="ytick_1">
     <g id="line2d_6">
      <defs>
       <path d="M 0 0 
L -8 0 
" id="m680daa73b6" style="stroke:#000000;stroke-width:3;"/>
      </defs>
      <g>
       <use style="stroke:#000000;stroke-width:3;" x="87.70899" xlink:href="#m680daa73b6" y="273.067328"/>
      </g>
     </g>
     <g id="text_7">
      <!-- −4.2 -->
      <g transform="translate(37.35649 279.146078)scale(0.16 -0.16)">
       <defs>
        <path d="M 678 2272 
L 4684 2272 
L 4684 1741 
L 678 1741 
L 678 2272 
z
" id="DejaVuSans-2212" transform="scale(0.015625)"/>
       </defs>
       <use xlink:href="#DejaVuSans-2212"/>
       <use x="83.789062" xlink:href="#DejaVuSans-34"/>
       <use x="147.412109" xlink:href="#DejaVuSans-2e"/>
       <use x="179.199219" xlink:href="#DejaVuSans-32"/>
      </g>
     </g>
    </g>
    <g id="ytick_2">
     <g id="line2d_7">
      <g>
       <use style="stroke:#000000;stroke-width:3;" x="87.70899" xlink:href="#m680daa73b6" y="220.269662"/>
      </g>
     </g>
     <g id="text_8">
      <!-- −4.0 -->
      <g transform="translate(37.35649 226.348412)scale(0.16 -0.16)">
       <use xlink:href="#DejaVuSans-2212"/>
       <use x="83.789062" xlink:href="#DejaVuSans-34"/>
       <use x="147.412109" xlink:href="#DejaVuSans-2e"/>
       <use x="179.199219" xlink:href="#DejaVuSans-30"/>
      </g>
     </g>
    </g>
    <g id="ytick_3">
     <g id="line2d_8">
      <g>
       <use style="stroke:#000000;stroke-width:3;" x="87.70899" xlink:href="#m680daa73b6" y="167.471996"/>
      </g>
     </g>
     <g id="text_9">
      <!-- −3.8 -->
      <g transform="translate(37.35649 173.550746)scale(0.16 -0.16)">
       <defs>
        <path d="M 2597 2516 
Q 3050 2419 3304 2112 
Q 3559 1806 3559 1356 
Q 3559 666 3084 287 
Q 2609 -91 1734 -91 
Q 1441 -91 1130 -33 
Q 819 25 488 141 
L 488 750 
Q 750 597 1062 519 
Q 1375 441 1716 441 
Q 2309 441 2620 675 
Q 2931 909 2931 1356 
Q 2931 1769 2642 2001 
Q 2353 2234 1838 2234 
L 1294 2234 
L 1294 2753 
L 1863 2753 
Q 2328 2753 2575 2939 
Q 2822 3125 2822 3475 
Q 2822 3834 2567 4026 
Q 2313 4219 1838 4219 
Q 1578 4219 1281 4162 
Q 984 4106 628 3988 
L 628 4550 
Q 988 4650 1302 4700 
Q 1616 4750 1894 4750 
Q 2613 4750 3031 4423 
Q 3450 4097 3450 3541 
Q 3450 3153 3228 2886 
Q 3006 2619 2597 2516 
z
" id="DejaVuSans-33" transform="scale(0.015625)"/>
       </defs>
       <use xlink:href="#DejaVuSans-2212"/>
       <use x="83.789062" xlink:href="#DejaVuSans-33"/>
       <use x="147.412109" xlink:href="#DejaVuSans-2e"/>
       <use x="179.199219" xlink:href="#DejaVuSans-38"/>
      </g>
     </g>
    </g>
    <g id="ytick_4">
     <g id="line2d_9">
      <g>
       <use style="stroke:#000000;stroke-width:3;" x="87.70899" xlink:href="#m680daa73b6" y="114.67433"/>
      </g>
     </g>
     <g id="text_10">
      <!-- −3.6 -->
      <g transform="translate(37.35649 120.75308)scale(0.16 -0.16)">
       <use xlink:href="#DejaVuSans-2212"/>
       <use x="83.789062" xlink:href="#DejaVuSans-33"/>
       <use x="147.412109" xlink:href="#DejaVuSans-2e"/>
       <use x="179.199219" xlink:href="#DejaVuSans-36"/>
      </g>
     </g>
    </g>
    <g id="ytick_5">
     <g id="line2d_10">
      <g>
       <use style="stroke:#000000;stroke-width:3;" x="87.70899" xlink:href="#m680daa73b6" y="61.876664"/>
      </g>
     </g>
     <g id="text_11">
      <!-- −3.4 -->
      <g transform="translate(37.35649 67.955414)scale(0.16 -0.16)">
       <use xlink:href="#DejaVuSans-2212"/>
       <use x="83.789062" xlink:href="#DejaVuSans-33"/>
       <use x="147.412109" xlink:href="#DejaVuSans-2e"/>
       <use x="179.199219" xlink:href="#DejaVuSans-34"/>
      </g>
     </g>
    </g>
    <g id="ytick_6">
     <g id="line2d_11">
      <g>
       <use style="stroke:#000000;stroke-width:3;" x="87.70899" xlink:href="#m680daa73b6" y="9.078999"/>
      </g>
     </g>
     <g id="text_12">
      <!-- −3.2 -->
      <g transform="translate(37.35649 15.157749)scale(0.16 -0.16)">
       <use xlink:href="#DejaVuSans-2212"/>
       <use x="83.789062" xlink:href="#DejaVuSans-33"/>
       <use x="147.412109" xlink:href="#DejaVuSans-2e"/>
       <use x="179.199219" xlink:href="#DejaVuSans-32"/>
      </g>
     </g>
    </g>
    <g id="text_13">
     <!-- $ln(\Im m \{x_c\})$ -->
     <g transform="translate(18.197115 208.633597)rotate(-90)scale(0.2 -0.2)">
      <defs>
       <path d="M 1172 4863 
L 1747 4863 
L 800 0 
L 225 0 
L 1172 4863 
z
" id="DejaVuSans-Oblique-6c" transform="scale(0.015625)"/>
       <path d="M 3566 2113 
L 3156 0 
L 2578 0 
L 2988 2091 
Q 3016 2238 3031 2350 
Q 3047 2463 3047 2528 
Q 3047 2791 2881 2937 
Q 2716 3084 2419 3084 
Q 1956 3084 1622 2776 
Q 1288 2469 1184 1941 
L 800 0 
L 225 0 
L 903 3500 
L 1478 3500 
L 1363 2950 
Q 1603 3253 1940 3418 
Q 2278 3584 2650 3584 
Q 3113 3584 3367 3334 
Q 3622 3084 3622 2631 
Q 3622 2519 3608 2391 
Q 3594 2263 3566 2113 
z
" id="DejaVuSans-Oblique-6e" transform="scale(0.015625)"/>
       <path d="M 331 281 
L 769 797 
Q 1116 919 1481 919 
Q 1659 919 2072 669 
Q 2522 400 2625 400 
Q 3003 400 3316 828 
Q 3538 1131 3538 1366 
Q 3538 1759 3344 2109 
Q 3094 2566 3094 2906 
Q 3094 3219 3344 3719 
L 4009 4156 
Q 3759 3722 3759 3344 
Q 3759 3009 4009 2547 
Q 4175 2241 4175 1653 
Q 4175 1359 3544 603 
Q 2963 -91 2206 -91 
Q 2038 -91 1634 156 
Q 1219 406 1044 406 
Q 750 406 331 281 
z
M 1094 4575 
Q 1434 4750 1875 4750 
Q 2259 4750 2656 4597 
Q 3038 4450 3438 4450 
Q 3828 4450 4219 4631 
L 3594 4100 
Q 3159 3919 2813 3919 
Q 2366 3919 2031 4072 
Q 1697 4225 1250 4225 
Q 869 4225 469 4044 
L 1094 4575 
z
" id="DejaVuSans-Oblique-2111" transform="scale(0.015625)"/>
       <path d="M 5747 2113 
L 5338 0 
L 4763 0 
L 5166 2094 
Q 5191 2228 5203 2325 
Q 5216 2422 5216 2491 
Q 5216 2772 5059 2928 
Q 4903 3084 4622 3084 
Q 4203 3084 3875 2770 
Q 3547 2456 3450 1953 
L 3066 0 
L 2491 0 
L 2900 2094 
Q 2925 2209 2937 2307 
Q 2950 2406 2950 2484 
Q 2950 2769 2794 2926 
Q 2638 3084 2363 3084 
Q 1938 3084 1609 2770 
Q 1281 2456 1184 1953 
L 800 0 
L 225 0 
L 909 3500 
L 1484 3500 
L 1375 2956 
Q 1609 3263 1923 3423 
Q 2238 3584 2597 3584 
Q 2978 3584 3223 3384 
Q 3469 3184 3519 2828 
Q 3781 3197 4126 3390 
Q 4472 3584 4856 3584 
Q 5306 3584 5551 3325 
Q 5797 3066 5797 2591 
Q 5797 2488 5784 2364 
Q 5772 2241 5747 2113 
z
" id="DejaVuSans-Oblique-6d" transform="scale(0.015625)"/>
       <path d="M 3272 -594 
L 3272 -1044 
L 3078 -1044 
Q 2300 -1044 2036 -812 
Q 1772 -581 1772 109 
L 1772 856 
Q 1772 1328 1603 1509 
Q 1434 1691 991 1691 
L 800 1691 
L 800 2138 
L 991 2138 
Q 1438 2138 1605 2317 
Q 1772 2497 1772 2963 
L 1772 3713 
Q 1772 4403 2036 4633 
Q 2300 4863 3078 4863 
L 3272 4863 
L 3272 4416 
L 3059 4416 
Q 2619 4416 2484 4278 
Q 2350 4141 2350 3700 
L 2350 2925 
Q 2350 2434 2208 2212 
Q 2066 1991 1722 1913 
Q 2069 1828 2209 1606 
Q 2350 1384 2350 897 
L 2350 122 
Q 2350 -319 2484 -456 
Q 2619 -594 3059 -594 
L 3272 -594 
z
" id="DejaVuSans-7b" transform="scale(0.015625)"/>
       <path d="M 3841 3500 
L 2234 1784 
L 3219 0 
L 2559 0 
L 1819 1388 
L 531 0 
L -166 0 
L 1556 1844 
L 641 3500 
L 1300 3500 
L 1972 2234 
L 3144 3500 
L 3841 3500 
z
" id="DejaVuSans-Oblique-78" transform="scale(0.015625)"/>
       <path d="M 3431 3366 
L 3316 2797 
Q 3109 2947 2876 3022 
Q 2644 3097 2394 3097 
Q 2119 3097 1870 3000 
Q 1622 2903 1453 2725 
Q 1184 2453 1037 2087 
Q 891 1722 891 1331 
Q 891 859 1127 628 
Q 1363 397 1844 397 
Q 2081 397 2348 469 
Q 2616 541 2906 684 
L 2797 116 
Q 2547 13 2283 -39 
Q 2019 -91 1741 -91 
Q 1044 -91 669 257 
Q 294 606 294 1253 
Q 294 1797 489 2255 
Q 684 2713 1069 3078 
Q 1331 3328 1684 3456 
Q 2038 3584 2456 3584 
Q 2700 3584 2940 3529 
Q 3181 3475 3431 3366 
z
" id="DejaVuSans-Oblique-63" transform="scale(0.015625)"/>
       <path d="M 800 -594 
L 1019 -594 
Q 1456 -594 1589 -459 
Q 1722 -325 1722 122 
L 1722 897 
Q 1722 1384 1862 1606 
Q 2003 1828 2350 1913 
Q 2003 1991 1862 2212 
Q 1722 2434 1722 2925 
L 1722 3700 
Q 1722 4144 1589 4280 
Q 1456 4416 1019 4416 
L 800 4416 
L 800 4863 
L 997 4863 
Q 1775 4863 2036 4633 
Q 2297 4403 2297 3713 
L 2297 2963 
Q 2297 2497 2465 2317 
Q 2634 2138 3078 2138 
L 3272 2138 
L 3272 1691 
L 3078 1691 
Q 2634 1691 2465 1509 
Q 2297 1328 2297 856 
L 2297 109 
Q 2297 -581 2036 -812 
Q 1775 -1044 997 -1044 
L 800 -1044 
L 800 -594 
z
" id="DejaVuSans-7d" transform="scale(0.015625)"/>
      </defs>
      <use transform="translate(0 0.015625)" xlink:href="#DejaVuSans-Oblique-6c"/>
      <use transform="translate(27.783203 0.015625)" xlink:href="#DejaVuSans-Oblique-6e"/>
      <use transform="translate(91.162109 0.015625)" xlink:href="#DejaVuSans-28"/>
      <use transform="translate(130.175781 0.015625)" xlink:href="#DejaVuSans-Oblique-2111"/>
      <use transform="translate(199.902344 0.015625)" xlink:href="#DejaVuSans-Oblique-6d"/>
      <use transform="translate(297.314453 0.015625)" xlink:href="#DejaVuSans-7b"/>
      <use transform="translate(360.9375 0.015625)" xlink:href="#DejaVuSans-Oblique-78"/>
      <use transform="translate(420.117188 -16.390625)scale(0.7)" xlink:href="#DejaVuSans-Oblique-63"/>
      <use transform="translate(461.337891 0.015625)" xlink:href="#DejaVuSans-7d"/>
      <use transform="translate(524.960938 0.015625)" xlink:href="#DejaVuSans-29"/>
     </g>
    </g>
   </g>
   <g id="LineCollection_1">
    <path clip-path="url(#p178cd42201)" d="M 134.304353 35.472951 
L 134.304353 29.790402 
" style="fill:none;stroke:#1f77b4;stroke-width:2;"/>
    <path clip-path="url(#p178cd42201)" d="M 243.754325 114.015094 
L 243.754325 93.369222 
" style="fill:none;stroke:#1f77b4;stroke-width:2;"/>
    <path clip-path="url(#p178cd42201)" d="M 328.650318 180.341502 
L 328.650318 148.469597 
" style="fill:none;stroke:#1f77b4;stroke-width:2;"/>
    <path clip-path="url(#p178cd42201)" d="M 398.015396 228.241796 
L 398.015396 203.314441 
" style="fill:none;stroke:#1f77b4;stroke-width:2;"/>
   </g>
   <g id="LineCollection_2">
    <path clip-path="url(#p178cd42201)" d="M 134.304353 77.315084 
L 134.304353 74.234965 
" style="fill:none;stroke:#ff7f0e;stroke-width:2;"/>
    <path clip-path="url(#p178cd42201)" d="M 243.754325 157.818649 
L 243.754325 150.577555 
" style="fill:none;stroke:#ff7f0e;stroke-width:2;"/>
    <path clip-path="url(#p178cd42201)" d="M 328.650318 223.390067 
L 328.650318 214.767342 
" style="fill:none;stroke:#ff7f0e;stroke-width:2;"/>
    <path clip-path="url(#p178cd42201)" d="M 398.015396 275.487724 
L 398.015396 265.505322 
" style="fill:none;stroke:#ff7f0e;stroke-width:2;"/>
   </g>
   <g id="line2d_12">
    <defs>
     <path d="M 3 0 
L -3 -0 
" id="mad51660ad6" style="stroke:#1f77b4;"/>
    </defs>
    <g clip-path="url(#p178cd42201)">
     <use style="fill:#1f77b4;stroke:#1f77b4;" x="134.304353" xlink:href="#mad51660ad6" y="35.472951"/>
     <use style="fill:#1f77b4;stroke:#1f77b4;" x="243.754325" xlink:href="#mad51660ad6" y="114.015094"/>
     <use style="fill:#1f77b4;stroke:#1f77b4;" x="328.650318" xlink:href="#mad51660ad6" y="180.341502"/>
     <use style="fill:#1f77b4;stroke:#1f77b4;" x="398.015396" xlink:href="#mad51660ad6" y="228.241796"/>
    </g>
   </g>
   <g id="line2d_13">
    <g clip-path="url(#p178cd42201)">
     <use style="fill:#1f77b4;stroke:#1f77b4;" x="134.304353" xlink:href="#mad51660ad6" y="29.790402"/>
     <use style="fill:#1f77b4;stroke:#1f77b4;" x="243.754325" xlink:href="#mad51660ad6" y="93.369222"/>
     <use style="fill:#1f77b4;stroke:#1f77b4;" x="328.650318" xlink:href="#mad51660ad6" y="148.469597"/>
     <use style="fill:#1f77b4;stroke:#1f77b4;" x="398.015396" xlink:href="#mad51660ad6" y="203.314441"/>
    </g>
   </g>
   <g id="line2d_14">
    <path clip-path="url(#p178cd42201)" d="M 125.754451 21.847312 
L 134.304353 27.893128 
L 243.754325 105.287506 
L 328.650318 165.31925 
L 398.015396 214.368756 
L 414.559507 226.067445 
" style="fill:none;stroke:#1f77b4;stroke-linecap:square;stroke-width:2;"/>
   </g>
   <g id="line2d_15">
    <defs>
     <path d="M 3 0 
L -3 -0 
" id="m4c914bf293" style="stroke:#ff7f0e;"/>
    </defs>
    <g clip-path="url(#p178cd42201)">
     <use style="fill:#ff7f0e;stroke:#ff7f0e;" x="134.304353" xlink:href="#m4c914bf293" y="77.315084"/>
     <use style="fill:#ff7f0e;stroke:#ff7f0e;" x="243.754325" xlink:href="#m4c914bf293" y="157.818649"/>
     <use style="fill:#ff7f0e;stroke:#ff7f0e;" x="328.650318" xlink:href="#m4c914bf293" y="223.390067"/>
     <use style="fill:#ff7f0e;stroke:#ff7f0e;" x="398.015396" xlink:href="#m4c914bf293" y="275.487724"/>
    </g>
   </g>
   <g id="line2d_16">
    <g clip-path="url(#p178cd42201)">
     <use style="fill:#ff7f0e;stroke:#ff7f0e;" x="134.304353" xlink:href="#m4c914bf293" y="74.234965"/>
     <use style="fill:#ff7f0e;stroke:#ff7f0e;" x="243.754325" xlink:href="#m4c914bf293" y="150.577555"/>
     <use style="fill:#ff7f0e;stroke:#ff7f0e;" x="328.650318" xlink:href="#m4c914bf293" y="214.767342"/>
     <use style="fill:#ff7f0e;stroke:#ff7f0e;" x="398.015396" xlink:href="#m4c914bf293" y="265.505322"/>
    </g>
   </g>
   <g id="line2d_17">
    <path clip-path="url(#p178cd42201)" d="M 125.754451 67.796252 
L 134.304353 74.155977 
L 243.754325 155.568819 
L 328.650318 218.717525 
L 398.015396 270.313774 
L 414.559507 282.619882 
" style="fill:none;stroke:#ff7f0e;stroke-linecap:square;stroke-width:2;"/>
   </g>
   <g id="line2d_18">
    <defs>
     <path d="M 0 4.5 
C 1.193414 4.5 2.338109 4.025852 3.181981 3.181981 
C 4.025852 2.338109 4.5 1.193414 4.5 0 
C 4.5 -1.193414 4.025852 -2.338109 3.181981 -3.181981 
C 2.338109 -4.025852 1.193414 -4.5 0 -4.5 
C -1.193414 -4.5 -2.338109 -4.025852 -3.181981 -3.181981 
C -4.025852 -2.338109 -4.5 -1.193414 -4.5 0 
C -4.5 1.193414 -4.025852 2.338109 -3.181981 3.181981 
C -2.338109 4.025852 -1.193414 4.5 0 4.5 
z
" id="m0bccc1d360" style="stroke:#1f77b4;"/>
    </defs>
    <g clip-path="url(#p178cd42201)">
     <use style="fill:#1f77b4;stroke:#1f77b4;" x="134.304353" xlink:href="#m0bccc1d360" y="32.631677"/>
     <use style="fill:#1f77b4;stroke:#1f77b4;" x="243.754325" xlink:href="#m0bccc1d360" y="103.692158"/>
     <use style="fill:#1f77b4;stroke:#1f77b4;" x="328.650318" xlink:href="#m0bccc1d360" y="164.40555"/>
     <use style="fill:#1f77b4;stroke:#1f77b4;" x="398.015396" xlink:href="#m0bccc1d360" y="215.778119"/>
    </g>
   </g>
   <g id="line2d_19">
    <defs>
     <path d="M -4.5 4.5 
L 4.5 4.5 
L 4.5 -4.5 
L -4.5 -4.5 
z
" id="mb3f6d861d3" style="stroke:#ff7f0e;stroke-linejoin:miter;"/>
    </defs>
    <g clip-path="url(#p178cd42201)">
     <use style="fill:#ff7f0e;stroke:#ff7f0e;stroke-linejoin:miter;" x="134.304353" xlink:href="#mb3f6d861d3" y="75.775024"/>
     <use style="fill:#ff7f0e;stroke:#ff7f0e;stroke-linejoin:miter;" x="243.754325" xlink:href="#mb3f6d861d3" y="154.198102"/>
     <use style="fill:#ff7f0e;stroke:#ff7f0e;stroke-linejoin:miter;" x="328.650318" xlink:href="#mb3f6d861d3" y="219.078704"/>
     <use style="fill:#ff7f0e;stroke:#ff7f0e;stroke-linejoin:miter;" x="398.015396" xlink:href="#mb3f6d861d3" y="270.496523"/>
    </g>
   </g>
   <g id="patch_3">
    <path d="M 87.70899 295.65851 
L 87.70899 8.808684 
" style="fill:none;stroke:#000000;stroke-linecap:square;stroke-linejoin:miter;stroke-width:3;"/>
   </g>
   <g id="patch_4">
    <path d="M 428.99976 295.65851 
L 428.99976 8.808684 
" style="fill:none;stroke:#000000;stroke-linecap:square;stroke-linejoin:miter;stroke-width:3;"/>
   </g>
   <g id="patch_5">
    <path d="M 87.70899 295.65851 
L 428.99976 295.65851 
" style="fill:none;stroke:#000000;stroke-linecap:square;stroke-linejoin:miter;stroke-width:3;"/>
   </g>
   <g id="patch_6">
    <path d="M 87.70899 8.808684 
L 428.99976 8.808684 
" style="fill:none;stroke:#000000;stroke-linecap:square;stroke-linejoin:miter;stroke-width:3;"/>
   </g>
   <g id="text_14">
    <!-- a) -->
    <g transform="translate(91.121898 37.493666)scale(0.24 -0.24)">
     <defs>
      <path d="M 2194 1759 
Q 1497 1759 1228 1600 
Q 959 1441 959 1056 
Q 959 750 1161 570 
Q 1363 391 1709 391 
Q 2188 391 2477 730 
Q 2766 1069 2766 1631 
L 2766 1759 
L 2194 1759 
z
M 3341 1997 
L 3341 0 
L 2766 0 
L 2766 531 
Q 2569 213 2275 61 
Q 1981 -91 1556 -91 
Q 1019 -91 701 211 
Q 384 513 384 1019 
Q 384 1609 779 1909 
Q 1175 2209 1959 2209 
L 2766 2209 
L 2766 2266 
Q 2766 2663 2505 2880 
Q 2244 3097 1772 3097 
Q 1472 3097 1187 3025 
Q 903 2953 641 2809 
L 641 3341 
Q 956 3463 1253 3523 
Q 1550 3584 1831 3584 
Q 2591 3584 2966 3190 
Q 3341 2797 3341 1997 
z
" id="DejaVuSans-61" transform="scale(0.015625)"/>
     </defs>
     <use xlink:href="#DejaVuSans-61"/>
     <use x="61.279297" xlink:href="#DejaVuSans-29"/>
    </g>
   </g>
   <g id="legend_1">
    <g id="patch_7">
     <path d="M 296.55976 61.107434 
L 419.19976 61.107434 
Q 421.99976 61.107434 421.99976 58.307434 
L 421.99976 18.608684 
Q 421.99976 15.808684 419.19976 15.808684 
L 296.55976 15.808684 
Q 293.75976 15.808684 293.75976 18.608684 
L 293.75976 58.307434 
Q 293.75976 61.107434 296.55976 61.107434 
z
" style="fill:#ffffff;opacity:0.8;stroke:#cccccc;stroke-linejoin:miter;"/>
    </g>
    <g id="LineCollection_3">
     <path d="M 313.35976 34.146496 
L 313.35976 20.146496 
" style="fill:none;stroke:#1f77b4;stroke-width:2;"/>
    </g>
    <g id="line2d_20">
     <g>
      <use style="fill:#1f77b4;stroke:#1f77b4;" x="313.35976" xlink:href="#mad51660ad6" y="34.146496"/>
     </g>
    </g>
    <g id="line2d_21">
     <g>
      <use style="fill:#1f77b4;stroke:#1f77b4;" x="313.35976" xlink:href="#mad51660ad6" y="20.146496"/>
     </g>
    </g>
    <g id="line2d_22"/>
    <g id="line2d_23">
     <g>
      <use style="fill:#1f77b4;stroke:#1f77b4;" x="313.35976" xlink:href="#m0bccc1d360" y="27.146496"/>
     </g>
    </g>
    <g id="text_15">
     <!-- EPD $10^{-100}$ -->
     <g transform="translate(338.55976 32.046496)scale(0.14 -0.14)">
      <defs>
       <path d="M 628 4666 
L 3578 4666 
L 3578 4134 
L 1259 4134 
L 1259 2753 
L 3481 2753 
L 3481 2222 
L 1259 2222 
L 1259 531 
L 3634 531 
L 3634 0 
L 628 0 
L 628 4666 
z
" id="DejaVuSans-45" transform="scale(0.015625)"/>
       <path d="M 1259 4147 
L 1259 2394 
L 2053 2394 
Q 2494 2394 2734 2622 
Q 2975 2850 2975 3272 
Q 2975 3691 2734 3919 
Q 2494 4147 2053 4147 
L 1259 4147 
z
M 628 4666 
L 2053 4666 
Q 2838 4666 3239 4311 
Q 3641 3956 3641 3272 
Q 3641 2581 3239 2228 
Q 2838 1875 2053 1875 
L 1259 1875 
L 1259 0 
L 628 0 
L 628 4666 
z
" id="DejaVuSans-50" transform="scale(0.015625)"/>
       <path d="M 1259 4147 
L 1259 519 
L 2022 519 
Q 2988 519 3436 956 
Q 3884 1394 3884 2338 
Q 3884 3275 3436 3711 
Q 2988 4147 2022 4147 
L 1259 4147 
z
M 628 4666 
L 1925 4666 
Q 3281 4666 3915 4102 
Q 4550 3538 4550 2338 
Q 4550 1131 3912 565 
Q 3275 0 1925 0 
L 628 0 
L 628 4666 
z
" id="DejaVuSans-44" transform="scale(0.015625)"/>
       <path id="DejaVuSans-20" transform="scale(0.015625)"/>
       <path d="M 794 531 
L 1825 531 
L 1825 4091 
L 703 3866 
L 703 4441 
L 1819 4666 
L 2450 4666 
L 2450 531 
L 3481 531 
L 3481 0 
L 794 0 
L 794 531 
z
" id="DejaVuSans-31" transform="scale(0.015625)"/>
      </defs>
      <use transform="translate(0 0.765625)" xlink:href="#DejaVuSans-45"/>
      <use transform="translate(63.183594 0.765625)" xlink:href="#DejaVuSans-50"/>
      <use transform="translate(123.486328 0.765625)" xlink:href="#DejaVuSans-44"/>
      <use transform="translate(200.488281 0.765625)" xlink:href="#DejaVuSans-20"/>
      <use transform="translate(232.275391 0.765625)" xlink:href="#DejaVuSans-31"/>
      <use transform="translate(295.898438 0.765625)" xlink:href="#DejaVuSans-30"/>
      <use transform="translate(360.478516 39.046875)scale(0.7)" xlink:href="#DejaVuSans-2212"/>
      <use transform="translate(419.130859 39.046875)scale(0.7)" xlink:href="#DejaVuSans-31"/>
      <use transform="translate(463.666992 39.046875)scale(0.7)" xlink:href="#DejaVuSans-30"/>
      <use transform="translate(508.203125 39.046875)scale(0.7)" xlink:href="#DejaVuSans-30"/>
     </g>
    </g>
    <g id="LineCollection_4">
     <path d="M 313.35976 54.695871 
L 313.35976 40.695871 
" style="fill:none;stroke:#ff7f0e;stroke-width:2;"/>
    </g>
    <g id="line2d_24">
     <g>
      <use style="fill:#ff7f0e;stroke:#ff7f0e;" x="313.35976" xlink:href="#m4c914bf293" y="54.695871"/>
     </g>
    </g>
    <g id="line2d_25">
     <g>
      <use style="fill:#ff7f0e;stroke:#ff7f0e;" x="313.35976" xlink:href="#m4c914bf293" y="40.695871"/>
     </g>
    </g>
    <g id="line2d_26"/>
    <g id="line2d_27">
     <g>
      <use style="fill:#ff7f0e;stroke:#ff7f0e;stroke-linejoin:miter;" x="313.35976" xlink:href="#mb3f6d861d3" y="47.695871"/>
     </g>
    </g>
    <g id="text_16">
     <!-- EPD $10^{-1}$ -->
     <g transform="translate(338.55976 52.595871)scale(0.14 -0.14)">
      <use transform="translate(0 0.684375)" xlink:href="#DejaVuSans-45"/>
      <use transform="translate(63.183594 0.684375)" xlink:href="#DejaVuSans-50"/>
      <use transform="translate(123.486328 0.684375)" xlink:href="#DejaVuSans-44"/>
      <use transform="translate(200.488281 0.684375)" xlink:href="#DejaVuSans-20"/>
      <use transform="translate(232.275391 0.684375)" xlink:href="#DejaVuSans-31"/>
      <use transform="translate(295.898438 0.684375)" xlink:href="#DejaVuSans-30"/>
      <use transform="translate(360.478516 38.965625)scale(0.7)" xlink:href="#DejaVuSans-2212"/>
      <use transform="translate(419.130859 38.965625)scale(0.7)" xlink:href="#DejaVuSans-31"/>
     </g>
    </g>
   </g>
  </g>
 </g>
 <defs>
  <clipPath id="p178cd42201">
   <rect height="286.849826" width="341.29077" x="87.70899" y="8.808684"/>
  </clipPath>
 </defs>
</svg>
