<?xml version="1.0" encoding="utf-8" standalone="no"?>
<!DOCTYPE svg PUBLIC "-//W3C//DTD SVG 1.1//EN"
  "http://www.w3.org/Graphics/SVG/1.1/DTD/svg11.dtd">
<svg height="360pt" version="1.1" viewBox="0 0 432 360" width="432pt" xmlns="http://www.w3.org/2000/svg" xmlns:xlink="http://www.w3.org/1999/xlink">
 <metadata>
  <rdf:RDF xmlns:cc="http://creativecommons.org/ns#" xmlns:dc="http://purl.org/dc/elements/1.1/" xmlns:rdf="http://www.w3.org/1999/02/22-rdf-syntax-ns#">
   <cc:Work>
    <dc:type rdf:resource="http://purl.org/dc/dcmitype/StillImage"/>
    <dc:date>2021-09-04T09:51:23.899740</dc:date>
    <dc:format>image/svg+xml</dc:format>
    <dc:creator>
     <cc:Agent>
      <dc:title>Matplotlib v3.4.2, https://matplotlib.org/</dc:title>
     </cc:Agent>
    </dc:creator>
   </cc:Work>
  </rdf:RDF>
 </metadata>
 <defs>
  <style type="text/css">*{stroke-linecap:butt;stroke-linejoin:round;}</style>
 </defs>
 <g id="figure_1">
  <g id="patch_1">
   <path d="M 0 360 
L 432 360 
L 432 0 
L 0 0 
z
" style="fill:#ffffff;"/>
  </g>
  <g id="axes_1">
   <g id="patch_2">
    <path d="M 87.75274 295.65851 
L 428.99976 295.65851 
L 428.99976 7.742111 
L 87.75274 7.742111 
z
" style="fill:#ffffff;"/>
   </g>
   <g id="matplotlib.axis_1">
    <g id="xtick_1">
     <g id="line2d_1">
      <defs>
       <path d="M 0 0 
L 0 8 
" id="m766182b9ff" style="stroke:#000000;stroke-width:3;"/>
      </defs>
      <g>
       <use style="stroke:#000000;stroke-width:3;" x="96.373948" xlink:href="#m766182b9ff" y="295.65851"/>
      </g>
     </g>
     <g id="text_1">
      <!-- 4.4 -->
      <g transform="translate(83.651448 319.31601)scale(0.16 -0.16)">
       <defs>
        <path d="M 2419 4116 
L 825 1625 
L 2419 1625 
L 2419 4116 
z
M 2253 4666 
L 3047 4666 
L 3047 1625 
L 3713 1625 
L 3713 1100 
L 3047 1100 
L 3047 0 
L 2419 0 
L 2419 1100 
L 313 1100 
L 313 1709 
L 2253 4666 
z
" id="DejaVuSans-34" transform="scale(0.015625)"/>
        <path d="M 684 794 
L 1344 794 
L 1344 0 
L 684 0 
L 684 794 
z
" id="DejaVuSans-2e" transform="scale(0.015625)"/>
       </defs>
       <use xlink:href="#DejaVuSans-34"/>
       <use x="63.623047" xlink:href="#DejaVuSans-2e"/>
       <use x="95.410156" xlink:href="#DejaVuSans-34"/>
      </g>
     </g>
    </g>
    <g id="xtick_2">
     <g id="line2d_2">
      <g>
       <use style="stroke:#000000;stroke-width:3;" x="172.455117" xlink:href="#m766182b9ff" y="295.65851"/>
      </g>
     </g>
     <g id="text_2">
      <!-- 4.6 -->
      <g transform="translate(159.732617 319.31601)scale(0.16 -0.16)">
       <defs>
        <path d="M 2113 2584 
Q 1688 2584 1439 2293 
Q 1191 2003 1191 1497 
Q 1191 994 1439 701 
Q 1688 409 2113 409 
Q 2538 409 2786 701 
Q 3034 994 3034 1497 
Q 3034 2003 2786 2293 
Q 2538 2584 2113 2584 
z
M 3366 4563 
L 3366 3988 
Q 3128 4100 2886 4159 
Q 2644 4219 2406 4219 
Q 1781 4219 1451 3797 
Q 1122 3375 1075 2522 
Q 1259 2794 1537 2939 
Q 1816 3084 2150 3084 
Q 2853 3084 3261 2657 
Q 3669 2231 3669 1497 
Q 3669 778 3244 343 
Q 2819 -91 2113 -91 
Q 1303 -91 875 529 
Q 447 1150 447 2328 
Q 447 3434 972 4092 
Q 1497 4750 2381 4750 
Q 2619 4750 2861 4703 
Q 3103 4656 3366 4563 
z
" id="DejaVuSans-36" transform="scale(0.015625)"/>
       </defs>
       <use xlink:href="#DejaVuSans-34"/>
       <use x="63.623047" xlink:href="#DejaVuSans-2e"/>
       <use x="95.410156" xlink:href="#DejaVuSans-36"/>
      </g>
     </g>
    </g>
    <g id="xtick_3">
     <g id="line2d_3">
      <g>
       <use style="stroke:#000000;stroke-width:3;" x="248.536285" xlink:href="#m766182b9ff" y="295.65851"/>
      </g>
     </g>
     <g id="text_3">
      <!-- 4.8 -->
      <g transform="translate(235.813785 319.31601)scale(0.16 -0.16)">
       <defs>
        <path d="M 2034 2216 
Q 1584 2216 1326 1975 
Q 1069 1734 1069 1313 
Q 1069 891 1326 650 
Q 1584 409 2034 409 
Q 2484 409 2743 651 
Q 3003 894 3003 1313 
Q 3003 1734 2745 1975 
Q 2488 2216 2034 2216 
z
M 1403 2484 
Q 997 2584 770 2862 
Q 544 3141 544 3541 
Q 544 4100 942 4425 
Q 1341 4750 2034 4750 
Q 2731 4750 3128 4425 
Q 3525 4100 3525 3541 
Q 3525 3141 3298 2862 
Q 3072 2584 2669 2484 
Q 3125 2378 3379 2068 
Q 3634 1759 3634 1313 
Q 3634 634 3220 271 
Q 2806 -91 2034 -91 
Q 1263 -91 848 271 
Q 434 634 434 1313 
Q 434 1759 690 2068 
Q 947 2378 1403 2484 
z
M 1172 3481 
Q 1172 3119 1398 2916 
Q 1625 2713 2034 2713 
Q 2441 2713 2670 2916 
Q 2900 3119 2900 3481 
Q 2900 3844 2670 4047 
Q 2441 4250 2034 4250 
Q 1625 4250 1398 4047 
Q 1172 3844 1172 3481 
z
" id="DejaVuSans-38" transform="scale(0.015625)"/>
       </defs>
       <use xlink:href="#DejaVuSans-34"/>
       <use x="63.623047" xlink:href="#DejaVuSans-2e"/>
       <use x="95.410156" xlink:href="#DejaVuSans-38"/>
      </g>
     </g>
    </g>
    <g id="xtick_4">
     <g id="line2d_4">
      <g>
       <use style="stroke:#000000;stroke-width:3;" x="324.617454" xlink:href="#m766182b9ff" y="295.65851"/>
      </g>
     </g>
     <g id="text_4">
      <!-- 5.0 -->
      <g transform="translate(311.894954 319.31601)scale(0.16 -0.16)">
       <defs>
        <path d="M 691 4666 
L 3169 4666 
L 3169 4134 
L 1269 4134 
L 1269 2991 
Q 1406 3038 1543 3061 
Q 1681 3084 1819 3084 
Q 2600 3084 3056 2656 
Q 3513 2228 3513 1497 
Q 3513 744 3044 326 
Q 2575 -91 1722 -91 
Q 1428 -91 1123 -41 
Q 819 9 494 109 
L 494 744 
Q 775 591 1075 516 
Q 1375 441 1709 441 
Q 2250 441 2565 725 
Q 2881 1009 2881 1497 
Q 2881 1984 2565 2268 
Q 2250 2553 1709 2553 
Q 1456 2553 1204 2497 
Q 953 2441 691 2322 
L 691 4666 
z
" id="DejaVuSans-35" transform="scale(0.015625)"/>
        <path d="M 2034 4250 
Q 1547 4250 1301 3770 
Q 1056 3291 1056 2328 
Q 1056 1369 1301 889 
Q 1547 409 2034 409 
Q 2525 409 2770 889 
Q 3016 1369 3016 2328 
Q 3016 3291 2770 3770 
Q 2525 4250 2034 4250 
z
M 2034 4750 
Q 2819 4750 3233 4129 
Q 3647 3509 3647 2328 
Q 3647 1150 3233 529 
Q 2819 -91 2034 -91 
Q 1250 -91 836 529 
Q 422 1150 422 2328 
Q 422 3509 836 4129 
Q 1250 4750 2034 4750 
z
" id="DejaVuSans-30" transform="scale(0.015625)"/>
       </defs>
       <use xlink:href="#DejaVuSans-35"/>
       <use x="63.623047" xlink:href="#DejaVuSans-2e"/>
       <use x="95.410156" xlink:href="#DejaVuSans-30"/>
      </g>
     </g>
    </g>
    <g id="xtick_5">
     <g id="line2d_5">
      <g>
       <use style="stroke:#000000;stroke-width:3;" x="400.698623" xlink:href="#m766182b9ff" y="295.65851"/>
      </g>
     </g>
     <g id="text_5">
      <!-- 5.2 -->
      <g transform="translate(387.976123 319.31601)scale(0.16 -0.16)">
       <defs>
        <path d="M 1228 531 
L 3431 531 
L 3431 0 
L 469 0 
L 469 531 
Q 828 903 1448 1529 
Q 2069 2156 2228 2338 
Q 2531 2678 2651 2914 
Q 2772 3150 2772 3378 
Q 2772 3750 2511 3984 
Q 2250 4219 1831 4219 
Q 1534 4219 1204 4116 
Q 875 4013 500 3803 
L 500 4441 
Q 881 4594 1212 4672 
Q 1544 4750 1819 4750 
Q 2544 4750 2975 4387 
Q 3406 4025 3406 3419 
Q 3406 3131 3298 2873 
Q 3191 2616 2906 2266 
Q 2828 2175 2409 1742 
Q 1991 1309 1228 531 
z
" id="DejaVuSans-32" transform="scale(0.015625)"/>
       </defs>
       <use xlink:href="#DejaVuSans-35"/>
       <use x="63.623047" xlink:href="#DejaVuSans-2e"/>
       <use x="95.410156" xlink:href="#DejaVuSans-32"/>
      </g>
     </g>
    </g>
    <g id="text_6">
     <!-- ln(L) -->
     <g transform="translate(235.885625 352.840385)scale(0.2 -0.2)">
      <defs>
       <path d="M 603 4863 
L 1178 4863 
L 1178 0 
L 603 0 
L 603 4863 
z
" id="DejaVuSans-6c" transform="scale(0.015625)"/>
       <path d="M 3513 2113 
L 3513 0 
L 2938 0 
L 2938 2094 
Q 2938 2591 2744 2837 
Q 2550 3084 2163 3084 
Q 1697 3084 1428 2787 
Q 1159 2491 1159 1978 
L 1159 0 
L 581 0 
L 581 3500 
L 1159 3500 
L 1159 2956 
Q 1366 3272 1645 3428 
Q 1925 3584 2291 3584 
Q 2894 3584 3203 3211 
Q 3513 2838 3513 2113 
z
" id="DejaVuSans-6e" transform="scale(0.015625)"/>
       <path d="M 1984 4856 
Q 1566 4138 1362 3434 
Q 1159 2731 1159 2009 
Q 1159 1288 1364 580 
Q 1569 -128 1984 -844 
L 1484 -844 
Q 1016 -109 783 600 
Q 550 1309 550 2009 
Q 550 2706 781 3412 
Q 1013 4119 1484 4856 
L 1984 4856 
z
" id="DejaVuSans-28" transform="scale(0.015625)"/>
       <path d="M 628 4666 
L 1259 4666 
L 1259 531 
L 3531 531 
L 3531 0 
L 628 0 
L 628 4666 
z
" id="DejaVuSans-4c" transform="scale(0.015625)"/>
       <path d="M 513 4856 
L 1013 4856 
Q 1481 4119 1714 3412 
Q 1947 2706 1947 2009 
Q 1947 1309 1714 600 
Q 1481 -109 1013 -844 
L 513 -844 
Q 928 -128 1133 580 
Q 1338 1288 1338 2009 
Q 1338 2731 1133 3434 
Q 928 4138 513 4856 
z
" id="DejaVuSans-29" transform="scale(0.015625)"/>
      </defs>
      <use xlink:href="#DejaVuSans-6c"/>
      <use x="27.783203" xlink:href="#DejaVuSans-6e"/>
      <use x="91.162109" xlink:href="#DejaVuSans-28"/>
      <use x="130.175781" xlink:href="#DejaVuSans-4c"/>
      <use x="185.888672" xlink:href="#DejaVuSans-29"/>
     </g>
    </g>
   </g>
   <g id="matplotlib.axis_2">
    <g id="ytick_1">
     <g id="line2d_6">
      <defs>
       <path d="M 0 0 
L -8 0 
" id="m1b5ff995f4" style="stroke:#000000;stroke-width:3;"/>
      </defs>
      <g>
       <use style="stroke:#000000;stroke-width:3;" x="87.75274" xlink:href="#m1b5ff995f4" y="277.012298"/>
      </g>
     </g>
     <g id="text_7">
      <!-- −5.4 -->
      <g transform="translate(37.40024 283.091048)scale(0.16 -0.16)">
       <defs>
        <path d="M 678 2272 
L 4684 2272 
L 4684 1741 
L 678 1741 
L 678 2272 
z
" id="DejaVuSans-2212" transform="scale(0.015625)"/>
       </defs>
       <use xlink:href="#DejaVuSans-2212"/>
       <use x="83.789062" xlink:href="#DejaVuSans-35"/>
       <use x="147.412109" xlink:href="#DejaVuSans-2e"/>
       <use x="179.199219" xlink:href="#DejaVuSans-34"/>
      </g>
     </g>
    </g>
    <g id="ytick_2">
     <g id="line2d_7">
      <g>
       <use style="stroke:#000000;stroke-width:3;" x="87.75274" xlink:href="#m1b5ff995f4" y="210.029029"/>
      </g>
     </g>
     <g id="text_8">
      <!-- −5.2 -->
      <g transform="translate(37.40024 216.107779)scale(0.16 -0.16)">
       <use xlink:href="#DejaVuSans-2212"/>
       <use x="83.789062" xlink:href="#DejaVuSans-35"/>
       <use x="147.412109" xlink:href="#DejaVuSans-2e"/>
       <use x="179.199219" xlink:href="#DejaVuSans-32"/>
      </g>
     </g>
    </g>
    <g id="ytick_3">
     <g id="line2d_8">
      <g>
       <use style="stroke:#000000;stroke-width:3;" x="87.75274" xlink:href="#m1b5ff995f4" y="143.045759"/>
      </g>
     </g>
     <g id="text_9">
      <!-- −5.0 -->
      <g transform="translate(37.40024 149.124509)scale(0.16 -0.16)">
       <use xlink:href="#DejaVuSans-2212"/>
       <use x="83.789062" xlink:href="#DejaVuSans-35"/>
       <use x="147.412109" xlink:href="#DejaVuSans-2e"/>
       <use x="179.199219" xlink:href="#DejaVuSans-30"/>
      </g>
     </g>
    </g>
    <g id="ytick_4">
     <g id="line2d_9">
      <g>
       <use style="stroke:#000000;stroke-width:3;" x="87.75274" xlink:href="#m1b5ff995f4" y="76.06249"/>
      </g>
     </g>
     <g id="text_10">
      <!-- −4.8 -->
      <g transform="translate(37.40024 82.14124)scale(0.16 -0.16)">
       <use xlink:href="#DejaVuSans-2212"/>
       <use x="83.789062" xlink:href="#DejaVuSans-34"/>
       <use x="147.412109" xlink:href="#DejaVuSans-2e"/>
       <use x="179.199219" xlink:href="#DejaVuSans-38"/>
      </g>
     </g>
    </g>
    <g id="ytick_5">
     <g id="line2d_10">
      <g>
       <use style="stroke:#000000;stroke-width:3;" x="87.75274" xlink:href="#m1b5ff995f4" y="9.07922"/>
      </g>
     </g>
     <g id="text_11">
      <!-- −4.6 -->
      <g transform="translate(37.40024 15.15797)scale(0.16 -0.16)">
       <use xlink:href="#DejaVuSans-2212"/>
       <use x="83.789062" xlink:href="#DejaVuSans-34"/>
       <use x="147.412109" xlink:href="#DejaVuSans-2e"/>
       <use x="179.199219" xlink:href="#DejaVuSans-36"/>
      </g>
     </g>
    </g>
    <g id="text_12">
     <!-- $ln(\Im m \{y_c\})$ -->
     <g transform="translate(18.20024 208.10031)rotate(-90)scale(0.2 -0.2)">
      <defs>
       <path d="M 1172 4863 
L 1747 4863 
L 800 0 
L 225 0 
L 1172 4863 
z
" id="DejaVuSans-Oblique-6c" transform="scale(0.015625)"/>
       <path d="M 3566 2113 
L 3156 0 
L 2578 0 
L 2988 2091 
Q 3016 2238 3031 2350 
Q 3047 2463 3047 2528 
Q 3047 2791 2881 2937 
Q 2716 3084 2419 3084 
Q 1956 3084 1622 2776 
Q 1288 2469 1184 1941 
L 800 0 
L 225 0 
L 903 3500 
L 1478 3500 
L 1363 2950 
Q 1603 3253 1940 3418 
Q 2278 3584 2650 3584 
Q 3113 3584 3367 3334 
Q 3622 3084 3622 2631 
Q 3622 2519 3608 2391 
Q 3594 2263 3566 2113 
z
" id="DejaVuSans-Oblique-6e" transform="scale(0.015625)"/>
       <path d="M 331 281 
L 769 797 
Q 1116 919 1481 919 
Q 1659 919 2072 669 
Q 2522 400 2625 400 
Q 3003 400 3316 828 
Q 3538 1131 3538 1366 
Q 3538 1759 3344 2109 
Q 3094 2566 3094 2906 
Q 3094 3219 3344 3719 
L 4009 4156 
Q 3759 3722 3759 3344 
Q 3759 3009 4009 2547 
Q 4175 2241 4175 1653 
Q 4175 1359 3544 603 
Q 2963 -91 2206 -91 
Q 2038 -91 1634 156 
Q 1219 406 1044 406 
Q 750 406 331 281 
z
M 1094 4575 
Q 1434 4750 1875 4750 
Q 2259 4750 2656 4597 
Q 3038 4450 3438 4450 
Q 3828 4450 4219 4631 
L 3594 4100 
Q 3159 3919 2813 3919 
Q 2366 3919 2031 4072 
Q 1697 4225 1250 4225 
Q 869 4225 469 4044 
L 1094 4575 
z
" id="DejaVuSans-Oblique-2111" transform="scale(0.015625)"/>
       <path d="M 5747 2113 
L 5338 0 
L 4763 0 
L 5166 2094 
Q 5191 2228 5203 2325 
Q 5216 2422 5216 2491 
Q 5216 2772 5059 2928 
Q 4903 3084 4622 3084 
Q 4203 3084 3875 2770 
Q 3547 2456 3450 1953 
L 3066 0 
L 2491 0 
L 2900 2094 
Q 2925 2209 2937 2307 
Q 2950 2406 2950 2484 
Q 2950 2769 2794 2926 
Q 2638 3084 2363 3084 
Q 1938 3084 1609 2770 
Q 1281 2456 1184 1953 
L 800 0 
L 225 0 
L 909 3500 
L 1484 3500 
L 1375 2956 
Q 1609 3263 1923 3423 
Q 2238 3584 2597 3584 
Q 2978 3584 3223 3384 
Q 3469 3184 3519 2828 
Q 3781 3197 4126 3390 
Q 4472 3584 4856 3584 
Q 5306 3584 5551 3325 
Q 5797 3066 5797 2591 
Q 5797 2488 5784 2364 
Q 5772 2241 5747 2113 
z
" id="DejaVuSans-Oblique-6d" transform="scale(0.015625)"/>
       <path d="M 3272 -594 
L 3272 -1044 
L 3078 -1044 
Q 2300 -1044 2036 -812 
Q 1772 -581 1772 109 
L 1772 856 
Q 1772 1328 1603 1509 
Q 1434 1691 991 1691 
L 800 1691 
L 800 2138 
L 991 2138 
Q 1438 2138 1605 2317 
Q 1772 2497 1772 2963 
L 1772 3713 
Q 1772 4403 2036 4633 
Q 2300 4863 3078 4863 
L 3272 4863 
L 3272 4416 
L 3059 4416 
Q 2619 4416 2484 4278 
Q 2350 4141 2350 3700 
L 2350 2925 
Q 2350 2434 2208 2212 
Q 2066 1991 1722 1913 
Q 2069 1828 2209 1606 
Q 2350 1384 2350 897 
L 2350 122 
Q 2350 -319 2484 -456 
Q 2619 -594 3059 -594 
L 3272 -594 
z
" id="DejaVuSans-7b" transform="scale(0.015625)"/>
       <path d="M 1588 -325 
Q 1188 -997 936 -1164 
Q 684 -1331 294 -1331 
L -159 -1331 
L -63 -850 
L 269 -850 
Q 509 -850 678 -719 
Q 847 -588 1056 -206 
L 1234 128 
L 459 3500 
L 1069 3500 
L 1650 819 
L 3256 3500 
L 3859 3500 
L 1588 -325 
z
" id="DejaVuSans-Oblique-79" transform="scale(0.015625)"/>
       <path d="M 3431 3366 
L 3316 2797 
Q 3109 2947 2876 3022 
Q 2644 3097 2394 3097 
Q 2119 3097 1870 3000 
Q 1622 2903 1453 2725 
Q 1184 2453 1037 2087 
Q 891 1722 891 1331 
Q 891 859 1127 628 
Q 1363 397 1844 397 
Q 2081 397 2348 469 
Q 2616 541 2906 684 
L 2797 116 
Q 2547 13 2283 -39 
Q 2019 -91 1741 -91 
Q 1044 -91 669 257 
Q 294 606 294 1253 
Q 294 1797 489 2255 
Q 684 2713 1069 3078 
Q 1331 3328 1684 3456 
Q 2038 3584 2456 3584 
Q 2700 3584 2940 3529 
Q 3181 3475 3431 3366 
z
" id="DejaVuSans-Oblique-63" transform="scale(0.015625)"/>
       <path d="M 800 -594 
L 1019 -594 
Q 1456 -594 1589 -459 
Q 1722 -325 1722 122 
L 1722 897 
Q 1722 1384 1862 1606 
Q 2003 1828 2350 1913 
Q 2003 1991 1862 2212 
Q 1722 2434 1722 2925 
L 1722 3700 
Q 1722 4144 1589 4280 
Q 1456 4416 1019 4416 
L 800 4416 
L 800 4863 
L 997 4863 
Q 1775 4863 2036 4633 
Q 2297 4403 2297 3713 
L 2297 2963 
Q 2297 2497 2465 2317 
Q 2634 2138 3078 2138 
L 3272 2138 
L 3272 1691 
L 3078 1691 
Q 2634 1691 2465 1509 
Q 2297 1328 2297 856 
L 2297 109 
Q 2297 -581 2036 -812 
Q 1775 -1044 997 -1044 
L 800 -1044 
L 800 -594 
z
" id="DejaVuSans-7d" transform="scale(0.015625)"/>
      </defs>
      <use transform="translate(0 0.015625)" xlink:href="#DejaVuSans-Oblique-6c"/>
      <use transform="translate(27.783203 0.015625)" xlink:href="#DejaVuSans-Oblique-6e"/>
      <use transform="translate(91.162109 0.015625)" xlink:href="#DejaVuSans-28"/>
      <use transform="translate(130.175781 0.015625)" xlink:href="#DejaVuSans-Oblique-2111"/>
      <use transform="translate(199.902344 0.015625)" xlink:href="#DejaVuSans-Oblique-6d"/>
      <use transform="translate(297.314453 0.015625)" xlink:href="#DejaVuSans-7b"/>
      <use transform="translate(360.9375 0.015625)" xlink:href="#DejaVuSans-Oblique-79"/>
      <use transform="translate(420.117188 -16.390625)scale(0.7)" xlink:href="#DejaVuSans-Oblique-63"/>
      <use transform="translate(461.337891 0.015625)" xlink:href="#DejaVuSans-7d"/>
      <use transform="translate(524.960938 0.015625)" xlink:href="#DejaVuSans-29"/>
     </g>
    </g>
   </g>
   <g id="LineCollection_1">
    <path clip-path="url(#peb72d7d36b)" d="M 134.34213 38.126175 
L 134.34213 30.92357 
" style="fill:none;stroke:#2ca02c;stroke-width:2;"/>
    <path clip-path="url(#peb72d7d36b)" d="M 243.778071 137.702548 
L 243.778071 111.524341 
" style="fill:none;stroke:#2ca02c;stroke-width:2;"/>
    <path clip-path="url(#peb72d7d36b)" d="M 328.663182 221.816546 
L 328.663182 181.395371 
" style="fill:none;stroke:#2ca02c;stroke-width:2;"/>
    <path clip-path="url(#peb72d7d36b)" d="M 398.019368 282.571401 
L 398.019368 250.953817 
" style="fill:none;stroke:#2ca02c;stroke-width:2;"/>
   </g>
   <g id="line2d_11">
    <defs>
     <path d="M 3 0 
L -3 -0 
" id="m4ff9177adf" style="stroke:#2ca02c;"/>
    </defs>
    <g clip-path="url(#peb72d7d36b)">
     <use style="fill:#2ca02c;stroke:#2ca02c;" x="134.34213" xlink:href="#m4ff9177adf" y="38.126175"/>
     <use style="fill:#2ca02c;stroke:#2ca02c;" x="243.778071" xlink:href="#m4ff9177adf" y="137.702548"/>
     <use style="fill:#2ca02c;stroke:#2ca02c;" x="328.663182" xlink:href="#m4ff9177adf" y="221.816546"/>
     <use style="fill:#2ca02c;stroke:#2ca02c;" x="398.019368" xlink:href="#m4ff9177adf" y="282.571401"/>
    </g>
   </g>
   <g id="line2d_12">
    <g clip-path="url(#peb72d7d36b)">
     <use style="fill:#2ca02c;stroke:#2ca02c;" x="134.34213" xlink:href="#m4ff9177adf" y="30.92357"/>
     <use style="fill:#2ca02c;stroke:#2ca02c;" x="243.778071" xlink:href="#m4ff9177adf" y="111.524341"/>
     <use style="fill:#2ca02c;stroke:#2ca02c;" x="328.663182" xlink:href="#m4ff9177adf" y="181.395371"/>
     <use style="fill:#2ca02c;stroke:#2ca02c;" x="398.019368" xlink:href="#m4ff9177adf" y="250.953817"/>
    </g>
   </g>
   <g id="line2d_13">
    <path clip-path="url(#peb72d7d36b)" d="M 125.793324 20.82922 
L 134.34213 28.496049 
L 243.778071 126.641534 
L 328.663182 202.769086 
L 398.019368 264.969825 
L 414.561358 279.805186 
" style="fill:none;stroke:#2ca02c;stroke-linecap:square;stroke-width:2;"/>
   </g>
   <g id="line2d_14">
    <defs>
     <path d="M -0 6.363961 
L 6.363961 0 
L 0 -6.363961 
L -6.363961 -0 
z
" id="mff742f5523" style="stroke:#2ca02c;stroke-linejoin:miter;"/>
    </defs>
    <g clip-path="url(#peb72d7d36b)">
     <use style="fill:#2ca02c;stroke:#2ca02c;stroke-linejoin:miter;" x="134.34213" xlink:href="#mff742f5523" y="34.524872"/>
     <use style="fill:#2ca02c;stroke:#2ca02c;stroke-linejoin:miter;" x="243.778071" xlink:href="#mff742f5523" y="124.613444"/>
     <use style="fill:#2ca02c;stroke:#2ca02c;stroke-linejoin:miter;" x="328.663182" xlink:href="#mff742f5523" y="201.605958"/>
     <use style="fill:#2ca02c;stroke:#2ca02c;stroke-linejoin:miter;" x="398.019368" xlink:href="#mff742f5523" y="266.762609"/>
    </g>
   </g>
   <g id="patch_3">
    <path d="M 87.75274 295.65851 
L 87.75274 7.742111 
" style="fill:none;stroke:#000000;stroke-linecap:square;stroke-linejoin:miter;stroke-width:3;"/>
   </g>
   <g id="patch_4">
    <path d="M 428.99976 295.65851 
L 428.99976 7.742111 
" style="fill:none;stroke:#000000;stroke-linecap:square;stroke-linejoin:miter;stroke-width:3;"/>
   </g>
   <g id="patch_5">
    <path d="M 87.75274 295.65851 
L 428.99976 295.65851 
" style="fill:none;stroke:#000000;stroke-linecap:square;stroke-linejoin:miter;stroke-width:3;"/>
   </g>
   <g id="patch_6">
    <path d="M 87.75274 7.742111 
L 428.99976 7.742111 
" style="fill:none;stroke:#000000;stroke-linecap:square;stroke-linejoin:miter;stroke-width:3;"/>
   </g>
   <g id="text_13">
    <!-- b) -->
    <g transform="translate(91.16521 36.533751)scale(0.24 -0.24)">
     <defs>
      <path d="M 3116 1747 
Q 3116 2381 2855 2742 
Q 2594 3103 2138 3103 
Q 1681 3103 1420 2742 
Q 1159 2381 1159 1747 
Q 1159 1113 1420 752 
Q 1681 391 2138 391 
Q 2594 391 2855 752 
Q 3116 1113 3116 1747 
z
M 1159 2969 
Q 1341 3281 1617 3432 
Q 1894 3584 2278 3584 
Q 2916 3584 3314 3078 
Q 3713 2572 3713 1747 
Q 3713 922 3314 415 
Q 2916 -91 2278 -91 
Q 1894 -91 1617 61 
Q 1341 213 1159 525 
L 1159 0 
L 581 0 
L 581 4863 
L 1159 4863 
L 1159 2969 
z
" id="DejaVuSans-62" transform="scale(0.015625)"/>
     </defs>
     <use xlink:href="#DejaVuSans-62"/>
     <use x="63.476562" xlink:href="#DejaVuSans-29"/>
    </g>
   </g>
   <g id="legend_1">
    <g id="patch_7">
     <path d="M 343.420385 39.491486 
L 419.19976 39.491486 
Q 421.99976 39.491486 421.99976 36.691486 
L 421.99976 17.542111 
Q 421.99976 14.742111 419.19976 14.742111 
L 343.420385 14.742111 
Q 340.620385 14.742111 340.620385 17.542111 
L 340.620385 36.691486 
Q 340.620385 39.491486 343.420385 39.491486 
z
" style="fill:#ffffff;opacity:0.8;stroke:#cccccc;stroke-linejoin:miter;"/>
    </g>
    <g id="LineCollection_2">
     <path d="M 360.220385 33.079923 
L 360.220385 19.079923 
" style="fill:none;stroke:#2ca02c;stroke-width:2;"/>
    </g>
    <g id="line2d_15">
     <g>
      <use style="fill:#2ca02c;stroke:#2ca02c;" x="360.220385" xlink:href="#m4ff9177adf" y="33.079923"/>
     </g>
    </g>
    <g id="line2d_16">
     <g>
      <use style="fill:#2ca02c;stroke:#2ca02c;" x="360.220385" xlink:href="#m4ff9177adf" y="19.079923"/>
     </g>
    </g>
    <g id="line2d_17"/>
    <g id="line2d_18">
     <g>
      <use style="fill:#2ca02c;stroke:#2ca02c;stroke-linejoin:miter;" x="360.220385" xlink:href="#mff742f5523" y="26.079923"/>
     </g>
    </g>
    <g id="text_14">
     <!-- MGF -->
     <g transform="translate(385.420385 30.979923)scale(0.14 -0.14)">
      <defs>
       <path d="M 628 4666 
L 1569 4666 
L 2759 1491 
L 3956 4666 
L 4897 4666 
L 4897 0 
L 4281 0 
L 4281 4097 
L 3078 897 
L 2444 897 
L 1241 4097 
L 1241 0 
L 628 0 
L 628 4666 
z
" id="DejaVuSans-4d" transform="scale(0.015625)"/>
       <path d="M 3809 666 
L 3809 1919 
L 2778 1919 
L 2778 2438 
L 4434 2438 
L 4434 434 
Q 4069 175 3628 42 
Q 3188 -91 2688 -91 
Q 1594 -91 976 548 
Q 359 1188 359 2328 
Q 359 3472 976 4111 
Q 1594 4750 2688 4750 
Q 3144 4750 3555 4637 
Q 3966 4525 4313 4306 
L 4313 3634 
Q 3963 3931 3569 4081 
Q 3175 4231 2741 4231 
Q 1884 4231 1454 3753 
Q 1025 3275 1025 2328 
Q 1025 1384 1454 906 
Q 1884 428 2741 428 
Q 3075 428 3337 486 
Q 3600 544 3809 666 
z
" id="DejaVuSans-47" transform="scale(0.015625)"/>
       <path d="M 628 4666 
L 3309 4666 
L 3309 4134 
L 1259 4134 
L 1259 2759 
L 3109 2759 
L 3109 2228 
L 1259 2228 
L 1259 0 
L 628 0 
L 628 4666 
z
" id="DejaVuSans-46" transform="scale(0.015625)"/>
      </defs>
      <use xlink:href="#DejaVuSans-4d"/>
      <use x="86.279297" xlink:href="#DejaVuSans-47"/>
      <use x="163.769531" xlink:href="#DejaVuSans-46"/>
     </g>
    </g>
   </g>
  </g>
 </g>
 <defs>
  <clipPath id="peb72d7d36b">
   <rect height="287.916399" width="341.24702" x="87.75274" y="7.742111"/>
  </clipPath>
 </defs>
</svg>
