<?xml version="1.0" encoding="utf-8" standalone="no"?>
<!DOCTYPE svg PUBLIC "-//W3C//DTD SVG 1.1//EN"
  "http://www.w3.org/Graphics/SVG/1.1/DTD/svg11.dtd">
<svg height="360pt" version="1.1" viewBox="0 0 432 360" width="432pt" xmlns="http://www.w3.org/2000/svg" xmlns:xlink="http://www.w3.org/1999/xlink">
 <metadata>
  <rdf:RDF xmlns:cc="http://creativecommons.org/ns#" xmlns:dc="http://purl.org/dc/elements/1.1/" xmlns:rdf="http://www.w3.org/1999/02/22-rdf-syntax-ns#">
   <cc:Work>
    <dc:type rdf:resource="http://purl.org/dc/dcmitype/StillImage"/>
    <dc:date>2021-09-03T13:31:22.954331</dc:date>
    <dc:format>image/svg+xml</dc:format>
    <dc:creator>
     <cc:Agent>
      <dc:title>Matplotlib v3.4.2, https://matplotlib.org/</dc:title>
     </cc:Agent>
    </dc:creator>
   </cc:Work>
  </rdf:RDF>
 </metadata>
 <defs>
  <style type="text/css">*{stroke-linecap:butt;stroke-linejoin:round;}</style>
 </defs>
 <g id="figure_1">
  <g id="patch_1">
   <path d="M 0 360 
L 432 360 
L 432 0 
L 0 0 
z
" style="fill:#ffffff;"/>
  </g>
  <g id="axes_1">
   <g id="patch_2">
    <path d="M 89.57649 295.65851 
L 428.99976 295.65851 
L 428.99976 3.00024 
L 89.57649 3.00024 
z
" style="fill:#ffffff;"/>
   </g>
   <g id="matplotlib.axis_1">
    <g id="xtick_1">
     <g id="line2d_1">
      <defs>
       <path d="M 0 0 
L 0 8 
" id="mb1d730082e" style="stroke:#000000;stroke-width:3;"/>
      </defs>
      <g>
       <use style="stroke:#000000;stroke-width:3;" x="129.800352" xlink:href="#mb1d730082e" y="295.65851"/>
      </g>
     </g>
     <g id="text_1">
      <!-- 50 -->
      <g transform="translate(119.620352 319.31601)scale(0.16 -0.16)">
       <defs>
        <path d="M 691 4666 
L 3169 4666 
L 3169 4134 
L 1269 4134 
L 1269 2991 
Q 1406 3038 1543 3061 
Q 1681 3084 1819 3084 
Q 2600 3084 3056 2656 
Q 3513 2228 3513 1497 
Q 3513 744 3044 326 
Q 2575 -91 1722 -91 
Q 1428 -91 1123 -41 
Q 819 9 494 109 
L 494 744 
Q 775 591 1075 516 
Q 1375 441 1709 441 
Q 2250 441 2565 725 
Q 2881 1009 2881 1497 
Q 2881 1984 2565 2268 
Q 2250 2553 1709 2553 
Q 1456 2553 1204 2497 
Q 953 2441 691 2322 
L 691 4666 
z
" id="DejaVuSans-35" transform="scale(0.015625)"/>
        <path d="M 2034 4250 
Q 1547 4250 1301 3770 
Q 1056 3291 1056 2328 
Q 1056 1369 1301 889 
Q 1547 409 2034 409 
Q 2525 409 2770 889 
Q 3016 1369 3016 2328 
Q 3016 3291 2770 3770 
Q 2525 4250 2034 4250 
z
M 2034 4750 
Q 2819 4750 3233 4129 
Q 3647 3509 3647 2328 
Q 3647 1150 3233 529 
Q 2819 -91 2034 -91 
Q 1250 -91 836 529 
Q 422 1150 422 2328 
Q 422 3509 836 4129 
Q 1250 4750 2034 4750 
z
" id="DejaVuSans-30" transform="scale(0.015625)"/>
       </defs>
       <use xlink:href="#DejaVuSans-35"/>
       <use x="63.623047" xlink:href="#DejaVuSans-30"/>
      </g>
     </g>
    </g>
    <g id="xtick_2">
     <g id="line2d_2">
      <g>
       <use style="stroke:#000000;stroke-width:3;" x="198.676827" xlink:href="#mb1d730082e" y="295.65851"/>
      </g>
     </g>
     <g id="text_2">
      <!-- 100 -->
      <g transform="translate(183.406827 319.31601)scale(0.16 -0.16)">
       <defs>
        <path d="M 794 531 
L 1825 531 
L 1825 4091 
L 703 3866 
L 703 4441 
L 1819 4666 
L 2450 4666 
L 2450 531 
L 3481 531 
L 3481 0 
L 794 0 
L 794 531 
z
" id="DejaVuSans-31" transform="scale(0.015625)"/>
       </defs>
       <use xlink:href="#DejaVuSans-31"/>
       <use x="63.623047" xlink:href="#DejaVuSans-30"/>
       <use x="127.246094" xlink:href="#DejaVuSans-30"/>
      </g>
     </g>
    </g>
    <g id="xtick_3">
     <g id="line2d_3">
      <g>
       <use style="stroke:#000000;stroke-width:3;" x="267.553302" xlink:href="#mb1d730082e" y="295.65851"/>
      </g>
     </g>
     <g id="text_3">
      <!-- 150 -->
      <g transform="translate(252.283302 319.31601)scale(0.16 -0.16)">
       <use xlink:href="#DejaVuSans-31"/>
       <use x="63.623047" xlink:href="#DejaVuSans-35"/>
       <use x="127.246094" xlink:href="#DejaVuSans-30"/>
      </g>
     </g>
    </g>
    <g id="xtick_4">
     <g id="line2d_4">
      <g>
       <use style="stroke:#000000;stroke-width:3;" x="336.429777" xlink:href="#mb1d730082e" y="295.65851"/>
      </g>
     </g>
     <g id="text_4">
      <!-- 200 -->
      <g transform="translate(321.159777 319.31601)scale(0.16 -0.16)">
       <defs>
        <path d="M 1228 531 
L 3431 531 
L 3431 0 
L 469 0 
L 469 531 
Q 828 903 1448 1529 
Q 2069 2156 2228 2338 
Q 2531 2678 2651 2914 
Q 2772 3150 2772 3378 
Q 2772 3750 2511 3984 
Q 2250 4219 1831 4219 
Q 1534 4219 1204 4116 
Q 875 4013 500 3803 
L 500 4441 
Q 881 4594 1212 4672 
Q 1544 4750 1819 4750 
Q 2544 4750 2975 4387 
Q 3406 4025 3406 3419 
Q 3406 3131 3298 2873 
Q 3191 2616 2906 2266 
Q 2828 2175 2409 1742 
Q 1991 1309 1228 531 
z
" id="DejaVuSans-32" transform="scale(0.015625)"/>
       </defs>
       <use xlink:href="#DejaVuSans-32"/>
       <use x="63.623047" xlink:href="#DejaVuSans-30"/>
       <use x="127.246094" xlink:href="#DejaVuSans-30"/>
      </g>
     </g>
    </g>
    <g id="xtick_5">
     <g id="line2d_5">
      <g>
       <use style="stroke:#000000;stroke-width:3;" x="405.306253" xlink:href="#mb1d730082e" y="295.65851"/>
      </g>
     </g>
     <g id="text_5">
      <!-- 250 -->
      <g transform="translate(390.036253 319.31601)scale(0.16 -0.16)">
       <use xlink:href="#DejaVuSans-32"/>
       <use x="63.623047" xlink:href="#DejaVuSans-35"/>
       <use x="127.246094" xlink:href="#DejaVuSans-30"/>
      </g>
     </g>
    </g>
    <g id="text_6">
     <!-- L -->
     <g transform="translate(253.71625 352.840385)scale(0.2 -0.2)">
      <defs>
       <path d="M 628 4666 
L 1259 4666 
L 1259 531 
L 3531 531 
L 3531 0 
L 628 0 
L 628 4666 
z
" id="DejaVuSans-4c" transform="scale(0.015625)"/>
      </defs>
      <use xlink:href="#DejaVuSans-4c"/>
     </g>
    </g>
   </g>
   <g id="matplotlib.axis_2">
    <g id="ytick_1">
     <g id="line2d_6">
      <defs>
       <path d="M 0 0 
L -8 0 
" id="m87570da50d" style="stroke:#000000;stroke-width:3;"/>
      </defs>
      <g>
       <use style="stroke:#000000;stroke-width:3;" x="89.57649" xlink:href="#m87570da50d" y="282.467828"/>
      </g>
     </g>
     <g id="text_7">
      <!-- 0 -->
      <g transform="translate(67.89649 288.546578)scale(0.16 -0.16)">
       <use xlink:href="#DejaVuSans-30"/>
      </g>
     </g>
    </g>
    <g id="ytick_2">
     <g id="line2d_7">
      <g>
       <use style="stroke:#000000;stroke-width:3;" x="89.57649" xlink:href="#m87570da50d" y="228.959071"/>
      </g>
     </g>
     <g id="text_8">
      <!-- 200 -->
      <g transform="translate(47.53649 235.037821)scale(0.16 -0.16)">
       <use xlink:href="#DejaVuSans-32"/>
       <use x="63.623047" xlink:href="#DejaVuSans-30"/>
       <use x="127.246094" xlink:href="#DejaVuSans-30"/>
      </g>
     </g>
    </g>
    <g id="ytick_3">
     <g id="line2d_8">
      <g>
       <use style="stroke:#000000;stroke-width:3;" x="89.57649" xlink:href="#m87570da50d" y="175.450314"/>
      </g>
     </g>
     <g id="text_9">
      <!-- 400 -->
      <g transform="translate(47.53649 181.529064)scale(0.16 -0.16)">
       <defs>
        <path d="M 2419 4116 
L 825 1625 
L 2419 1625 
L 2419 4116 
z
M 2253 4666 
L 3047 4666 
L 3047 1625 
L 3713 1625 
L 3713 1100 
L 3047 1100 
L 3047 0 
L 2419 0 
L 2419 1100 
L 313 1100 
L 313 1709 
L 2253 4666 
z
" id="DejaVuSans-34" transform="scale(0.015625)"/>
       </defs>
       <use xlink:href="#DejaVuSans-34"/>
       <use x="63.623047" xlink:href="#DejaVuSans-30"/>
       <use x="127.246094" xlink:href="#DejaVuSans-30"/>
      </g>
     </g>
    </g>
    <g id="ytick_4">
     <g id="line2d_9">
      <g>
       <use style="stroke:#000000;stroke-width:3;" x="89.57649" xlink:href="#m87570da50d" y="121.941558"/>
      </g>
     </g>
     <g id="text_10">
      <!-- 600 -->
      <g transform="translate(47.53649 128.020308)scale(0.16 -0.16)">
       <defs>
        <path d="M 2113 2584 
Q 1688 2584 1439 2293 
Q 1191 2003 1191 1497 
Q 1191 994 1439 701 
Q 1688 409 2113 409 
Q 2538 409 2786 701 
Q 3034 994 3034 1497 
Q 3034 2003 2786 2293 
Q 2538 2584 2113 2584 
z
M 3366 4563 
L 3366 3988 
Q 3128 4100 2886 4159 
Q 2644 4219 2406 4219 
Q 1781 4219 1451 3797 
Q 1122 3375 1075 2522 
Q 1259 2794 1537 2939 
Q 1816 3084 2150 3084 
Q 2853 3084 3261 2657 
Q 3669 2231 3669 1497 
Q 3669 778 3244 343 
Q 2819 -91 2113 -91 
Q 1303 -91 875 529 
Q 447 1150 447 2328 
Q 447 3434 972 4092 
Q 1497 4750 2381 4750 
Q 2619 4750 2861 4703 
Q 3103 4656 3366 4563 
z
" id="DejaVuSans-36" transform="scale(0.015625)"/>
       </defs>
       <use xlink:href="#DejaVuSans-36"/>
       <use x="63.623047" xlink:href="#DejaVuSans-30"/>
       <use x="127.246094" xlink:href="#DejaVuSans-30"/>
      </g>
     </g>
    </g>
    <g id="ytick_5">
     <g id="line2d_10">
      <g>
       <use style="stroke:#000000;stroke-width:3;" x="89.57649" xlink:href="#m87570da50d" y="68.432801"/>
      </g>
     </g>
     <g id="text_11">
      <!-- 800 -->
      <g transform="translate(47.53649 74.511551)scale(0.16 -0.16)">
       <defs>
        <path d="M 2034 2216 
Q 1584 2216 1326 1975 
Q 1069 1734 1069 1313 
Q 1069 891 1326 650 
Q 1584 409 2034 409 
Q 2484 409 2743 651 
Q 3003 894 3003 1313 
Q 3003 1734 2745 1975 
Q 2488 2216 2034 2216 
z
M 1403 2484 
Q 997 2584 770 2862 
Q 544 3141 544 3541 
Q 544 4100 942 4425 
Q 1341 4750 2034 4750 
Q 2731 4750 3128 4425 
Q 3525 4100 3525 3541 
Q 3525 3141 3298 2862 
Q 3072 2584 2669 2484 
Q 3125 2378 3379 2068 
Q 3634 1759 3634 1313 
Q 3634 634 3220 271 
Q 2806 -91 2034 -91 
Q 1263 -91 848 271 
Q 434 634 434 1313 
Q 434 1759 690 2068 
Q 947 2378 1403 2484 
z
M 1172 3481 
Q 1172 3119 1398 2916 
Q 1625 2713 2034 2713 
Q 2441 2713 2670 2916 
Q 2900 3119 2900 3481 
Q 2900 3844 2670 4047 
Q 2441 4250 2034 4250 
Q 1625 4250 1398 4047 
Q 1172 3844 1172 3481 
z
" id="DejaVuSans-38" transform="scale(0.015625)"/>
       </defs>
       <use xlink:href="#DejaVuSans-38"/>
       <use x="63.623047" xlink:href="#DejaVuSans-30"/>
       <use x="127.246094" xlink:href="#DejaVuSans-30"/>
      </g>
     </g>
    </g>
    <g id="ytick_6">
     <g id="line2d_11">
      <g>
       <use style="stroke:#000000;stroke-width:3;" x="89.57649" xlink:href="#m87570da50d" y="14.924044"/>
      </g>
     </g>
     <g id="text_12">
      <!-- 1000 -->
      <g transform="translate(37.35649 21.002794)scale(0.16 -0.16)">
       <use xlink:href="#DejaVuSans-31"/>
       <use x="63.623047" xlink:href="#DejaVuSans-30"/>
       <use x="127.246094" xlink:href="#DejaVuSans-30"/>
       <use x="190.869141" xlink:href="#DejaVuSans-30"/>
      </g>
     </g>
    </g>
    <g id="text_13">
     <!-- Minutes -->
     <g transform="translate(18.197115 188.693437)rotate(-90)scale(0.2 -0.2)">
      <defs>
       <path d="M 628 4666 
L 1569 4666 
L 2759 1491 
L 3956 4666 
L 4897 4666 
L 4897 0 
L 4281 0 
L 4281 4097 
L 3078 897 
L 2444 897 
L 1241 4097 
L 1241 0 
L 628 0 
L 628 4666 
z
" id="DejaVuSans-4d" transform="scale(0.015625)"/>
       <path d="M 603 3500 
L 1178 3500 
L 1178 0 
L 603 0 
L 603 3500 
z
M 603 4863 
L 1178 4863 
L 1178 4134 
L 603 4134 
L 603 4863 
z
" id="DejaVuSans-69" transform="scale(0.015625)"/>
       <path d="M 3513 2113 
L 3513 0 
L 2938 0 
L 2938 2094 
Q 2938 2591 2744 2837 
Q 2550 3084 2163 3084 
Q 1697 3084 1428 2787 
Q 1159 2491 1159 1978 
L 1159 0 
L 581 0 
L 581 3500 
L 1159 3500 
L 1159 2956 
Q 1366 3272 1645 3428 
Q 1925 3584 2291 3584 
Q 2894 3584 3203 3211 
Q 3513 2838 3513 2113 
z
" id="DejaVuSans-6e" transform="scale(0.015625)"/>
       <path d="M 544 1381 
L 544 3500 
L 1119 3500 
L 1119 1403 
Q 1119 906 1312 657 
Q 1506 409 1894 409 
Q 2359 409 2629 706 
Q 2900 1003 2900 1516 
L 2900 3500 
L 3475 3500 
L 3475 0 
L 2900 0 
L 2900 538 
Q 2691 219 2414 64 
Q 2138 -91 1772 -91 
Q 1169 -91 856 284 
Q 544 659 544 1381 
z
M 1991 3584 
L 1991 3584 
z
" id="DejaVuSans-75" transform="scale(0.015625)"/>
       <path d="M 1172 4494 
L 1172 3500 
L 2356 3500 
L 2356 3053 
L 1172 3053 
L 1172 1153 
Q 1172 725 1289 603 
Q 1406 481 1766 481 
L 2356 481 
L 2356 0 
L 1766 0 
Q 1100 0 847 248 
Q 594 497 594 1153 
L 594 3053 
L 172 3053 
L 172 3500 
L 594 3500 
L 594 4494 
L 1172 4494 
z
" id="DejaVuSans-74" transform="scale(0.015625)"/>
       <path d="M 3597 1894 
L 3597 1613 
L 953 1613 
Q 991 1019 1311 708 
Q 1631 397 2203 397 
Q 2534 397 2845 478 
Q 3156 559 3463 722 
L 3463 178 
Q 3153 47 2828 -22 
Q 2503 -91 2169 -91 
Q 1331 -91 842 396 
Q 353 884 353 1716 
Q 353 2575 817 3079 
Q 1281 3584 2069 3584 
Q 2775 3584 3186 3129 
Q 3597 2675 3597 1894 
z
M 3022 2063 
Q 3016 2534 2758 2815 
Q 2500 3097 2075 3097 
Q 1594 3097 1305 2825 
Q 1016 2553 972 2059 
L 3022 2063 
z
" id="DejaVuSans-65" transform="scale(0.015625)"/>
       <path d="M 2834 3397 
L 2834 2853 
Q 2591 2978 2328 3040 
Q 2066 3103 1784 3103 
Q 1356 3103 1142 2972 
Q 928 2841 928 2578 
Q 928 2378 1081 2264 
Q 1234 2150 1697 2047 
L 1894 2003 
Q 2506 1872 2764 1633 
Q 3022 1394 3022 966 
Q 3022 478 2636 193 
Q 2250 -91 1575 -91 
Q 1294 -91 989 -36 
Q 684 19 347 128 
L 347 722 
Q 666 556 975 473 
Q 1284 391 1588 391 
Q 1994 391 2212 530 
Q 2431 669 2431 922 
Q 2431 1156 2273 1281 
Q 2116 1406 1581 1522 
L 1381 1569 
Q 847 1681 609 1914 
Q 372 2147 372 2553 
Q 372 3047 722 3315 
Q 1072 3584 1716 3584 
Q 2034 3584 2315 3537 
Q 2597 3491 2834 3397 
z
" id="DejaVuSans-73" transform="scale(0.015625)"/>
      </defs>
      <use xlink:href="#DejaVuSans-4d"/>
      <use x="86.279297" xlink:href="#DejaVuSans-69"/>
      <use x="114.0625" xlink:href="#DejaVuSans-6e"/>
      <use x="177.441406" xlink:href="#DejaVuSans-75"/>
      <use x="240.820312" xlink:href="#DejaVuSans-74"/>
      <use x="280.029297" xlink:href="#DejaVuSans-65"/>
      <use x="341.552734" xlink:href="#DejaVuSans-73"/>
     </g>
    </g>
   </g>
   <g id="LineCollection_1">
    <path clip-path="url(#p263171e6c1)" d="M 105.00482 282.355861 
L 105.00482 282.325868 
" style="fill:none;stroke:#1f77b4;stroke-width:2;"/>
    <path clip-path="url(#p263171e6c1)" d="M 127.045293 281.912246 
L 127.045293 281.837123 
" style="fill:none;stroke:#1f77b4;stroke-width:2;"/>
    <path clip-path="url(#p263171e6c1)" d="M 149.085765 281.118438 
L 149.085765 280.937432 
" style="fill:none;stroke:#1f77b4;stroke-width:2;"/>
    <path clip-path="url(#p263171e6c1)" d="M 171.126237 279.707965 
L 171.126237 279.45005 
" style="fill:none;stroke:#1f77b4;stroke-width:2;"/>
    <path clip-path="url(#p263171e6c1)" d="M 193.166709 277.573346 
L 193.166709 276.714105 
" style="fill:none;stroke:#1f77b4;stroke-width:2;"/>
    <path clip-path="url(#p263171e6c1)" d="M 215.207181 274.528211 
L 215.207181 273.817703 
" style="fill:none;stroke:#1f77b4;stroke-width:2;"/>
    <path clip-path="url(#p263171e6c1)" d="M 237.247653 270.319227 
L 237.247653 261.362635 
" style="fill:none;stroke:#1f77b4;stroke-width:2;"/>
    <path clip-path="url(#p263171e6c1)" d="M 259.288125 265.767803 
L 259.288125 254.755915 
" style="fill:none;stroke:#1f77b4;stroke-width:2;"/>
    <path clip-path="url(#p263171e6c1)" d="M 281.328597 255.773641 
L 281.328597 244.018464 
" style="fill:none;stroke:#1f77b4;stroke-width:2;"/>
    <path clip-path="url(#p263171e6c1)" d="M 325.409541 236.096629 
L 325.409541 232.423286 
" style="fill:none;stroke:#1f77b4;stroke-width:2;"/>
    <path clip-path="url(#p263171e6c1)" d="M 413.57143 177.082663 
L 413.57143 160.979878 
" style="fill:none;stroke:#1f77b4;stroke-width:2;"/>
   </g>
   <g id="LineCollection_2">
    <path clip-path="url(#p263171e6c1)" d="M 105.00482 282.347012 
L 105.00482 282.297736 
" style="fill:none;stroke:#ff7f0e;stroke-width:2;"/>
    <path clip-path="url(#p263171e6c1)" d="M 127.045293 281.938518 
L 127.045293 281.295325 
" style="fill:none;stroke:#ff7f0e;stroke-width:2;"/>
    <path clip-path="url(#p263171e6c1)" d="M 149.085765 281.240371 
L 149.085765 279.993461 
" style="fill:none;stroke:#ff7f0e;stroke-width:2;"/>
    <path clip-path="url(#p263171e6c1)" d="M 171.126237 279.365539 
L 171.126237 277.977603 
" style="fill:none;stroke:#ff7f0e;stroke-width:2;"/>
    <path clip-path="url(#p263171e6c1)" d="M 193.166709 274.355593 
L 193.166709 270.363175 
" style="fill:none;stroke:#ff7f0e;stroke-width:2;"/>
    <path clip-path="url(#p263171e6c1)" d="M 215.207181 269.685835 
L 215.207181 267.780892 
" style="fill:none;stroke:#ff7f0e;stroke-width:2;"/>
    <path clip-path="url(#p263171e6c1)" d="M 237.247653 265.003043 
L 237.247653 252.328447 
" style="fill:none;stroke:#ff7f0e;stroke-width:2;"/>
    <path clip-path="url(#p263171e6c1)" d="M 259.288125 262.396574 
L 259.288125 239.158067 
" style="fill:none;stroke:#ff7f0e;stroke-width:2;"/>
    <path clip-path="url(#p263171e6c1)" d="M 281.328597 249.811452 
L 281.328597 236.358187 
" style="fill:none;stroke:#ff7f0e;stroke-width:2;"/>
    <path clip-path="url(#p263171e6c1)" d="M 325.409541 204.21918 
L 325.409541 185.35533 
" style="fill:none;stroke:#ff7f0e;stroke-width:2;"/>
    <path clip-path="url(#p263171e6c1)" d="M 413.57143 62.868797 
L 413.57143 16.302889 
" style="fill:none;stroke:#ff7f0e;stroke-width:2;"/>
   </g>
   <g id="line2d_12">
    <defs>
     <path d="M 3 0 
L -3 -0 
" id="m569acceab8" style="stroke:#1f77b4;"/>
    </defs>
    <g clip-path="url(#p263171e6c1)">
     <use style="fill:#1f77b4;stroke:#1f77b4;" x="105.00482" xlink:href="#m569acceab8" y="282.355861"/>
     <use style="fill:#1f77b4;stroke:#1f77b4;" x="127.045293" xlink:href="#m569acceab8" y="281.912246"/>
     <use style="fill:#1f77b4;stroke:#1f77b4;" x="149.085765" xlink:href="#m569acceab8" y="281.118438"/>
     <use style="fill:#1f77b4;stroke:#1f77b4;" x="171.126237" xlink:href="#m569acceab8" y="279.707965"/>
     <use style="fill:#1f77b4;stroke:#1f77b4;" x="193.166709" xlink:href="#m569acceab8" y="277.573346"/>
     <use style="fill:#1f77b4;stroke:#1f77b4;" x="215.207181" xlink:href="#m569acceab8" y="274.528211"/>
     <use style="fill:#1f77b4;stroke:#1f77b4;" x="237.247653" xlink:href="#m569acceab8" y="270.319227"/>
     <use style="fill:#1f77b4;stroke:#1f77b4;" x="259.288125" xlink:href="#m569acceab8" y="265.767803"/>
     <use style="fill:#1f77b4;stroke:#1f77b4;" x="281.328597" xlink:href="#m569acceab8" y="255.773641"/>
     <use style="fill:#1f77b4;stroke:#1f77b4;" x="325.409541" xlink:href="#m569acceab8" y="236.096629"/>
     <use style="fill:#1f77b4;stroke:#1f77b4;" x="413.57143" xlink:href="#m569acceab8" y="177.082663"/>
    </g>
   </g>
   <g id="line2d_13">
    <g clip-path="url(#p263171e6c1)">
     <use style="fill:#1f77b4;stroke:#1f77b4;" x="105.00482" xlink:href="#m569acceab8" y="282.325868"/>
     <use style="fill:#1f77b4;stroke:#1f77b4;" x="127.045293" xlink:href="#m569acceab8" y="281.837123"/>
     <use style="fill:#1f77b4;stroke:#1f77b4;" x="149.085765" xlink:href="#m569acceab8" y="280.937432"/>
     <use style="fill:#1f77b4;stroke:#1f77b4;" x="171.126237" xlink:href="#m569acceab8" y="279.45005"/>
     <use style="fill:#1f77b4;stroke:#1f77b4;" x="193.166709" xlink:href="#m569acceab8" y="276.714105"/>
     <use style="fill:#1f77b4;stroke:#1f77b4;" x="215.207181" xlink:href="#m569acceab8" y="273.817703"/>
     <use style="fill:#1f77b4;stroke:#1f77b4;" x="237.247653" xlink:href="#m569acceab8" y="261.362635"/>
     <use style="fill:#1f77b4;stroke:#1f77b4;" x="259.288125" xlink:href="#m569acceab8" y="254.755915"/>
     <use style="fill:#1f77b4;stroke:#1f77b4;" x="281.328597" xlink:href="#m569acceab8" y="244.018464"/>
     <use style="fill:#1f77b4;stroke:#1f77b4;" x="325.409541" xlink:href="#m569acceab8" y="232.423286"/>
     <use style="fill:#1f77b4;stroke:#1f77b4;" x="413.57143" xlink:href="#m569acceab8" y="160.979878"/>
    </g>
   </g>
   <g id="line2d_14">
    <defs>
     <path d="M 3 0 
L -3 -0 
" id="md3701a274f" style="stroke:#ff7f0e;"/>
    </defs>
    <g clip-path="url(#p263171e6c1)">
     <use style="fill:#ff7f0e;stroke:#ff7f0e;" x="105.00482" xlink:href="#md3701a274f" y="282.347012"/>
     <use style="fill:#ff7f0e;stroke:#ff7f0e;" x="127.045293" xlink:href="#md3701a274f" y="281.938518"/>
     <use style="fill:#ff7f0e;stroke:#ff7f0e;" x="149.085765" xlink:href="#md3701a274f" y="281.240371"/>
     <use style="fill:#ff7f0e;stroke:#ff7f0e;" x="171.126237" xlink:href="#md3701a274f" y="279.365539"/>
     <use style="fill:#ff7f0e;stroke:#ff7f0e;" x="193.166709" xlink:href="#md3701a274f" y="274.355593"/>
     <use style="fill:#ff7f0e;stroke:#ff7f0e;" x="215.207181" xlink:href="#md3701a274f" y="269.685835"/>
     <use style="fill:#ff7f0e;stroke:#ff7f0e;" x="237.247653" xlink:href="#md3701a274f" y="265.003043"/>
     <use style="fill:#ff7f0e;stroke:#ff7f0e;" x="259.288125" xlink:href="#md3701a274f" y="262.396574"/>
     <use style="fill:#ff7f0e;stroke:#ff7f0e;" x="281.328597" xlink:href="#md3701a274f" y="249.811452"/>
     <use style="fill:#ff7f0e;stroke:#ff7f0e;" x="325.409541" xlink:href="#md3701a274f" y="204.21918"/>
     <use style="fill:#ff7f0e;stroke:#ff7f0e;" x="413.57143" xlink:href="#md3701a274f" y="62.868797"/>
    </g>
   </g>
   <g id="line2d_15">
    <g clip-path="url(#p263171e6c1)">
     <use style="fill:#ff7f0e;stroke:#ff7f0e;" x="105.00482" xlink:href="#md3701a274f" y="282.297736"/>
     <use style="fill:#ff7f0e;stroke:#ff7f0e;" x="127.045293" xlink:href="#md3701a274f" y="281.295325"/>
     <use style="fill:#ff7f0e;stroke:#ff7f0e;" x="149.085765" xlink:href="#md3701a274f" y="279.993461"/>
     <use style="fill:#ff7f0e;stroke:#ff7f0e;" x="171.126237" xlink:href="#md3701a274f" y="277.977603"/>
     <use style="fill:#ff7f0e;stroke:#ff7f0e;" x="193.166709" xlink:href="#md3701a274f" y="270.363175"/>
     <use style="fill:#ff7f0e;stroke:#ff7f0e;" x="215.207181" xlink:href="#md3701a274f" y="267.780892"/>
     <use style="fill:#ff7f0e;stroke:#ff7f0e;" x="237.247653" xlink:href="#md3701a274f" y="252.328447"/>
     <use style="fill:#ff7f0e;stroke:#ff7f0e;" x="259.288125" xlink:href="#md3701a274f" y="239.158067"/>
     <use style="fill:#ff7f0e;stroke:#ff7f0e;" x="281.328597" xlink:href="#md3701a274f" y="236.358187"/>
     <use style="fill:#ff7f0e;stroke:#ff7f0e;" x="325.409541" xlink:href="#md3701a274f" y="185.35533"/>
     <use style="fill:#ff7f0e;stroke:#ff7f0e;" x="413.57143" xlink:href="#md3701a274f" y="16.302889"/>
    </g>
   </g>
   <g id="line2d_16">
    <defs>
     <path d="M 0 4.5 
C 1.193414 4.5 2.338109 4.025852 3.181981 3.181981 
C 4.025852 2.338109 4.5 1.193414 4.5 0 
C 4.5 -1.193414 4.025852 -2.338109 3.181981 -3.181981 
C 2.338109 -4.025852 1.193414 -4.5 0 -4.5 
C -1.193414 -4.5 -2.338109 -4.025852 -3.181981 -3.181981 
C -4.025852 -2.338109 -4.5 -1.193414 -4.5 0 
C -4.5 1.193414 -4.025852 2.338109 -3.181981 3.181981 
C -2.338109 4.025852 -1.193414 4.5 0 4.5 
z
" id="m7e50ba204c" style="stroke:#1f77b4;"/>
    </defs>
    <g clip-path="url(#p263171e6c1)">
     <use style="fill:#1f77b4;stroke:#1f77b4;" x="105.00482" xlink:href="#m7e50ba204c" y="282.340865"/>
     <use style="fill:#1f77b4;stroke:#1f77b4;" x="127.045293" xlink:href="#m7e50ba204c" y="281.874685"/>
     <use style="fill:#1f77b4;stroke:#1f77b4;" x="149.085765" xlink:href="#m7e50ba204c" y="281.027935"/>
     <use style="fill:#1f77b4;stroke:#1f77b4;" x="171.126237" xlink:href="#m7e50ba204c" y="279.579008"/>
     <use style="fill:#1f77b4;stroke:#1f77b4;" x="193.166709" xlink:href="#m7e50ba204c" y="277.143725"/>
     <use style="fill:#1f77b4;stroke:#1f77b4;" x="215.207181" xlink:href="#m7e50ba204c" y="274.172957"/>
     <use style="fill:#1f77b4;stroke:#1f77b4;" x="237.247653" xlink:href="#m7e50ba204c" y="265.840931"/>
     <use style="fill:#1f77b4;stroke:#1f77b4;" x="259.288125" xlink:href="#m7e50ba204c" y="260.261859"/>
     <use style="fill:#1f77b4;stroke:#1f77b4;" x="281.328597" xlink:href="#m7e50ba204c" y="249.896052"/>
     <use style="fill:#1f77b4;stroke:#1f77b4;" x="325.409541" xlink:href="#m7e50ba204c" y="234.259958"/>
     <use style="fill:#1f77b4;stroke:#1f77b4;" x="413.57143" xlink:href="#m7e50ba204c" y="169.03127"/>
    </g>
   </g>
   <g id="line2d_17">
    <defs>
     <path d="M -4.5 4.5 
L 4.5 4.5 
L 4.5 -4.5 
L -4.5 -4.5 
z
" id="mc54fea1957" style="stroke:#ff7f0e;stroke-linejoin:miter;"/>
    </defs>
    <g clip-path="url(#p263171e6c1)">
     <use style="fill:#ff7f0e;stroke:#ff7f0e;stroke-linejoin:miter;" x="105.00482" xlink:href="#mc54fea1957" y="282.322374"/>
     <use style="fill:#ff7f0e;stroke:#ff7f0e;stroke-linejoin:miter;" x="127.045293" xlink:href="#mc54fea1957" y="281.616922"/>
     <use style="fill:#ff7f0e;stroke:#ff7f0e;stroke-linejoin:miter;" x="149.085765" xlink:href="#mc54fea1957" y="280.616916"/>
     <use style="fill:#ff7f0e;stroke:#ff7f0e;stroke-linejoin:miter;" x="171.126237" xlink:href="#mc54fea1957" y="278.671571"/>
     <use style="fill:#ff7f0e;stroke:#ff7f0e;stroke-linejoin:miter;" x="193.166709" xlink:href="#mc54fea1957" y="272.359384"/>
     <use style="fill:#ff7f0e;stroke:#ff7f0e;stroke-linejoin:miter;" x="215.207181" xlink:href="#mc54fea1957" y="268.733364"/>
     <use style="fill:#ff7f0e;stroke:#ff7f0e;stroke-linejoin:miter;" x="237.247653" xlink:href="#mc54fea1957" y="258.665745"/>
     <use style="fill:#ff7f0e;stroke:#ff7f0e;stroke-linejoin:miter;" x="259.288125" xlink:href="#mc54fea1957" y="250.77732"/>
     <use style="fill:#ff7f0e;stroke:#ff7f0e;stroke-linejoin:miter;" x="281.328597" xlink:href="#mc54fea1957" y="243.084819"/>
     <use style="fill:#ff7f0e;stroke:#ff7f0e;stroke-linejoin:miter;" x="325.409541" xlink:href="#mc54fea1957" y="194.787255"/>
     <use style="fill:#ff7f0e;stroke:#ff7f0e;stroke-linejoin:miter;" x="413.57143" xlink:href="#mc54fea1957" y="39.585843"/>
    </g>
   </g>
   <g id="patch_3">
    <path d="M 89.57649 295.65851 
L 89.57649 3.00024 
" style="fill:none;stroke:#000000;stroke-linecap:square;stroke-linejoin:miter;stroke-width:3;"/>
   </g>
   <g id="patch_4">
    <path d="M 428.99976 295.65851 
L 428.99976 3.00024 
" style="fill:none;stroke:#000000;stroke-linecap:square;stroke-linejoin:miter;stroke-width:3;"/>
   </g>
   <g id="patch_5">
    <path d="M 89.57649 295.65851 
L 428.99976 295.65851 
" style="fill:none;stroke:#000000;stroke-linecap:square;stroke-linejoin:miter;stroke-width:3;"/>
   </g>
   <g id="patch_6">
    <path d="M 89.57649 3.00024 
L 428.99976 3.00024 
" style="fill:none;stroke:#000000;stroke-linecap:square;stroke-linejoin:miter;stroke-width:3;"/>
   </g>
   <g id="legend_1">
    <g id="patch_7">
     <path d="M 99.37649 58.30024 
L 219.77649 58.30024 
Q 222.57649 58.30024 222.57649 55.50024 
L 222.57649 12.80024 
Q 222.57649 10.00024 219.77649 10.00024 
L 99.37649 10.00024 
Q 96.57649 10.00024 96.57649 12.80024 
L 96.57649 55.50024 
Q 96.57649 58.30024 99.37649 58.30024 
z
" style="fill:#ffffff;opacity:0.8;stroke:#cccccc;stroke-linejoin:miter;"/>
    </g>
    <g id="LineCollection_3">
     <path d="M 116.17649 29.908677 
L 116.17649 15.908677 
" style="fill:none;stroke:#1f77b4;stroke-width:2;"/>
    </g>
    <g id="line2d_18">
     <g>
      <use style="fill:#1f77b4;stroke:#1f77b4;" x="116.17649" xlink:href="#m569acceab8" y="29.908677"/>
     </g>
    </g>
    <g id="line2d_19">
     <g>
      <use style="fill:#1f77b4;stroke:#1f77b4;" x="116.17649" xlink:href="#m569acceab8" y="15.908677"/>
     </g>
    </g>
    <g id="line2d_20"/>
    <g id="line2d_21">
     <g>
      <use style="fill:#1f77b4;stroke:#1f77b4;" x="116.17649" xlink:href="#m7e50ba204c" y="22.908677"/>
     </g>
    </g>
    <g id="text_14">
     <!-- $h_t=10^{-100}$ -->
     <g transform="translate(141.37649 27.808677)scale(0.14 -0.14)">
      <defs>
       <path d="M 3566 2113 
L 3156 0 
L 2578 0 
L 2988 2091 
Q 3016 2238 3031 2350 
Q 3047 2463 3047 2528 
Q 3047 2791 2881 2937 
Q 2716 3084 2419 3084 
Q 1956 3084 1617 2771 
Q 1278 2459 1178 1941 
L 800 0 
L 225 0 
L 1172 4863 
L 1747 4863 
L 1375 2950 
Q 1594 3244 1934 3414 
Q 2275 3584 2650 3584 
Q 3113 3584 3367 3334 
Q 3622 3084 3622 2631 
Q 3622 2519 3608 2391 
Q 3594 2263 3566 2113 
z
" id="DejaVuSans-Oblique-68" transform="scale(0.015625)"/>
       <path d="M 2706 3500 
L 2619 3053 
L 1472 3053 
L 1100 1153 
Q 1081 1047 1072 975 
Q 1063 903 1063 863 
Q 1063 663 1183 572 
Q 1303 481 1569 481 
L 2150 481 
L 2053 0 
L 1503 0 
Q 991 0 739 200 
Q 488 400 488 806 
Q 488 878 497 964 
Q 506 1050 525 1153 
L 897 3053 
L 409 3053 
L 500 3500 
L 978 3500 
L 1172 4494 
L 1747 4494 
L 1556 3500 
L 2706 3500 
z
" id="DejaVuSans-Oblique-74" transform="scale(0.015625)"/>
       <path d="M 678 2906 
L 4684 2906 
L 4684 2381 
L 678 2381 
L 678 2906 
z
M 678 1631 
L 4684 1631 
L 4684 1100 
L 678 1100 
L 678 1631 
z
" id="DejaVuSans-3d" transform="scale(0.015625)"/>
       <path d="M 678 2272 
L 4684 2272 
L 4684 1741 
L 678 1741 
L 678 2272 
z
" id="DejaVuSans-2212" transform="scale(0.015625)"/>
      </defs>
      <use transform="translate(0 0.765625)" xlink:href="#DejaVuSans-Oblique-68"/>
      <use transform="translate(63.378906 -15.640625)scale(0.7)" xlink:href="#DejaVuSans-Oblique-74"/>
      <use transform="translate(113.041992 0.765625)" xlink:href="#DejaVuSans-3d"/>
      <use transform="translate(216.313477 0.765625)" xlink:href="#DejaVuSans-31"/>
      <use transform="translate(279.936523 0.765625)" xlink:href="#DejaVuSans-30"/>
      <use transform="translate(344.516602 39.046875)scale(0.7)" xlink:href="#DejaVuSans-2212"/>
      <use transform="translate(403.168945 39.046875)scale(0.7)" xlink:href="#DejaVuSans-31"/>
      <use transform="translate(447.705078 39.046875)scale(0.7)" xlink:href="#DejaVuSans-30"/>
      <use transform="translate(492.241211 39.046875)scale(0.7)" xlink:href="#DejaVuSans-30"/>
     </g>
    </g>
    <g id="LineCollection_4">
     <path d="M 116.17649 51.888678 
L 116.17649 37.888678 
" style="fill:none;stroke:#ff7f0e;stroke-width:2;"/>
    </g>
    <g id="line2d_22">
     <g>
      <use style="fill:#ff7f0e;stroke:#ff7f0e;" x="116.17649" xlink:href="#md3701a274f" y="51.888678"/>
     </g>
    </g>
    <g id="line2d_23">
     <g>
      <use style="fill:#ff7f0e;stroke:#ff7f0e;" x="116.17649" xlink:href="#md3701a274f" y="37.888678"/>
     </g>
    </g>
    <g id="line2d_24"/>
    <g id="line2d_25">
     <g>
      <use style="fill:#ff7f0e;stroke:#ff7f0e;stroke-linejoin:miter;" x="116.17649" xlink:href="#mc54fea1957" y="44.888678"/>
     </g>
    </g>
    <g id="text_15">
     <!-- $h_t=10^{-1}$ -->
     <g transform="translate(141.37649 49.788678)scale(0.14 -0.14)">
      <use transform="translate(0 0.684375)" xlink:href="#DejaVuSans-Oblique-68"/>
      <use transform="translate(63.378906 -15.721875)scale(0.7)" xlink:href="#DejaVuSans-Oblique-74"/>
      <use transform="translate(113.041992 0.684375)" xlink:href="#DejaVuSans-3d"/>
      <use transform="translate(216.313477 0.684375)" xlink:href="#DejaVuSans-31"/>
      <use transform="translate(279.936523 0.684375)" xlink:href="#DejaVuSans-30"/>
      <use transform="translate(344.516602 38.965625)scale(0.7)" xlink:href="#DejaVuSans-2212"/>
      <use transform="translate(403.168945 38.965625)scale(0.7)" xlink:href="#DejaVuSans-31"/>
     </g>
    </g>
   </g>
  </g>
 </g>
 <defs>
  <clipPath id="p263171e6c1">
   <rect height="292.65827" width="339.42327" x="89.57649" y="3.00024"/>
  </clipPath>
 </defs>
</svg>
