<?xml version="1.0" encoding="utf-8" standalone="no"?>
<!DOCTYPE svg PUBLIC "-//W3C//DTD SVG 1.1//EN"
  "http://www.w3.org/Graphics/SVG/1.1/DTD/svg11.dtd">
<svg height="360pt" version="1.1" viewBox="0 0 432 360" width="432pt" xmlns="http://www.w3.org/2000/svg" xmlns:xlink="http://www.w3.org/1999/xlink">
 <metadata>
  <rdf:RDF xmlns:cc="http://creativecommons.org/ns#" xmlns:dc="http://purl.org/dc/elements/1.1/" xmlns:rdf="http://www.w3.org/1999/02/22-rdf-syntax-ns#">
   <cc:Work>
    <dc:type rdf:resource="http://purl.org/dc/dcmitype/StillImage"/>
    <dc:date>2021-09-03T15:13:35.535260</dc:date>
    <dc:format>image/svg+xml</dc:format>
    <dc:creator>
     <cc:Agent>
      <dc:title>Matplotlib v3.4.2, https://matplotlib.org/</dc:title>
     </cc:Agent>
    </dc:creator>
   </cc:Work>
  </rdf:RDF>
 </metadata>
 <defs>
  <style type="text/css">*{stroke-linecap:butt;stroke-linejoin:round;}</style>
 </defs>
 <g id="figure_1">
  <g id="patch_1">
   <path d="M 0 360 
L 432 360 
L 432 0 
L 0 0 
z
" style="fill:#ffffff;"/>
  </g>
  <g id="axes_1">
   <g id="patch_2">
    <path d="M 94.66149 294.01476 
L 428.99976 294.01476 
L 428.99976 3.00024 
L 94.66149 3.00024 
z
" style="fill:#ffffff;"/>
   </g>
   <g id="LineCollection_1">
    <path clip-path="url(#p301fb45da2)" d="M 413.802566 267.894763 
L 413.802566 266.648866 
" style="fill:none;stroke:#1f77b4;stroke-width:2;"/>
    <path clip-path="url(#p301fb45da2)" d="M 300.004236 176.005881 
L 300.004236 174.875746 
" style="fill:none;stroke:#1f77b4;stroke-width:2;"/>
    <path clip-path="url(#p301fb45da2)" d="M 206.506132 98.93376 
L 206.506132 98.093832 
" style="fill:none;stroke:#1f77b4;stroke-width:2;"/>
    <path clip-path="url(#p301fb45da2)" d="M 168.484095 67.433111 
L 168.484095 66.790161 
" style="fill:none;stroke:#1f77b4;stroke-width:2;"/>
    <path clip-path="url(#p301fb45da2)" d="M 148.860259 50.4962 
L 148.860259 49.829498 
" style="fill:none;stroke:#1f77b4;stroke-width:2;"/>
    <path clip-path="url(#p301fb45da2)" d="M 137.244723 40.789327 
L 137.244723 40.189978 
" style="fill:none;stroke:#1f77b4;stroke-width:2;"/>
    <path clip-path="url(#p301fb45da2)" d="M 129.725688 34.079708 
L 129.725688 33.640234 
" style="fill:none;stroke:#1f77b4;stroke-width:2;"/>
    <path clip-path="url(#p301fb45da2)" d="M 124.540888 29.467425 
L 124.540888 28.958427 
" style="fill:none;stroke:#1f77b4;stroke-width:2;"/>
    <path clip-path="url(#p301fb45da2)" d="M 120.793381 26.891983 
L 120.793381 26.104534 
" style="fill:none;stroke:#1f77b4;stroke-width:2;"/>
    <path clip-path="url(#p301fb45da2)" d="M 117.984216 24.102676 
L 117.984216 23.485165 
" style="fill:none;stroke:#1f77b4;stroke-width:2;"/>
    <path clip-path="url(#p301fb45da2)" d="M 114.10326 20.437072 
L 114.10326 20.138907 
" style="fill:none;stroke:#1f77b4;stroke-width:2;"/>
    <path clip-path="url(#p301fb45da2)" d="M 109.858684 17.589208 
L 109.858684 16.976779 
" style="fill:none;stroke:#1f77b4;stroke-width:2;"/>
   </g>
   <g id="line2d_1">
    <defs>
     <path d="M 3 0 
L -3 -0 
" id="mc3ec3edd1e" style="stroke:#1f77b4;"/>
    </defs>
    <g clip-path="url(#p301fb45da2)">
     <use style="fill:#1f77b4;stroke:#1f77b4;" x="413.802566" xlink:href="#mc3ec3edd1e" y="267.894763"/>
     <use style="fill:#1f77b4;stroke:#1f77b4;" x="300.004236" xlink:href="#mc3ec3edd1e" y="176.005881"/>
     <use style="fill:#1f77b4;stroke:#1f77b4;" x="206.506132" xlink:href="#mc3ec3edd1e" y="98.93376"/>
     <use style="fill:#1f77b4;stroke:#1f77b4;" x="168.484095" xlink:href="#mc3ec3edd1e" y="67.433111"/>
     <use style="fill:#1f77b4;stroke:#1f77b4;" x="148.860259" xlink:href="#mc3ec3edd1e" y="50.4962"/>
     <use style="fill:#1f77b4;stroke:#1f77b4;" x="137.244723" xlink:href="#mc3ec3edd1e" y="40.789327"/>
     <use style="fill:#1f77b4;stroke:#1f77b4;" x="129.725688" xlink:href="#mc3ec3edd1e" y="34.079708"/>
     <use style="fill:#1f77b4;stroke:#1f77b4;" x="124.540888" xlink:href="#mc3ec3edd1e" y="29.467425"/>
     <use style="fill:#1f77b4;stroke:#1f77b4;" x="120.793381" xlink:href="#mc3ec3edd1e" y="26.891983"/>
     <use style="fill:#1f77b4;stroke:#1f77b4;" x="117.984216" xlink:href="#mc3ec3edd1e" y="24.102676"/>
     <use style="fill:#1f77b4;stroke:#1f77b4;" x="114.10326" xlink:href="#mc3ec3edd1e" y="20.437072"/>
     <use style="fill:#1f77b4;stroke:#1f77b4;" x="109.858684" xlink:href="#mc3ec3edd1e" y="17.589208"/>
    </g>
   </g>
   <g id="line2d_2">
    <g clip-path="url(#p301fb45da2)">
     <use style="fill:#1f77b4;stroke:#1f77b4;" x="413.802566" xlink:href="#mc3ec3edd1e" y="266.648866"/>
     <use style="fill:#1f77b4;stroke:#1f77b4;" x="300.004236" xlink:href="#mc3ec3edd1e" y="174.875746"/>
     <use style="fill:#1f77b4;stroke:#1f77b4;" x="206.506132" xlink:href="#mc3ec3edd1e" y="98.093832"/>
     <use style="fill:#1f77b4;stroke:#1f77b4;" x="168.484095" xlink:href="#mc3ec3edd1e" y="66.790161"/>
     <use style="fill:#1f77b4;stroke:#1f77b4;" x="148.860259" xlink:href="#mc3ec3edd1e" y="49.829498"/>
     <use style="fill:#1f77b4;stroke:#1f77b4;" x="137.244723" xlink:href="#mc3ec3edd1e" y="40.189978"/>
     <use style="fill:#1f77b4;stroke:#1f77b4;" x="129.725688" xlink:href="#mc3ec3edd1e" y="33.640234"/>
     <use style="fill:#1f77b4;stroke:#1f77b4;" x="124.540888" xlink:href="#mc3ec3edd1e" y="28.958427"/>
     <use style="fill:#1f77b4;stroke:#1f77b4;" x="120.793381" xlink:href="#mc3ec3edd1e" y="26.104534"/>
     <use style="fill:#1f77b4;stroke:#1f77b4;" x="117.984216" xlink:href="#mc3ec3edd1e" y="23.485165"/>
     <use style="fill:#1f77b4;stroke:#1f77b4;" x="114.10326" xlink:href="#mc3ec3edd1e" y="20.138907"/>
     <use style="fill:#1f77b4;stroke:#1f77b4;" x="109.858684" xlink:href="#mc3ec3edd1e" y="16.976779"/>
    </g>
   </g>
   <g id="line2d_3">
    <defs>
     <path d="M 0 4.5 
C 1.193414 4.5 2.338109 4.025852 3.181981 3.181981 
C 4.025852 2.338109 4.5 1.193414 4.5 0 
C 4.5 -1.193414 4.025852 -2.338109 3.181981 -3.181981 
C 2.338109 -4.025852 1.193414 -4.5 0 -4.5 
C -1.193414 -4.5 -2.338109 -4.025852 -3.181981 -3.181981 
C -4.025852 -2.338109 -4.5 -1.193414 -4.5 0 
C -4.5 1.193414 -4.025852 2.338109 -3.181981 3.181981 
C -2.338109 4.025852 -1.193414 4.5 0 4.5 
z
" id="mb44b7c49cf" style="stroke:#1f77b4;"/>
    </defs>
    <g clip-path="url(#p301fb45da2)">
     <use style="fill:#1f77b4;stroke:#1f77b4;" x="413.802566" xlink:href="#mb44b7c49cf" y="267.271814"/>
     <use style="fill:#1f77b4;stroke:#1f77b4;" x="300.004236" xlink:href="#mb44b7c49cf" y="175.440814"/>
     <use style="fill:#1f77b4;stroke:#1f77b4;" x="206.506132" xlink:href="#mb44b7c49cf" y="98.513796"/>
     <use style="fill:#1f77b4;stroke:#1f77b4;" x="168.484095" xlink:href="#mb44b7c49cf" y="67.111636"/>
     <use style="fill:#1f77b4;stroke:#1f77b4;" x="148.860259" xlink:href="#mb44b7c49cf" y="50.162849"/>
     <use style="fill:#1f77b4;stroke:#1f77b4;" x="137.244723" xlink:href="#mb44b7c49cf" y="40.489652"/>
     <use style="fill:#1f77b4;stroke:#1f77b4;" x="129.725688" xlink:href="#mb44b7c49cf" y="33.859971"/>
     <use style="fill:#1f77b4;stroke:#1f77b4;" x="124.540888" xlink:href="#mb44b7c49cf" y="29.212926"/>
     <use style="fill:#1f77b4;stroke:#1f77b4;" x="120.793381" xlink:href="#mb44b7c49cf" y="26.498258"/>
     <use style="fill:#1f77b4;stroke:#1f77b4;" x="117.984216" xlink:href="#mb44b7c49cf" y="23.793921"/>
     <use style="fill:#1f77b4;stroke:#1f77b4;" x="114.10326" xlink:href="#mb44b7c49cf" y="20.287989"/>
     <use style="fill:#1f77b4;stroke:#1f77b4;" x="109.858684" xlink:href="#mb44b7c49cf" y="17.282993"/>
    </g>
   </g>
   <g id="matplotlib.axis_1">
    <g id="xtick_1">
     <g id="line2d_4">
      <defs>
       <path d="M 0 0 
L 0 8 
" id="m5a4cf8d5d9" style="stroke:#000000;stroke-width:3;"/>
      </defs>
      <g>
       <use style="stroke:#000000;stroke-width:3;" x="102.49164" xlink:href="#m5a4cf8d5d9" y="294.01476"/>
      </g>
     </g>
     <g id="text_1">
      <!-- 0.000 -->
      <g transform="translate(79.58914 317.67226)scale(0.16 -0.16)">
       <defs>
        <path d="M 2034 4250 
Q 1547 4250 1301 3770 
Q 1056 3291 1056 2328 
Q 1056 1369 1301 889 
Q 1547 409 2034 409 
Q 2525 409 2770 889 
Q 3016 1369 3016 2328 
Q 3016 3291 2770 3770 
Q 2525 4250 2034 4250 
z
M 2034 4750 
Q 2819 4750 3233 4129 
Q 3647 3509 3647 2328 
Q 3647 1150 3233 529 
Q 2819 -91 2034 -91 
Q 1250 -91 836 529 
Q 422 1150 422 2328 
Q 422 3509 836 4129 
Q 1250 4750 2034 4750 
z
" id="DejaVuSans-30" transform="scale(0.015625)"/>
        <path d="M 684 794 
L 1344 794 
L 1344 0 
L 684 0 
L 684 794 
z
" id="DejaVuSans-2e" transform="scale(0.015625)"/>
       </defs>
       <use xlink:href="#DejaVuSans-30"/>
       <use x="63.623047" xlink:href="#DejaVuSans-2e"/>
       <use x="95.410156" xlink:href="#DejaVuSans-30"/>
       <use x="159.033203" xlink:href="#DejaVuSans-30"/>
       <use x="222.65625" xlink:href="#DejaVuSans-30"/>
      </g>
     </g>
    </g>
    <g id="xtick_2">
     <g id="line2d_5">
      <g>
       <use style="stroke:#000000;stroke-width:3;" x="197.361301" xlink:href="#m5a4cf8d5d9" y="294.01476"/>
      </g>
     </g>
     <g id="text_2">
      <!-- 0.002 -->
      <g transform="translate(174.458801 317.67226)scale(0.16 -0.16)">
       <defs>
        <path d="M 1228 531 
L 3431 531 
L 3431 0 
L 469 0 
L 469 531 
Q 828 903 1448 1529 
Q 2069 2156 2228 2338 
Q 2531 2678 2651 2914 
Q 2772 3150 2772 3378 
Q 2772 3750 2511 3984 
Q 2250 4219 1831 4219 
Q 1534 4219 1204 4116 
Q 875 4013 500 3803 
L 500 4441 
Q 881 4594 1212 4672 
Q 1544 4750 1819 4750 
Q 2544 4750 2975 4387 
Q 3406 4025 3406 3419 
Q 3406 3131 3298 2873 
Q 3191 2616 2906 2266 
Q 2828 2175 2409 1742 
Q 1991 1309 1228 531 
z
" id="DejaVuSans-32" transform="scale(0.015625)"/>
       </defs>
       <use xlink:href="#DejaVuSans-30"/>
       <use x="63.623047" xlink:href="#DejaVuSans-2e"/>
       <use x="95.410156" xlink:href="#DejaVuSans-30"/>
       <use x="159.033203" xlink:href="#DejaVuSans-30"/>
       <use x="222.65625" xlink:href="#DejaVuSans-32"/>
      </g>
     </g>
    </g>
    <g id="xtick_3">
     <g id="line2d_6">
      <g>
       <use style="stroke:#000000;stroke-width:3;" x="292.230962" xlink:href="#m5a4cf8d5d9" y="294.01476"/>
      </g>
     </g>
     <g id="text_3">
      <!-- 0.004 -->
      <g transform="translate(269.328462 317.67226)scale(0.16 -0.16)">
       <defs>
        <path d="M 2419 4116 
L 825 1625 
L 2419 1625 
L 2419 4116 
z
M 2253 4666 
L 3047 4666 
L 3047 1625 
L 3713 1625 
L 3713 1100 
L 3047 1100 
L 3047 0 
L 2419 0 
L 2419 1100 
L 313 1100 
L 313 1709 
L 2253 4666 
z
" id="DejaVuSans-34" transform="scale(0.015625)"/>
       </defs>
       <use xlink:href="#DejaVuSans-30"/>
       <use x="63.623047" xlink:href="#DejaVuSans-2e"/>
       <use x="95.410156" xlink:href="#DejaVuSans-30"/>
       <use x="159.033203" xlink:href="#DejaVuSans-30"/>
       <use x="222.65625" xlink:href="#DejaVuSans-34"/>
      </g>
     </g>
    </g>
    <g id="xtick_4">
     <g id="line2d_7">
      <g>
       <use style="stroke:#000000;stroke-width:3;" x="387.100623" xlink:href="#m5a4cf8d5d9" y="294.01476"/>
      </g>
     </g>
     <g id="text_4">
      <!-- 0.006 -->
      <g transform="translate(364.198123 317.67226)scale(0.16 -0.16)">
       <defs>
        <path d="M 2113 2584 
Q 1688 2584 1439 2293 
Q 1191 2003 1191 1497 
Q 1191 994 1439 701 
Q 1688 409 2113 409 
Q 2538 409 2786 701 
Q 3034 994 3034 1497 
Q 3034 2003 2786 2293 
Q 2538 2584 2113 2584 
z
M 3366 4563 
L 3366 3988 
Q 3128 4100 2886 4159 
Q 2644 4219 2406 4219 
Q 1781 4219 1451 3797 
Q 1122 3375 1075 2522 
Q 1259 2794 1537 2939 
Q 1816 3084 2150 3084 
Q 2853 3084 3261 2657 
Q 3669 2231 3669 1497 
Q 3669 778 3244 343 
Q 2819 -91 2113 -91 
Q 1303 -91 875 529 
Q 447 1150 447 2328 
Q 447 3434 972 4092 
Q 1497 4750 2381 4750 
Q 2619 4750 2861 4703 
Q 3103 4656 3366 4563 
z
" id="DejaVuSans-36" transform="scale(0.015625)"/>
       </defs>
       <use xlink:href="#DejaVuSans-30"/>
       <use x="63.623047" xlink:href="#DejaVuSans-2e"/>
       <use x="95.410156" xlink:href="#DejaVuSans-30"/>
       <use x="159.033203" xlink:href="#DejaVuSans-30"/>
       <use x="222.65625" xlink:href="#DejaVuSans-36"/>
      </g>
     </g>
    </g>
    <g id="text_5">
     <!-- $L^{-\frac{1}{\nu}}$ -->
     <g transform="translate(245.330625 352.840385)scale(0.2 -0.2)">
      <defs>
       <path d="M 1075 4666 
L 1709 4666 
L 909 525 
L 3181 525 
L 3078 0 
L 172 0 
L 1075 4666 
z
" id="DejaVuSans-Oblique-4c" transform="scale(0.015625)"/>
       <path d="M 678 2272 
L 4684 2272 
L 4684 1741 
L 678 1741 
L 678 2272 
z
" id="DejaVuSans-2212" transform="scale(0.015625)"/>
       <path d="M 794 531 
L 1825 531 
L 1825 4091 
L 703 3866 
L 703 4441 
L 1819 4666 
L 2450 4666 
L 2450 531 
L 3481 531 
L 3481 0 
L 794 0 
L 794 531 
z
" id="DejaVuSans-31" transform="scale(0.015625)"/>
       <path d="M 959 0 
L 572 3500 
L 1191 3500 
L 1522 563 
Q 1972 950 2391 1488 
Q 2706 1891 2788 2241 
Q 2825 2406 2809 2719 
Q 2794 3091 2544 3500 
L 3125 3500 
L 3125 3500 
Q 3288 3222 3353 2834 
Q 3416 2478 3369 2234 
Q 3250 1622 2719 1075 
Q 2025 363 1572 0 
L 959 0 
z
" id="DejaVuSans-Oblique-3bd" transform="scale(0.015625)"/>
      </defs>
      <use transform="translate(0 0.336875)" xlink:href="#DejaVuSans-Oblique-4c"/>
      <use transform="translate(62.729661 38.618125)scale(0.7)" xlink:href="#DejaVuSans-2212"/>
      <use transform="translate(121.382005 69.275938)scale(0.49)" xlink:href="#DejaVuSans-31"/>
      <use transform="translate(123.382005 20.604063)scale(0.49)" xlink:href="#DejaVuSans-Oblique-3bd"/>
      <path d="M 121.382005 51.775938 
L 121.382005 56.150938 
L 152.557298 56.150938 
L 152.557298 51.775938 
L 121.382005 51.775938 
z
"/>
     </g>
    </g>
   </g>
   <g id="matplotlib.axis_2">
    <g id="ytick_1">
     <g id="line2d_8">
      <defs>
       <path d="M 0 0 
L -8 0 
" id="md5cb305507" style="stroke:#000000;stroke-width:3;"/>
      </defs>
      <g>
       <use style="stroke:#000000;stroke-width:3;" x="94.66149" xlink:href="#md5cb305507" y="274.479239"/>
      </g>
     </g>
     <g id="text_6">
      <!-- 4.490 -->
      <g transform="translate(37.35649 280.557989)scale(0.16 -0.16)">
       <defs>
        <path d="M 703 97 
L 703 672 
Q 941 559 1184 500 
Q 1428 441 1663 441 
Q 2288 441 2617 861 
Q 2947 1281 2994 2138 
Q 2813 1869 2534 1725 
Q 2256 1581 1919 1581 
Q 1219 1581 811 2004 
Q 403 2428 403 3163 
Q 403 3881 828 4315 
Q 1253 4750 1959 4750 
Q 2769 4750 3195 4129 
Q 3622 3509 3622 2328 
Q 3622 1225 3098 567 
Q 2575 -91 1691 -91 
Q 1453 -91 1209 -44 
Q 966 3 703 97 
z
M 1959 2075 
Q 2384 2075 2632 2365 
Q 2881 2656 2881 3163 
Q 2881 3666 2632 3958 
Q 2384 4250 1959 4250 
Q 1534 4250 1286 3958 
Q 1038 3666 1038 3163 
Q 1038 2656 1286 2365 
Q 1534 2075 1959 2075 
z
" id="DejaVuSans-39" transform="scale(0.015625)"/>
       </defs>
       <use xlink:href="#DejaVuSans-34"/>
       <use x="63.623047" xlink:href="#DejaVuSans-2e"/>
       <use x="95.410156" xlink:href="#DejaVuSans-34"/>
       <use x="159.033203" xlink:href="#DejaVuSans-39"/>
       <use x="222.65625" xlink:href="#DejaVuSans-30"/>
      </g>
     </g>
    </g>
    <g id="ytick_2">
     <g id="line2d_9">
      <g>
       <use style="stroke:#000000;stroke-width:3;" x="94.66149" xlink:href="#md5cb305507" y="213.139126"/>
      </g>
     </g>
     <g id="text_7">
      <!-- 4.495 -->
      <g transform="translate(37.35649 219.217876)scale(0.16 -0.16)">
       <defs>
        <path d="M 691 4666 
L 3169 4666 
L 3169 4134 
L 1269 4134 
L 1269 2991 
Q 1406 3038 1543 3061 
Q 1681 3084 1819 3084 
Q 2600 3084 3056 2656 
Q 3513 2228 3513 1497 
Q 3513 744 3044 326 
Q 2575 -91 1722 -91 
Q 1428 -91 1123 -41 
Q 819 9 494 109 
L 494 744 
Q 775 591 1075 516 
Q 1375 441 1709 441 
Q 2250 441 2565 725 
Q 2881 1009 2881 1497 
Q 2881 1984 2565 2268 
Q 2250 2553 1709 2553 
Q 1456 2553 1204 2497 
Q 953 2441 691 2322 
L 691 4666 
z
" id="DejaVuSans-35" transform="scale(0.015625)"/>
       </defs>
       <use xlink:href="#DejaVuSans-34"/>
       <use x="63.623047" xlink:href="#DejaVuSans-2e"/>
       <use x="95.410156" xlink:href="#DejaVuSans-34"/>
       <use x="159.033203" xlink:href="#DejaVuSans-39"/>
       <use x="222.65625" xlink:href="#DejaVuSans-35"/>
      </g>
     </g>
    </g>
    <g id="ytick_3">
     <g id="line2d_10">
      <g>
       <use style="stroke:#000000;stroke-width:3;" x="94.66149" xlink:href="#md5cb305507" y="151.799013"/>
      </g>
     </g>
     <g id="text_8">
      <!-- 4.500 -->
      <g transform="translate(37.35649 157.877763)scale(0.16 -0.16)">
       <use xlink:href="#DejaVuSans-34"/>
       <use x="63.623047" xlink:href="#DejaVuSans-2e"/>
       <use x="95.410156" xlink:href="#DejaVuSans-35"/>
       <use x="159.033203" xlink:href="#DejaVuSans-30"/>
       <use x="222.65625" xlink:href="#DejaVuSans-30"/>
      </g>
     </g>
    </g>
    <g id="ytick_4">
     <g id="line2d_11">
      <g>
       <use style="stroke:#000000;stroke-width:3;" x="94.66149" xlink:href="#md5cb305507" y="90.458899"/>
      </g>
     </g>
     <g id="text_9">
      <!-- 4.505 -->
      <g transform="translate(37.35649 96.537649)scale(0.16 -0.16)">
       <use xlink:href="#DejaVuSans-34"/>
       <use x="63.623047" xlink:href="#DejaVuSans-2e"/>
       <use x="95.410156" xlink:href="#DejaVuSans-35"/>
       <use x="159.033203" xlink:href="#DejaVuSans-30"/>
       <use x="222.65625" xlink:href="#DejaVuSans-35"/>
      </g>
     </g>
    </g>
    <g id="ytick_5">
     <g id="line2d_12">
      <g>
       <use style="stroke:#000000;stroke-width:3;" x="94.66149" xlink:href="#md5cb305507" y="29.118786"/>
      </g>
     </g>
     <g id="text_10">
      <!-- 4.510 -->
      <g transform="translate(37.35649 35.197536)scale(0.16 -0.16)">
       <use xlink:href="#DejaVuSans-34"/>
       <use x="63.623047" xlink:href="#DejaVuSans-2e"/>
       <use x="95.410156" xlink:href="#DejaVuSans-35"/>
       <use x="159.033203" xlink:href="#DejaVuSans-31"/>
       <use x="222.65625" xlink:href="#DejaVuSans-30"/>
      </g>
     </g>
    </g>
    <g id="text_11">
     <!-- $T_c$ -->
     <g transform="translate(18.197115 158.8075)rotate(-90)scale(0.2 -0.2)">
      <defs>
       <path d="M 378 4666 
L 4325 4666 
L 4225 4134 
L 2559 4134 
L 1759 0 
L 1125 0 
L 1925 4134 
L 275 4134 
L 378 4666 
z
" id="DejaVuSans-Oblique-54" transform="scale(0.015625)"/>
       <path d="M 3431 3366 
L 3316 2797 
Q 3109 2947 2876 3022 
Q 2644 3097 2394 3097 
Q 2119 3097 1870 3000 
Q 1622 2903 1453 2725 
Q 1184 2453 1037 2087 
Q 891 1722 891 1331 
Q 891 859 1127 628 
Q 1363 397 1844 397 
Q 2081 397 2348 469 
Q 2616 541 2906 684 
L 2797 116 
Q 2547 13 2283 -39 
Q 2019 -91 1741 -91 
Q 1044 -91 669 257 
Q 294 606 294 1253 
Q 294 1797 489 2255 
Q 684 2713 1069 3078 
Q 1331 3328 1684 3456 
Q 2038 3584 2456 3584 
Q 2700 3584 2940 3529 
Q 3181 3475 3431 3366 
z
" id="DejaVuSans-Oblique-63" transform="scale(0.015625)"/>
      </defs>
      <use transform="translate(0 0.09375)" xlink:href="#DejaVuSans-Oblique-54"/>
      <use transform="translate(61.083984 -16.3125)scale(0.7)" xlink:href="#DejaVuSans-Oblique-63"/>
     </g>
    </g>
   </g>
   <g id="line2d_13">
    <path clip-path="url(#p301fb45da2)" d="M 413.802566 280.786827 
L 300.004236 181.658612 
L 206.506132 100.27303 
L 168.484095 67.196226 
L 148.860259 50.130342 
L 137.244723 40.031044 
L 129.725688 33.494497 
L 124.540888 28.987687 
L 120.793381 25.73051 
L 117.984216 23.289075 
L 114.10326 19.916417 
L 109.858684 16.228173 
" style="fill:none;stroke:#ff0000;stroke-linecap:square;stroke-width:2;"/>
   </g>
   <g id="patch_3">
    <path d="M 94.66149 294.01476 
L 94.66149 3.00024 
" style="fill:none;stroke:#000000;stroke-linecap:square;stroke-linejoin:miter;stroke-width:3;"/>
   </g>
   <g id="patch_4">
    <path d="M 428.99976 294.01476 
L 428.99976 3.00024 
" style="fill:none;stroke:#000000;stroke-linecap:square;stroke-linejoin:miter;stroke-width:3;"/>
   </g>
   <g id="patch_5">
    <path d="M 94.66149 294.01476 
L 428.99976 294.01476 
" style="fill:none;stroke:#000000;stroke-linecap:square;stroke-linejoin:miter;stroke-width:3;"/>
   </g>
   <g id="patch_6">
    <path d="M 94.66149 3.00024 
L 428.99976 3.00024 
" style="fill:none;stroke:#000000;stroke-linecap:square;stroke-linejoin:miter;stroke-width:3;"/>
   </g>
   <g id="legend_1">
    <g id="patch_7">
     <path d="M 343.420385 34.749615 
L 419.19976 34.749615 
Q 421.99976 34.749615 421.99976 31.949615 
L 421.99976 12.80024 
Q 421.99976 10.00024 419.19976 10.00024 
L 343.420385 10.00024 
Q 340.620385 10.00024 340.620385 12.80024 
L 340.620385 31.949615 
Q 340.620385 34.749615 343.420385 34.749615 
z
" style="fill:#ffffff;opacity:0.8;stroke:#cccccc;stroke-linejoin:miter;"/>
    </g>
    <g id="LineCollection_2">
     <path d="M 360.220385 28.338052 
L 360.220385 14.338052 
" style="fill:none;stroke:#1f77b4;stroke-width:2;"/>
    </g>
    <g id="line2d_14">
     <g>
      <use style="fill:#1f77b4;stroke:#1f77b4;" x="360.220385" xlink:href="#mc3ec3edd1e" y="28.338052"/>
     </g>
    </g>
    <g id="line2d_15">
     <g>
      <use style="fill:#1f77b4;stroke:#1f77b4;" x="360.220385" xlink:href="#mc3ec3edd1e" y="14.338052"/>
     </g>
    </g>
    <g id="line2d_16"/>
    <g id="line2d_17">
     <g>
      <use style="fill:#1f77b4;stroke:#1f77b4;" x="360.220385" xlink:href="#mb44b7c49cf" y="21.338052"/>
     </g>
    </g>
    <g id="text_12">
     <!-- MGF -->
     <g transform="translate(385.420385 26.238052)scale(0.14 -0.14)">
      <defs>
       <path d="M 628 4666 
L 1569 4666 
L 2759 1491 
L 3956 4666 
L 4897 4666 
L 4897 0 
L 4281 0 
L 4281 4097 
L 3078 897 
L 2444 897 
L 1241 4097 
L 1241 0 
L 628 0 
L 628 4666 
z
" id="DejaVuSans-4d" transform="scale(0.015625)"/>
       <path d="M 3809 666 
L 3809 1919 
L 2778 1919 
L 2778 2438 
L 4434 2438 
L 4434 434 
Q 4069 175 3628 42 
Q 3188 -91 2688 -91 
Q 1594 -91 976 548 
Q 359 1188 359 2328 
Q 359 3472 976 4111 
Q 1594 4750 2688 4750 
Q 3144 4750 3555 4637 
Q 3966 4525 4313 4306 
L 4313 3634 
Q 3963 3931 3569 4081 
Q 3175 4231 2741 4231 
Q 1884 4231 1454 3753 
Q 1025 3275 1025 2328 
Q 1025 1384 1454 906 
Q 1884 428 2741 428 
Q 3075 428 3337 486 
Q 3600 544 3809 666 
z
" id="DejaVuSans-47" transform="scale(0.015625)"/>
       <path d="M 628 4666 
L 3309 4666 
L 3309 4134 
L 1259 4134 
L 1259 2759 
L 3109 2759 
L 3109 2228 
L 1259 2228 
L 1259 0 
L 628 0 
L 628 4666 
z
" id="DejaVuSans-46" transform="scale(0.015625)"/>
      </defs>
      <use xlink:href="#DejaVuSans-4d"/>
      <use x="86.279297" xlink:href="#DejaVuSans-47"/>
      <use x="163.769531" xlink:href="#DejaVuSans-46"/>
     </g>
    </g>
   </g>
  </g>
 </g>
 <defs>
  <clipPath id="p301fb45da2">
   <rect height="291.01452" width="334.33827" x="94.66149" y="3.00024"/>
  </clipPath>
 </defs>
</svg>
