<?xml version="1.0" encoding="utf-8" standalone="no"?>
<!DOCTYPE svg PUBLIC "-//W3C//DTD SVG 1.1//EN"
  "http://www.w3.org/Graphics/SVG/1.1/DTD/svg11.dtd">
<!-- Created with matplotlib (https://matplotlib.org/) -->
<svg height="360pt" version="1.1" viewBox="0 0 432 360" width="432pt" xmlns="http://www.w3.org/2000/svg" xmlns:xlink="http://www.w3.org/1999/xlink">
 <defs>
  <style type="text/css">
*{stroke-linecap:butt;stroke-linejoin:round;}
  </style>
 </defs>
 <g id="figure_1">
  <g id="patch_1">
   <path d="M 0 360 
L 432 360 
L 432 0 
L 0 0 
z
" style="fill:#ffffff;"/>
  </g>
  <g id="axes_1">
   <g id="patch_2">
    <path d="M 84.48149 295.65851 
L 411.18726 295.65851 
L 411.18726 9.07899 
L 84.48149 9.07899 
z
" style="fill:#ffffff;"/>
   </g>
   <g id="PathCollection_1">
    <defs>
     <path d="M 0 4.5 
C 1.193414 4.5 2.338109 4.025852 3.181981 3.181981 
C 4.025852 2.338109 4.5 1.193414 4.5 0 
C 4.5 -1.193414 4.025852 -2.338109 3.181981 -3.181981 
C 2.338109 -4.025852 1.193414 -4.5 0 -4.5 
C -1.193414 -4.5 -2.338109 -4.025852 -3.181981 -3.181981 
C -4.025852 -2.338109 -4.5 -1.193414 -4.5 0 
C -4.5 1.193414 -4.025852 2.338109 -3.181981 3.181981 
C -2.338109 4.025852 -1.193414 4.5 0 4.5 
z
" id="mb9f1c1025c" style="stroke:#1f77b4;"/>
    </defs>
    <g clip-path="url(#p0d204af176)">
     <use style="fill:#1f77b4;stroke:#1f77b4;" x="4.956174" xlink:href="#mb9f1c1025c" y="-1"/>
     <use style="fill:#1f77b4;stroke:#1f77b4;" x="4.956174" xlink:href="#mb9f1c1025c" y="3303.042777"/>
     <use style="fill:#1f77b4;stroke:#1f77b4;" x="13.809938" xlink:href="#mb9f1c1025c" y="3252.047283"/>
     <use style="fill:#1f77b4;stroke:#1f77b4;" x="13.809938" xlink:href="#mb9f1c1025c" y="-1"/>
     <use style="fill:#1f77b4;stroke:#1f77b4;" x="22.511748" xlink:href="#mb9f1c1025c" y="-1"/>
     <use style="fill:#1f77b4;stroke:#1f77b4;" x="22.511748" xlink:href="#mb9f1c1025c" y="3200.731293"/>
     <use style="fill:#1f77b4;stroke:#1f77b4;" x="31.060661" xlink:href="#mb9f1c1025c" y="3149.100408"/>
     <use style="fill:#1f77b4;stroke:#1f77b4;" x="31.060661" xlink:href="#mb9f1c1025c" y="-1"/>
     <use style="fill:#1f77b4;stroke:#1f77b4;" x="34.856351" xlink:href="#mb9f1c1025c" y="-1"/>
     <use style="fill:#1f77b4;stroke:#1f77b4;" x="39.455747" xlink:href="#mb9f1c1025c" y="3097.160261"/>
     <use style="fill:#1f77b4;stroke:#1f77b4;" x="39.455747" xlink:href="#mb9f1c1025c" y="-1"/>
     <use style="fill:#1f77b4;stroke:#1f77b4;" x="47.696096" xlink:href="#mb9f1c1025c" y="-1"/>
     <use style="fill:#1f77b4;stroke:#1f77b4;" x="47.696096" xlink:href="#mb9f1c1025c" y="3044.916523"/>
     <use style="fill:#1f77b4;stroke:#1f77b4;" x="55.780813" xlink:href="#mb9f1c1025c" y="2992.374901"/>
     <use style="fill:#1f77b4;stroke:#1f77b4;" x="55.780813" xlink:href="#mb9f1c1025c" y="-1"/>
     <use style="fill:#1f77b4;stroke:#1f77b4;" x="59.343739" xlink:href="#mb9f1c1025c" y="-1"/>
     <use style="fill:#1f77b4;stroke:#1f77b4;" x="63.70902" xlink:href="#mb9f1c1025c" y="2939.541136"/>
     <use style="fill:#1f77b4;stroke:#1f77b4;" x="63.70902" xlink:href="#mb9f1c1025c" y="-1"/>
     <use style="fill:#1f77b4;stroke:#1f77b4;" x="71.479857" xlink:href="#mb9f1c1025c" y="-1"/>
     <use style="fill:#1f77b4;stroke:#1f77b4;" x="71.479857" xlink:href="#mb9f1c1025c" y="2886.421005"/>
     <use style="fill:#1f77b4;stroke:#1f77b4;" x="79.092479" xlink:href="#mb9f1c1025c" y="2833.020319"/>
     <use style="fill:#1f77b4;stroke:#1f77b4;" x="79.092479" xlink:href="#mb9f1c1025c" y="-1"/>
     <use style="fill:#1f77b4;stroke:#1f77b4;" x="82.418729" xlink:href="#mb9f1c1025c" y="-1"/>
     <use style="fill:#1f77b4;stroke:#1f77b4;" x="86.54606" xlink:href="#mb9f1c1025c" y="2779.344923"/>
     <use style="fill:#1f77b4;stroke:#1f77b4;" x="86.54606" xlink:href="#mb9f1c1025c" y="-1"/>
     <use style="fill:#1f77b4;stroke:#1f77b4;" x="89.79259" xlink:href="#mb9f1c1025c" y="-1"/>
     <use style="fill:#1f77b4;stroke:#1f77b4;" x="93.839791" xlink:href="#mb9f1c1025c" y="2725.400697"/>
     <use style="fill:#1f77b4;stroke:#1f77b4;" x="93.839791" xlink:href="#mb9f1c1025c" y="-1"/>
     <use style="fill:#1f77b4;stroke:#1f77b4;" x="100.97288" xlink:href="#mb9f1c1025c" y="-1"/>
     <use style="fill:#1f77b4;stroke:#1f77b4;" x="100.97288" xlink:href="#mb9f1c1025c" y="2671.193555"/>
     <use style="fill:#1f77b4;stroke:#1f77b4;" x="104.939501" xlink:href="#mb9f1c1025c" y="-1"/>
     <use style="fill:#1f77b4;stroke:#1f77b4;" x="107.944552" xlink:href="#mb9f1c1025c" y="-1"/>
     <use style="fill:#1f77b4;stroke:#1f77b4;" x="107.944552" xlink:href="#mb9f1c1025c" y="2616.729446"/>
     <use style="fill:#1f77b4;stroke:#1f77b4;" x="114.754051" xlink:href="#mb9f1c1025c" y="2562.014352"/>
     <use style="fill:#1f77b4;stroke:#1f77b4;" x="114.754051" xlink:href="#mb9f1c1025c" y="-1"/>
     <use style="fill:#1f77b4;stroke:#1f77b4;" x="121.400637" xlink:href="#mb9f1c1025c" y="-1"/>
     <use style="fill:#1f77b4;stroke:#1f77b4;" x="121.400637" xlink:href="#mb9f1c1025c" y="2507.054289"/>
     <use style="fill:#1f77b4;stroke:#1f77b4;" x="125.123419" xlink:href="#mb9f1c1025c" y="-1"/>
     <use style="fill:#1f77b4;stroke:#1f77b4;" x="127.883588" xlink:href="#mb9f1c1025c" y="-1"/>
     <use style="fill:#1f77b4;stroke:#1f77b4;" x="127.883588" xlink:href="#mb9f1c1025c" y="2451.855311"/>
     <use style="fill:#1f77b4;stroke:#1f77b4;" x="134.202202" xlink:href="#mb9f1c1025c" y="2396.423502"/>
     <use style="fill:#1f77b4;stroke:#1f77b4;" x="134.202202" xlink:href="#mb9f1c1025c" y="-1"/>
     <use style="fill:#1f77b4;stroke:#1f77b4;" x="140.355791" xlink:href="#mb9f1c1025c" y="-1"/>
     <use style="fill:#1f77b4;stroke:#1f77b4;" x="140.355791" xlink:href="#mb9f1c1025c" y="2340.764986"/>
     <use style="fill:#1f77b4;stroke:#1f77b4;" x="146.343687" xlink:href="#mb9f1c1025c" y="2284.885922"/>
     <use style="fill:#1f77b4;stroke:#1f77b4;" x="146.343687" xlink:href="#mb9f1c1025c" y="-1"/>
     <use style="fill:#1f77b4;stroke:#1f77b4;" x="152.165241" xlink:href="#mb9f1c1025c" y="-1"/>
     <use style="fill:#1f77b4;stroke:#1f77b4;" x="152.165241" xlink:href="#mb9f1c1025c" y="2228.792508"/>
     <use style="fill:#1f77b4;stroke:#1f77b4;" x="155.474598" xlink:href="#mb9f1c1025c" y="-1"/>
     <use style="fill:#1f77b4;stroke:#1f77b4;" x="157.81982" xlink:href="#mb9f1c1025c" y="-1"/>
     <use style="fill:#1f77b4;stroke:#1f77b4;" x="157.81982" xlink:href="#mb9f1c1025c" y="2172.49098"/>
     <use style="fill:#1f77b4;stroke:#1f77b4;" x="161.045518" xlink:href="#mb9f1c1025c" y="-1"/>
     <use style="fill:#1f77b4;stroke:#1f77b4;" x="163.306811" xlink:href="#mb9f1c1025c" y="-1"/>
     <use style="fill:#1f77b4;stroke:#1f77b4;" x="163.306811" xlink:href="#mb9f1c1025c" y="2115.987615"/>
     <use style="fill:#1f77b4;stroke:#1f77b4;" x="168.625617" xlink:href="#mb9f1c1025c" y="2059.288736"/>
     <use style="fill:#1f77b4;stroke:#1f77b4;" x="168.625617" xlink:href="#mb9f1c1025c" y="-1"/>
     <use style="fill:#1f77b4;stroke:#1f77b4;" x="173.775662" xlink:href="#mb9f1c1025c" y="-1"/>
     <use style="fill:#1f77b4;stroke:#1f77b4;" x="173.775662" xlink:href="#mb9f1c1025c" y="2002.40071"/>
     <use style="fill:#1f77b4;stroke:#1f77b4;" x="176.748593" xlink:href="#mb9f1c1025c" y="-1"/>
     <use style="fill:#1f77b4;stroke:#1f77b4;" x="178.756386" xlink:href="#mb9f1c1025c" y="-1"/>
     <use style="fill:#1f77b4;stroke:#1f77b4;" x="178.756386" xlink:href="#mb9f1c1025c" y="1945.329957"/>
     <use style="fill:#1f77b4;stroke:#1f77b4;" x="183.567248" xlink:href="#mb9f1c1025c" y="1888.08295"/>
     <use style="fill:#1f77b4;stroke:#1f77b4;" x="183.567248" xlink:href="#mb9f1c1025c" y="-1"/>
     <use style="fill:#1f77b4;stroke:#1f77b4;" x="185.489903" xlink:href="#mb9f1c1025c" y="-1"/>
     <use style="fill:#1f77b4;stroke:#1f77b4;" x="188.207726" xlink:href="#mb9f1c1025c" y="1830.666226"/>
     <use style="fill:#1f77b4;stroke:#1f77b4;" x="188.207726" xlink:href="#mb9f1c1025c" y="-1"/>
     <use style="fill:#1f77b4;stroke:#1f77b4;" x="192.677316" xlink:href="#mb9f1c1025c" y="-1"/>
     <use style="fill:#1f77b4;stroke:#1f77b4;" x="192.677316" xlink:href="#mb9f1c1025c" y="1773.086389"/>
     <use style="fill:#1f77b4;stroke:#1f77b4;" x="196.975533" xlink:href="#mb9f1c1025c" y="1715.350123"/>
     <use style="fill:#1f77b4;stroke:#1f77b4;" x="196.975533" xlink:href="#mb9f1c1025c" y="-1"/>
     <use style="fill:#1f77b4;stroke:#1f77b4;" x="201.10191" xlink:href="#mb9f1c1025c" y="-1"/>
     <use style="fill:#1f77b4;stroke:#1f77b4;" x="201.10191" xlink:href="#mb9f1c1025c" y="1657.464205"/>
     <use style="fill:#1f77b4;stroke:#1f77b4;" x="203.562054" xlink:href="#mb9f1c1025c" y="-1"/>
     <use style="fill:#1f77b4;stroke:#1f77b4;" x="205.056" xlink:href="#mb9f1c1025c" y="-1"/>
     <use style="fill:#1f77b4;stroke:#1f77b4;" x="205.056" xlink:href="#mb9f1c1025c" y="1599.435518"/>
     <use style="fill:#1f77b4;stroke:#1f77b4;" x="208.837372" xlink:href="#mb9f1c1025c" y="1541.271074"/>
     <use style="fill:#1f77b4;stroke:#1f77b4;" x="208.837372" xlink:href="#mb9f1c1025c" y="-1"/>
     <use style="fill:#1f77b4;stroke:#1f77b4;" x="212.445617" xlink:href="#mb9f1c1025c" y="-1"/>
     <use style="fill:#1f77b4;stroke:#1f77b4;" x="212.445617" xlink:href="#mb9f1c1025c" y="1482.978042"/>
     <use style="fill:#1f77b4;stroke:#1f77b4;" x="215.880342" xlink:href="#mb9f1c1025c" y="1424.563782"/>
     <use style="fill:#1f77b4;stroke:#1f77b4;" x="215.880342" xlink:href="#mb9f1c1025c" y="-1"/>
     <use style="fill:#1f77b4;stroke:#1f77b4;" x="219.141176" xlink:href="#mb9f1c1025c" y="-1"/>
     <use style="fill:#1f77b4;stroke:#1f77b4;" x="219.141176" xlink:href="#mb9f1c1025c" y="1366.035897"/>
     <use style="fill:#1f77b4;stroke:#1f77b4;" x="221.167703" xlink:href="#mb9f1c1025c" y="-1"/>
     <use style="fill:#1f77b4;stroke:#1f77b4;" x="222.227763" xlink:href="#mb9f1c1025c" y="-1"/>
     <use style="fill:#1f77b4;stroke:#1f77b4;" x="222.227763" xlink:href="#mb9f1c1025c" y="1307.402296"/>
     <use style="fill:#1f77b4;stroke:#1f77b4;" x="224.166972" xlink:href="#mb9f1c1025c" y="-1"/>
     <use style="fill:#1f77b4;stroke:#1f77b4;" x="225.139768" xlink:href="#mb9f1c1025c" y="-1"/>
     <use style="fill:#1f77b4;stroke:#1f77b4;" x="225.139768" xlink:href="#mb9f1c1025c" y="1248.671286"/>
     <use style="fill:#1f77b4;stroke:#1f77b4;" x="226.991476" xlink:href="#mb9f1c1025c" y="-1"/>
     <use style="fill:#1f77b4;stroke:#1f77b4;" x="227.876877" xlink:href="#mb9f1c1025c" y="-1"/>
     <use style="fill:#1f77b4;stroke:#1f77b4;" x="227.876877" xlink:href="#mb9f1c1025c" y="1189.851699"/>
     <use style="fill:#1f77b4;stroke:#1f77b4;" x="229.640902" xlink:href="#mb9f1c1025c" y="-1"/>
     <use style="fill:#1f77b4;stroke:#1f77b4;" x="230.438792" xlink:href="#mb9f1c1025c" y="-1"/>
     <use style="fill:#1f77b4;stroke:#1f77b4;" x="230.438792" xlink:href="#mb9f1c1025c" y="1130.953073"/>
     <use style="fill:#1f77b4;stroke:#1f77b4;" x="232.825234" xlink:href="#mb9f1c1025c" y="1071.985918"/>
     <use style="fill:#1f77b4;stroke:#1f77b4;" x="232.825234" xlink:href="#mb9f1c1025c" y="-1"/>
     <use style="fill:#1f77b4;stroke:#1f77b4;" x="235.035946" xlink:href="#mb9f1c1025c" y="-1"/>
     <use style="fill:#1f77b4;stroke:#1f77b4;" x="235.035946" xlink:href="#mb9f1c1025c" y="1012.962115"/>
     <use style="fill:#1f77b4;stroke:#1f77b4;" x="236.53583" xlink:href="#mb9f1c1025c" y="-1"/>
     <use style="fill:#1f77b4;stroke:#1f77b4;" x="237.070688" xlink:href="#mb9f1c1025c" y="-1"/>
     <use style="fill:#1f77b4;stroke:#1f77b4;" x="237.070688" xlink:href="#mb9f1c1025c" y="953.895525"/>
     <use style="fill:#1f77b4;stroke:#1f77b4;" x="238.929242" xlink:href="#mb9f1c1025c" y="894.802967"/>
     <use style="fill:#1f77b4;stroke:#1f77b4;" x="238.929242" xlink:href="#mb9f1c1025c" y="-1"/>
     <use style="fill:#1f77b4;stroke:#1f77b4;" x="239.375903" xlink:href="#mb9f1c1025c" y="-1"/>
     <use style="fill:#1f77b4;stroke:#1f77b4;" x="240.611409" xlink:href="#mb9f1c1025c" y="835.705835"/>
     <use style="fill:#1f77b4;stroke:#1f77b4;" x="240.611409" xlink:href="#mb9f1c1025c" y="-1"/>
     <use style="fill:#1f77b4;stroke:#1f77b4;" x="242.117015" xlink:href="#mb9f1c1025c" y="-1"/>
     <use style="fill:#1f77b4;stroke:#1f77b4;" x="242.117015" xlink:href="#mb9f1c1025c" y="776.6329"/>
     <use style="fill:#1f77b4;stroke:#1f77b4;" x="243.261491" xlink:href="#mb9f1c1025c" y="-1"/>
     <use style="fill:#1f77b4;stroke:#1f77b4;" x="243.445913" xlink:href="#mb9f1c1025c" y="-1"/>
     <use style="fill:#1f77b4;stroke:#1f77b4;" x="243.445913" xlink:href="#mb9f1c1025c" y="717.625439"/>
     <use style="fill:#1f77b4;stroke:#1f77b4;" x="244.598008" xlink:href="#mb9f1c1025c" y="658.747249"/>
     <use style="fill:#1f77b4;stroke:#1f77b4;" x="244.598008" xlink:href="#mb9f1c1025c" y="-1"/>
     <use style="fill:#1f77b4;stroke:#1f77b4;" x="244.695068" xlink:href="#mb9f1c1025c" y="-1"/>
     <use style="fill:#1f77b4;stroke:#1f77b4;" x="245.573325" xlink:href="#mb9f1c1025c" y="600.10556"/>
     <use style="fill:#1f77b4;stroke:#1f77b4;" x="245.573325" xlink:href="#mb9f1c1025c" y="-1"/>
     <use style="fill:#1f77b4;stroke:#1f77b4;" x="245.584622" xlink:href="#mb9f1c1025c" y="-1"/>
     <use style="fill:#1f77b4;stroke:#1f77b4;" x="246.372106" xlink:href="#mb9f1c1025c" y="541.896357"/>
     <use style="fill:#1f77b4;stroke:#1f77b4;" x="246.372106" xlink:href="#mb9f1c1025c" y="49.420663"/>
     <use style="fill:#1f77b4;stroke:#1f77b4;" x="247.02049" xlink:href="#mb9f1c1025c" y="106.969994"/>
     <use style="fill:#1f77b4;stroke:#1f77b4;" x="247.02049" xlink:href="#mb9f1c1025c" y="484.347026"/>
     <use style="fill:#1f77b4;stroke:#1f77b4;" x="247.332347" xlink:href="#mb9f1c1025c" y="429.380792"/>
     <use style="fill:#1f77b4;stroke:#1f77b4;" x="247.332347" xlink:href="#mb9f1c1025c" y="161.936228"/>
     <use style="fill:#1f77b4;stroke:#1f77b4;" x="247.585009" xlink:href="#mb9f1c1025c" y="189.969027"/>
     <use style="fill:#1f77b4;stroke:#1f77b4;" x="247.585009" xlink:href="#mb9f1c1025c" y="401.347993"/>
    </g>
   </g>
   <g id="PathCollection_2">
    <defs>
     <path d="M 0 4.5 
C 1.193414 4.5 2.338109 4.025852 3.181981 3.181981 
C 4.025852 2.338109 4.5 1.193414 4.5 0 
C 4.5 -1.193414 4.025852 -2.338109 3.181981 -3.181981 
C 2.338109 -4.025852 1.193414 -4.5 0 -4.5 
C -1.193414 -4.5 -2.338109 -4.025852 -3.181981 -3.181981 
C -4.025852 -2.338109 -4.5 -1.193414 -4.5 0 
C -4.5 1.193414 -4.025852 2.338109 -3.181981 3.181981 
C -2.338109 4.025852 -1.193414 4.5 0 4.5 
z
" id="m4e8b46c1fe" style="stroke:#ff0000;"/>
    </defs>
    <g clip-path="url(#p0d204af176)">
     <use style="fill:#ff0000;stroke:#ff0000;" x="247.585009" xlink:href="#m4e8b46c1fe" y="189.969027"/>
    </g>
   </g>
   <g id="matplotlib.axis_1">
    <g id="xtick_1">
     <g id="line2d_1">
      <defs>
       <path d="M 0 0 
L 0 8 
" id="mf71e831432" style="stroke:#000000;stroke-width:3;"/>
      </defs>
      <g>
       <use style="stroke:#000000;stroke-width:3;" x="84.48149" xlink:href="#mf71e831432" y="295.65851"/>
      </g>
     </g>
     <g id="text_1">
      <!-- 0.90 -->
      <defs>
       <path d="M 31.78125 66.40625 
Q 24.171875 66.40625 20.328125 58.90625 
Q 16.5 51.421875 16.5 36.375 
Q 16.5 21.390625 20.328125 13.890625 
Q 24.171875 6.390625 31.78125 6.390625 
Q 39.453125 6.390625 43.28125 13.890625 
Q 47.125 21.390625 47.125 36.375 
Q 47.125 51.421875 43.28125 58.90625 
Q 39.453125 66.40625 31.78125 66.40625 
z
M 31.78125 74.21875 
Q 44.046875 74.21875 50.515625 64.515625 
Q 56.984375 54.828125 56.984375 36.375 
Q 56.984375 17.96875 50.515625 8.265625 
Q 44.046875 -1.421875 31.78125 -1.421875 
Q 19.53125 -1.421875 13.0625 8.265625 
Q 6.59375 17.96875 6.59375 36.375 
Q 6.59375 54.828125 13.0625 64.515625 
Q 19.53125 74.21875 31.78125 74.21875 
z
" id="DejaVuSans-48"/>
       <path d="M 10.6875 12.40625 
L 21 12.40625 
L 21 0 
L 10.6875 0 
z
" id="DejaVuSans-46"/>
       <path d="M 10.984375 1.515625 
L 10.984375 10.5 
Q 14.703125 8.734375 18.5 7.8125 
Q 22.3125 6.890625 25.984375 6.890625 
Q 35.75 6.890625 40.890625 13.453125 
Q 46.046875 20.015625 46.78125 33.40625 
Q 43.953125 29.203125 39.59375 26.953125 
Q 35.25 24.703125 29.984375 24.703125 
Q 19.046875 24.703125 12.671875 31.3125 
Q 6.296875 37.9375 6.296875 49.421875 
Q 6.296875 60.640625 12.9375 67.421875 
Q 19.578125 74.21875 30.609375 74.21875 
Q 43.265625 74.21875 49.921875 64.515625 
Q 56.59375 54.828125 56.59375 36.375 
Q 56.59375 19.140625 48.40625 8.859375 
Q 40.234375 -1.421875 26.421875 -1.421875 
Q 22.703125 -1.421875 18.890625 -0.6875 
Q 15.09375 0.046875 10.984375 1.515625 
z
M 30.609375 32.421875 
Q 37.25 32.421875 41.125 36.953125 
Q 45.015625 41.5 45.015625 49.421875 
Q 45.015625 57.28125 41.125 61.84375 
Q 37.25 66.40625 30.609375 66.40625 
Q 23.96875 66.40625 20.09375 61.84375 
Q 16.21875 57.28125 16.21875 49.421875 
Q 16.21875 41.5 20.09375 36.953125 
Q 23.96875 32.421875 30.609375 32.421875 
z
" id="DejaVuSans-57"/>
      </defs>
      <g transform="translate(66.66899 319.31601)scale(0.16 -0.16)">
       <use xlink:href="#DejaVuSans-48"/>
       <use x="63.623047" xlink:href="#DejaVuSans-46"/>
       <use x="95.410156" xlink:href="#DejaVuSans-57"/>
       <use x="159.033203" xlink:href="#DejaVuSans-48"/>
      </g>
     </g>
    </g>
    <g id="xtick_2">
     <g id="line2d_2">
      <g>
       <use style="stroke:#000000;stroke-width:3;" x="166.157933" xlink:href="#mf71e831432" y="295.65851"/>
      </g>
     </g>
     <g id="text_2">
      <!-- 0.95 -->
      <defs>
       <path d="M 10.796875 72.90625 
L 49.515625 72.90625 
L 49.515625 64.59375 
L 19.828125 64.59375 
L 19.828125 46.734375 
Q 21.96875 47.46875 24.109375 47.828125 
Q 26.265625 48.1875 28.421875 48.1875 
Q 40.625 48.1875 47.75 41.5 
Q 54.890625 34.8125 54.890625 23.390625 
Q 54.890625 11.625 47.5625 5.09375 
Q 40.234375 -1.421875 26.90625 -1.421875 
Q 22.3125 -1.421875 17.546875 -0.640625 
Q 12.796875 0.140625 7.71875 1.703125 
L 7.71875 11.625 
Q 12.109375 9.234375 16.796875 8.0625 
Q 21.484375 6.890625 26.703125 6.890625 
Q 35.15625 6.890625 40.078125 11.328125 
Q 45.015625 15.765625 45.015625 23.390625 
Q 45.015625 31 40.078125 35.4375 
Q 35.15625 39.890625 26.703125 39.890625 
Q 22.75 39.890625 18.8125 39.015625 
Q 14.890625 38.140625 10.796875 36.28125 
z
" id="DejaVuSans-53"/>
      </defs>
      <g transform="translate(148.345433 319.31601)scale(0.16 -0.16)">
       <use xlink:href="#DejaVuSans-48"/>
       <use x="63.623047" xlink:href="#DejaVuSans-46"/>
       <use x="95.410156" xlink:href="#DejaVuSans-57"/>
       <use x="159.033203" xlink:href="#DejaVuSans-53"/>
      </g>
     </g>
    </g>
    <g id="xtick_3">
     <g id="line2d_3">
      <g>
       <use style="stroke:#000000;stroke-width:3;" x="247.834375" xlink:href="#mf71e831432" y="295.65851"/>
      </g>
     </g>
     <g id="text_3">
      <!-- 1.00 -->
      <defs>
       <path d="M 12.40625 8.296875 
L 28.515625 8.296875 
L 28.515625 63.921875 
L 10.984375 60.40625 
L 10.984375 69.390625 
L 28.421875 72.90625 
L 38.28125 72.90625 
L 38.28125 8.296875 
L 54.390625 8.296875 
L 54.390625 0 
L 12.40625 0 
z
" id="DejaVuSans-49"/>
      </defs>
      <g transform="translate(230.021875 319.31601)scale(0.16 -0.16)">
       <use xlink:href="#DejaVuSans-49"/>
       <use x="63.623047" xlink:href="#DejaVuSans-46"/>
       <use x="95.410156" xlink:href="#DejaVuSans-48"/>
       <use x="159.033203" xlink:href="#DejaVuSans-48"/>
      </g>
     </g>
    </g>
    <g id="xtick_4">
     <g id="line2d_4">
      <g>
       <use style="stroke:#000000;stroke-width:3;" x="329.510818" xlink:href="#mf71e831432" y="295.65851"/>
      </g>
     </g>
     <g id="text_4">
      <!-- 1.05 -->
      <g transform="translate(311.698318 319.31601)scale(0.16 -0.16)">
       <use xlink:href="#DejaVuSans-49"/>
       <use x="63.623047" xlink:href="#DejaVuSans-46"/>
       <use x="95.410156" xlink:href="#DejaVuSans-48"/>
       <use x="159.033203" xlink:href="#DejaVuSans-53"/>
      </g>
     </g>
    </g>
    <g id="xtick_5">
     <g id="line2d_5">
      <g>
       <use style="stroke:#000000;stroke-width:3;" x="411.18726" xlink:href="#mf71e831432" y="295.65851"/>
      </g>
     </g>
     <g id="text_5">
      <!-- 1.10 -->
      <g transform="translate(393.37476 319.31601)scale(0.16 -0.16)">
       <use xlink:href="#DejaVuSans-49"/>
       <use x="63.623047" xlink:href="#DejaVuSans-46"/>
       <use x="95.410156" xlink:href="#DejaVuSans-49"/>
       <use x="159.033203" xlink:href="#DejaVuSans-48"/>
      </g>
     </g>
    </g>
    <g id="text_6">
     <!-- $\Re e\{x\}$ -->
     <defs>
      <path d="M 62.59375 -1.421875 
Q 58.59375 7.515625 58.59375 15.28125 
Q 58.59375 22.125 57.515625 26.5625 
Q 55.5625 34.671875 51.703125 34.671875 
Q 49.65625 34.671875 45.171875 32.5625 
L 39.3125 29.828125 
L 39.3125 20.125 
Q 39.3125 10.0625 34.28125 4.296875 
Q 29.25 -1.421875 22.40625 -1.421875 
Q 15.53125 -1.421875 10.546875 4.296875 
Q 5.515625 10.0625 5.515625 18.65625 
Q 7.71875 18.0625 9.96875 17.484375 
Q 9.96875 11.53125 13.09375 7.328125 
Q 16.21875 3.078125 19.734375 3.078125 
Q 23.25 3.078125 26.3125 7.328125 
Q 29.4375 11.578125 29.4375 18.890625 
L 29.4375 51.46875 
Q 29.4375 58.734375 26.3125 63.03125 
Q 23.25 67.28125 18.75 67.28125 
Q 14.796875 67.28125 11.625 63.03125 
Q 8.5 58.84375 8.5 53.90625 
Q 8.5 48.96875 11.625 44.78125 
Q 14.75 40.53125 18.796875 40.53125 
L 21.4375 36.03125 
Q 14.0625 36.03125 9.078125 41.75 
Q 4.046875 47.515625 4.046875 55.125 
Q 4.046875 62.796875 9.078125 68.5 
Q 14.0625 74.21875 21.4375 74.21875 
Q 29.34375 74.21875 34.28125 68.5 
Q 35.75 66.796875 36.53125 65.234375 
L 46.828125 70.015625 
Q 55.953125 74.265625 61.421875 74.265625 
Q 63.71875 74.265625 65.484375 73.578125 
Q 71.625 71.1875 71.625 62.546875 
Q 71.625 58.296875 68.453125 52.296875 
Q 65.234375 46.234375 59.125 41.65625 
Q 61.96875 41.65625 64.359375 39.265625 
Q 66.109375 37.5 67.4375 32.421875 
Q 69 26.421875 69 20.015625 
Q 69 13.765625 71.1875 8.015625 
L 78.21875 11.28125 
L 80.28125 6.84375 
z
M 38.28125 60.890625 
Q 39.3125 57.234375 39.3125 52.734375 
L 39.3125 35.015625 
L 46.828125 38.484375 
Q 53.859375 41.75 57.625 46.828125 
Q 61.234375 51.8125 61.234375 57.71875 
Q 61.234375 65.09375 57.625 66.65625 
Q 56.453125 67.140625 54.9375 67.140625 
Q 51.8125 67.140625 46.828125 64.84375 
z
" id="DejaVuSans-Oblique-8476"/>
      <path d="M 48.09375 32.234375 
Q 48.25 33.015625 48.3125 33.84375 
Q 48.390625 34.671875 48.390625 35.5 
Q 48.390625 41.453125 44.890625 44.921875 
Q 41.40625 48.390625 35.40625 48.390625 
Q 28.71875 48.390625 23.578125 44.15625 
Q 18.453125 39.9375 15.828125 32.171875 
z
M 55.90625 25.203125 
L 14.109375 25.203125 
Q 13.8125 23.34375 13.71875 22.265625 
Q 13.625 21.1875 13.625 20.40625 
Q 13.625 13.625 17.796875 9.90625 
Q 21.96875 6.203125 29.59375 6.203125 
Q 35.453125 6.203125 40.671875 7.515625 
Q 45.90625 8.84375 50.390625 11.375 
L 48.6875 2.484375 
Q 43.84375 0.53125 38.6875 -0.4375 
Q 33.546875 -1.421875 28.21875 -1.421875 
Q 16.84375 -1.421875 10.71875 4.015625 
Q 4.59375 9.46875 4.59375 19.484375 
Q 4.59375 28.03125 7.640625 35.375 
Q 10.6875 42.71875 16.609375 48.484375 
Q 20.40625 52.09375 25.65625 54.046875 
Q 30.90625 56 36.8125 56 
Q 46.09375 56 51.578125 50.4375 
Q 57.078125 44.875 57.078125 35.5 
Q 57.078125 33.25 56.78125 30.6875 
Q 56.5 28.125 55.90625 25.203125 
z
" id="DejaVuSans-Oblique-101"/>
      <path d="M 51.125 -9.28125 
L 51.125 -16.3125 
L 48.09375 -16.3125 
Q 35.9375 -16.3125 31.8125 -12.6875 
Q 27.6875 -9.078125 27.6875 1.703125 
L 27.6875 13.375 
Q 27.6875 20.75 25.046875 23.578125 
Q 22.40625 26.421875 15.484375 26.421875 
L 12.5 26.421875 
L 12.5 33.40625 
L 15.484375 33.40625 
Q 22.46875 33.40625 25.078125 36.203125 
Q 27.6875 39.015625 27.6875 46.296875 
L 27.6875 58.015625 
Q 27.6875 68.796875 31.8125 72.390625 
Q 35.9375 75.984375 48.09375 75.984375 
L 51.125 75.984375 
L 51.125 69 
L 47.796875 69 
Q 40.921875 69 38.8125 66.84375 
Q 36.71875 64.703125 36.71875 57.8125 
L 36.71875 45.703125 
Q 36.71875 38.03125 34.5 34.5625 
Q 32.28125 31.109375 26.90625 29.890625 
Q 32.328125 28.5625 34.515625 25.09375 
Q 36.71875 21.625 36.71875 14.015625 
L 36.71875 1.90625 
Q 36.71875 -4.984375 38.8125 -7.125 
Q 40.921875 -9.28125 47.796875 -9.28125 
z
" id="DejaVuSans-123"/>
      <path d="M 60.015625 54.6875 
L 34.90625 27.875 
L 50.296875 0 
L 39.984375 0 
L 28.421875 21.6875 
L 8.296875 0 
L -2.59375 0 
L 24.3125 28.8125 
L 10.015625 54.6875 
L 20.3125 54.6875 
L 30.8125 34.90625 
L 49.125 54.6875 
z
" id="DejaVuSans-Oblique-120"/>
      <path d="M 12.5 -9.28125 
L 15.921875 -9.28125 
Q 22.75 -9.28125 24.828125 -7.171875 
Q 26.90625 -5.078125 26.90625 1.90625 
L 26.90625 14.015625 
Q 26.90625 21.625 29.09375 25.09375 
Q 31.296875 28.5625 36.71875 29.890625 
Q 31.296875 31.109375 29.09375 34.5625 
Q 26.90625 38.03125 26.90625 45.703125 
L 26.90625 57.8125 
Q 26.90625 64.75 24.828125 66.875 
Q 22.75 69 15.921875 69 
L 12.5 69 
L 12.5 75.984375 
L 15.578125 75.984375 
Q 27.734375 75.984375 31.8125 72.390625 
Q 35.890625 68.796875 35.890625 58.015625 
L 35.890625 46.296875 
Q 35.890625 39.015625 38.515625 36.203125 
Q 41.15625 33.40625 48.09375 33.40625 
L 51.125 33.40625 
L 51.125 26.421875 
L 48.09375 26.421875 
Q 41.15625 26.421875 38.515625 23.578125 
Q 35.890625 20.75 35.890625 13.375 
L 35.890625 1.703125 
Q 35.890625 -9.078125 31.8125 -12.6875 
Q 27.734375 -16.3125 15.578125 -16.3125 
L 12.5 -16.3125 
z
" id="DejaVuSans-125"/>
     </defs>
     <g transform="translate(214.834375 352.840385)scale(0.2 -0.2)">
      <use transform="translate(0 0.015625)" xlink:href="#DejaVuSans-Oblique-8476"/>
      <use transform="translate(81.396484 0.015625)" xlink:href="#DejaVuSans-Oblique-101"/>
      <use transform="translate(142.919922 0.015625)" xlink:href="#DejaVuSans-123"/>
      <use transform="translate(206.542969 0.015625)" xlink:href="#DejaVuSans-Oblique-120"/>
      <use transform="translate(265.722656 0.015625)" xlink:href="#DejaVuSans-125"/>
     </g>
    </g>
   </g>
   <g id="matplotlib.axis_2">
    <g id="ytick_1">
     <g id="line2d_6">
      <defs>
       <path d="M 0 0 
L -8 0 
" id="m91325996c0" style="stroke:#000000;stroke-width:3;"/>
      </defs>
      <g>
       <use style="stroke:#000000;stroke-width:3;" x="84.48149" xlink:href="#m91325996c0" y="295.65851"/>
      </g>
     </g>
     <g id="text_7">
      <!-- 0.00 -->
      <g transform="translate(37.35649 301.73726)scale(0.16 -0.16)">
       <use xlink:href="#DejaVuSans-48"/>
       <use x="63.623047" xlink:href="#DejaVuSans-46"/>
       <use x="95.410156" xlink:href="#DejaVuSans-48"/>
       <use x="159.033203" xlink:href="#DejaVuSans-48"/>
      </g>
     </g>
    </g>
    <g id="ytick_2">
     <g id="line2d_7">
      <g>
       <use style="stroke:#000000;stroke-width:3;" x="84.48149" xlink:href="#m91325996c0" y="238.342606"/>
      </g>
     </g>
     <g id="text_8">
      <!-- 0.01 -->
      <g transform="translate(37.35649 244.421356)scale(0.16 -0.16)">
       <use xlink:href="#DejaVuSans-48"/>
       <use x="63.623047" xlink:href="#DejaVuSans-46"/>
       <use x="95.410156" xlink:href="#DejaVuSans-48"/>
       <use x="159.033203" xlink:href="#DejaVuSans-49"/>
      </g>
     </g>
    </g>
    <g id="ytick_3">
     <g id="line2d_8">
      <g>
       <use style="stroke:#000000;stroke-width:3;" x="84.48149" xlink:href="#m91325996c0" y="181.026702"/>
      </g>
     </g>
     <g id="text_9">
      <!-- 0.02 -->
      <defs>
       <path d="M 19.1875 8.296875 
L 53.609375 8.296875 
L 53.609375 0 
L 7.328125 0 
L 7.328125 8.296875 
Q 12.9375 14.109375 22.625 23.890625 
Q 32.328125 33.6875 34.8125 36.53125 
Q 39.546875 41.84375 41.421875 45.53125 
Q 43.3125 49.21875 43.3125 52.78125 
Q 43.3125 58.59375 39.234375 62.25 
Q 35.15625 65.921875 28.609375 65.921875 
Q 23.96875 65.921875 18.8125 64.3125 
Q 13.671875 62.703125 7.8125 59.421875 
L 7.8125 69.390625 
Q 13.765625 71.78125 18.9375 73 
Q 24.125 74.21875 28.421875 74.21875 
Q 39.75 74.21875 46.484375 68.546875 
Q 53.21875 62.890625 53.21875 53.421875 
Q 53.21875 48.921875 51.53125 44.890625 
Q 49.859375 40.875 45.40625 35.40625 
Q 44.1875 33.984375 37.640625 27.21875 
Q 31.109375 20.453125 19.1875 8.296875 
z
" id="DejaVuSans-50"/>
      </defs>
      <g transform="translate(37.35649 187.105452)scale(0.16 -0.16)">
       <use xlink:href="#DejaVuSans-48"/>
       <use x="63.623047" xlink:href="#DejaVuSans-46"/>
       <use x="95.410156" xlink:href="#DejaVuSans-48"/>
       <use x="159.033203" xlink:href="#DejaVuSans-50"/>
      </g>
     </g>
    </g>
    <g id="ytick_4">
     <g id="line2d_9">
      <g>
       <use style="stroke:#000000;stroke-width:3;" x="84.48149" xlink:href="#m91325996c0" y="123.710798"/>
      </g>
     </g>
     <g id="text_10">
      <!-- 0.03 -->
      <defs>
       <path d="M 40.578125 39.3125 
Q 47.65625 37.796875 51.625 33 
Q 55.609375 28.21875 55.609375 21.1875 
Q 55.609375 10.40625 48.1875 4.484375 
Q 40.765625 -1.421875 27.09375 -1.421875 
Q 22.515625 -1.421875 17.65625 -0.515625 
Q 12.796875 0.390625 7.625 2.203125 
L 7.625 11.71875 
Q 11.71875 9.328125 16.59375 8.109375 
Q 21.484375 6.890625 26.8125 6.890625 
Q 36.078125 6.890625 40.9375 10.546875 
Q 45.796875 14.203125 45.796875 21.1875 
Q 45.796875 27.640625 41.28125 31.265625 
Q 36.765625 34.90625 28.71875 34.90625 
L 20.21875 34.90625 
L 20.21875 43.015625 
L 29.109375 43.015625 
Q 36.375 43.015625 40.234375 45.921875 
Q 44.09375 48.828125 44.09375 54.296875 
Q 44.09375 59.90625 40.109375 62.90625 
Q 36.140625 65.921875 28.71875 65.921875 
Q 24.65625 65.921875 20.015625 65.03125 
Q 15.375 64.15625 9.8125 62.3125 
L 9.8125 71.09375 
Q 15.4375 72.65625 20.34375 73.4375 
Q 25.25 74.21875 29.59375 74.21875 
Q 40.828125 74.21875 47.359375 69.109375 
Q 53.90625 64.015625 53.90625 55.328125 
Q 53.90625 49.265625 50.4375 45.09375 
Q 46.96875 40.921875 40.578125 39.3125 
z
" id="DejaVuSans-51"/>
      </defs>
      <g transform="translate(37.35649 129.789548)scale(0.16 -0.16)">
       <use xlink:href="#DejaVuSans-48"/>
       <use x="63.623047" xlink:href="#DejaVuSans-46"/>
       <use x="95.410156" xlink:href="#DejaVuSans-48"/>
       <use x="159.033203" xlink:href="#DejaVuSans-51"/>
      </g>
     </g>
    </g>
    <g id="ytick_5">
     <g id="line2d_10">
      <g>
       <use style="stroke:#000000;stroke-width:3;" x="84.48149" xlink:href="#m91325996c0" y="66.394894"/>
      </g>
     </g>
     <g id="text_11">
      <!-- 0.04 -->
      <defs>
       <path d="M 37.796875 64.3125 
L 12.890625 25.390625 
L 37.796875 25.390625 
z
M 35.203125 72.90625 
L 47.609375 72.90625 
L 47.609375 25.390625 
L 58.015625 25.390625 
L 58.015625 17.1875 
L 47.609375 17.1875 
L 47.609375 0 
L 37.796875 0 
L 37.796875 17.1875 
L 4.890625 17.1875 
L 4.890625 26.703125 
z
" id="DejaVuSans-52"/>
      </defs>
      <g transform="translate(37.35649 72.473644)scale(0.16 -0.16)">
       <use xlink:href="#DejaVuSans-48"/>
       <use x="63.623047" xlink:href="#DejaVuSans-46"/>
       <use x="95.410156" xlink:href="#DejaVuSans-48"/>
       <use x="159.033203" xlink:href="#DejaVuSans-52"/>
      </g>
     </g>
    </g>
    <g id="ytick_6">
     <g id="line2d_11">
      <g>
       <use style="stroke:#000000;stroke-width:3;" x="84.48149" xlink:href="#m91325996c0" y="9.07899"/>
      </g>
     </g>
     <g id="text_12">
      <!-- 0.05 -->
      <g transform="translate(37.35649 15.15774)scale(0.16 -0.16)">
       <use xlink:href="#DejaVuSans-48"/>
       <use x="63.623047" xlink:href="#DejaVuSans-46"/>
       <use x="95.410156" xlink:href="#DejaVuSans-48"/>
       <use x="159.033203" xlink:href="#DejaVuSans-53"/>
      </g>
     </g>
    </g>
    <g id="text_13">
     <!-- $\Im m\{x\}$ -->
     <defs>
      <path d="M 5.171875 4.390625 
L 12.015625 12.453125 
Q 17.4375 14.359375 23.140625 14.359375 
Q 25.921875 14.359375 32.375 10.453125 
Q 39.40625 6.25 41.015625 6.25 
Q 46.921875 6.25 51.8125 12.9375 
Q 55.28125 17.671875 55.28125 21.34375 
Q 55.28125 27.484375 52.25 32.953125 
Q 48.34375 40.09375 48.34375 45.40625 
Q 48.34375 50.296875 52.25 58.109375 
L 62.640625 64.9375 
Q 58.734375 58.15625 58.734375 52.25 
Q 58.734375 47.015625 62.640625 39.796875 
Q 65.234375 35.015625 65.234375 25.828125 
Q 65.234375 21.234375 55.375 9.421875 
Q 46.296875 -1.421875 34.46875 -1.421875 
Q 31.84375 -1.421875 25.53125 2.4375 
Q 19.046875 6.34375 16.3125 6.34375 
Q 11.71875 6.34375 5.171875 4.390625 
z
M 17.09375 71.484375 
Q 22.40625 74.21875 29.296875 74.21875 
Q 35.296875 74.21875 41.5 71.828125 
Q 47.46875 69.53125 53.71875 69.53125 
Q 59.8125 69.53125 65.921875 72.359375 
L 56.15625 64.0625 
Q 49.359375 61.234375 43.953125 61.234375 
Q 36.96875 61.234375 31.734375 63.625 
Q 26.515625 66.015625 19.53125 66.015625 
Q 13.578125 66.015625 7.328125 63.1875 
z
" id="DejaVuSans-Oblique-8465"/>
      <path d="M 89.796875 33.015625 
L 83.40625 0 
L 74.421875 0 
L 80.71875 32.71875 
Q 81.109375 34.8125 81.296875 36.328125 
Q 81.5 37.84375 81.5 38.921875 
Q 81.5 43.3125 79.046875 45.75 
Q 76.609375 48.1875 72.21875 48.1875 
Q 65.671875 48.1875 60.546875 43.28125 
Q 55.421875 38.375 53.90625 30.515625 
L 47.90625 0 
L 38.921875 0 
L 45.3125 32.71875 
Q 45.703125 34.515625 45.890625 36.046875 
Q 46.09375 37.59375 46.09375 38.8125 
Q 46.09375 43.265625 43.65625 45.71875 
Q 41.21875 48.1875 36.921875 48.1875 
Q 30.28125 48.1875 25.140625 43.28125 
Q 20.015625 38.375 18.5 30.515625 
L 12.5 0 
L 3.515625 0 
L 14.203125 54.6875 
L 23.1875 54.6875 
L 21.484375 46.1875 
Q 25.140625 50.984375 30.046875 53.484375 
Q 34.96875 56 40.578125 56 
Q 46.53125 56 50.359375 52.875 
Q 54.203125 49.75 54.984375 44.1875 
Q 59.078125 49.953125 64.46875 52.96875 
Q 69.875 56 75.875 56 
Q 82.90625 56 86.734375 51.953125 
Q 90.578125 47.90625 90.578125 40.484375 
Q 90.578125 38.875 90.375 36.9375 
Q 90.1875 35.015625 89.796875 33.015625 
z
" id="DejaVuSans-Oblique-109"/>
     </defs>
     <g transform="translate(18.197115 187.76875)rotate(-90)scale(0.2 -0.2)">
      <use transform="translate(0 0.015625)" xlink:href="#DejaVuSans-Oblique-8465"/>
      <use transform="translate(69.726562 0.015625)" xlink:href="#DejaVuSans-Oblique-109"/>
      <use transform="translate(167.138672 0.015625)" xlink:href="#DejaVuSans-123"/>
      <use transform="translate(230.761719 0.015625)" xlink:href="#DejaVuSans-Oblique-120"/>
      <use transform="translate(289.941406 0.015625)" xlink:href="#DejaVuSans-125"/>
     </g>
    </g>
   </g>
   <g id="line2d_12">
    <path clip-path="url(#p0d204af176)" d="M 247.834375 361 
L 247.834375 -1 
" style="fill:none;stroke:#000000;stroke-dasharray:7.4,3.2;stroke-dashoffset:0;stroke-width:2;"/>
   </g>
   <g id="patch_3">
    <path d="M 84.48149 295.65851 
L 84.48149 9.07899 
" style="fill:none;stroke:#000000;stroke-linecap:square;stroke-linejoin:miter;stroke-width:3;"/>
   </g>
   <g id="patch_4">
    <path d="M 411.18726 295.65851 
L 411.18726 9.07899 
" style="fill:none;stroke:#000000;stroke-linecap:square;stroke-linejoin:miter;stroke-width:3;"/>
   </g>
   <g id="patch_5">
    <path d="M 84.48149 295.65851 
L 411.18726 295.65851 
" style="fill:none;stroke:#000000;stroke-linecap:square;stroke-linejoin:miter;stroke-width:3;"/>
   </g>
   <g id="patch_6">
    <path d="M 84.48149 9.07899 
L 411.18726 9.07899 
" style="fill:none;stroke:#000000;stroke-linecap:square;stroke-linejoin:miter;stroke-width:3;"/>
   </g>
  </g>
 </g>
 <defs>
  <clipPath id="p0d204af176">
   <rect height="286.57952" width="326.70577" x="84.48149" y="9.07899"/>
  </clipPath>
 </defs>
</svg>
