<?xml version="1.0" encoding="utf-8" standalone="no"?>
<!DOCTYPE svg PUBLIC "-//W3C//DTD SVG 1.1//EN"
  "http://www.w3.org/Graphics/SVG/1.1/DTD/svg11.dtd">
<!-- Created with matplotlib (https://matplotlib.org/) -->
<svg height="360pt" version="1.1" viewBox="0 0 432 360" width="432pt" xmlns="http://www.w3.org/2000/svg" xmlns:xlink="http://www.w3.org/1999/xlink">
 <defs>
  <style type="text/css">
*{stroke-linecap:butt;stroke-linejoin:round;}
  </style>
 </defs>
 <g id="figure_1">
  <g id="patch_1">
   <path d="M 0 360 
L 432 360 
L 432 0 
L 0 0 
z
" style="fill:#ffffff;"/>
  </g>
  <g id="axes_1">
   <g id="patch_2">
    <path d="M 84.48149 295.65851 
L 411.18726 295.65851 
L 411.18726 9.07899 
L 84.48149 9.07899 
z
" style="fill:#ffffff;"/>
   </g>
   <g id="PathCollection_1">
    <defs>
     <path d="M 0 4.5 
C 1.193414 4.5 2.338109 4.025852 3.181981 3.181981 
C 4.025852 2.338109 4.5 1.193414 4.5 0 
C 4.5 -1.193414 4.025852 -2.338109 3.181981 -3.181981 
C 2.338109 -4.025852 1.193414 -4.5 0 -4.5 
C -1.193414 -4.5 -2.338109 -4.025852 -3.181981 -3.181981 
C -4.025852 -2.338109 -4.5 -1.193414 -4.5 0 
C -4.5 1.193414 -4.025852 2.338109 -3.181981 3.181981 
C -2.338109 4.025852 -1.193414 4.5 0 4.5 
z
" id="m85721f1865" style="stroke:#1f77b4;"/>
    </defs>
    <g clip-path="url(#p5ad4ebc5f8)">
     <use style="fill:#1f77b4;stroke:#1f77b4;" x="-0.977061" xlink:href="#m85721f1865" y="-1"/>
     <use style="fill:#1f77b4;stroke:#1f77b4;" x="1.654985" xlink:href="#m85721f1865" y="3321.475512"/>
     <use style="fill:#1f77b4;stroke:#1f77b4;" x="1.655017" xlink:href="#m85721f1865" y="-1"/>
     <use style="fill:#1f77b4;stroke:#1f77b4;" x="3.817032" xlink:href="#m85721f1865" y="-1"/>
     <use style="fill:#1f77b4;stroke:#1f77b4;" x="6.427561" xlink:href="#m85721f1865" y="3294.368145"/>
     <use style="fill:#1f77b4;stroke:#1f77b4;" x="6.42756" xlink:href="#m85721f1865" y="-1"/>
     <use style="fill:#1f77b4;stroke:#1f77b4;" x="8.568091" xlink:href="#m85721f1865" y="-1"/>
     <use style="fill:#1f77b4;stroke:#1f77b4;" x="11.157094" xlink:href="#m85721f1865" y="3267.168064"/>
     <use style="fill:#1f77b4;stroke:#1f77b4;" x="11.157107" xlink:href="#m85721f1865" y="-1"/>
     <use style="fill:#1f77b4;stroke:#1f77b4;" x="13.276081" xlink:href="#m85721f1865" y="-1"/>
     <use style="fill:#1f77b4;stroke:#1f77b4;" x="15.843439" xlink:href="#m85721f1865" y="3239.876354"/>
     <use style="fill:#1f77b4;stroke:#1f77b4;" x="15.843439" xlink:href="#m85721f1865" y="-1"/>
     <use style="fill:#1f77b4;stroke:#1f77b4;" x="17.940783" xlink:href="#m85721f1865" y="-1"/>
     <use style="fill:#1f77b4;stroke:#1f77b4;" x="20.48645" xlink:href="#m85721f1865" y="3212.493784"/>
     <use style="fill:#1f77b4;stroke:#1f77b4;" x="20.48645" xlink:href="#m85721f1865" y="-1"/>
     <use style="fill:#1f77b4;stroke:#1f77b4;" x="25.085985" xlink:href="#m85721f1865" y="-1"/>
     <use style="fill:#1f77b4;stroke:#1f77b4;" x="25.085986" xlink:href="#m85721f1865" y="3185.021202"/>
     <use style="fill:#1f77b4;stroke:#1f77b4;" x="27.609865" xlink:href="#m85721f1865" y="-1"/>
     <use style="fill:#1f77b4;stroke:#1f77b4;" x="29.641901" xlink:href="#m85721f1865" y="-1"/>
     <use style="fill:#1f77b4;stroke:#1f77b4;" x="29.641901" xlink:href="#m85721f1865" y="3157.45947"/>
     <use style="fill:#1f77b4;stroke:#1f77b4;" x="34.1541" xlink:href="#m85721f1865" y="3129.809599"/>
     <use style="fill:#1f77b4;stroke:#1f77b4;" x="34.154076" xlink:href="#m85721f1865" y="-1"/>
     <use style="fill:#1f77b4;stroke:#1f77b4;" x="38.622311" xlink:href="#m85721f1865" y="-1"/>
     <use style="fill:#1f77b4;stroke:#1f77b4;" x="38.622307" xlink:href="#m85721f1865" y="3102.071969"/>
     <use style="fill:#1f77b4;stroke:#1f77b4;" x="43.046532" xlink:href="#m85721f1865" y="3074.247928"/>
     <use style="fill:#1f77b4;stroke:#1f77b4;" x="43.046532" xlink:href="#m85721f1865" y="-1"/>
     <use style="fill:#1f77b4;stroke:#1f77b4;" x="45.012609" xlink:href="#m85721f1865" y="-1"/>
     <use style="fill:#1f77b4;stroke:#1f77b4;" x="47.426577" xlink:href="#m85721f1865" y="3046.338178"/>
     <use style="fill:#1f77b4;stroke:#1f77b4;" x="47.426577" xlink:href="#m85721f1865" y="-1"/>
     <use style="fill:#1f77b4;stroke:#1f77b4;" x="51.762269" xlink:href="#m85721f1865" y="-1"/>
     <use style="fill:#1f77b4;stroke:#1f77b4;" x="51.762312" xlink:href="#m85721f1865" y="3018.34359"/>
     <use style="fill:#1f77b4;stroke:#1f77b4;" x="54.154117" xlink:href="#m85721f1865" y="-1"/>
     <use style="fill:#1f77b4;stroke:#1f77b4;" x="56.053644" xlink:href="#m85721f1865" y="-1"/>
     <use style="fill:#1f77b4;stroke:#1f77b4;" x="56.053603" xlink:href="#m85721f1865" y="2990.265035"/>
     <use style="fill:#1f77b4;stroke:#1f77b4;" x="58.42311" xlink:href="#m85721f1865" y="-1"/>
     <use style="fill:#1f77b4;stroke:#1f77b4;" x="60.300316" xlink:href="#m85721f1865" y="-1"/>
     <use style="fill:#1f77b4;stroke:#1f77b4;" x="60.300313" xlink:href="#m85721f1865" y="2962.103379"/>
     <use style="fill:#1f77b4;stroke:#1f77b4;" x="64.502325" xlink:href="#m85721f1865" y="2933.859529"/>
     <use style="fill:#1f77b4;stroke:#1f77b4;" x="64.502323" xlink:href="#m85721f1865" y="-1"/>
     <use style="fill:#1f77b4;stroke:#1f77b4;" x="68.659494" xlink:href="#m85721f1865" y="-1"/>
     <use style="fill:#1f77b4;stroke:#1f77b4;" x="68.659494" xlink:href="#m85721f1865" y="2905.534334"/>
     <use style="fill:#1f77b4;stroke:#1f77b4;" x="72.771702" xlink:href="#m85721f1865" y="2877.128425"/>
     <use style="fill:#1f77b4;stroke:#1f77b4;" x="72.771699" xlink:href="#m85721f1865" y="-1"/>
     <use style="fill:#1f77b4;stroke:#1f77b4;" x="74.581545" xlink:href="#m85721f1865" y="-1"/>
     <use style="fill:#1f77b4;stroke:#1f77b4;" x="76.838808" xlink:href="#m85721f1865" y="2848.643509"/>
     <use style="fill:#1f77b4;stroke:#1f77b4;" x="76.838808" xlink:href="#m85721f1865" y="-1"/>
     <use style="fill:#1f77b4;stroke:#1f77b4;" x="80.860696" xlink:href="#m85721f1865" y="-1"/>
     <use style="fill:#1f77b4;stroke:#1f77b4;" x="80.860692" xlink:href="#m85721f1865" y="2820.079613"/>
     <use style="fill:#1f77b4;stroke:#1f77b4;" x="83.095299" xlink:href="#m85721f1865" y="-1"/>
     <use style="fill:#1f77b4;stroke:#1f77b4;" x="84.837246" xlink:href="#m85721f1865" y="-1"/>
     <use style="fill:#1f77b4;stroke:#1f77b4;" x="84.837246" xlink:href="#m85721f1865" y="2791.437938"/>
     <use style="fill:#1f77b4;stroke:#1f77b4;" x="88.768328" xlink:href="#m85721f1865" y="2762.719387"/>
     <use style="fill:#1f77b4;stroke:#1f77b4;" x="88.768328" xlink:href="#m85721f1865" y="-1"/>
     <use style="fill:#1f77b4;stroke:#1f77b4;" x="92.653822" xlink:href="#m85721f1865" y="-1"/>
     <use style="fill:#1f77b4;stroke:#1f77b4;" x="92.653822" xlink:href="#m85721f1865" y="2733.924845"/>
     <use style="fill:#1f77b4;stroke:#1f77b4;" x="94.820131" xlink:href="#m85721f1865" y="-1"/>
     <use style="fill:#1f77b4;stroke:#1f77b4;" x="96.49361" xlink:href="#m85721f1865" y="-1"/>
     <use style="fill:#1f77b4;stroke:#1f77b4;" x="96.493607" xlink:href="#m85721f1865" y="2705.055214"/>
     <use style="fill:#1f77b4;stroke:#1f77b4;" x="98.637028" xlink:href="#m85721f1865" y="-1"/>
     <use style="fill:#1f77b4;stroke:#1f77b4;" x="100.287567" xlink:href="#m85721f1865" y="-1"/>
     <use style="fill:#1f77b4;stroke:#1f77b4;" x="100.287567" xlink:href="#m85721f1865" y="2676.111396"/>
     <use style="fill:#1f77b4;stroke:#1f77b4;" x="104.035582" xlink:href="#m85721f1865" y="2647.094311"/>
     <use style="fill:#1f77b4;stroke:#1f77b4;" x="104.035582" xlink:href="#m85721f1865" y="-1"/>
     <use style="fill:#1f77b4;stroke:#1f77b4;" x="107.737545" xlink:href="#m85721f1865" y="-1"/>
     <use style="fill:#1f77b4;stroke:#1f77b4;" x="107.737537" xlink:href="#m85721f1865" y="2618.004831"/>
     <use style="fill:#1f77b4;stroke:#1f77b4;" x="109.811948" xlink:href="#m85721f1865" y="-1"/>
     <use style="fill:#1f77b4;stroke:#1f77b4;" x="111.393319" xlink:href="#m85721f1865" y="-1"/>
     <use style="fill:#1f77b4;stroke:#1f77b4;" x="111.393319" xlink:href="#m85721f1865" y="2588.843904"/>
     <use style="fill:#1f77b4;stroke:#1f77b4;" x="113.444611" xlink:href="#m85721f1865" y="-1"/>
     <use style="fill:#1f77b4;stroke:#1f77b4;" x="115.002815" xlink:href="#m85721f1865" y="-1"/>
     <use style="fill:#1f77b4;stroke:#1f77b4;" x="115.002817" xlink:href="#m85721f1865" y="2559.612645"/>
     <use style="fill:#1f77b4;stroke:#1f77b4;" x="118.565886" xlink:href="#m85721f1865" y="2530.311609"/>
     <use style="fill:#1f77b4;stroke:#1f77b4;" x="118.565899" xlink:href="#m85721f1865" y="-1"/>
     <use style="fill:#1f77b4;stroke:#1f77b4;" x="122.082497" xlink:href="#m85721f1865" y="-1"/>
     <use style="fill:#1f77b4;stroke:#1f77b4;" x="122.082495" xlink:href="#m85721f1865" y="2500.941529"/>
     <use style="fill:#1f77b4;stroke:#1f77b4;" x="125.552464" xlink:href="#m85721f1865" y="2471.503943"/>
     <use style="fill:#1f77b4;stroke:#1f77b4;" x="125.552463" xlink:href="#m85721f1865" y="-1"/>
     <use style="fill:#1f77b4;stroke:#1f77b4;" x="128.97571" xlink:href="#m85721f1865" y="-1"/>
     <use style="fill:#1f77b4;stroke:#1f77b4;" x="128.975708" xlink:href="#m85721f1865" y="2441.9995"/>
     <use style="fill:#1f77b4;stroke:#1f77b4;" x="130.910578" xlink:href="#m85721f1865" y="-1"/>
     <use style="fill:#1f77b4;stroke:#1f77b4;" x="132.352118" xlink:href="#m85721f1865" y="-1"/>
     <use style="fill:#1f77b4;stroke:#1f77b4;" x="132.352118" xlink:href="#m85721f1865" y="2412.429129"/>
     <use style="fill:#1f77b4;stroke:#1f77b4;" x="135.681599" xlink:href="#m85721f1865" y="2382.793767"/>
     <use style="fill:#1f77b4;stroke:#1f77b4;" x="135.681599" xlink:href="#m85721f1865" y="-1"/>
     <use style="fill:#1f77b4;stroke:#1f77b4;" x="137.099631" xlink:href="#m85721f1865" y="-1"/>
     <use style="fill:#1f77b4;stroke:#1f77b4;" x="138.964039" xlink:href="#m85721f1865" y="2353.094273"/>
     <use style="fill:#1f77b4;stroke:#1f77b4;" x="138.964067" xlink:href="#m85721f1865" y="-1"/>
     <use style="fill:#1f77b4;stroke:#1f77b4;" x="142.199341" xlink:href="#m85721f1865" y="-1"/>
     <use style="fill:#1f77b4;stroke:#1f77b4;" x="142.199341" xlink:href="#m85721f1865" y="2323.331803"/>
     <use style="fill:#1f77b4;stroke:#1f77b4;" x="145.387402" xlink:href="#m85721f1865" y="2293.507085"/>
     <use style="fill:#1f77b4;stroke:#1f77b4;" x="145.387402" xlink:href="#m85721f1865" y="-1"/>
     <use style="fill:#1f77b4;stroke:#1f77b4;" x="146.73466" xlink:href="#m85721f1865" y="-1"/>
     <use style="fill:#1f77b4;stroke:#1f77b4;" x="148.528126" xlink:href="#m85721f1865" y="2263.621132"/>
     <use style="fill:#1f77b4;stroke:#1f77b4;" x="148.528126" xlink:href="#m85721f1865" y="-1"/>
     <use style="fill:#1f77b4;stroke:#1f77b4;" x="149.851724" xlink:href="#m85721f1865" y="-1"/>
     <use style="fill:#1f77b4;stroke:#1f77b4;" x="151.621486" xlink:href="#m85721f1865" y="2233.674867"/>
     <use style="fill:#1f77b4;stroke:#1f77b4;" x="151.621445" xlink:href="#m85721f1865" y="-1"/>
     <use style="fill:#1f77b4;stroke:#1f77b4;" x="154.667173" xlink:href="#m85721f1865" y="-1"/>
     <use style="fill:#1f77b4;stroke:#1f77b4;" x="154.667173" xlink:href="#m85721f1865" y="2203.669333"/>
     <use style="fill:#1f77b4;stroke:#1f77b4;" x="156.413113" xlink:href="#m85721f1865" y="-1"/>
     <use style="fill:#1f77b4;stroke:#1f77b4;" x="157.665349" xlink:href="#m85721f1865" y="-1"/>
     <use style="fill:#1f77b4;stroke:#1f77b4;" x="157.665307" xlink:href="#m85721f1865" y="2173.60539"/>
     <use style="fill:#1f77b4;stroke:#1f77b4;" x="159.387363" xlink:href="#m85721f1865" y="-1"/>
     <use style="fill:#1f77b4;stroke:#1f77b4;" x="160.615723" xlink:href="#m85721f1865" y="-1"/>
     <use style="fill:#1f77b4;stroke:#1f77b4;" x="160.615723" xlink:href="#m85721f1865" y="2143.484031"/>
     <use style="fill:#1f77b4;stroke:#1f77b4;" x="162.313893" xlink:href="#m85721f1865" y="-1"/>
     <use style="fill:#1f77b4;stroke:#1f77b4;" x="163.518331" xlink:href="#m85721f1865" y="-1"/>
     <use style="fill:#1f77b4;stroke:#1f77b4;" x="163.518331" xlink:href="#m85721f1865" y="2113.306196"/>
     <use style="fill:#1f77b4;stroke:#1f77b4;" x="166.373041" xlink:href="#m85721f1865" y="2083.072917"/>
     <use style="fill:#1f77b4;stroke:#1f77b4;" x="166.373041" xlink:href="#m85721f1865" y="-1"/>
     <use style="fill:#1f77b4;stroke:#1f77b4;" x="167.553487" xlink:href="#m85721f1865" y="-1"/>
     <use style="fill:#1f77b4;stroke:#1f77b4;" x="169.179764" xlink:href="#m85721f1865" y="2052.785101"/>
     <use style="fill:#1f77b4;stroke:#1f77b4;" x="169.179764" xlink:href="#m85721f1865" y="-1"/>
     <use style="fill:#1f77b4;stroke:#1f77b4;" x="170.3362" xlink:href="#m85721f1865" y="-1"/>
     <use style="fill:#1f77b4;stroke:#1f77b4;" x="171.938414" xlink:href="#m85721f1865" y="2022.443744"/>
     <use style="fill:#1f77b4;stroke:#1f77b4;" x="171.938417" xlink:href="#m85721f1865" y="-1"/>
     <use style="fill:#1f77b4;stroke:#1f77b4;" x="173.0708" xlink:href="#m85721f1865" y="-1"/>
     <use style="fill:#1f77b4;stroke:#1f77b4;" x="174.648906" xlink:href="#m85721f1865" y="1992.049827"/>
     <use style="fill:#1f77b4;stroke:#1f77b4;" x="174.648906" xlink:href="#m85721f1865" y="-1"/>
     <use style="fill:#1f77b4;stroke:#1f77b4;" x="175.757195" xlink:href="#m85721f1865" y="-1"/>
     <use style="fill:#1f77b4;stroke:#1f77b4;" x="177.311157" xlink:href="#m85721f1865" y="1961.604332"/>
     <use style="fill:#1f77b4;stroke:#1f77b4;" x="177.311156" xlink:href="#m85721f1865" y="-1"/>
     <use style="fill:#1f77b4;stroke:#1f77b4;" x="179.925084" xlink:href="#m85721f1865" y="-1"/>
     <use style="fill:#1f77b4;stroke:#1f77b4;" x="179.925083" xlink:href="#m85721f1865" y="1931.10825"/>
     <use style="fill:#1f77b4;stroke:#1f77b4;" x="182.490607" xlink:href="#m85721f1865" y="1900.562857"/>
     <use style="fill:#1f77b4;stroke:#1f77b4;" x="182.490607" xlink:href="#m85721f1865" y="-1"/>
     <use style="fill:#1f77b4;stroke:#1f77b4;" x="183.526366" xlink:href="#m85721f1865" y="-1"/>
     <use style="fill:#1f77b4;stroke:#1f77b4;" x="185.00764" xlink:href="#m85721f1865" y="1869.96831"/>
     <use style="fill:#1f77b4;stroke:#1f77b4;" x="185.00764" xlink:href="#m85721f1865" y="-1"/>
     <use style="fill:#1f77b4;stroke:#1f77b4;" x="186.019146" xlink:href="#m85721f1865" y="-1"/>
     <use style="fill:#1f77b4;stroke:#1f77b4;" x="187.476116" xlink:href="#m85721f1865" y="1839.326431"/>
     <use style="fill:#1f77b4;stroke:#1f77b4;" x="187.476129" xlink:href="#m85721f1865" y="-1"/>
     <use style="fill:#1f77b4;stroke:#1f77b4;" x="188.463339" xlink:href="#m85721f1865" y="-1"/>
     <use style="fill:#1f77b4;stroke:#1f77b4;" x="189.895949" xlink:href="#m85721f1865" y="1808.637891"/>
     <use style="fill:#1f77b4;stroke:#1f77b4;" x="189.895952" xlink:href="#m85721f1865" y="-1"/>
     <use style="fill:#1f77b4;stroke:#1f77b4;" x="190.858837" xlink:href="#m85721f1865" y="-1"/>
     <use style="fill:#1f77b4;stroke:#1f77b4;" x="192.267081" xlink:href="#m85721f1865" y="1777.903957"/>
     <use style="fill:#1f77b4;stroke:#1f77b4;" x="192.26708" xlink:href="#m85721f1865" y="-1"/>
     <use style="fill:#1f77b4;stroke:#1f77b4;" x="194.589388" xlink:href="#m85721f1865" y="-1"/>
     <use style="fill:#1f77b4;stroke:#1f77b4;" x="194.589339" xlink:href="#m85721f1865" y="1747.125317"/>
     <use style="fill:#1f77b4;stroke:#1f77b4;" x="195.973153" xlink:href="#m85721f1865" y="-1"/>
     <use style="fill:#1f77b4;stroke:#1f77b4;" x="196.8629" xlink:href="#m85721f1865" y="-1"/>
     <use style="fill:#1f77b4;stroke:#1f77b4;" x="196.8629" xlink:href="#m85721f1865" y="1716.303522"/>
     <use style="fill:#1f77b4;stroke:#1f77b4;" x="198.222208" xlink:href="#m85721f1865" y="-1"/>
     <use style="fill:#1f77b4;stroke:#1f77b4;" x="199.087455" xlink:href="#m85721f1865" y="-1"/>
     <use style="fill:#1f77b4;stroke:#1f77b4;" x="199.087456" xlink:href="#m85721f1865" y="1685.439075"/>
     <use style="fill:#1f77b4;stroke:#1f77b4;" x="200.422271" xlink:href="#m85721f1865" y="-1"/>
     <use style="fill:#1f77b4;stroke:#1f77b4;" x="201.263013" xlink:href="#m85721f1865" y="-1"/>
     <use style="fill:#1f77b4;stroke:#1f77b4;" x="201.263013" xlink:href="#m85721f1865" y="1654.533205"/>
     <use style="fill:#1f77b4;stroke:#1f77b4;" x="202.573296" xlink:href="#m85721f1865" y="-1"/>
     <use style="fill:#1f77b4;stroke:#1f77b4;" x="203.389502" xlink:href="#m85721f1865" y="-1"/>
     <use style="fill:#1f77b4;stroke:#1f77b4;" x="203.389502" xlink:href="#m85721f1865" y="1623.58719"/>
     <use style="fill:#1f77b4;stroke:#1f77b4;" x="204.675232" xlink:href="#m85721f1865" y="-1"/>
     <use style="fill:#1f77b4;stroke:#1f77b4;" x="205.466877" xlink:href="#m85721f1865" y="-1"/>
     <use style="fill:#1f77b4;stroke:#1f77b4;" x="205.466877" xlink:href="#m85721f1865" y="1592.601639"/>
     <use style="fill:#1f77b4;stroke:#1f77b4;" x="207.495051" xlink:href="#m85721f1865" y="1561.577916"/>
     <use style="fill:#1f77b4;stroke:#1f77b4;" x="207.495052" xlink:href="#m85721f1865" y="-1"/>
     <use style="fill:#1f77b4;stroke:#1f77b4;" x="208.26205" xlink:href="#m85721f1865" y="-1"/>
     <use style="fill:#1f77b4;stroke:#1f77b4;" x="209.473973" xlink:href="#m85721f1865" y="1530.517209"/>
     <use style="fill:#1f77b4;stroke:#1f77b4;" x="209.473973" xlink:href="#m85721f1865" y="-1"/>
     <use style="fill:#1f77b4;stroke:#1f77b4;" x="210.216342" xlink:href="#m85721f1865" y="-1"/>
     <use style="fill:#1f77b4;stroke:#1f77b4;" x="211.40358" xlink:href="#m85721f1865" y="1499.420538"/>
     <use style="fill:#1f77b4;stroke:#1f77b4;" x="211.403579" xlink:href="#m85721f1865" y="-1"/>
     <use style="fill:#1f77b4;stroke:#1f77b4;" x="212.121291" xlink:href="#m85721f1865" y="-1"/>
     <use style="fill:#1f77b4;stroke:#1f77b4;" x="213.28381" xlink:href="#m85721f1865" y="1468.289041"/>
     <use style="fill:#1f77b4;stroke:#1f77b4;" x="213.28381" xlink:href="#m85721f1865" y="-1"/>
     <use style="fill:#1f77b4;stroke:#1f77b4;" x="215.114612" xlink:href="#m85721f1865" y="-1"/>
     <use style="fill:#1f77b4;stroke:#1f77b4;" x="215.11461" xlink:href="#m85721f1865" y="1437.123868"/>
     <use style="fill:#1f77b4;stroke:#1f77b4;" x="216.895922" xlink:href="#m85721f1865" y="1405.926192"/>
     <use style="fill:#1f77b4;stroke:#1f77b4;" x="216.895922" xlink:href="#m85721f1865" y="-1"/>
     <use style="fill:#1f77b4;stroke:#1f77b4;" x="217.421522" xlink:href="#m85721f1865" y="-1"/>
     <use style="fill:#1f77b4;stroke:#1f77b4;" x="217.702181" xlink:href="#m85721f1865" y="433.44863"/>
     <use style="fill:#1f77b4;stroke:#1f77b4;" x="217.702181" xlink:href="#m85721f1865" y="157.86839"/>
     <use style="fill:#1f77b4;stroke:#1f77b4;" x="218.627696" xlink:href="#m85721f1865" y="1374.697462"/>
     <use style="fill:#1f77b4;stroke:#1f77b4;" x="218.627696" xlink:href="#m85721f1865" y="-1"/>
     <use style="fill:#1f77b4;stroke:#1f77b4;" x="219.246508" xlink:href="#m85721f1865" y="-1"/>
     <use style="fill:#1f77b4;stroke:#1f77b4;" x="220.309871" xlink:href="#m85721f1865" y="1343.438171"/>
     <use style="fill:#1f77b4;stroke:#1f77b4;" x="220.309868" xlink:href="#m85721f1865" y="-1"/>
     <use style="fill:#1f77b4;stroke:#1f77b4;" x="221.942395" xlink:href="#m85721f1865" y="-1"/>
     <use style="fill:#1f77b4;stroke:#1f77b4;" x="221.942395" xlink:href="#m85721f1865" y="1312.150274"/>
     <use style="fill:#1f77b4;stroke:#1f77b4;" x="223.525229" xlink:href="#m85721f1865" y="1280.834869"/>
     <use style="fill:#1f77b4;stroke:#1f77b4;" x="223.525229" xlink:href="#m85721f1865" y="-1"/>
     <use style="fill:#1f77b4;stroke:#1f77b4;" x="225.05832" xlink:href="#m85721f1865" y="-1"/>
     <use style="fill:#1f77b4;stroke:#1f77b4;" x="225.05832" xlink:href="#m85721f1865" y="1249.493268"/>
     <use style="fill:#1f77b4;stroke:#1f77b4;" x="226.046892" xlink:href="#m85721f1865" y="-1"/>
     <use style="fill:#1f77b4;stroke:#1f77b4;" x="226.541623" xlink:href="#m85721f1865" y="-1"/>
     <use style="fill:#1f77b4;stroke:#1f77b4;" x="226.541622" xlink:href="#m85721f1865" y="1218.126862"/>
     <use style="fill:#1f77b4;stroke:#1f77b4;" x="227.505249" xlink:href="#m85721f1865" y="-1"/>
     <use style="fill:#1f77b4;stroke:#1f77b4;" x="227.975093" xlink:href="#m85721f1865" y="-1"/>
     <use style="fill:#1f77b4;stroke:#1f77b4;" x="227.975093" xlink:href="#m85721f1865" y="1186.73708"/>
     <use style="fill:#1f77b4;stroke:#1f77b4;" x="229.358688" xlink:href="#m85721f1865" y="1155.325432"/>
     <use style="fill:#1f77b4;stroke:#1f77b4;" x="229.358688" xlink:href="#m85721f1865" y="-1"/>
     <use style="fill:#1f77b4;stroke:#1f77b4;" x="229.803545" xlink:href="#m85721f1865" y="-1"/>
     <use style="fill:#1f77b4;stroke:#1f77b4;" x="230.692369" xlink:href="#m85721f1865" y="1123.893498"/>
     <use style="fill:#1f77b4;stroke:#1f77b4;" x="230.692369" xlink:href="#m85721f1865" y="-1"/>
     <use style="fill:#1f77b4;stroke:#1f77b4;" x="231.112302" xlink:href="#m85721f1865" y="-1"/>
     <use style="fill:#1f77b4;stroke:#1f77b4;" x="231.976097" xlink:href="#m85721f1865" y="1092.442937"/>
     <use style="fill:#1f77b4;stroke:#1f77b4;" x="231.976097" xlink:href="#m85721f1865" y="-1"/>
     <use style="fill:#1f77b4;stroke:#1f77b4;" x="233.209832" xlink:href="#m85721f1865" y="-1"/>
     <use style="fill:#1f77b4;stroke:#1f77b4;" x="233.209832" xlink:href="#m85721f1865" y="1060.975423"/>
     <use style="fill:#1f77b4;stroke:#1f77b4;" x="234.393551" xlink:href="#m85721f1865" y="1029.493172"/>
     <use style="fill:#1f77b4;stroke:#1f77b4;" x="234.393552" xlink:href="#m85721f1865" y="-1"/>
     <use style="fill:#1f77b4;stroke:#1f77b4;" x="234.827734" xlink:href="#m85721f1865" y="-1"/>
     <use style="fill:#1f77b4;stroke:#1f77b4;" x="234.941802" xlink:href="#m85721f1865" y="113.854671"/>
     <use style="fill:#1f77b4;stroke:#1f77b4;" x="234.941802" xlink:href="#m85721f1865" y="477.462349"/>
     <use style="fill:#1f77b4;stroke:#1f77b4;" x="235.258603" xlink:href="#m85721f1865" y="-1"/>
     <use style="fill:#1f77b4;stroke:#1f77b4;" x="235.527212" xlink:href="#m85721f1865" y="-1"/>
     <use style="fill:#1f77b4;stroke:#1f77b4;" x="235.527205" xlink:href="#m85721f1865" y="997.997854"/>
     <use style="fill:#1f77b4;stroke:#1f77b4;" x="236.610725" xlink:href="#m85721f1865" y="966.489582"/>
     <use style="fill:#1f77b4;stroke:#1f77b4;" x="236.610775" xlink:href="#m85721f1865" y="-1"/>
     <use style="fill:#1f77b4;stroke:#1f77b4;" x="237.644269" xlink:href="#m85721f1865" y="-1"/>
     <use style="fill:#1f77b4;stroke:#1f77b4;" x="237.644275" xlink:href="#m85721f1865" y="934.977871"/>
     <use style="fill:#1f77b4;stroke:#1f77b4;" x="238.627611" xlink:href="#m85721f1865" y="903.458047"/>
     <use style="fill:#1f77b4;stroke:#1f77b4;" x="238.627611" xlink:href="#m85721f1865" y="-1"/>
     <use style="fill:#1f77b4;stroke:#1f77b4;" x="239.560812" xlink:href="#m85721f1865" y="-1"/>
     <use style="fill:#1f77b4;stroke:#1f77b4;" x="239.560809" xlink:href="#m85721f1865" y="871.935784"/>
     <use style="fill:#1f77b4;stroke:#1f77b4;" x="240.24842" xlink:href="#m85721f1865" y="-1"/>
     <use style="fill:#1f77b4;stroke:#1f77b4;" x="240.443846" xlink:href="#m85721f1865" y="-1"/>
     <use style="fill:#1f77b4;stroke:#1f77b4;" x="240.443846" xlink:href="#m85721f1865" y="840.414385"/>
     <use style="fill:#1f77b4;stroke:#1f77b4;" x="241.276718" xlink:href="#m85721f1865" y="808.897716"/>
     <use style="fill:#1f77b4;stroke:#1f77b4;" x="241.276718" xlink:href="#m85721f1865" y="-1"/>
     <use style="fill:#1f77b4;stroke:#1f77b4;" x="241.447094" xlink:href="#m85721f1865" y="-1"/>
     <use style="fill:#1f77b4;stroke:#1f77b4;" x="242.059425" xlink:href="#m85721f1865" y="777.390212"/>
     <use style="fill:#1f77b4;stroke:#1f77b4;" x="242.059425" xlink:href="#m85721f1865" y="-1"/>
     <use style="fill:#1f77b4;stroke:#1f77b4;" x="242.791975" xlink:href="#m85721f1865" y="-1"/>
     <use style="fill:#1f77b4;stroke:#1f77b4;" x="242.791976" xlink:href="#m85721f1865" y="745.897005"/>
     <use style="fill:#1f77b4;stroke:#1f77b4;" x="243.474388" xlink:href="#m85721f1865" y="714.424037"/>
     <use style="fill:#1f77b4;stroke:#1f77b4;" x="243.474388" xlink:href="#m85721f1865" y="-1"/>
     <use style="fill:#1f77b4;stroke:#1f77b4;" x="243.570174" xlink:href="#m85721f1865" y="-1"/>
     <use style="fill:#1f77b4;stroke:#1f77b4;" x="244.106716" xlink:href="#m85721f1865" y="682.978358"/>
     <use style="fill:#1f77b4;stroke:#1f77b4;" x="244.106712" xlink:href="#m85721f1865" y="-1"/>
     <use style="fill:#1f77b4;stroke:#1f77b4;" x="244.177098" xlink:href="#m85721f1865" y="-1"/>
     <use style="fill:#1f77b4;stroke:#1f77b4;" x="244.571701" xlink:href="#m85721f1865" y="507.267512"/>
     <use style="fill:#1f77b4;stroke:#1f77b4;" x="244.571701" xlink:href="#m85721f1865" y="84.049508"/>
     <use style="fill:#1f77b4;stroke:#1f77b4;" x="244.688999" xlink:href="#m85721f1865" y="651.567978"/>
     <use style="fill:#1f77b4;stroke:#1f77b4;" x="244.688999" xlink:href="#m85721f1865" y="-1"/>
     <use style="fill:#1f77b4;stroke:#1f77b4;" x="244.735353" xlink:href="#m85721f1865" y="-1"/>
     <use style="fill:#1f77b4;stroke:#1f77b4;" x="245.22134" xlink:href="#m85721f1865" y="620.202365"/>
     <use style="fill:#1f77b4;stroke:#1f77b4;" x="245.22134" xlink:href="#m85721f1865" y="-1"/>
     <use style="fill:#1f77b4;stroke:#1f77b4;" x="245.650845" xlink:href="#m85721f1865" y="-1"/>
     <use style="fill:#1f77b4;stroke:#1f77b4;" x="245.703555" xlink:href="#m85721f1865" y="2.42214"/>
     <use style="fill:#1f77b4;stroke:#1f77b4;" x="245.703555" xlink:href="#m85721f1865" y="588.89488"/>
     <use style="fill:#1f77b4;stroke:#1f77b4;" x="246.118598" xlink:href="#m85721f1865" y="33.791166"/>
     <use style="fill:#1f77b4;stroke:#1f77b4;" x="246.118598" xlink:href="#m85721f1865" y="557.525877"/>
     <use style="fill:#1f77b4;stroke:#1f77b4;" x="247.178291" xlink:href="#m85721f1865" y="63.836025"/>
     <use style="fill:#1f77b4;stroke:#1f77b4;" x="247.178291" xlink:href="#m85721f1865" y="527.480969"/>
     <use style="fill:#1f77b4;stroke:#1f77b4;" x="247.857022" xlink:href="#m85721f1865" y="167.069928"/>
     <use style="fill:#1f77b4;stroke:#1f77b4;" x="247.857022" xlink:href="#m85721f1865" y="424.247092"/>
     <use style="fill:#1f77b4;stroke:#1f77b4;" x="259.134114" xlink:href="#m85721f1865" y="488.323024"/>
     <use style="fill:#1f77b4;stroke:#1f77b4;" x="259.134114" xlink:href="#m85721f1865" y="102.993996"/>
     <use style="fill:#1f77b4;stroke:#1f77b4;" x="278.249412" xlink:href="#m85721f1865" y="441.635519"/>
     <use style="fill:#1f77b4;stroke:#1f77b4;" x="278.249412" xlink:href="#m85721f1865" y="149.681501"/>
    </g>
   </g>
   <g id="PathCollection_2">
    <defs>
     <path d="M 0 4.5 
C 1.193414 4.5 2.338109 4.025852 3.181981 3.181981 
C 4.025852 2.338109 4.5 1.193414 4.5 0 
C 4.5 -1.193414 4.025852 -2.338109 3.181981 -3.181981 
C 2.338109 -4.025852 1.193414 -4.5 0 -4.5 
C -1.193414 -4.5 -2.338109 -4.025852 -3.181981 -3.181981 
C -4.025852 -2.338109 -4.5 -1.193414 -4.5 0 
C -4.5 1.193414 -4.025852 2.338109 -3.181981 3.181981 
C -2.338109 4.025852 -1.193414 4.5 0 4.5 
z
" id="ma7e8d6e58a" style="stroke:#ff0000;"/>
    </defs>
    <g clip-path="url(#p5ad4ebc5f8)">
     <use style="fill:#ff0000;stroke:#ff0000;" x="247.857022" xlink:href="#ma7e8d6e58a" y="167.069928"/>
    </g>
   </g>
   <g id="matplotlib.axis_1">
    <g id="xtick_1">
     <g id="line2d_1">
      <defs>
       <path d="M 0 0 
L 0 8 
" id="m145eb504a1" style="stroke:#000000;stroke-width:3;"/>
      </defs>
      <g>
       <use style="stroke:#000000;stroke-width:3;" x="84.48149" xlink:href="#m145eb504a1" y="295.65851"/>
      </g>
     </g>
     <g id="text_1">
      <!-- 0.90 -->
      <defs>
       <path d="M 31.78125 66.40625 
Q 24.171875 66.40625 20.328125 58.90625 
Q 16.5 51.421875 16.5 36.375 
Q 16.5 21.390625 20.328125 13.890625 
Q 24.171875 6.390625 31.78125 6.390625 
Q 39.453125 6.390625 43.28125 13.890625 
Q 47.125 21.390625 47.125 36.375 
Q 47.125 51.421875 43.28125 58.90625 
Q 39.453125 66.40625 31.78125 66.40625 
z
M 31.78125 74.21875 
Q 44.046875 74.21875 50.515625 64.515625 
Q 56.984375 54.828125 56.984375 36.375 
Q 56.984375 17.96875 50.515625 8.265625 
Q 44.046875 -1.421875 31.78125 -1.421875 
Q 19.53125 -1.421875 13.0625 8.265625 
Q 6.59375 17.96875 6.59375 36.375 
Q 6.59375 54.828125 13.0625 64.515625 
Q 19.53125 74.21875 31.78125 74.21875 
z
" id="DejaVuSans-48"/>
       <path d="M 10.6875 12.40625 
L 21 12.40625 
L 21 0 
L 10.6875 0 
z
" id="DejaVuSans-46"/>
       <path d="M 10.984375 1.515625 
L 10.984375 10.5 
Q 14.703125 8.734375 18.5 7.8125 
Q 22.3125 6.890625 25.984375 6.890625 
Q 35.75 6.890625 40.890625 13.453125 
Q 46.046875 20.015625 46.78125 33.40625 
Q 43.953125 29.203125 39.59375 26.953125 
Q 35.25 24.703125 29.984375 24.703125 
Q 19.046875 24.703125 12.671875 31.3125 
Q 6.296875 37.9375 6.296875 49.421875 
Q 6.296875 60.640625 12.9375 67.421875 
Q 19.578125 74.21875 30.609375 74.21875 
Q 43.265625 74.21875 49.921875 64.515625 
Q 56.59375 54.828125 56.59375 36.375 
Q 56.59375 19.140625 48.40625 8.859375 
Q 40.234375 -1.421875 26.421875 -1.421875 
Q 22.703125 -1.421875 18.890625 -0.6875 
Q 15.09375 0.046875 10.984375 1.515625 
z
M 30.609375 32.421875 
Q 37.25 32.421875 41.125 36.953125 
Q 45.015625 41.5 45.015625 49.421875 
Q 45.015625 57.28125 41.125 61.84375 
Q 37.25 66.40625 30.609375 66.40625 
Q 23.96875 66.40625 20.09375 61.84375 
Q 16.21875 57.28125 16.21875 49.421875 
Q 16.21875 41.5 20.09375 36.953125 
Q 23.96875 32.421875 30.609375 32.421875 
z
" id="DejaVuSans-57"/>
      </defs>
      <g transform="translate(66.66899 319.31601)scale(0.16 -0.16)">
       <use xlink:href="#DejaVuSans-48"/>
       <use x="63.623047" xlink:href="#DejaVuSans-46"/>
       <use x="95.410156" xlink:href="#DejaVuSans-57"/>
       <use x="159.033203" xlink:href="#DejaVuSans-48"/>
      </g>
     </g>
    </g>
    <g id="xtick_2">
     <g id="line2d_2">
      <g>
       <use style="stroke:#000000;stroke-width:3;" x="166.157933" xlink:href="#m145eb504a1" y="295.65851"/>
      </g>
     </g>
     <g id="text_2">
      <!-- 0.95 -->
      <defs>
       <path d="M 10.796875 72.90625 
L 49.515625 72.90625 
L 49.515625 64.59375 
L 19.828125 64.59375 
L 19.828125 46.734375 
Q 21.96875 47.46875 24.109375 47.828125 
Q 26.265625 48.1875 28.421875 48.1875 
Q 40.625 48.1875 47.75 41.5 
Q 54.890625 34.8125 54.890625 23.390625 
Q 54.890625 11.625 47.5625 5.09375 
Q 40.234375 -1.421875 26.90625 -1.421875 
Q 22.3125 -1.421875 17.546875 -0.640625 
Q 12.796875 0.140625 7.71875 1.703125 
L 7.71875 11.625 
Q 12.109375 9.234375 16.796875 8.0625 
Q 21.484375 6.890625 26.703125 6.890625 
Q 35.15625 6.890625 40.078125 11.328125 
Q 45.015625 15.765625 45.015625 23.390625 
Q 45.015625 31 40.078125 35.4375 
Q 35.15625 39.890625 26.703125 39.890625 
Q 22.75 39.890625 18.8125 39.015625 
Q 14.890625 38.140625 10.796875 36.28125 
z
" id="DejaVuSans-53"/>
      </defs>
      <g transform="translate(148.345433 319.31601)scale(0.16 -0.16)">
       <use xlink:href="#DejaVuSans-48"/>
       <use x="63.623047" xlink:href="#DejaVuSans-46"/>
       <use x="95.410156" xlink:href="#DejaVuSans-57"/>
       <use x="159.033203" xlink:href="#DejaVuSans-53"/>
      </g>
     </g>
    </g>
    <g id="xtick_3">
     <g id="line2d_3">
      <g>
       <use style="stroke:#000000;stroke-width:3;" x="247.834375" xlink:href="#m145eb504a1" y="295.65851"/>
      </g>
     </g>
     <g id="text_3">
      <!-- 1.00 -->
      <defs>
       <path d="M 12.40625 8.296875 
L 28.515625 8.296875 
L 28.515625 63.921875 
L 10.984375 60.40625 
L 10.984375 69.390625 
L 28.421875 72.90625 
L 38.28125 72.90625 
L 38.28125 8.296875 
L 54.390625 8.296875 
L 54.390625 0 
L 12.40625 0 
z
" id="DejaVuSans-49"/>
      </defs>
      <g transform="translate(230.021875 319.31601)scale(0.16 -0.16)">
       <use xlink:href="#DejaVuSans-49"/>
       <use x="63.623047" xlink:href="#DejaVuSans-46"/>
       <use x="95.410156" xlink:href="#DejaVuSans-48"/>
       <use x="159.033203" xlink:href="#DejaVuSans-48"/>
      </g>
     </g>
    </g>
    <g id="xtick_4">
     <g id="line2d_4">
      <g>
       <use style="stroke:#000000;stroke-width:3;" x="329.510818" xlink:href="#m145eb504a1" y="295.65851"/>
      </g>
     </g>
     <g id="text_4">
      <!-- 1.05 -->
      <g transform="translate(311.698318 319.31601)scale(0.16 -0.16)">
       <use xlink:href="#DejaVuSans-49"/>
       <use x="63.623047" xlink:href="#DejaVuSans-46"/>
       <use x="95.410156" xlink:href="#DejaVuSans-48"/>
       <use x="159.033203" xlink:href="#DejaVuSans-53"/>
      </g>
     </g>
    </g>
    <g id="xtick_5">
     <g id="line2d_5">
      <g>
       <use style="stroke:#000000;stroke-width:3;" x="411.18726" xlink:href="#m145eb504a1" y="295.65851"/>
      </g>
     </g>
     <g id="text_5">
      <!-- 1.10 -->
      <g transform="translate(393.37476 319.31601)scale(0.16 -0.16)">
       <use xlink:href="#DejaVuSans-49"/>
       <use x="63.623047" xlink:href="#DejaVuSans-46"/>
       <use x="95.410156" xlink:href="#DejaVuSans-49"/>
       <use x="159.033203" xlink:href="#DejaVuSans-48"/>
      </g>
     </g>
    </g>
    <g id="text_6">
     <!-- $\Re e\{x\}$ -->
     <defs>
      <path d="M 62.59375 -1.421875 
Q 58.59375 7.515625 58.59375 15.28125 
Q 58.59375 22.125 57.515625 26.5625 
Q 55.5625 34.671875 51.703125 34.671875 
Q 49.65625 34.671875 45.171875 32.5625 
L 39.3125 29.828125 
L 39.3125 20.125 
Q 39.3125 10.0625 34.28125 4.296875 
Q 29.25 -1.421875 22.40625 -1.421875 
Q 15.53125 -1.421875 10.546875 4.296875 
Q 5.515625 10.0625 5.515625 18.65625 
Q 7.71875 18.0625 9.96875 17.484375 
Q 9.96875 11.53125 13.09375 7.328125 
Q 16.21875 3.078125 19.734375 3.078125 
Q 23.25 3.078125 26.3125 7.328125 
Q 29.4375 11.578125 29.4375 18.890625 
L 29.4375 51.46875 
Q 29.4375 58.734375 26.3125 63.03125 
Q 23.25 67.28125 18.75 67.28125 
Q 14.796875 67.28125 11.625 63.03125 
Q 8.5 58.84375 8.5 53.90625 
Q 8.5 48.96875 11.625 44.78125 
Q 14.75 40.53125 18.796875 40.53125 
L 21.4375 36.03125 
Q 14.0625 36.03125 9.078125 41.75 
Q 4.046875 47.515625 4.046875 55.125 
Q 4.046875 62.796875 9.078125 68.5 
Q 14.0625 74.21875 21.4375 74.21875 
Q 29.34375 74.21875 34.28125 68.5 
Q 35.75 66.796875 36.53125 65.234375 
L 46.828125 70.015625 
Q 55.953125 74.265625 61.421875 74.265625 
Q 63.71875 74.265625 65.484375 73.578125 
Q 71.625 71.1875 71.625 62.546875 
Q 71.625 58.296875 68.453125 52.296875 
Q 65.234375 46.234375 59.125 41.65625 
Q 61.96875 41.65625 64.359375 39.265625 
Q 66.109375 37.5 67.4375 32.421875 
Q 69 26.421875 69 20.015625 
Q 69 13.765625 71.1875 8.015625 
L 78.21875 11.28125 
L 80.28125 6.84375 
z
M 38.28125 60.890625 
Q 39.3125 57.234375 39.3125 52.734375 
L 39.3125 35.015625 
L 46.828125 38.484375 
Q 53.859375 41.75 57.625 46.828125 
Q 61.234375 51.8125 61.234375 57.71875 
Q 61.234375 65.09375 57.625 66.65625 
Q 56.453125 67.140625 54.9375 67.140625 
Q 51.8125 67.140625 46.828125 64.84375 
z
" id="DejaVuSans-Oblique-8476"/>
      <path d="M 48.09375 32.234375 
Q 48.25 33.015625 48.3125 33.84375 
Q 48.390625 34.671875 48.390625 35.5 
Q 48.390625 41.453125 44.890625 44.921875 
Q 41.40625 48.390625 35.40625 48.390625 
Q 28.71875 48.390625 23.578125 44.15625 
Q 18.453125 39.9375 15.828125 32.171875 
z
M 55.90625 25.203125 
L 14.109375 25.203125 
Q 13.8125 23.34375 13.71875 22.265625 
Q 13.625 21.1875 13.625 20.40625 
Q 13.625 13.625 17.796875 9.90625 
Q 21.96875 6.203125 29.59375 6.203125 
Q 35.453125 6.203125 40.671875 7.515625 
Q 45.90625 8.84375 50.390625 11.375 
L 48.6875 2.484375 
Q 43.84375 0.53125 38.6875 -0.4375 
Q 33.546875 -1.421875 28.21875 -1.421875 
Q 16.84375 -1.421875 10.71875 4.015625 
Q 4.59375 9.46875 4.59375 19.484375 
Q 4.59375 28.03125 7.640625 35.375 
Q 10.6875 42.71875 16.609375 48.484375 
Q 20.40625 52.09375 25.65625 54.046875 
Q 30.90625 56 36.8125 56 
Q 46.09375 56 51.578125 50.4375 
Q 57.078125 44.875 57.078125 35.5 
Q 57.078125 33.25 56.78125 30.6875 
Q 56.5 28.125 55.90625 25.203125 
z
" id="DejaVuSans-Oblique-101"/>
      <path d="M 51.125 -9.28125 
L 51.125 -16.3125 
L 48.09375 -16.3125 
Q 35.9375 -16.3125 31.8125 -12.6875 
Q 27.6875 -9.078125 27.6875 1.703125 
L 27.6875 13.375 
Q 27.6875 20.75 25.046875 23.578125 
Q 22.40625 26.421875 15.484375 26.421875 
L 12.5 26.421875 
L 12.5 33.40625 
L 15.484375 33.40625 
Q 22.46875 33.40625 25.078125 36.203125 
Q 27.6875 39.015625 27.6875 46.296875 
L 27.6875 58.015625 
Q 27.6875 68.796875 31.8125 72.390625 
Q 35.9375 75.984375 48.09375 75.984375 
L 51.125 75.984375 
L 51.125 69 
L 47.796875 69 
Q 40.921875 69 38.8125 66.84375 
Q 36.71875 64.703125 36.71875 57.8125 
L 36.71875 45.703125 
Q 36.71875 38.03125 34.5 34.5625 
Q 32.28125 31.109375 26.90625 29.890625 
Q 32.328125 28.5625 34.515625 25.09375 
Q 36.71875 21.625 36.71875 14.015625 
L 36.71875 1.90625 
Q 36.71875 -4.984375 38.8125 -7.125 
Q 40.921875 -9.28125 47.796875 -9.28125 
z
" id="DejaVuSans-123"/>
      <path d="M 60.015625 54.6875 
L 34.90625 27.875 
L 50.296875 0 
L 39.984375 0 
L 28.421875 21.6875 
L 8.296875 0 
L -2.59375 0 
L 24.3125 28.8125 
L 10.015625 54.6875 
L 20.3125 54.6875 
L 30.8125 34.90625 
L 49.125 54.6875 
z
" id="DejaVuSans-Oblique-120"/>
      <path d="M 12.5 -9.28125 
L 15.921875 -9.28125 
Q 22.75 -9.28125 24.828125 -7.171875 
Q 26.90625 -5.078125 26.90625 1.90625 
L 26.90625 14.015625 
Q 26.90625 21.625 29.09375 25.09375 
Q 31.296875 28.5625 36.71875 29.890625 
Q 31.296875 31.109375 29.09375 34.5625 
Q 26.90625 38.03125 26.90625 45.703125 
L 26.90625 57.8125 
Q 26.90625 64.75 24.828125 66.875 
Q 22.75 69 15.921875 69 
L 12.5 69 
L 12.5 75.984375 
L 15.578125 75.984375 
Q 27.734375 75.984375 31.8125 72.390625 
Q 35.890625 68.796875 35.890625 58.015625 
L 35.890625 46.296875 
Q 35.890625 39.015625 38.515625 36.203125 
Q 41.15625 33.40625 48.09375 33.40625 
L 51.125 33.40625 
L 51.125 26.421875 
L 48.09375 26.421875 
Q 41.15625 26.421875 38.515625 23.578125 
Q 35.890625 20.75 35.890625 13.375 
L 35.890625 1.703125 
Q 35.890625 -9.078125 31.8125 -12.6875 
Q 27.734375 -16.3125 15.578125 -16.3125 
L 12.5 -16.3125 
z
" id="DejaVuSans-125"/>
     </defs>
     <g transform="translate(214.834375 352.840385)scale(0.2 -0.2)">
      <use transform="translate(0 0.015625)" xlink:href="#DejaVuSans-Oblique-8476"/>
      <use transform="translate(81.396484 0.015625)" xlink:href="#DejaVuSans-Oblique-101"/>
      <use transform="translate(142.919922 0.015625)" xlink:href="#DejaVuSans-123"/>
      <use transform="translate(206.542969 0.015625)" xlink:href="#DejaVuSans-Oblique-120"/>
      <use transform="translate(265.722656 0.015625)" xlink:href="#DejaVuSans-125"/>
     </g>
    </g>
   </g>
   <g id="matplotlib.axis_2">
    <g id="ytick_1">
     <g id="line2d_6">
      <defs>
       <path d="M 0 0 
L -8 0 
" id="ma7f193319d" style="stroke:#000000;stroke-width:3;"/>
      </defs>
      <g>
       <use style="stroke:#000000;stroke-width:3;" x="84.48149" xlink:href="#ma7f193319d" y="295.65851"/>
      </g>
     </g>
     <g id="text_7">
      <!-- 0.00 -->
      <g transform="translate(37.35649 301.73726)scale(0.16 -0.16)">
       <use xlink:href="#DejaVuSans-48"/>
       <use x="63.623047" xlink:href="#DejaVuSans-46"/>
       <use x="95.410156" xlink:href="#DejaVuSans-48"/>
       <use x="159.033203" xlink:href="#DejaVuSans-48"/>
      </g>
     </g>
    </g>
    <g id="ytick_2">
     <g id="line2d_7">
      <g>
       <use style="stroke:#000000;stroke-width:3;" x="84.48149" xlink:href="#ma7f193319d" y="238.342606"/>
      </g>
     </g>
     <g id="text_8">
      <!-- 0.01 -->
      <g transform="translate(37.35649 244.421356)scale(0.16 -0.16)">
       <use xlink:href="#DejaVuSans-48"/>
       <use x="63.623047" xlink:href="#DejaVuSans-46"/>
       <use x="95.410156" xlink:href="#DejaVuSans-48"/>
       <use x="159.033203" xlink:href="#DejaVuSans-49"/>
      </g>
     </g>
    </g>
    <g id="ytick_3">
     <g id="line2d_8">
      <g>
       <use style="stroke:#000000;stroke-width:3;" x="84.48149" xlink:href="#ma7f193319d" y="181.026702"/>
      </g>
     </g>
     <g id="text_9">
      <!-- 0.02 -->
      <defs>
       <path d="M 19.1875 8.296875 
L 53.609375 8.296875 
L 53.609375 0 
L 7.328125 0 
L 7.328125 8.296875 
Q 12.9375 14.109375 22.625 23.890625 
Q 32.328125 33.6875 34.8125 36.53125 
Q 39.546875 41.84375 41.421875 45.53125 
Q 43.3125 49.21875 43.3125 52.78125 
Q 43.3125 58.59375 39.234375 62.25 
Q 35.15625 65.921875 28.609375 65.921875 
Q 23.96875 65.921875 18.8125 64.3125 
Q 13.671875 62.703125 7.8125 59.421875 
L 7.8125 69.390625 
Q 13.765625 71.78125 18.9375 73 
Q 24.125 74.21875 28.421875 74.21875 
Q 39.75 74.21875 46.484375 68.546875 
Q 53.21875 62.890625 53.21875 53.421875 
Q 53.21875 48.921875 51.53125 44.890625 
Q 49.859375 40.875 45.40625 35.40625 
Q 44.1875 33.984375 37.640625 27.21875 
Q 31.109375 20.453125 19.1875 8.296875 
z
" id="DejaVuSans-50"/>
      </defs>
      <g transform="translate(37.35649 187.105452)scale(0.16 -0.16)">
       <use xlink:href="#DejaVuSans-48"/>
       <use x="63.623047" xlink:href="#DejaVuSans-46"/>
       <use x="95.410156" xlink:href="#DejaVuSans-48"/>
       <use x="159.033203" xlink:href="#DejaVuSans-50"/>
      </g>
     </g>
    </g>
    <g id="ytick_4">
     <g id="line2d_9">
      <g>
       <use style="stroke:#000000;stroke-width:3;" x="84.48149" xlink:href="#ma7f193319d" y="123.710798"/>
      </g>
     </g>
     <g id="text_10">
      <!-- 0.03 -->
      <defs>
       <path d="M 40.578125 39.3125 
Q 47.65625 37.796875 51.625 33 
Q 55.609375 28.21875 55.609375 21.1875 
Q 55.609375 10.40625 48.1875 4.484375 
Q 40.765625 -1.421875 27.09375 -1.421875 
Q 22.515625 -1.421875 17.65625 -0.515625 
Q 12.796875 0.390625 7.625 2.203125 
L 7.625 11.71875 
Q 11.71875 9.328125 16.59375 8.109375 
Q 21.484375 6.890625 26.8125 6.890625 
Q 36.078125 6.890625 40.9375 10.546875 
Q 45.796875 14.203125 45.796875 21.1875 
Q 45.796875 27.640625 41.28125 31.265625 
Q 36.765625 34.90625 28.71875 34.90625 
L 20.21875 34.90625 
L 20.21875 43.015625 
L 29.109375 43.015625 
Q 36.375 43.015625 40.234375 45.921875 
Q 44.09375 48.828125 44.09375 54.296875 
Q 44.09375 59.90625 40.109375 62.90625 
Q 36.140625 65.921875 28.71875 65.921875 
Q 24.65625 65.921875 20.015625 65.03125 
Q 15.375 64.15625 9.8125 62.3125 
L 9.8125 71.09375 
Q 15.4375 72.65625 20.34375 73.4375 
Q 25.25 74.21875 29.59375 74.21875 
Q 40.828125 74.21875 47.359375 69.109375 
Q 53.90625 64.015625 53.90625 55.328125 
Q 53.90625 49.265625 50.4375 45.09375 
Q 46.96875 40.921875 40.578125 39.3125 
z
" id="DejaVuSans-51"/>
      </defs>
      <g transform="translate(37.35649 129.789548)scale(0.16 -0.16)">
       <use xlink:href="#DejaVuSans-48"/>
       <use x="63.623047" xlink:href="#DejaVuSans-46"/>
       <use x="95.410156" xlink:href="#DejaVuSans-48"/>
       <use x="159.033203" xlink:href="#DejaVuSans-51"/>
      </g>
     </g>
    </g>
    <g id="ytick_5">
     <g id="line2d_10">
      <g>
       <use style="stroke:#000000;stroke-width:3;" x="84.48149" xlink:href="#ma7f193319d" y="66.394894"/>
      </g>
     </g>
     <g id="text_11">
      <!-- 0.04 -->
      <defs>
       <path d="M 37.796875 64.3125 
L 12.890625 25.390625 
L 37.796875 25.390625 
z
M 35.203125 72.90625 
L 47.609375 72.90625 
L 47.609375 25.390625 
L 58.015625 25.390625 
L 58.015625 17.1875 
L 47.609375 17.1875 
L 47.609375 0 
L 37.796875 0 
L 37.796875 17.1875 
L 4.890625 17.1875 
L 4.890625 26.703125 
z
" id="DejaVuSans-52"/>
      </defs>
      <g transform="translate(37.35649 72.473644)scale(0.16 -0.16)">
       <use xlink:href="#DejaVuSans-48"/>
       <use x="63.623047" xlink:href="#DejaVuSans-46"/>
       <use x="95.410156" xlink:href="#DejaVuSans-48"/>
       <use x="159.033203" xlink:href="#DejaVuSans-52"/>
      </g>
     </g>
    </g>
    <g id="ytick_6">
     <g id="line2d_11">
      <g>
       <use style="stroke:#000000;stroke-width:3;" x="84.48149" xlink:href="#ma7f193319d" y="9.07899"/>
      </g>
     </g>
     <g id="text_12">
      <!-- 0.05 -->
      <g transform="translate(37.35649 15.15774)scale(0.16 -0.16)">
       <use xlink:href="#DejaVuSans-48"/>
       <use x="63.623047" xlink:href="#DejaVuSans-46"/>
       <use x="95.410156" xlink:href="#DejaVuSans-48"/>
       <use x="159.033203" xlink:href="#DejaVuSans-53"/>
      </g>
     </g>
    </g>
    <g id="text_13">
     <!-- $\Im m\{x\}$ -->
     <defs>
      <path d="M 5.171875 4.390625 
L 12.015625 12.453125 
Q 17.4375 14.359375 23.140625 14.359375 
Q 25.921875 14.359375 32.375 10.453125 
Q 39.40625 6.25 41.015625 6.25 
Q 46.921875 6.25 51.8125 12.9375 
Q 55.28125 17.671875 55.28125 21.34375 
Q 55.28125 27.484375 52.25 32.953125 
Q 48.34375 40.09375 48.34375 45.40625 
Q 48.34375 50.296875 52.25 58.109375 
L 62.640625 64.9375 
Q 58.734375 58.15625 58.734375 52.25 
Q 58.734375 47.015625 62.640625 39.796875 
Q 65.234375 35.015625 65.234375 25.828125 
Q 65.234375 21.234375 55.375 9.421875 
Q 46.296875 -1.421875 34.46875 -1.421875 
Q 31.84375 -1.421875 25.53125 2.4375 
Q 19.046875 6.34375 16.3125 6.34375 
Q 11.71875 6.34375 5.171875 4.390625 
z
M 17.09375 71.484375 
Q 22.40625 74.21875 29.296875 74.21875 
Q 35.296875 74.21875 41.5 71.828125 
Q 47.46875 69.53125 53.71875 69.53125 
Q 59.8125 69.53125 65.921875 72.359375 
L 56.15625 64.0625 
Q 49.359375 61.234375 43.953125 61.234375 
Q 36.96875 61.234375 31.734375 63.625 
Q 26.515625 66.015625 19.53125 66.015625 
Q 13.578125 66.015625 7.328125 63.1875 
z
" id="DejaVuSans-Oblique-8465"/>
      <path d="M 89.796875 33.015625 
L 83.40625 0 
L 74.421875 0 
L 80.71875 32.71875 
Q 81.109375 34.8125 81.296875 36.328125 
Q 81.5 37.84375 81.5 38.921875 
Q 81.5 43.3125 79.046875 45.75 
Q 76.609375 48.1875 72.21875 48.1875 
Q 65.671875 48.1875 60.546875 43.28125 
Q 55.421875 38.375 53.90625 30.515625 
L 47.90625 0 
L 38.921875 0 
L 45.3125 32.71875 
Q 45.703125 34.515625 45.890625 36.046875 
Q 46.09375 37.59375 46.09375 38.8125 
Q 46.09375 43.265625 43.65625 45.71875 
Q 41.21875 48.1875 36.921875 48.1875 
Q 30.28125 48.1875 25.140625 43.28125 
Q 20.015625 38.375 18.5 30.515625 
L 12.5 0 
L 3.515625 0 
L 14.203125 54.6875 
L 23.1875 54.6875 
L 21.484375 46.1875 
Q 25.140625 50.984375 30.046875 53.484375 
Q 34.96875 56 40.578125 56 
Q 46.53125 56 50.359375 52.875 
Q 54.203125 49.75 54.984375 44.1875 
Q 59.078125 49.953125 64.46875 52.96875 
Q 69.875 56 75.875 56 
Q 82.90625 56 86.734375 51.953125 
Q 90.578125 47.90625 90.578125 40.484375 
Q 90.578125 38.875 90.375 36.9375 
Q 90.1875 35.015625 89.796875 33.015625 
z
" id="DejaVuSans-Oblique-109"/>
     </defs>
     <g transform="translate(18.197115 187.76875)rotate(-90)scale(0.2 -0.2)">
      <use transform="translate(0 0.015625)" xlink:href="#DejaVuSans-Oblique-8465"/>
      <use transform="translate(69.726562 0.015625)" xlink:href="#DejaVuSans-Oblique-109"/>
      <use transform="translate(167.138672 0.015625)" xlink:href="#DejaVuSans-123"/>
      <use transform="translate(230.761719 0.015625)" xlink:href="#DejaVuSans-Oblique-120"/>
      <use transform="translate(289.941406 0.015625)" xlink:href="#DejaVuSans-125"/>
     </g>
    </g>
   </g>
   <g id="line2d_12">
    <path clip-path="url(#p5ad4ebc5f8)" d="M 247.834375 361 
L 247.834375 -1 
" style="fill:none;stroke:#000000;stroke-dasharray:7.4,3.2;stroke-dashoffset:0;stroke-width:2;"/>
   </g>
   <g id="patch_3">
    <path d="M 84.48149 295.65851 
L 84.48149 9.07899 
" style="fill:none;stroke:#000000;stroke-linecap:square;stroke-linejoin:miter;stroke-width:3;"/>
   </g>
   <g id="patch_4">
    <path d="M 411.18726 295.65851 
L 411.18726 9.07899 
" style="fill:none;stroke:#000000;stroke-linecap:square;stroke-linejoin:miter;stroke-width:3;"/>
   </g>
   <g id="patch_5">
    <path d="M 84.48149 295.65851 
L 411.18726 295.65851 
" style="fill:none;stroke:#000000;stroke-linecap:square;stroke-linejoin:miter;stroke-width:3;"/>
   </g>
   <g id="patch_6">
    <path d="M 84.48149 9.07899 
L 411.18726 9.07899 
" style="fill:none;stroke:#000000;stroke-linecap:square;stroke-linejoin:miter;stroke-width:3;"/>
   </g>
  </g>
 </g>
 <defs>
  <clipPath id="p5ad4ebc5f8">
   <rect height="286.57952" width="326.70577" x="84.48149" y="9.07899"/>
  </clipPath>
 </defs>
</svg>
